<svg width="36" height="36" viewBox="0 0 36 36" fill="none" xmlns="http://www.w3.org/2000/svg">
<g clip-path="url(#clip0)">
<path d="M34 13C35 15 35.375 16.66 35.734 19.929C36.129 23.513 35.343 26.37 35 27C34.61 27.716 32.633 30.025 30 32C26 35 20 36 18 36C16 36 10 35 6 32C3.367 30.025 1.39 27.716 1 27C0.657 26.37 -0.129 23.513 0.266 19.929C0.625 16.66 1 15 2 13C4.68071 8.65126 6.37833 6.40782 11 4.00001C11 4.00001 15 3.00201 18 3.00201C21 3.00201 25 4.00001 25 4.00001C29.9477 6.63762 31.7823 8.69082 34 13Z" fill="#AA8DD8"/>
<path d="M18 19.5C21 19.5 21 20 21 21C21 22 19.5 24 18 24C16.5 24 15 22 15 21C15 20 14.999 19.5 18 19.5Z" fill="#E75A70"/>
<path d="M10 4.39052C7.42 4.39052 4.369 1.68379 3.414 0.643252C2.843 0.0154138 1.981 -0.172279 1.235 0.167983C0.487 0.507147 0 1.30731 0 2.19528C0 5.99195 1.672 13.1715 8 13.1715C8.757 13.1715 9.45 12.7017 9.789 11.9575L11.789 7.56703C12.099 6.88651 12.066 6.07866 11.701 5.43106C11.337 4.78457 10.693 4.39052 10 4.39052ZM34.766 0.167983C34.016 -0.173377 33.159 0.0154138 32.586 0.644349C31.7 1.61574 28.589 4.39052 26 4.39052C25.307 4.39052 24.663 4.78457 24.299 5.43216C23.935 6.07866 23.902 6.8876 24.211 7.56813L26.211 11.9586C26.55 12.7017 27.242 13.1715 28 13.1715C34.328 13.1715 36 5.99195 36 2.19528C36 1.30731 35.513 0.507147 34.766 0.167983V0.167983Z" fill="#AA8DD8"/>
<path d="M0.701004 25C0.553004 25 0.407004 24.935 0.308004 24.81C0.137004 24.593 0.174004 24.279 0.391004 24.108C0.553004 23.981 4.411 20.988 11.039 21.503C11.314 21.523 11.52 21.764 11.499 22.039C11.478 22.314 11.242 22.54 10.962 22.499C4.729 22.025 1.047 24.865 1.011 24.894C0.918004 24.965 0.809004 25 0.701004 25V25ZM9.569 20.337C9.52 20.337 9.469 20.33 9.42 20.315C4.63 18.818 0.683004 19.968 0.643004 19.979C0.378004 20.06 0.100004 19.909 0.0200041 19.644C-0.0589959 19.379 0.091004 19.101 0.355004 19.022C0.528004 18.97 4.641 17.775 9.717 19.36C9.981 19.443 10.128 19.723 10.045 19.987C9.979 20.2 9.782 20.337 9.569 20.337V20.337ZM35.299 25C35.447 25 35.593 24.935 35.692 24.81C35.863 24.593 35.826 24.279 35.609 24.108C35.447 23.981 31.589 20.988 24.961 21.503C24.686 21.523 24.48 21.764 24.501 22.039C24.522 22.314 24.758 22.54 25.038 22.499C31.271 22.025 34.953 24.865 34.989 24.894C35.082 24.965 35.191 25 35.299 25V25ZM26.431 20.337C26.48 20.337 26.531 20.33 26.58 20.315C31.37 18.818 35.317 19.968 35.357 19.979C35.622 20.06 35.9 19.909 35.98 19.644C36.059 19.379 35.909 19.101 35.645 19.022C35.472 18.97 31.359 17.775 26.283 19.36C26.019 19.443 25.872 19.723 25.955 19.987C26.02 20.2 26.218 20.337 26.431 20.337V20.337Z" fill="#FEE7B8"/>
<path d="M15.8955 11.212L9.89548 8.212C8.90748 7.718 7.70648 8.119 7.21148 9.107C6.71748 10.095 7.11848 11.296 8.10648 11.791L12.3185 13.897C12.0125 14.43 12.0015 15.002 12.0015 15.002V17.002C12.0015 17.002 12.0015 19.002 14.0015 19.002C16.0015 19.002 16.0015 17.002 16.0015 17.002V15.002C16.0015 15.002 15.9985 14.893 15.9765 14.739C16.3145 14.55 16.6045 14.268 16.7905 13.896C17.2845 12.908 16.8835 11.707 15.8955 11.212ZM28.7905 9.107C28.2975 8.121 27.0965 7.716 26.1065 8.212L20.1065 11.212C19.1185 11.706 18.7175 12.907 19.2115 13.896C19.3975 14.268 19.6875 14.55 20.0255 14.739C20.0045 14.893 20.0015 15.002 20.0015 15.002V17.002C20.0015 17.002 20.0015 19.002 22.0015 19.002C24.0015 19.002 24.0015 17.002 24.0015 17.002V15.002C24.0015 15.002 23.9905 14.43 23.6835 13.897L27.8955 11.791C28.8845 11.296 29.2845 10.095 28.7905 9.107Z" fill="#553986"/>
<path d="M24.5816 29.848C24.5426 29.683 23.5966 26 18.2996 26C13.0086 26 12.0546 29.69 12.0176 29.848C11.9546 30.108 12.0646 30.373 12.2916 30.509C12.5186 30.644 12.8066 30.607 12.9946 30.417C13.0096 30.401 14.5776 28.895 18.3006 28.895C22.0236 28.895 23.5916 30.402 23.6056 30.416C23.7136 30.528 23.8646 30.592 24.0176 30.592C24.1176 30.592 24.2166 30.566 24.3066 30.513C24.5306 30.379 24.6446 30.106 24.5816 29.848Z" fill="#553986"/>
</g>
<defs>
<clipPath id="clip0">
<rect width="36" height="36" fill="#FFFFFF"/>
</clipPath>
</defs>
</svg>
