<svg width="36" height="36" viewBox="0 0 36 36" fill="none" xmlns="http://www.w3.org/2000/svg">
<g clip-path="url(#clip0)">
<path d="M35.734 19.929C35.375 16.66 35 15 34 13C34 13 37 4 35 0.300003C34.326 -0.945997 27.596 1.988 25 4C25 4 21 3.002 18 3.002C15 3.002 11 4 11 4C8.404 1.988 1.674 -0.945997 1 0.300003C-1 4 2 13 2 13C1 15 0.625 16.66 0.266 19.929C-0.129 23.513 0.657 26.37 1 27C1.39 27.716 3.367 30.025 6 32C10 35 16 36 18 36C20 36 26 35 30 32C32.633 30.025 34.61 27.716 35 27C35.343 26.37 36.129 23.513 35.734 19.929V19.929Z" fill="#FFCC4D"/>
<path d="M18 19.5C21 19.5 21 20 21 21C21 22 19.5 24 18 24C16.5 24 15 22 15 21C15 20 14.999 19.5 18 19.5Z" fill="#E75A70"/>
<path d="M2 3.00003C2.447 1.65803 7.64 4.00003 8.64 5.00003C8.64 5.00003 4 8.00003 3 11C3 11 1 6.00003 2 3.00003ZM34 3.00003C33.553 1.65803 28.36 4.00003 27.36 5.00003C27.36 5.00003 32 8.00003 33 11C33 11 35 6.00003 34 3.00003Z" fill="#F18F26"/>
<path d="M4.93399 5.603C4.93399 4.189 11 7 9.99999 8C8.99999 9 7.99999 9.603 6.99999 10.603C5.99999 11.603 4.93399 6.603 4.93399 5.603ZM31.066 5.603C31.066 4.189 25 7 26 8C27 9 28 9.603 29 10.603C30 11.603 31.066 6.603 31.066 5.603V5.603Z" fill="#FFCC4D"/>
<path d="M0.701004 25C0.553004 25 0.407004 24.935 0.308004 24.81C0.137004 24.593 0.174004 24.279 0.391004 24.108C0.553004 23.981 4.411 20.988 11.039 21.503C11.314 21.523 11.52 21.764 11.499 22.039C11.478 22.314 11.242 22.54 10.962 22.499C4.729 22.025 1.047 24.865 1.011 24.894C0.918004 24.965 0.809004 25 0.701004 25V25ZM9.569 20.337C9.52 20.337 9.469 20.33 9.42 20.315C4.63 18.818 0.683004 19.968 0.643004 19.979C0.378004 20.06 0.100004 19.909 0.0200041 19.644C-0.0589959 19.379 0.091004 19.101 0.355004 19.022C0.528004 18.97 4.641 17.775 9.717 19.36C9.981 19.443 10.128 19.723 10.045 19.987C9.979 20.2 9.782 20.337 9.569 20.337V20.337ZM35.299 25C35.447 25 35.593 24.935 35.692 24.81C35.863 24.593 35.826 24.279 35.609 24.108C35.447 23.981 31.589 20.988 24.961 21.503C24.686 21.523 24.48 21.764 24.501 22.039C24.522 22.314 24.758 22.54 25.038 22.499C31.271 22.025 34.953 24.865 34.989 24.894C35.082 24.965 35.191 25 35.299 25V25ZM26.431 20.337C26.48 20.337 26.531 20.33 26.58 20.315C31.37 18.818 35.317 19.968 35.357 19.979C35.622 20.06 35.9 19.909 35.98 19.644C36.059 19.379 35.909 19.101 35.645 19.022C35.472 18.97 31.359 17.775 26.283 19.36C26.019 19.443 25.872 19.723 25.955 19.987C26.02 20.2 26.218 20.337 26.431 20.337V20.337Z" fill="#FEE7B8"/>
<path d="M28.312 15.7271C28.137 15.5851 27.886 15.5801 27.702 15.7131C27.69 15.7221 26.441 16.6151 24 16.6151C21.56 16.6151 20.3099 15.7221 20.2999 15.7151C20.1169 15.5781 19.8649 15.5821 19.6889 15.7241C19.5109 15.8661 19.4509 16.1101 19.5429 16.3181C19.6029 16.4531 21.043 19.6151 24 19.6151C26.958 19.6151 28.397 16.4531 28.457 16.3181C28.549 16.1111 28.489 15.8691 28.312 15.7271ZM15.702 15.7131C15.69 15.7221 14.442 16.6151 12 16.6151C9.55895 16.6151 8.30995 15.7221 8.29995 15.7151C8.11695 15.5781 7.86595 15.5821 7.68895 15.7241C7.51095 15.8661 7.45095 16.1101 7.54295 16.3181C7.60295 16.4531 9.04295 19.6151 12 19.6151C14.958 19.6151 16.397 16.4531 16.457 16.3181C16.549 16.1111 16.489 15.8691 16.312 15.7271C16.136 15.5841 15.884 15.5801 15.702 15.7131ZM29.0009 13.1151C28.6959 13.1151 28.397 12.9771 28.2 12.7151C25.608 9.25914 21.2389 10.0871 21.1959 10.0951C20.6489 10.2031 20.1279 9.85214 20.0189 9.31114C19.9109 8.77014 20.2619 8.24314 20.8029 8.13414C21.0339 8.08714 26.46 7.06214 29.799 11.5141C30.131 11.9561 30.041 12.5831 29.599 12.9141C29.42 13.0501 29.2099 13.1151 29.0009 13.1151ZM6.99895 13.1151C6.79095 13.1151 6.57995 13.0501 6.39995 12.9151C5.95795 12.5841 5.86895 11.9571 6.19995 11.5151C9.53895 7.06114 14.966 8.08914 15.196 8.13514C15.738 8.24314 16.0889 8.77014 15.9799 9.31214C15.8719 9.85214 15.346 10.2031 14.806 10.0971C14.62 10.0621 10.37 9.28914 7.79995 12.7151C7.60395 12.9771 7.30295 13.1151 6.99895 13.1151Z" fill="#292F33"/>
<path d="M23.2532 27.0769C23.0652 26.9659 22.8212 26.9909 22.6562 27.1369C22.6462 27.1449 21.6432 27.9999 17.9992 27.9999C14.3582 27.9999 13.3532 27.1459 13.3532 27.1459C13.1942 26.9859 12.9492 26.9559 12.7532 27.0639C12.5582 27.1749 12.4602 27.4029 12.5152 27.6209C12.5252 27.6649 13.6592 31.9999 17.9992 31.9999C22.3392 31.9999 23.4732 27.6649 23.4842 27.6209C23.5372 27.4079 23.4402 27.1899 23.2532 27.0769Z" fill="#292F33"/>
<path fill-rule="evenodd" clip-rule="evenodd" d="M19.2151 27.9649C19.4504 28.842 19.8787 30 20.5 30C21.5 30 22 29 22 29L22.4304 27.2784C22.0435 27.4834 21.1057 27.8507 19.2151 27.9649Z" fill="#F5F8FA"/>
</g>
<defs>
<clipPath id="clip0">
<rect width="36" height="36" fill="#FFFFFF"/>
</clipPath>
</defs>
</svg>
