<svg width="36" height="36" viewBox="0 0 36 36" fill="none" xmlns="http://www.w3.org/2000/svg">
<g clip-path="url(#clip0)">
<path d="M35.734 19.929C35.375 16.66 35 15 34 13C34 13 37 4 35 0.300003C34.326 -0.945997 27.596 1.988 25 4C25 4 21 3.002 18 3.002C15 3.002 11 4 11 4C8.404 1.988 1.674 -0.945997 1 0.300003C-1 4 2 13 2 13C1 15 0.625 16.66 0.266 19.929C-0.129 23.513 0.657 26.37 1 27C1.39 27.716 3.367 30.025 6 32C10 35 16 36 18 36C20 36 26 35 30 32C32.633 30.025 34.61 27.716 35 27C35.343 26.37 36.129 23.513 35.734 19.929V19.929Z" fill="#FFCC4D"/>
<path d="M29.5028 24.52C29.8258 23.771 29.9638 23.263 29.9688 23.243C30.1028 22.709 29.7788 22.168 29.2438 22.033C28.7078 21.897 28.1668 22.221 28.0288 22.756C27.9548 23.051 26.0808 30 17.9998 30C9.91884 30 8.04484 23.051 7.96984 22.755C7.83184 22.221 7.29084 21.897 6.75484 22.032C6.22084 22.167 5.89684 22.708 6.02984 23.242C6.05184 23.33 8.33084 32 17.9998 32C19.6498 32 21.0698 31.734 22.3148 31.315C26.6448 29.857 28.6888 26.405 29.5028 24.52Z" fill="#292F33"/>
<path d="M32.4069 27.681L29.4509 24.63C29.4509 24.63 28.7709 24.192 28.1779 25.198C27.3979 26.52 26.1029 28.133 24.2439 29.369C23.4629 29.888 22.1049 30.558 21.5469 30.687C20.8119 30.856 21.1589 31.651 21.1589 31.651C21.7439 31.524 22.2099 31.35 22.2099 31.35L22.5059 31.646L25.2319 34.372C26.9599 36.1 30.2319 36.372 32.2319 34.372C34.2319 32.372 34.1359 29.41 32.4069 27.681V27.681Z" fill="#E75B70"/>
<path d="M29.9149 32.074C30.1279 31.861 30.1279 31.516 29.9149 31.303L26.2859 27.674L25.4899 28.422L29.1429 32.075C29.3559 32.287 29.7019 32.287 29.9149 32.074V32.074Z" fill="#DE3146"/>
<path d="M18 19.5C21 19.5 21 20 21 21C21 22 19.5 24 18 24C16.5 24 15 22 15 21C15 20 14.999 19.5 18 19.5Z" fill="#E75A70"/>
<path d="M2 3.00003C2.447 1.65803 7.64 4.00003 8.64 5.00003C8.64 5.00003 4 8.00003 3 11C3 11 1 6.00003 2 3.00003ZM34 3.00003C33.553 1.65803 28.36 4.00003 27.36 5.00003C27.36 5.00003 32 8.00003 33 11C33 11 35 6.00003 34 3.00003Z" fill="#F18F26"/>
<path d="M4.93401 5.603C4.93401 4.189 11 7 10 8C9.00001 9 8.00001 9.603 7.00001 10.603C6.00001 11.603 4.93401 6.603 4.93401 5.603ZM31.066 5.603C31.066 4.189 25 7 26 8C27 9 28 9.603 29 10.603C30 11.603 31.066 6.603 31.066 5.603V5.603Z" fill="#FFCC4D"/>
<path d="M0.701004 25C0.553004 25 0.407004 24.935 0.308004 24.81C0.137004 24.593 0.174004 24.279 0.391004 24.108C0.553004 23.981 4.411 20.988 11.039 21.503C11.314 21.523 11.52 21.764 11.499 22.039C11.478 22.314 11.242 22.54 10.962 22.499C4.729 22.025 1.047 24.865 1.011 24.894C0.918004 24.965 0.809004 25 0.701004 25V25ZM9.569 20.337C9.52 20.337 9.469 20.33 9.42 20.315C4.63 18.818 0.683004 19.968 0.643004 19.979C0.378004 20.06 0.100004 19.909 0.0200041 19.644C-0.0589959 19.379 0.091004 19.101 0.355004 19.022C0.528004 18.97 4.641 17.775 9.717 19.36C9.981 19.443 10.128 19.723 10.045 19.987C9.979 20.2 9.782 20.337 9.569 20.337V20.337ZM35.299 25C35.447 25 35.593 24.935 35.692 24.81C35.863 24.593 35.826 24.279 35.609 24.108C35.447 23.981 31.589 20.988 24.961 21.503C24.686 21.523 24.48 21.764 24.501 22.039C24.522 22.314 24.758 22.54 25.038 22.499C31.271 22.025 34.953 24.865 34.989 24.894C35.082 24.965 35.191 25 35.299 25V25ZM26.431 20.337C26.48 20.337 26.531 20.33 26.58 20.315C31.37 18.818 35.317 19.968 35.357 19.979C35.622 20.06 35.9 19.909 35.98 19.644C36.059 19.379 35.909 19.101 35.645 19.022C35.472 18.97 31.359 17.775 26.283 19.36C26.019 19.443 25.872 19.723 25.955 19.987C26.02 20.2 26.218 20.337 26.431 20.337V20.337Z" fill="#FEE7B8"/>
<path d="M28.416 17.723C28.355 17.632 26.901 15.5 24 15.5C21.1 15.5 19.645 17.632 19.584 17.723C19.449 17.925 19.48 18.193 19.655 18.361C19.829 18.528 20.101 18.546 20.298 18.403C20.31 18.393 21.56 17.5 24 17.5C26.426 17.5 27.674 18.381 27.702 18.401C27.791 18.467 27.896 18.5 28 18.5C28.124 18.5 28.248 18.454 28.344 18.363C28.521 18.196 28.551 17.925 28.416 17.723ZM16.416 17.723C16.355 17.632 14.901 15.5 12 15.5C9.09999 15.5 7.64499 17.632 7.58399 17.723C7.44999 17.925 7.47999 18.193 7.65499 18.361C7.82999 18.528 8.10199 18.546 8.29699 18.403C8.30999 18.393 9.55899 17.5 12 17.5C14.426 17.5 15.674 18.381 15.702 18.401C15.791 18.467 15.896 18.5 16 18.5C16.124 18.5 16.248 18.454 16.344 18.363C16.521 18.196 16.551 17.925 16.416 17.723Z" fill="#292F33"/>
</g>
<defs>
<clipPath id="clip0">
<rect width="36" height="36" fill="#FFFFFF"/>
</clipPath>
</defs>
</svg>
