<svg width="36" height="36" viewBox="0 0 36 36" fill="none" xmlns="http://www.w3.org/2000/svg">
<g clip-path="url(#clip0)">
<path d="M35.734 19.929C35.375 16.66 35 15 34 13C34 13 37 4 35 0.300003C34.326 -0.945997 27.596 1.988 25 4C25 4 21 3.002 18 3.002C15 3.002 11 4 11 4C8.404 1.988 1.674 -0.945997 1 0.300003C-1 4 2 13 2 13C1 15 0.625 16.66 0.266 19.929C-0.129 23.513 0.657 26.37 1 27C1.39 27.716 3.367 30.025 6 32C10 35 16 36 18 36C20 36 26 35 30 32C32.633 30.025 34.61 27.716 35 27C35.343 26.37 36.129 23.513 35.734 19.929V19.929Z" fill="#FFCC4D"/>
<path d="M18.0011 21.9587C21.0011 21.9587 21.0011 22.4587 21.0011 23.4587C21.0011 24.4587 19.5011 26.4587 18.0011 26.4587C16.5011 26.4587 15.0011 24.4587 15.0011 23.4587C15.0011 22.4587 15.0001 21.9587 18.0011 21.9587Z" fill="#E75A70"/>
<path d="M1.99997 3.00003C2.44697 1.65803 7.63997 4.00003 8.63997 5.00003C8.63997 5.00003 3.99997 8.00003 2.99997 11C2.99997 11 0.999971 6.00003 1.99997 3.00003ZM34 3.00003C33.553 1.65803 28.36 4.00003 27.36 5.00003C27.36 5.00003 32 8.00003 33 11C33 11 35 6.00003 34 3.00003Z" fill="#F18F26"/>
<path d="M4.93402 5.603C4.93402 4.189 11 7 10 8C9.00002 9 8.00002 9.603 7.00002 10.603C6.00002 11.603 4.93402 6.603 4.93402 5.603ZM31.066 5.603C31.066 4.189 25 7 26 8C27 9 28 9.603 29 10.603C30 11.603 31.066 6.603 31.066 5.603V5.603Z" fill="#FFCC4D"/>
<path d="M0.702072 27.4588C0.554072 27.4588 0.408072 27.3938 0.309072 27.2688C0.138072 27.0518 0.175072 26.7378 0.392072 26.5668C0.554072 26.4398 4.41207 23.4468 11.0401 23.9618C11.3151 23.9818 11.5211 24.2228 11.5001 24.4978C11.4791 24.7728 11.2431 24.9988 10.9631 24.9578C4.73007 24.4838 1.04807 27.3237 1.01207 27.3527C0.919072 27.4237 0.810072 27.4588 0.702072 27.4588ZM9.57007 22.7958C9.52107 22.7958 9.47007 22.7888 9.42107 22.7738C4.63107 21.2768 0.684072 22.4268 0.644072 22.4378C0.379072 22.5188 0.101072 22.3677 0.0210722 22.1027C-0.0579278 21.8377 0.0920722 21.5598 0.356072 21.4808C0.529072 21.4288 4.64207 20.2338 9.71807 21.8188C9.98207 21.9018 10.1291 22.1818 10.0461 22.4458C9.98007 22.6588 9.78307 22.7958 9.57007 22.7958ZM35.3001 27.4588C35.4481 27.4588 35.5941 27.3938 35.6931 27.2688C35.8641 27.0518 35.8271 26.7378 35.6101 26.5668C35.4481 26.4398 31.5901 23.4468 24.9621 23.9618C24.6871 23.9818 24.4811 24.2228 24.5021 24.4978C24.5231 24.7728 24.7591 24.9988 25.0391 24.9578C31.2721 24.4838 34.9541 27.3237 34.9901 27.3527C35.0831 27.4237 35.1921 27.4588 35.3001 27.4588ZM26.4321 22.7958C26.4811 22.7958 26.5321 22.7888 26.5811 22.7738C31.3711 21.2768 35.3181 22.4268 35.3581 22.4378C35.6231 22.5188 35.9011 22.3677 35.9811 22.1027C36.0601 21.8377 35.9101 21.5598 35.6461 21.4808C35.4731 21.4288 31.3601 20.2338 26.2841 21.8188C26.0201 21.9018 25.8731 22.1818 25.9561 22.4458C26.0211 22.6588 26.2191 22.7958 26.4321 22.7958Z" fill="#FEE7B8"/>
<path fill-rule="evenodd" clip-rule="evenodd" d="M1.75198 12.1983C5.52813 13.9944 11.4961 15 17.9983 15C24.4908 15 30.4619 13.9972 34.2454 12.2072C34.4023 11.6762 34.6161 10.9107 34.8311 10.0105C32.6273 10.0529 24.0679 10.2099 17.9983 10.2099C14.0985 10.2099 3.75349 10.0928 1.18146 10.0629C1.39094 10.9355 1.59836 11.6781 1.75198 12.1983Z" fill="#FFAC33"/>
<path d="M23.608 3.216C22.396 3.122 21.135 3.057 19.835 3.026C19.174 3.01 18.507 3 17.831 3C17.159 3 16.495 3.01 15.838 3.025C14.536 3.056 13.274 3.121 12.061 3.215C5.171 3.751 0 5.322 0 8.158C0 11.746 8.264 13.929 17.831 13.929C27.398 13.929 35.662 11.746 35.662 8.158C35.662 5.323 30.494 3.753 23.608 3.216V3.216ZM17.831 10.254C10.97 10.254 4.921 9.421 4.921 7.518C4.921 6.982 5.415 6.495 6.26 6.069C7.413 5.488 9.238 5.025 11.449 4.72C13.36 4.458 15.547 4.31 17.831 4.31C20.122 4.31 22.316 4.458 24.231 4.723C26.473 5.033 28.317 5.506 29.463 6.1C30.27 6.518 30.741 6.994 30.741 7.518C30.741 9.421 24.692 10.254 17.831 10.254V10.254Z" fill="#5DADEC"/>
<path d="M27.3351 26.629C27.1571 26.468 26.8911 26.458 26.7001 26.6C26.6611 26.629 22.7781 29.5 18.0001 29.5C13.2341 29.5 9.33808 26.629 9.30008 26.6C9.10908 26.458 8.84308 26.47 8.66508 26.629C8.48808 26.789 8.44808 27.053 8.57108 27.257C8.70008 27.472 11.7881 32.5 18.0001 32.5C24.2121 32.5 27.3011 27.472 27.4291 27.257C27.5521 27.052 27.5131 26.789 27.3351 26.629Z" fill="#292F33"/>
<path d="M25.9998 21C25.5808 21 25.1908 20.735 25.0518 20.316C24.8488 19.717 24.0328 18 22.9998 18C21.9378 18 21.1108 19.827 20.9478 20.316C20.7728 20.839 20.2118 21.124 19.6828 20.948C19.1598 20.774 18.8758 20.208 19.0508 19.683C19.1768 19.307 20.3548 16 22.9998 16C25.6448 16 26.8228 19.307 26.9478 19.684C27.1228 20.208 26.8398 20.775 26.3158 20.949C26.2108 20.983 26.1038 21 25.9998 21ZM15.9998 21C15.5808 21 15.1908 20.735 15.0508 20.316C14.8478 19.717 14.0338 18 12.9998 18C11.9378 18 11.1118 19.827 10.9488 20.316C10.7738 20.839 10.2108 21.124 9.68378 20.948C9.15978 20.774 8.87678 20.208 9.05178 19.683C9.17678 19.307 10.3548 16 12.9998 16C15.6448 16 16.8228 19.307 16.9488 19.684C17.1238 20.208 16.8408 20.775 16.3168 20.949C16.2108 20.983 16.1038 21 15.9998 21Z" fill="#292F33"/>
</g>
<defs>
<clipPath id="clip0">
<rect width="36" height="36" fill="#FFFFFF"/>
</clipPath>
</defs>
</svg>
