<svg width="36" height="36" viewBox="0 0 36 36" fill="none" xmlns="http://www.w3.org/2000/svg">
<g clip-path="url(#clip0)">
<path d="M35.734 19.929C35.375 16.66 35 15 34 13C34 13 37 4 35 0.300003C34.326 -0.945997 27.596 1.988 25 4C25 4 21 3.002 18 3.002C15 3.002 11 4 11 4C8.404 1.988 1.674 -0.945997 1 0.300003C-1 4 2 13 2 13C1 15 0.625 16.66 0.266 19.929C-0.129 23.513 0.657 26.37 1 27C1.39 27.716 3.367 30.025 6 32C10 35 16 36 18 36C20 36 26 35 30 32C32.633 30.025 34.61 27.716 35 27C35.343 26.37 36.129 23.513 35.734 19.929Z" fill="#FFCC4D"/>
<path d="M18 19.5C21 19.5 21 20 21 21C21 22 19.5 24 18 24C16.5 24 15 22 15 21C15 20 14.999 19.5 18 19.5Z" fill="#E75A70"/>
<path d="M1.99997 3.00003C2.44697 1.65803 7.63997 4.00003 8.63997 5.00003C8.63997 5.00003 3.99997 8.00003 2.99997 11C2.99997 11 0.999971 6.00003 1.99997 3.00003ZM34 3.00003C33.553 1.65803 28.36 4.00003 27.36 5.00003C27.36 5.00003 32 8.00003 33 11C33 11 35 6.00003 34 3.00003Z" fill="#F18F26"/>
<path d="M4.93402 5.603C4.93402 4.189 11 7 10 8C9.00002 9 8.00002 9.603 7.00002 10.603C6.00002 11.603 4.93402 6.603 4.93402 5.603ZM31.066 5.603C31.066 4.189 25 7 26 8C27 9 28 9.603 29 10.603C30 11.603 31.066 6.603 31.066 5.603Z" fill="#FFCC4D"/>
<path d="M0.701034 25C0.553034 25 0.407034 24.935 0.308034 24.81C0.137034 24.593 0.174034 24.279 0.391034 24.108C0.553034 23.981 4.41103 20.988 11.039 21.503C11.314 21.523 11.52 21.764 11.499 22.039C11.478 22.314 11.242 22.54 10.962 22.499C4.72903 22.025 1.04703 24.865 1.01103 24.894C0.918035 24.965 0.809034 25 0.701034 25ZM9.56903 20.337C9.52003 20.337 9.46903 20.33 9.42003 20.315C4.63003 18.818 0.683034 19.968 0.643034 19.979C0.378034 20.06 0.100034 19.909 0.0200346 19.644C-0.0589654 19.379 0.0910345 19.101 0.355035 19.022C0.528034 18.97 4.64103 17.775 9.71703 19.36C9.98103 19.443 10.128 19.723 10.045 19.987C9.97903 20.2 9.78203 20.337 9.56903 20.337ZM35.299 25C35.447 25 35.593 24.935 35.692 24.81C35.863 24.593 35.826 24.279 35.609 24.108C35.447 23.981 31.589 20.988 24.961 21.503C24.686 21.523 24.48 21.764 24.501 22.039C24.522 22.314 24.758 22.54 25.038 22.499C31.271 22.025 34.953 24.865 34.989 24.894C35.082 24.965 35.191 25 35.299 25ZM26.431 20.337C26.48 20.337 26.531 20.33 26.58 20.315C31.37 18.818 35.317 19.968 35.357 19.979C35.622 20.06 35.9 19.909 35.98 19.644C36.059 19.379 35.909 19.101 35.645 19.022C35.472 18.97 31.359 17.775 26.283 19.36C26.019 19.443 25.872 19.723 25.955 19.987C26.02 20.2 26.218 20.337 26.431 20.337Z" fill="#FEE7B8"/>
<path d="M28.023 24.191C27.046 24.383 23 26 18 26C13 26 8.95402 24.383 7.97702 24.191C7.00002 24 6.88502 25.264 7.44202 27.132C8.00002 29 11 33 18 33C25 33 28 29 28.558 27.132C29.115 25.264 29 24 28.023 24.191Z" fill="#292F33"/>
<path d="M15.0508 16.316C15.1908 16.735 15.5808 17 15.9998 17C16.1038 17 16.2108 16.983 16.3168 16.949C16.8408 16.775 17.1238 16.208 16.9488 15.684C16.8228 15.307 15.6438 12 12.9998 12C10.3558 12 9.1768 15.307 9.0518 15.683C8.8768 16.207 9.1598 16.774 9.6838 16.948C10.2108 17.124 10.7738 16.839 10.9488 16.316C11.1118 15.827 11.9378 14 12.9998 14C14.0338 14 14.8478 15.717 15.0508 16.316Z" fill="#292F33"/>
<path d="M25.0518 16.316C25.1908 16.735 25.5808 17 25.9998 17C26.1038 17 26.2108 16.983 26.3158 16.949C26.8398 16.775 27.1228 16.208 26.9478 15.684C26.8228 15.307 25.6448 12 22.9998 12C20.3548 12 19.1768 15.307 19.0508 15.683C18.8758 16.207 19.1598 16.774 19.6828 16.948C20.2118 17.124 20.7728 16.839 20.9478 16.316C21.1108 15.827 21.9378 14 22.9998 14C24.0328 14 24.8488 15.717 25.0518 16.316Z" fill="#292F33"/>
<path d="M8 25C8 25 13 27 18 27C23 27 28 25 28 25C28 25 27.5 28 26.5 28C25.5 28 25 27 25 27C25 27 21 29 18 29C15 29 11 27 11 27C11 27 10.5 28 9.5 28C8.5 28 8 25 8 25Z" fill="#FFFFFF"/>
<path d="M11 30C11 30 13.3333 30.2963 18 30.2963C22.6667 30.2963 25 30 25 30C25 30 23.9547 32 18 32C12.0453 32 11 30 11 30Z" fill="#FFFFFF"/>
</g>
<defs>
<clipPath id="clip0">
<rect width="36" height="36" fill="#FFFFFF"/>
</clipPath>
</defs>
</svg>
