<svg width="36" height="36" viewBox="0 0 36 36" fill="none" xmlns="http://www.w3.org/2000/svg">
<g clip-path="url(#clip0)">
<path d="M35.734 19.929C35.375 16.66 35 15 34 13C34 13 37 4 35 0.300003C34.326 -0.945997 27.596 1.988 25 4C25 4 21 3.002 18 3.002C15 3.002 11 4 11 4C8.404 1.988 1.674 -0.945997 1 0.300003C-1 4 2 13 2 13C1 15 0.625 16.66 0.266 19.929C-0.129 23.513 0.657 26.37 1 27C1.39 27.716 3.367 30.025 6 32C10 35 16 36 18 36C20 36 26 35 30 32C32.633 30.025 34.61 27.716 35 27C35.343 26.37 36.129 23.513 35.734 19.929Z" fill="#FFCC4D"/>
<path d="M18 20C21 20 21 20.5 21 21.5C21 22.5 19.5 24.5 18 24.5C16.5 24.5 15 22.5 15 21.5C15 20.5 14.999 20 18 20Z" fill="#E75A70"/>
<path d="M2 3.00003C2.447 1.65803 7.64 4.00003 8.64 5.00003C8.64 5.00003 4 8.00003 3 11C3 11 1 6.00003 2 3.00003ZM34 3.00003C33.553 1.65803 28.36 4.00003 27.36 5.00003C27.36 5.00003 32 8.00003 33 11C33 11 35 6.00003 34 3.00003Z" fill="#F18F26"/>
<path d="M4.93399 5.603C4.93399 4.189 11 7 9.99999 8C8.99999 9 7.99999 9.603 6.99999 10.603C5.99999 11.603 4.93399 6.603 4.93399 5.603ZM31.066 5.603C31.066 4.189 25 7 26 8C27 9 28 9.603 29 10.603C30 11.603 31.066 6.603 31.066 5.603Z" fill="#FFCC4D"/>
<path d="M0.701004 26.4588C0.553004 26.4588 0.407004 26.3938 0.308004 26.2688C0.137004 26.0518 0.174004 25.7378 0.391004 25.5668C0.553004 25.4398 4.411 22.4468 11.039 22.9618C11.314 22.9818 11.52 23.2228 11.499 23.4978C11.478 23.7728 11.242 23.9988 10.962 23.9578C4.729 23.4838 1.047 26.3237 1.011 26.3527C0.918004 26.4237 0.809004 26.4588 0.701004 26.4588ZM9.569 21.7958C9.52 21.7958 9.469 21.7888 9.42 21.7738C4.63 20.2768 0.683004 21.4268 0.643004 21.4378C0.378004 21.5188 0.100004 21.3677 0.0200041 21.1027C-0.0589959 20.8377 0.091004 20.5598 0.355004 20.4808C0.528004 20.4288 4.641 19.2338 9.717 20.8188C9.981 20.9018 10.128 21.1818 10.045 21.4458C9.979 21.6588 9.782 21.7958 9.569 21.7958ZM35.299 26.4588C35.447 26.4588 35.593 26.3938 35.692 26.2688C35.863 26.0518 35.826 25.7378 35.609 25.5668C35.447 25.4398 31.589 22.4468 24.961 22.9618C24.686 22.9818 24.48 23.2228 24.501 23.4978C24.522 23.7728 24.758 23.9988 25.038 23.9578C31.271 23.4838 34.953 26.3237 34.989 26.3527C35.082 26.4237 35.191 26.4588 35.299 26.4588ZM26.431 21.7958C26.48 21.7958 26.531 21.7888 26.58 21.7738C31.37 20.2768 35.317 21.4268 35.357 21.4378C35.622 21.5188 35.9 21.3677 35.98 21.1027C36.059 20.8377 35.909 20.5598 35.645 20.4808C35.472 20.4288 31.359 19.2338 26.283 20.8188C26.019 20.9018 25.872 21.1818 25.955 21.4458C26.02 21.6588 26.218 21.7958 26.431 21.7958Z" fill="#FEE7B8"/>
<path d="M14 30H22C22.553 30 23 29.553 23 29C23 28.447 22.553 28 22 28H14C13.448 28 13 28.447 13 29C13 29.553 13.448 30 14 30Z" fill="#292F33"/>
<path d="M17.3118 15.7122C17.1358 15.5692 16.8848 15.5652 16.7018 15.6982C16.6898 15.7072 15.4418 16.6002 12.9998 16.6002C10.5588 16.6002 9.30976 15.7072 9.29976 15.7002C9.11676 15.5632 8.86476 15.5672 8.68876 15.7092C8.51076 15.8512 8.45076 16.0952 8.54276 16.3032C8.60276 16.4382 10.0428 19.6002 12.9998 19.6002C15.9578 19.6002 17.3968 16.4382 17.4568 16.3032C17.5488 16.0962 17.4888 15.8542 17.3118 15.7122ZM27.3118 15.7122C27.1358 15.5692 26.8858 15.5642 26.7018 15.6982C26.6898 15.7072 25.4408 16.6002 22.9998 16.6002C20.5598 16.6002 19.3098 15.7072 19.2998 15.7002C19.1168 15.5632 18.8658 15.5672 18.6888 15.7092C18.5108 15.8512 18.4508 16.0952 18.5428 16.3032C18.6028 16.4382 20.0428 19.6002 22.9998 19.6002C25.9578 19.6002 27.3968 16.4382 27.4568 16.3032C27.5488 16.0962 27.4888 15.8542 27.3118 15.7122Z" fill="#292F33"/>
<path d="M5 13.0008C5 13.5528 5.448 14.0008 6 14.0008C6.184 14.0008 10.538 13.9508 13.801 9.60081C14.132 9.15881 14.043 8.53181 13.601 8.20081C13.158 7.86881 12.532 7.96081 12.201 8.40081C9.565 11.9148 6.152 11.9988 5.996 12.0008C5.445 12.0028 5 12.4498 5 13.0008Z" fill="#292F33"/>
<path d="M22.2 9.60081C25.463 13.9508 29.816 14.0008 30 14.0008C30.55 14.0008 30.994 13.5568 30.996 13.0058C30.999 12.4568 30.555 12.0068 30.005 12.0008C29.86 11.9998 26.44 11.9218 23.799 8.40081C23.467 7.95881 22.841 7.86781 22.4 8.20081C21.958 8.53181 21.868 9.15881 22.2 9.60081Z" fill="#292F33"/>
</g>
<defs>
<clipPath id="clip0">
<rect width="36" height="36" fill="#FFFFFF"/>
</clipPath>
</defs>
</svg>
