<svg width="36" height="36" viewBox="0 0 36 36" fill="none" xmlns="http://www.w3.org/2000/svg">
<g clip-path="url(#clip0)">
<path d="M35.734 19.929C35.375 16.66 35 15 34 13C34 13 37 4 35 0.300003C34.326 -0.945997 27.596 1.988 25 4C25 4 21 3.002 18 3.002C15 3.002 11 4 11 4C8.404 1.988 1.674 -0.945997 1 0.300003C-1 4 2 13 2 13C1 15 0.625 16.66 0.266 19.929C-0.129 23.513 0.657 26.37 1 27C1.39 27.716 3.367 30.025 6 32C10 35 16 36 18 36C20 36 26 35 30 32C32.633 30.025 34.61 27.716 35 27C35.343 26.37 36.129 23.513 35.734 19.929Z" fill="#FFCC4D"/>
<path d="M18 19.5C21 19.5 21 20 21 21C21 22 19.5 24 18 24C16.5 24 15 22 15 21C15 20 14.999 19.5 18 19.5Z" fill="#E75A70"/>
<path d="M2 3.00003C2.447 1.65803 7.64 4.00003 8.64 5.00003C8.64 5.00003 4 8.00003 3 11C3 11 1 6.00003 2 3.00003ZM34 3.00003C33.553 1.65803 28.36 4.00003 27.36 5.00003C27.36 5.00003 32 8.00003 33 11C33 11 35 6.00003 34 3.00003Z" fill="#F18F26"/>
<path d="M4.93399 5.603C4.93399 4.189 11 7 9.99999 8C8.99999 9 7.99999 9.603 6.99999 10.603C5.99999 11.603 4.93399 6.603 4.93399 5.603ZM31.066 5.603C31.066 4.189 25 7 26 8C27 9 28 9.603 29 10.603C30 11.603 31.066 6.603 31.066 5.603Z" fill="#FFCC4D"/>
<path d="M0.701004 25C0.553004 25 0.407004 24.935 0.308004 24.81C0.137004 24.593 0.174004 24.279 0.391004 24.108C0.553004 23.981 4.411 20.988 11.039 21.503C11.314 21.523 11.52 21.764 11.499 22.039C11.478 22.314 11.242 22.54 10.962 22.499C4.729 22.025 1.047 24.865 1.011 24.894C0.918004 24.965 0.809004 25 0.701004 25ZM9.569 20.337C9.52 20.337 9.469 20.33 9.42 20.315C4.63 18.818 0.683004 19.968 0.643004 19.979C0.378004 20.06 0.100004 19.909 0.0200041 19.644C-0.0589959 19.379 0.091004 19.101 0.355004 19.022C0.528004 18.97 4.641 17.775 9.717 19.36C9.981 19.443 10.128 19.723 10.045 19.987C9.979 20.2 9.782 20.337 9.569 20.337ZM35.299 25C35.447 25 35.593 24.935 35.692 24.81C35.863 24.593 35.826 24.279 35.609 24.108C35.447 23.981 31.589 20.988 24.961 21.503C24.686 21.523 24.48 21.764 24.501 22.039C24.522 22.314 24.758 22.54 25.038 22.499C31.271 22.025 34.953 24.865 34.989 24.894C35.082 24.965 35.191 25 35.299 25ZM26.431 20.337C26.48 20.337 26.531 20.33 26.58 20.315C31.37 18.818 35.317 19.968 35.357 19.979C35.622 20.06 35.9 19.909 35.98 19.644C36.059 19.379 35.909 19.101 35.645 19.022C35.472 18.97 31.359 17.775 26.283 19.36C26.019 19.443 25.872 19.723 25.955 19.987C26.02 20.2 26.218 20.337 26.431 20.337Z" fill="#FEE7B8"/>
<path d="M18 26C24.317 26 25.44 30.2 25.485 30.379C25.54 30.597 25.442 30.824 25.246 30.936C25.169 30.979 25.084 31 25 31C24.872 31 24.744 30.95 24.648 30.855C24.63 30.837 22.694 29 18 29C13.306 29 11.371 30.837 11.352 30.856C11.191 31.011 10.947 31.044 10.752 30.933C10.558 30.821 10.46 30.596 10.515 30.379C10.56 30.2 11.682 26 18 26Z" fill="#292F33"/>
<path d="M29.0009 14.0794C28.6959 14.0794 28.397 13.9414 28.2 13.6794C25.768 10.4354 21.686 12.8334 21.514 12.9364C21.039 13.2214 20.425 13.0664 20.142 12.5934C19.858 12.1194 20.011 11.5054 20.485 11.2214C22.483 10.0224 26.999 8.74437 29.799 12.4784C30.131 12.9204 30.041 13.5474 29.599 13.8784C29.42 14.0144 29.2099 14.0794 29.0009 14.0794ZM6.99895 14.0794C6.79095 14.0794 6.57995 14.0144 6.39995 13.8794C5.95795 13.5484 5.86895 12.9214 6.19995 12.4794C9.00095 8.74537 13.517 10.0234 15.514 11.2224C15.988 11.5064 16.141 12.1204 15.857 12.5944C15.573 13.0674 14.961 13.2224 14.487 12.9384C14.308 12.8324 10.213 10.4634 7.79895 13.6804C7.60395 13.9414 7.30295 14.0794 6.99895 14.0794ZM29 16.0794C29 15.5274 28.553 15.0794 28 15.0794H21C20.447 15.0794 20 15.5274 20 16.0794C20 16.6314 20.447 17.0794 21 17.0794H26.0919C26.2989 17.6604 26.848 18.0794 27.5 18.0794C28.328 18.0794 29 17.4084 29 16.5794C29 16.4694 28.986 16.3624 28.964 16.2584C28.976 16.1984 29 16.1424 29 16.0794ZM16 16.0794C16 15.5274 15.552 15.0794 15 15.0794H7.99995C7.44795 15.0794 6.99995 15.5274 6.99995 16.0794C6.99995 16.6314 7.44795 17.0794 7.99995 17.0794H13.092C13.299 17.6604 13.848 18.0794 14.5 18.0794C15.328 18.0794 16 17.4084 16 16.5794C16 16.4694 15.986 16.3624 15.964 16.2584C15.975 16.1984 16 16.1424 16 16.0794Z" fill="#292F33"/>
</g>
<defs>
<clipPath id="clip0">
<rect width="36" height="36" fill="#FFFFFF"/>
</clipPath>
</defs>
</svg>
