<svg width="36" height="36" viewBox="0 0 36 36" fill="none" xmlns="http://www.w3.org/2000/svg">
<g clip-path="url(#clip0)">
<path d="M35.734 19.929C35.375 16.66 35 15 34 13C34 13 37 4 35 0.300003C34.326 -0.945997 27.596 1.988 25 4C25 4 21 3.002 18 3.002C15 3.002 11 4 11 4C8.404 1.988 1.674 -0.945997 1 0.300003C-1 4 2 13 2 13C1 15 0.625 16.66 0.266 19.929C-0.129 23.513 0.657 26.37 1 27C1.39 27.716 3.367 30.025 6 32C10 35 16 36 18 36C20 36 26 35 30 32C32.633 30.025 34.61 27.716 35 27C35.343 26.37 36.129 23.513 35.734 19.929V19.929Z" fill="#FFCC4D"/>
<path d="M18.0011 20.9587C21.0011 20.9587 21.0011 21.4587 21.0011 22.4587C21.0011 23.4587 19.5011 25.4587 18.0011 25.4587C16.5011 25.4587 15.0011 23.4587 15.0011 22.4587C15.0011 21.4587 15.0001 20.9587 18.0011 20.9587Z" fill="#E75A70"/>
<path d="M2 3C2.447 1.658 7.64 4 8.64 5C8.64 5 4 8 3 11C3 11 1 6 2 3ZM34 3C33.553 1.658 28.36 4 27.36 5C27.36 5 32 8 33 11C33 11 35 6 34 3Z" fill="#F18F26"/>
<path d="M4.93399 5.603C4.93399 4.189 11 7 9.99999 8C8.99999 9 7.99999 9.603 6.99999 10.603C5.99999 11.603 4.93399 6.603 4.93399 5.603ZM31.066 5.603C31.066 4.189 25 7 26 8C27 9 28 9.603 29 10.603C30 11.603 31.066 6.603 31.066 5.603V5.603Z" fill="#FFCC4D"/>
<path d="M0.702072 26.4588C0.554072 26.4588 0.408072 26.3938 0.309072 26.2688C0.138072 26.0518 0.175072 25.7378 0.392072 25.5668C0.554072 25.4398 4.41207 22.4468 11.0401 22.9618C11.3151 22.9818 11.5211 23.2228 11.5001 23.4978C11.4791 23.7728 11.2431 23.9988 10.9631 23.9578C4.73007 23.4838 1.04807 26.3237 1.01207 26.3527C0.919072 26.4237 0.810072 26.4588 0.702072 26.4588V26.4588ZM9.57007 21.7958C9.52107 21.7958 9.47007 21.7888 9.42107 21.7738C4.63107 20.2768 0.684072 21.4268 0.644072 21.4378C0.379072 21.5188 0.101072 21.3677 0.0210722 21.1027C-0.0579278 20.8377 0.0920722 20.5598 0.356072 20.4808C0.529072 20.4288 4.64207 19.2338 9.71807 20.8188C9.98207 20.9018 10.1291 21.1818 10.0461 21.4458C9.98007 21.6588 9.78307 21.7958 9.57007 21.7958V21.7958ZM35.3001 26.4588C35.4481 26.4588 35.5941 26.3938 35.6931 26.2688C35.8641 26.0518 35.8271 25.7378 35.6101 25.5668C35.4481 25.4398 31.5901 22.4468 24.9621 22.9618C24.6871 22.9818 24.4811 23.2228 24.5021 23.4978C24.5231 23.7728 24.7591 23.9988 25.0391 23.9578C31.2721 23.4838 34.9541 26.3237 34.9901 26.3527C35.0831 26.4237 35.1921 26.4588 35.3001 26.4588V26.4588ZM26.4321 21.7958C26.4811 21.7958 26.5321 21.7888 26.5811 21.7738C31.3711 20.2768 35.3181 21.4268 35.3581 21.4378C35.6231 21.5188 35.9011 21.3677 35.9811 21.1027C36.0601 20.8377 35.9101 20.5598 35.6461 20.4808C35.4731 20.4288 31.3601 19.2338 26.2841 20.8188C26.0201 20.9018 25.8731 21.1818 25.9561 21.4458C26.0211 21.6588 26.2191 21.7958 26.4321 21.7958V21.7958Z" fill="#FEE7B8"/>
<path d="M6 11.0008C5.448 11.0008 5 10.5528 5 10.0008C5 9.44981 5.445 9.00281 5.996 9.00081C6.152 8.99881 9.565 8.91481 12.201 5.40081C12.532 4.96081 13.158 4.86881 13.601 5.20081C14.043 5.53181 14.132 6.15881 13.801 6.60081C10.538 10.9508 6.184 11.0008 6 11.0008ZM30 11.0008C29.816 11.0008 25.463 10.9508 22.2 6.60081C21.868 6.15881 21.958 5.53181 22.4 5.20081C22.841 4.86781 23.467 4.95881 23.799 5.40081C26.44 8.92181 29.86 8.99981 30.005 9.00081C30.555 9.00681 30.999 9.45681 30.996 10.0058C30.994 10.5568 30.55 11.0008 30 11.0008ZM30.6 18.2008C30.486 18.1148 28.669 16.7748 25.954 15.8568C25.98 15.7418 26 15.6238 26 15.5008C26 15.1318 25.861 14.7978 25.641 14.5368C27.443 14.0168 28.975 14.0008 29.002 14.0008C29.553 13.9988 30 13.5508 29.999 12.9988C29.998 12.4478 29.552 12.0008 29 12.0008C28.779 12.0008 23.549 12.0388 20.293 15.2938C20.007 15.5798 19.921 16.0098 20.076 16.3838C20.23 16.7578 20.596 17.0008 21 17.0008C25.59 17.0008 29.363 19.7728 29.401 19.8018C29.581 19.9358 29.791 19.9998 29.999 19.9998C30.304 19.9998 30.604 19.8608 30.801 19.5998C31.131 19.1568 31.041 18.5318 30.6 18.2008ZM15.707 15.2938C12.452 12.0388 7.221 12.0008 7 12.0008C6.448 12.0008 6.001 12.4478 6.001 12.9988C6 13.5508 6.447 13.9988 6.999 14.0008C7.025 14.0008 8.557 14.0168 10.36 14.5368C10.139 14.7978 10 15.1318 10 15.5008C10 15.6238 10.019 15.7418 10.047 15.8568C7.331 16.7748 5.514 18.1148 5.4 18.2008C4.958 18.5318 4.869 19.1588 5.2 19.5998C5.396 19.8628 5.697 20.0008 6.001 20.0008C6.209 20.0008 6.42 19.9358 6.6 19.8008C6.637 19.7728 10.387 17.0008 15 17.0008C15.404 17.0008 15.769 16.7578 15.924 16.3838C16.079 16.0098 15.993 15.5798 15.707 15.2938Z" fill="#292F33"/>
<path d="M18.0002 32.0005C17.6962 32.0005 17.4092 31.8625 17.2192 31.6255L14.0252 27.6335L11.8003 30.6005C11.6263 30.8325 11.3602 30.9775 11.0712 30.9975C10.7812 31.0185 10.4972 30.9125 10.2932 30.7075L9.29325 29.7075C8.90225 29.3165 8.90225 28.6845 9.29325 28.2935C9.68425 27.9025 10.3162 27.9025 10.7072 28.2935L10.8922 28.4785L13.2002 25.4005C13.3862 25.1525 13.6753 25.0045 13.9843 25.0005C14.2793 24.9905 14.5872 25.1335 14.7802 25.3755L18.0002 29.3995L21.2192 25.3755C21.4122 25.1345 21.7033 25.0005 22.0163 25.0005C22.3263 25.0055 22.6152 25.1525 22.8002 25.4005L25.1092 28.4775L25.2943 28.2925C25.6853 27.9015 26.3173 27.9015 26.7083 28.2925C27.0993 28.6835 27.0993 29.3155 26.7083 29.7065L25.7083 30.7065C25.5033 30.9115 25.2293 31.0205 24.9303 30.9965C24.6413 30.9755 24.3753 30.8315 24.2013 30.5995L21.9753 27.6325L18.7822 31.6245C18.5912 31.8625 18.3042 32.0005 18.0002 32.0005Z" fill="#292F33"/>
</g>
<defs>
<clipPath id="clip0">
<rect width="36" height="36" fill="#FFFFFF"/>
</clipPath>
</defs>
</svg>
