<?xml version="1.0" encoding="UTF-8" standalone="no"?>
<svg
   xmlns:dc="http://purl.org/dc/elements/1.1/"
   xmlns:cc="http://creativecommons.org/ns#"
   xmlns:rdf="http://www.w3.org/1999/02/22-rdf-syntax-ns#"
   xmlns:svg="http://www.w3.org/2000/svg"
   xmlns="http://www.w3.org/2000/svg"
   xmlns:sodipodi="http://sodipodi.sourceforge.net/DTD/sodipodi-0.dtd"
   xmlns:inkscape="http://www.inkscape.org/namespaces/inkscape"
   inkscape:version="1.0 (4035a4fb49, 2020-05-01)"
   sodipodi:docname="cat_expressionless.svg"
   id="svg16"
   version="1.1"
   viewBox="0 0 36 36">
  <metadata
     id="metadata22">
    <rdf:RDF>
      <cc:Work
         rdf:about="">
        <dc:format>image/svg+xml</dc:format>
        <dc:type
           rdf:resource="http://purl.org/dc/dcmitype/StillImage" />
        <dc:title></dc:title>
      </cc:Work>
    </rdf:RDF>
  </metadata>
  <defs
     id="defs20" />
  <sodipodi:namedview
     inkscape:current-layer="svg16"
     inkscape:window-maximized="1"
     inkscape:window-y="24"
     inkscape:window-x="0"
     inkscape:cy="18"
     inkscape:cx="17.901505"
     inkscape:zoom="20.305556"
     showgrid="false"
     id="namedview18"
     inkscape:window-height="1000"
     inkscape:window-width="1680"
     inkscape:pageshadow="2"
     inkscape:pageopacity="0"
     guidetolerance="10"
     gridtolerance="10"
     objecttolerance="10"
     borderopacity="1"
     bordercolor="#666666"
     pagecolor="#ffffff" />
  <path
     id="path2"
     d="M32.348 13.999s3.445-8.812 1.651-11.998c-.604-1.073-8 1.998-10.723 5.442 0 0-2.586-.86-5.276-.86s-5.276.86-5.276.86C10.001 3.999 2.605.928 2.001 2.001.207 5.187 3.652 13.999 3.652 13.999c-.897 1.722-1.233 4.345-1.555 7.16-.354 3.086.35 5.546.658 6.089.35.617 2.123 2.605 4.484 4.306 3.587 2.583 8.967 3.445 10.761 3.445s7.174-.861 10.761-3.445c2.361-1.701 4.134-3.689 4.484-4.306.308-.543 1.012-3.003.659-6.089-.324-2.814-.659-5.438-1.556-7.16z"
     fill="#FFCC4D" />
  <path
     id="path4"
     d="M2.359 2.971c.2-.599 5.348 2.173 6.518 5.404 0 0-3.808 2.624-4.528 4.624 0 0-2.99-7.028-1.99-10.028z"
     fill="#F18F26" />
  <path
     id="path6"
     d="M5.98 7.261c0-1.414 5.457 2.733 4.457 3.733s-1.255.72-2.255 1.72S5.98 8.261 5.98 7.261z"
     fill="#FFCC4D" />
  <path
     id="path8"
     d="M33.641 2.971c-.2-.599-5.348 2.173-6.518 5.404 0 0 3.808 2.624 4.528 4.624 0 0 2.99-7.028 1.99-10.028z"
     fill="#F18F26" />
  <path
     id="path10"
     d="M30.02 7.261c0-1.414-5.457 2.733-4.457 3.733s1.255.72 2.255 1.72 2.202-4.453 2.202-5.453z"
     fill="#FFCC4D" />
  <path
     style="stroke-width:1.00004"
     id="path12"
     d="m 2.2009965,29.157999 c -0.1479989,0 -0.2939982,-0.06502 -0.3929976,-0.190009 -0.1709997,-0.21701 -0.1339998,-0.531015 0.083007,-0.70203 0.1619995,-0.127 4.0199813,-3.12012 10.6479561,-2.605102 0.275005,0.02103 0.481005,0.261012 0.460004,0.536019 -0.02103,0.275015 -0.257006,0.501021 -0.536997,0.460022 -6.2329829,-0.474019 -9.9149665,2.366099 -9.9509659,2.3951 -0.092998,0.06999 -0.2019991,0.106 -0.3100066,0.106 z m 8.8679625,-4.663185 c -0.04899,0 -0.100028,-0.0068 -0.149002,-0.02198 -4.7899776,-1.497066 -8.7369598,-0.347025 -8.7769598,-0.336018 -0.2649986,0.08098 -0.542998,-0.06999 -0.6229978,-0.335011 -0.079004,-0.265012 0.071002,-0.543024 0.3349994,-0.622033 0.1729989,-0.05202 4.2859803,-1.247045 9.3619572,0.338017 0.263999,0.08297 0.411,0.363015 0.327997,0.627022 -0.066,0.213011 -0.262997,0.350014 -0.475994,0.350014 z m 22.729895,4.663185 c 0.147999,0 0.294,-0.06502 0.392999,-0.190009 0.170998,-0.21701 0.133997,-0.531015 -0.08301,-0.70203 -0.162,-0.127 -4.019981,-3.12012 -10.647951,-2.605102 -0.274997,0.02103 -0.480997,0.261012 -0.460001,0.536019 0.02197,0.275015 0.257003,0.501021 0.536999,0.460022 6.232975,-0.474019 9.914957,2.366099 9.950957,2.3951 0.09302,0.06998 0.202001,0.106 0.309997,0.106 z m -8.867962,-4.663185 c 0.04899,0 0.100028,-0.0068 0.149002,-0.02198 4.789979,-1.497062 8.736961,-0.347021 8.776963,-0.336014 0.264998,0.08097 0.542994,-0.06998 0.622994,-0.335011 0.079,-0.265012 -0.07096,-0.543024 -0.335,-0.622033 -0.172998,-0.05202 -4.285977,-1.247045 -9.361956,0.338017 -0.263996,0.08297 -0.410998,0.363015 -0.327997,0.627022 0.066,0.213012 0.262998,0.350014 0.475994,0.350014 z"
     fill="#fee7b8" />
  <path
     id="path14"
     d="M25 26H11c-.552 0-1-.447-1-1s.448-1 1-1h14c.553 0 1 .447 1 1s-.447 1-1 1zm-10-8H8c-.552 0-1-.448-1-1s.448-1 1-1h7c.552 0 1 .448 1 1s-.448 1-1 1zm13 0h-7c-.553 0-1-.448-1-1s.447-1 1-1h7c.553 0 1 .448 1 1s-.447 1-1 1z"
     fill="#664500" />
</svg>
