<svg width="36" height="36" viewBox="0 0 36 36" fill="none" xmlns="http://www.w3.org/2000/svg">
<path d="M33.4058 17.1604C33.094 14.3453 32.7682 12.9158 31.8995 11.1935C31.8995 11.1935 34.5056 3.44314 32.7682 0.256877C32.1827 -0.816119 26.3362 1.7105 24.081 3.44314C24.081 3.44314 20.6062 2.58371 18 2.58371C15.3938 2.58371 11.919 3.44314 11.919 3.44314C9.66379 1.7105 3.81733 -0.816119 3.23181 0.256877C1.49438 3.44314 4.10053 11.1935 4.10053 11.1935C3.23181 12.9158 2.90604 14.3453 2.59417 17.1604C2.25103 20.2468 2.93384 22.7071 3.23181 23.2496C3.57061 23.8662 5.28807 25.8546 7.5754 27.5554C11.0503 30.1388 16.2626 31 18 31C19.7374 31 24.9497 30.1388 28.4246 27.5554C30.7119 25.8546 32.4294 23.8662 32.7682 23.2496C33.0662 22.7071 33.749 20.2468 33.4058 17.1604V17.1604Z" fill="#FFCC4D"/>
<path d="M18 17C20.5 17 20.5 17.4445 20.5 18.3333C20.5 19.2222 19.25 21 18 21C16.75 21 15.5 19.2222 15.5 18.3333C15.5 17.4445 15.4992 17 18 17Z" fill="#E75A70"/>
<path d="M4.73219 2.33705C5.10286 1.21934 9.40909 3.16992 10.2383 4.00279C10.2383 4.00279 6.39066 6.50139 5.56142 9C5.56142 9 3.90295 4.83566 4.73219 2.33705ZM31.2678 2.33705C30.8971 1.21934 26.5909 3.16992 25.7617 4.00279C25.7617 4.00279 29.6093 6.50139 30.4386 9C30.4386 9 32.097 4.83566 31.2678 2.33705Z" fill="#F18F26"/>
<path d="M7.5 5.28252C7.5 4.25816 12.3747 6.29457 11.5711 7.01901C10.7675 7.74346 9.96388 8.1803 9.16026 8.90474C8.35665 9.62919 7.5 6.00697 7.5 5.28252ZM28.5 5.28252C28.5 4.25816 23.6253 6.29457 24.4289 7.01901C25.2325 7.74346 26.0361 8.1803 26.8397 8.90474C27.6433 9.62919 28.5 6.00697 28.5 5.28252V5.28252Z" fill="#FFCC4D"/>
<path d="M3.10453 22C2.97709 22 2.85137 21.9396 2.76613 21.8235C2.61889 21.6219 2.65075 21.3302 2.8376 21.1714C2.97709 21.0534 6.29906 18.273 12.0062 18.7514C12.243 18.77 12.4203 18.9938 12.4022 19.2493C12.3842 19.5048 12.181 19.7147 11.9399 19.6766C6.57288 19.2363 3.40245 21.8746 3.37145 21.9015C3.29138 21.9675 3.19752 22 3.10453 22V22ZM10.7404 17.6682C10.6982 17.6682 10.6543 17.6617 10.6121 17.6478C6.48763 16.2571 3.08903 17.3254 3.05458 17.3356C2.8264 17.4109 2.58703 17.2706 2.51814 17.0244C2.45012 16.7782 2.57928 16.52 2.8066 16.4466C2.95556 16.3983 6.4971 15.2882 10.8678 16.7606C11.0952 16.8377 11.2217 17.0978 11.1503 17.3431C11.0934 17.5409 10.9238 17.6682 10.7404 17.6682V17.6682ZM32.8955 22C33.0229 22 33.1486 21.9396 33.2339 21.8235C33.3811 21.6219 33.3493 21.3302 33.1624 21.1714C33.0229 21.0534 29.7009 18.273 23.9938 18.7514C23.757 18.77 23.5797 18.9938 23.5977 19.2493C23.6158 19.5048 23.819 19.7147 24.0601 19.6766C29.4271 19.2363 32.5975 21.8746 32.6285 21.9015C32.7086 21.9675 32.8025 22 32.8955 22V22ZM25.2596 17.6682C25.3018 17.6682 25.3457 17.6617 25.3879 17.6478C29.5124 16.2571 32.911 17.3254 32.9454 17.3356C33.1736 17.4109 33.413 17.2706 33.4819 17.0244C33.5499 16.7782 33.4207 16.52 33.1934 16.4466C33.0444 16.3983 29.5029 15.2882 25.1322 16.7606C24.9048 16.8377 24.7783 17.0978 24.8497 17.3431C24.9057 17.5409 25.0762 17.6682 25.2596 17.6682V17.6682Z" fill="#FEE7B8"/>
<path d="M25.822 20.0151C25.0595 20.1673 21.902 21.4495 18 21.4495C14.098 21.4495 10.9405 20.1673 10.178 20.0151C9.41556 19.8637 9.32581 20.8659 9.7605 22.3471C10.196 23.8283 12.5372 27 18 27C23.4628 27 25.804 23.8283 26.2395 22.3471C26.6742 20.8659 26.5844 19.8637 25.822 20.0151Z" fill="#292F33"/>
<path d="M18.545 22.101L17.454 22.096C14.238 22.022 12 21.5 12 21.5V28.461C12 31.461 14 34.461 18 34.461C22 34.461 24 31.461 24 28.461V21.541C22.078 21.936 20.213 22.084 18.545 22.101V22.101Z" fill="#E8596E"/>
<path d="M18.046 30.344C18.347 30.344 18.591 30.1 18.591 29.799V22.105L17.5 22.1V29.799C17.501 30.1 17.745 30.344 18.046 30.344Z" fill="#DD2F45"/>
<path d="M12.7222 15.0277C13.6734 15.0277 14.4444 13.6784 14.4444 12.0139C14.4444 10.3494 13.6734 9 12.7222 9C11.7711 9 11 10.3494 11 12.0139C11 13.6784 11.7711 15.0277 12.7222 15.0277Z" fill="#292F33"/>
<path d="M23.0553 15.0277C24.0064 15.0277 24.7775 13.6784 24.7775 12.0139C24.7775 10.3494 24.0064 9 23.0553 9C22.1041 9 21.3331 10.3494 21.3331 12.0139C21.3331 13.6784 22.1041 15.0277 23.0553 15.0277Z" fill="#292F33"/>
</svg>
