<svg width="36" height="36" viewBox="0 0 36 36" fill="none" xmlns="http://www.w3.org/2000/svg">
<g clip-path="url(#clip0)">
<path d="M35.734 19.929C35.375 16.66 35 15 34 13C34 13 37 4 35 0.300003C34.326 -0.945997 27.596 1.988 25 4C25 4 21 3.002 18 3.002C15 3.002 11 4 11 4C8.404 1.988 1.674 -0.945997 1 0.300003C-1 4 2 13 2 13C1 15 0.625 16.66 0.266 19.929C-0.129 23.513 0.657 26.37 1 27C1.39 27.716 3.367 30.025 6 32C10 35 16 36 18 36C20 36 26 35 30 32C32.633 30.025 34.61 27.716 35 27C35.343 26.37 36.129 23.513 35.734 19.929V19.929Z" fill="#FFCC4D"/>
<path d="M18 19.5C21 19.5 21 20 21 21C21 22 19.5 24 18 24C16.5 24 15 22 15 21C15 20 14.999 19.5 18 19.5Z" fill="#E75A70"/>
<path d="M1.99997 3.00003C2.44697 1.65803 7.63997 4.00003 8.63997 5.00003C8.63997 5.00003 3.99997 8.00003 2.99997 11C2.99997 11 0.999971 6.00003 1.99997 3.00003ZM34 3.00003C33.553 1.65803 28.36 4.00003 27.36 5.00003C27.36 5.00003 32 8.00003 33 11C33 11 35 6.00003 34 3.00003Z" fill="#F18F26"/>
<path d="M4.93402 5.603C4.93402 4.189 11 7 10 8C9.00002 9 8.00002 9.603 7.00002 10.603C6.00002 11.603 4.93402 6.603 4.93402 5.603ZM31.066 5.603C31.066 4.189 25 7 26 8C27 9 28 9.603 29 10.603C30 11.603 31.066 6.603 31.066 5.603V5.603Z" fill="#FFCC4D"/>
<path d="M0.700974 25C0.552974 25 0.406974 24.935 0.307974 24.81C0.136974 24.593 0.173974 24.279 0.390974 24.108C0.552974 23.981 4.41097 20.988 11.039 21.503C11.314 21.523 11.52 21.764 11.499 22.039C11.478 22.314 11.242 22.54 10.962 22.499C4.72897 22.025 1.04697 24.865 1.01097 24.894C0.917974 24.965 0.808974 25 0.700974 25V25ZM9.56897 20.337C9.51997 20.337 9.46897 20.33 9.41997 20.315C4.62997 18.818 0.682974 19.968 0.642974 19.979C0.377974 20.06 0.0999735 19.909 0.0199735 19.644C-0.0590265 19.379 0.0909735 19.101 0.354974 19.022C0.527974 18.97 4.64097 17.775 9.71697 19.36C9.98097 19.443 10.128 19.723 10.045 19.987C9.97897 20.2 9.78197 20.337 9.56897 20.337V20.337ZM35.299 25C35.447 25 35.593 24.935 35.692 24.81C35.863 24.593 35.826 24.279 35.609 24.108C35.447 23.981 31.589 20.988 24.961 21.503C24.686 21.523 24.48 21.764 24.501 22.039C24.522 22.314 24.758 22.54 25.038 22.499C31.271 22.025 34.953 24.865 34.989 24.894C35.082 24.965 35.191 25 35.299 25V25ZM26.431 20.337C26.48 20.337 26.531 20.33 26.58 20.315C31.37 18.818 35.317 19.968 35.357 19.979C35.622 20.06 35.9 19.909 35.98 19.644C36.059 19.379 35.909 19.101 35.645 19.022C35.472 18.97 31.359 17.775 26.283 19.36C26.019 19.443 25.872 19.723 25.955 19.987C26.02 20.2 26.218 20.337 26.431 20.337V20.337Z" fill="#FEE7B8"/>
<path d="M23.4844 30.379C23.4734 30.335 22.3394 26 17.9994 26C13.6594 26 12.5254 30.335 12.5144 30.379C12.4614 30.592 12.5584 30.81 12.7464 30.923C12.9344 31.035 13.1794 31.009 13.3424 30.863C13.3514 30.855 14.3554 30 17.9994 30C21.5894 30 22.6164 30.83 22.6554 30.863C22.7504 30.953 22.8744 31 22.9994 31C23.0834 31 23.1684 30.979 23.2454 30.936C23.4414 30.824 23.5394 30.597 23.4844 30.379Z" fill="#292F33"/>
<path d="M11.2438 13C10.9268 13 10.6078 13.039 10.2968 13.116C7.42684 13.823 6.78384 17.237 6.75784 17.383C6.71784 17.606 6.83384 17.826 7.03884 17.923C7.10584 17.954 7.17884 17.97 7.24984 17.97C7.39484 17.97 7.53684 17.907 7.63484 17.79C7.64484 17.778 8.64484 16.612 11.0138 16.029C11.7278 15.853 12.4258 15.764 13.0868 15.764C14.1908 15.764 14.8188 16.017 14.8218 16.018C14.8888 16.046 14.9528 16.058 15.0288 16.058C15.3008 16.07 15.5378 15.837 15.5378 15.558C15.5378 15.393 15.4578 15.247 15.3348 15.156C14.9678 14.721 13.3818 13 11.2438 13ZM24.7918 13C25.1088 13 25.4278 13.039 25.7388 13.116C28.6088 13.823 29.2518 17.237 29.2778 17.383C29.3178 17.606 29.2018 17.826 28.9968 17.923C28.9298 17.954 28.8568 17.97 28.7858 17.97C28.6408 17.97 28.4988 17.907 28.4008 17.79C28.3908 17.778 27.3908 16.612 25.0218 16.029C24.3078 15.853 23.6098 15.764 22.9488 15.764C21.8448 15.764 21.2178 16.017 21.2138 16.018C21.1468 16.046 21.0828 16.058 21.0078 16.058C20.7358 16.07 20.4988 15.837 20.4988 15.558C20.4988 15.393 20.5788 15.247 20.7018 15.156C21.0678 14.721 22.6538 13 24.7918 13Z" fill="#292F33"/>
</g>
<defs>
<clipPath id="clip0">
<rect width="36" height="36" fill="#FFFFFF"/>
</clipPath>
</defs>
</svg>
