<svg width="36" height="36" viewBox="0 0 36 36" fill="none" xmlns="http://www.w3.org/2000/svg">
<g clip-path="url(#clip0)">
<path d="M35.734 19.929C35.375 16.66 35 15 34 13C34 13 37 4 35 0.300003C34.326 -0.945997 27.596 1.988 25 4C25 4 21 3.002 18 3.002C15 3.002 11 4 11 4C8.404 1.988 1.674 -0.945997 1 0.300003C-1 4 2 13 2 13C1 15 0.625 16.66 0.266 19.929C-0.129 23.513 0.657 26.37 1 27C1.39 27.716 3.367 30.025 6 32C10 35 16 36 18 36C20 36 26 35 30 32C32.633 30.025 34.61 27.716 35 27C35.343 26.37 36.129 23.513 35.734 19.929V19.929Z" fill="#FFCC4D"/>
<path d="M7 26C9.76142 26 12 23.7614 12 21C12 18.2386 9.76142 16 7 16C4.23858 16 2 18.2386 2 21C2 23.7614 4.23858 26 7 26Z" fill="#FF7892"/>
<path d="M29 26C31.7614 26 34 23.7614 34 21C34 18.2386 31.7614 16 29 16C26.2386 16 24 18.2386 24 21C24 23.7614 26.2386 26 29 26Z" fill="#FF7892"/>
<path d="M18 19.5C21 19.5 21 20 21 21C21 22 19.5 24 18 24C16.5 24 15 22 15 21C15 20 14.999 19.5 18 19.5Z" fill="#E75A70"/>
<path d="M2 3.00003C2.447 1.65803 7.64 4.00003 8.64 5.00003C8.64 5.00003 4 8.00003 3 11C3 11 1 6.00003 2 3.00003ZM34 3.00003C33.553 1.65803 28.36 4.00003 27.36 5.00003C27.36 5.00003 32 8.00003 33 11C33 11 35 6.00003 34 3.00003Z" fill="#F18F26"/>
<path d="M4.93399 5.603C4.93399 4.189 11 7 9.99999 8C8.99999 9 7.99999 9.603 6.99999 10.603C5.99999 11.603 4.93399 6.603 4.93399 5.603ZM31.066 5.603C31.066 4.189 25 7 26 8C27 9 28 9.603 29 10.603C30 11.603 31.066 6.603 31.066 5.603V5.603Z" fill="#FFCC4D"/>
<path d="M0.701004 25C0.553004 25 0.407004 24.935 0.308004 24.81C0.137004 24.593 0.174004 24.279 0.391004 24.108C0.553004 23.981 4.411 20.988 11.039 21.503C11.314 21.523 11.52 21.764 11.499 22.039C11.478 22.314 11.242 22.54 10.962 22.499C4.729 22.025 1.047 24.865 1.011 24.894C0.918004 24.965 0.809004 25 0.701004 25V25ZM9.569 20.337C9.52 20.337 9.469 20.33 9.42 20.315C4.63 18.818 0.683004 19.968 0.643004 19.979C0.378004 20.06 0.100004 19.909 0.0200041 19.644C-0.0589959 19.379 0.091004 19.101 0.355004 19.022C0.528004 18.97 4.641 17.775 9.717 19.36C9.981 19.443 10.128 19.723 10.045 19.987C9.979 20.2 9.782 20.337 9.569 20.337V20.337ZM35.299 25C35.447 25 35.593 24.935 35.692 24.81C35.863 24.593 35.826 24.279 35.609 24.108C35.447 23.981 31.589 20.988 24.961 21.503C24.686 21.523 24.48 21.764 24.501 22.039C24.522 22.314 24.758 22.54 25.038 22.499C31.271 22.025 34.953 24.865 34.989 24.894C35.082 24.965 35.191 25 35.299 25V25ZM26.431 20.337C26.48 20.337 26.531 20.33 26.58 20.315C31.37 18.818 35.317 19.968 35.357 19.979C35.622 20.06 35.9 19.909 35.98 19.644C36.059 19.379 35.909 19.101 35.645 19.022C35.472 18.97 31.359 17.775 26.283 19.36C26.019 19.443 25.872 19.723 25.955 19.987C26.02 20.2 26.218 20.337 26.431 20.337V20.337Z" fill="#FEE7B8"/>
<path d="M21.871 30C23.206 29.588 24.5 28.844 24.5 27.5C24.5 24.881 19.588 24.532 19.027 24.501C18.75 24.466 18.517 24.695 18.501 24.969C18.484 25.243 18.691 25.48 18.965 25.499C19 25.501 22.5 25.798 22.5 27.5C22.5 29.202 19 29.499 18.965 29.501C18.955 29.502 18.948 29.507 18.938 29.509C18.815 29.517 18.709 29.573 18.63 29.666C18.624 29.673 18.619 29.682 18.613 29.688C18.585 29.727 18.559 29.766 18.541 29.812C18.53 29.839 18.525 29.869 18.52 29.898C18.515 29.921 18.503 29.944 18.501 29.968C18.5 29.979 18.505 29.989 18.505 30C18.505 30.011 18.5 30.021 18.501 30.031C18.503 30.056 18.514 30.077 18.52 30.101C18.526 30.13 18.531 30.16 18.542 30.188C18.555 30.22 18.574 30.248 18.593 30.276C18.61 30.299 18.623 30.323 18.643 30.343C18.666 30.367 18.695 30.386 18.724 30.405C18.748 30.422 18.769 30.438 18.795 30.451C18.826 30.466 18.86 30.472 18.896 30.478C18.919 30.484 18.94 30.496 18.965 30.498C19 30.501 22.5 30.798 22.5 32.5C22.5 34.202 19 34.499 18.965 34.501C18.692 34.521 18.484 34.758 18.501 35.031C18.518 35.296 18.737 35.5 19 35.5L19.027 35.499C19.588 35.468 24.5 35.119 24.5 32.5C24.5 31.156 23.206 30.412 21.871 30V30ZM28.416 17.723C28.355 17.632 26.901 15.5 24 15.5C21.1 15.5 19.645 17.632 19.584 17.723C19.449 17.925 19.48 18.193 19.655 18.361C19.829 18.528 20.101 18.546 20.298 18.403C20.31 18.393 21.56 17.5 24 17.5C26.426 17.5 27.674 18.381 27.702 18.401C27.791 18.467 27.896 18.5 28 18.5C28.124 18.5 28.248 18.454 28.344 18.363C28.521 18.196 28.551 17.925 28.416 17.723V17.723ZM16.416 17.723C16.355 17.632 14.901 15.5 12 15.5C9.10001 15.5 7.64501 17.632 7.58401 17.723C7.45001 17.925 7.48001 18.193 7.65501 18.361C7.83001 18.528 8.10201 18.546 8.29701 18.403C8.31001 18.393 9.55901 17.5 12 17.5C14.426 17.5 15.674 18.381 15.702 18.401C15.791 18.467 15.896 18.5 16 18.5C16.124 18.5 16.248 18.454 16.344 18.363C16.521 18.196 16.551 17.925 16.416 17.723V17.723ZM31.001 16C30.696 16 30.397 15.862 30.2 15.6C27.559 12.079 24.139 12.001 23.994 12C23.444 11.994 23 11.544 23.003 10.995C23.006 10.444 23.45 10 24 10C24.184 10 28.537 10.05 31.8 14.4C32.132 14.842 32.042 15.469 31.6 15.8C31.42 15.935 31.21 16 31.001 16V16ZM4.99901 16C4.79101 16 4.58001 15.935 4.40001 15.8C3.95801 15.469 3.86901 14.842 4.20001 14.4C7.46201 10.05 11.816 10 12 10C12.552 10 13 10.448 13 11C13 11.551 12.555 11.998 12.004 12C11.848 12.002 8.43501 12.086 5.79901 15.6C5.60401 15.862 5.30301 16 4.99901 16Z" fill="#292F33"/>
</g>
<defs>
<clipPath id="clip0">
<rect width="36" height="36" fill="#FFFFFF"/>
</clipPath>
</defs>
</svg>
