<svg width="37" height="36" viewBox="0 0 37 36" fill="none" xmlns="http://www.w3.org/2000/svg">
<path d="M33.9058 17.1604C33.594 14.3453 33.2682 12.9158 32.3995 11.1935C32.3995 11.1935 35.0056 3.44314 33.2682 0.256877C32.6827 -0.816119 26.8362 1.7105 24.581 3.44314C24.581 3.44314 21.1062 2.58371 18.5 2.58371C15.8938 2.58371 12.419 3.44314 12.419 3.44314C10.1638 1.7105 4.31733 -0.816119 3.73181 0.256877C1.99438 3.44314 4.60053 11.1935 4.60053 11.1935C3.73181 12.9158 3.40604 14.3453 3.09417 17.1604C2.75103 20.2468 3.43384 22.7071 3.73181 23.2496C4.07061 23.8662 5.78807 25.8546 8.0754 27.5554C11.5503 30.1388 16.7626 31 18.5 31C20.2374 31 25.4497 30.1388 28.9246 27.5554C31.2119 25.8546 32.9294 23.8662 33.2682 23.2496C33.5662 22.7071 34.249 20.2468 33.9058 17.1604V17.1604Z" fill="#FFCC4D"/>
<path d="M18.5 17C21 17 21 17.4445 21 18.3333C21 19.2222 19.75 21 18.5 21C17.25 21 16 19.2222 16 18.3333C16 17.4445 15.9992 17 18.5 17Z" fill="#E75A70"/>
<path d="M5.23219 2.33705C5.60286 1.21934 9.90909 3.16992 10.7383 4.00279C10.7383 4.00279 6.89066 6.50139 6.06142 9C6.06142 9 4.40295 4.83566 5.23219 2.33705ZM31.7678 2.33705C31.3971 1.21934 27.0909 3.16992 26.2617 4.00279C26.2617 4.00279 30.1093 6.50139 30.9386 9C30.9386 9 32.597 4.83566 31.7678 2.33705Z" fill="#F18F26"/>
<path d="M8 5.28252C8 4.25816 12.8747 6.29457 12.0711 7.01901C11.2675 7.74346 10.4639 8.1803 9.66026 8.90474C8.85665 9.62919 8 6.00697 8 5.28252ZM29 5.28252C29 4.25816 24.1253 6.29457 24.9289 7.01901C25.7325 7.74346 26.5361 8.1803 27.3397 8.90474C28.1433 9.62919 29 6.00697 29 5.28252V5.28252Z" fill="#FFCC4D"/>
<path d="M3.60453 22C3.47709 22 3.35137 21.9396 3.26613 21.8235C3.11889 21.6219 3.15075 21.3302 3.3376 21.1714C3.47709 21.0534 6.79906 18.273 12.5062 18.7514C12.743 18.77 12.9203 18.9938 12.9022 19.2493C12.8842 19.5048 12.681 19.7147 12.4399 19.6766C7.07288 19.2363 3.90245 21.8746 3.87145 21.9015C3.79138 21.9675 3.69752 22 3.60453 22V22ZM11.2404 17.6682C11.1982 17.6682 11.1543 17.6617 11.1121 17.6478C6.98763 16.2571 3.58903 17.3254 3.55458 17.3356C3.3264 17.4109 3.08703 17.2706 3.01814 17.0244C2.95012 16.7782 3.07928 16.52 3.3066 16.4466C3.45556 16.3983 6.9971 15.2882 11.3678 16.7606C11.5952 16.8377 11.7217 17.0978 11.6503 17.3431C11.5934 17.5409 11.4238 17.6682 11.2404 17.6682V17.6682ZM33.3955 22C33.5229 22 33.6486 21.9396 33.7339 21.8235C33.8811 21.6219 33.8493 21.3302 33.6624 21.1714C33.5229 21.0534 30.2009 18.273 24.4938 18.7514C24.257 18.77 24.0797 18.9938 24.0977 19.2493C24.1158 19.5048 24.319 19.7147 24.5601 19.6766C29.9271 19.2363 33.0975 21.8746 33.1285 21.9015C33.2086 21.9675 33.3025 22 33.3955 22V22ZM25.7596 17.6682C25.8018 17.6682 25.8457 17.6617 25.8879 17.6478C30.0124 16.2571 33.411 17.3254 33.4454 17.3356C33.6736 17.4109 33.913 17.2706 33.9819 17.0244C34.0499 16.7782 33.9207 16.52 33.6934 16.4466C33.5444 16.3983 30.0029 15.2882 25.6322 16.7606C25.4048 16.8377 25.2783 17.0978 25.3497 17.3431C25.4057 17.5409 25.5762 17.6682 25.7596 17.6682V17.6682Z" fill="#FEE7B8"/>
<path d="M26.322 20.0151C25.5595 20.1673 22.402 21.4495 18.5 21.4495C14.598 21.4495 11.4405 20.1673 10.678 20.0151C9.91556 19.8637 9.82581 20.8659 10.2605 22.3471C10.696 23.8283 13.0372 27 18.5 27C23.9628 27 26.304 23.8283 26.7395 22.3471C27.1742 20.8659 27.0844 19.8637 26.322 20.0151Z" fill="#292F33"/>
<path d="M19.045 22.101L17.954 22.096C14.738 22.022 12.5 21.5 12.5 21.5V28.461C12.5 31.461 14.5 34.461 18.5 34.461C22.5 34.461 24.5 31.461 24.5 28.461V21.541C22.578 21.936 20.713 22.084 19.045 22.101V22.101Z" fill="#E8596E"/>
<path d="M18.546 30.344C18.847 30.344 19.091 30.1 19.091 29.799V22.105L18 22.1V29.799C18.001 30.1 18.245 30.344 18.546 30.344Z" fill="#DD2F45"/>
<path d="M30.1309 13.925C30.0257 13.8506 28.3484 12.6773 25.8422 11.874C25.8662 11.7734 25.8847 11.6701 25.8847 11.5625C25.8847 11.2396 25.7564 10.9474 25.5533 10.719C27.2167 10.264 28.6309 10.25 28.6558 10.25C29.1644 10.2482 29.577 9.85625 29.5761 9.37325C29.5752 8.89113 29.1635 8.5 28.654 8.5C28.45 8.5 23.6222 8.53325 20.6167 11.3814C20.3527 11.6316 20.2733 12.0079 20.4164 12.3351C20.5585 12.6615 20.8964 12.875 21.2693 12.875C25.5062 12.875 28.989 15.3014 29.0241 15.3259C29.1903 15.4431 29.3841 15.5 29.5761 15.5C29.8577 15.5 30.1346 15.3784 30.3164 15.1491C30.621 14.7615 30.538 14.2146 30.1309 13.925ZM16.3834 11.3814C13.3788 8.53325 8.55012 8.5 8.34612 8.5C7.83658 8.5 7.42396 8.89113 7.42396 9.37325C7.42304 9.85625 7.83566 10.2482 8.3452 10.25C8.3692 10.25 9.78336 10.264 11.4477 10.719C11.2437 10.9474 11.1154 11.2396 11.1154 11.5625C11.1154 11.6701 11.1329 11.7734 11.1588 11.874C8.65166 12.6773 6.97442 13.8506 6.86919 13.925C6.46118 14.2146 6.37903 14.7633 6.68457 15.15C6.8655 15.3793 7.14334 15.5 7.42396 15.5C7.61596 15.5 7.81073 15.4431 7.97689 15.325C8.01104 15.3005 11.4726 12.875 15.7308 12.875C16.1037 12.875 16.4406 12.6615 16.5837 12.3351C16.7268 12.0079 16.6474 11.6316 16.3834 11.3814Z" fill="#292F33"/>
</svg>
