<svg width="36" height="36" viewBox="0 0 36 36" fill="none" xmlns="http://www.w3.org/2000/svg">
<g clip-path="url(#clip0)">
<path d="M35.734 19.929C35.375 16.66 35 15 34 13C34 13 37 4 35 0.300003C34.326 -0.945997 27.596 1.988 25 4C25 4 21 3.002 18 3.002C15 3.002 11 4 11 4C8.404 1.988 1.674 -0.945997 1 0.300003C-1 4 2 13 2 13C1 15 0.625 16.66 0.266 19.929C-0.129 23.513 0.657 26.37 1 27C1.39 27.716 3.367 30.025 6 32C10 35 16 36 18 36C20 36 26 35 30 32C32.633 30.025 34.61 27.716 35 27C35.343 26.37 36.129 23.513 35.734 19.929V19.929Z" fill="#FFCC4D"/>
<path d="M18 19.5C21 19.5 21 20 21 21C21 22 19.5 24 18 24C16.5 24 15 22 15 21C15 20 14.999 19.5 18 19.5Z" fill="#E75A70"/>
<path d="M2 3.00003C2.447 1.65803 7.64 4.00003 8.64 5.00003C8.64 5.00003 4 8.00003 3 11C3 11 1 6.00003 2 3.00003ZM34 3.00003C33.553 1.65803 28.36 4.00003 27.36 5.00003C27.36 5.00003 32 8.00003 33 11C33 11 35 6.00003 34 3.00003Z" fill="#F18F26"/>
<path d="M4.93399 5.603C4.93399 4.189 11 7 9.99999 8C8.99999 9 7.99999 9.603 6.99999 10.603C5.99999 11.603 4.93399 6.603 4.93399 5.603ZM31.066 5.603C31.066 4.189 25 7 26 8C27 9 28 9.603 29 10.603C30 11.603 31.066 6.603 31.066 5.603V5.603Z" fill="#FFCC4D"/>
<path d="M0.701004 25C0.553004 25 0.407004 24.935 0.308004 24.81C0.137004 24.593 0.174004 24.279 0.391004 24.108C0.553004 23.981 4.411 20.988 11.039 21.503C11.314 21.523 11.52 21.764 11.499 22.039C11.478 22.314 11.242 22.54 10.962 22.499C4.729 22.025 1.047 24.865 1.011 24.894C0.918004 24.965 0.809004 25 0.701004 25V25ZM9.569 20.337C9.52 20.337 9.469 20.33 9.42 20.315C4.63 18.818 0.683004 19.968 0.643004 19.979C0.378004 20.06 0.100004 19.909 0.0200041 19.644C-0.0589959 19.379 0.091004 19.101 0.355004 19.022C0.528004 18.97 4.641 17.775 9.717 19.36C9.981 19.443 10.128 19.723 10.045 19.987C9.979 20.2 9.782 20.337 9.569 20.337V20.337ZM35.299 25C35.447 25 35.593 24.935 35.692 24.81C35.863 24.593 35.826 24.279 35.609 24.108C35.447 23.981 31.589 20.988 24.961 21.503C24.686 21.523 24.48 21.764 24.501 22.039C24.522 22.314 24.758 22.54 25.038 22.499C31.271 22.025 34.953 24.865 34.989 24.894C35.082 24.965 35.191 25 35.299 25V25ZM26.431 20.337C26.48 20.337 26.531 20.33 26.58 20.315C31.37 18.818 35.317 19.968 35.357 19.979C35.622 20.06 35.9 19.909 35.98 19.644C36.059 19.379 35.909 19.101 35.645 19.022C35.472 18.97 31.359 17.775 26.283 19.36C26.019 19.443 25.872 19.723 25.955 19.987C26.02 20.2 26.218 20.337 26.431 20.337V20.337Z" fill="#FEE7B8"/>
<path d="M28.0248 24.189C27.0478 24.381 23.0018 25.998 18.0018 25.998C13.0018 25.998 8.95579 24.381 7.97879 24.189C7.00179 23.998 6.88679 25.262 7.44379 27.13C8.00179 28.998 11.0018 32.998 18.0018 32.998C25.0018 32.998 28.0018 28.998 28.5598 27.13C29.1168 25.262 29.0018 23.998 28.0248 24.189Z" fill="#292F33"/>
<path d="M18.4106 27.4154L17.5923 27.4119C15.1803 27.3605 13.5018 26.998 13.5018 26.998V31.8317C13.5018 33.9149 15.0018 35.998 18.0018 35.998C21.0018 35.998 22.5018 33.9149 22.5018 31.8317V27.0265C21.0603 27.3001 19.6616 27.4029 18.4106 27.4154V27.4154Z" fill="#E8596E"/>
<path d="M18.0018 33.1365C18.2276 33.1365 18.4106 32.9671 18.4106 32.758V27.4154L17.5923 27.4119V32.758C17.5931 32.9671 17.7761 33.1365 18.0018 33.1365V33.1365Z" fill="#DD2F45"/>
<path d="M8.0018 24.998C8.0018 24.998 13.0018 26.998 18.0018 26.998C23.0018 26.998 28.0018 24.998 28.0018 24.998C28.0018 24.998 27.5018 27.998 26.5018 27.998C25.5018 27.998 25.0018 26.998 25.0018 26.998C25.0018 26.998 21.0018 28.998 18.0018 28.998C15.0018 28.998 11.0018 26.998 11.0018 26.998C11.0018 26.998 10.5018 27.998 9.5018 27.998C8.5018 27.998 8.0018 24.998 8.0018 24.998Z" fill="#F5F8FA"/>
<path d="M30.6 16.2C30.486 16.115 28.669 14.774 25.954 13.856C25.98 13.741 26 13.623 26 13.5C26 13.131 25.861 12.797 25.641 12.536C27.443 12.016 28.975 12 29.002 12C29.553 11.998 30 11.55 29.999 10.998C29.998 10.447 29.552 10 29 10C28.779 10 23.5489 10.038 20.2929 13.293C20.0069 13.579 19.921 14.009 20.076 14.383C20.23 14.756 20.596 15 21 15C25.59 15 29.3629 17.773 29.4009 17.801C29.5809 17.935 29.791 18 29.999 18C30.304 18 30.604 17.861 30.801 17.599C31.131 17.156 31.041 16.531 30.6 16.2ZM15.707 13.293C12.452 10.038 7.22095 10 6.99995 10C6.44795 10 6.00095 10.447 6.00095 10.998C5.99995 11.55 6.44695 11.998 6.99895 12C7.02495 12 8.55695 12.016 10.36 12.536C10.139 12.797 9.99995 13.131 9.99995 13.5C9.99995 13.623 10.019 13.741 10.047 13.856C7.33095 14.774 5.51395 16.115 5.39995 16.2C4.95795 16.531 4.86895 17.158 5.19995 17.6C5.39595 17.862 5.69695 18 6.00095 18C6.20895 18 6.41995 17.935 6.59995 17.8C6.63695 17.772 10.387 15 15 15C15.404 15 15.769 14.756 15.924 14.383C16.079 14.009 15.993 13.579 15.707 13.293Z" fill="#292F33"/>
</g>
<defs>
<clipPath id="clip0">
<rect width="36" height="36" fill="#FFFFFF"/>
</clipPath>
</defs>
</svg>
