<svg width="36" height="36" viewBox="0 0 36 36" fill="none" xmlns="http://www.w3.org/2000/svg">
<g clip-path="url(#clip0)">
<path d="M35.734 19.929C35.375 16.66 35 15 34 13C34 13 37 4 35 0.300003C34.326 -0.945997 27.596 1.988 25 4C25 4 21 3.002 18 3.002C15 3.002 11 4 11 4C8.404 1.988 1.674 -0.945997 1 0.300003C-1 4 2 13 2 13C1 15 0.625 16.66 0.266 19.929C-0.129 23.513 0.657 26.37 1 27C1.39 27.716 3.367 30.025 6 32C10 35 16 36 18 36C20 36 26 35 30 32C32.633 30.025 34.61 27.716 35 27C35.343 26.37 36.129 23.513 35.734 19.929V19.929Z" fill="#FFCC4D"/>
<path fill-rule="evenodd" clip-rule="evenodd" d="M34 13C35 15 35.375 16.66 35.734 19.929C35.8559 21.0348 35.8653 22.0714 35.81 22.9948C34.1841 17.1613 26.7479 12.7442 18.0015 12.7442C9.25349 12.7442 1.81449 17.164 0.191491 23C0.190912 22.9971 0.190334 22.9942 0.189759 22.9913C0.134704 22.0689 0.144276 21.0335 0.266 19.929C0.625 16.66 1 15 2 13C2 13 1.88611 12.6583 1.7175 12.0807C3.52138 8.35169 6.62844 5.34155 10.4644 3.61123C10.6576 3.74362 10.8369 3.87363 11 4.00001C11 4.00001 15 3.00201 18 3.00201C21 3.00201 25 4.00001 25 4.00001C25.1634 3.87334 25.3433 3.74301 25.5369 3.61031C29.3725 5.33985 32.4793 8.34884 34.2837 12.0767C34.1144 12.6567 34 13 34 13Z" fill="#BDDDF4"/>
<path fill-rule="evenodd" clip-rule="evenodd" d="M34.306 12H1.69402C0.985036 9.55239 -0.592483 3.2461 1 0.300003C1.674 -0.945997 8.404 1.988 11 4C11 4 15 3.002 18 3.002C21 3.002 25 4 25 4C27.596 1.988 34.326 -0.945997 35 0.300003C36.5925 3.2461 35.015 9.55239 34.306 12Z" fill="#BDDDF4"/>
<path d="M2 3C2.447 1.658 7.64 4 8.64 5C8.64 5 4 8 3 11C3 11 1 6 2 3ZM34 3C33.553 1.658 28.36 4 27.36 5C27.36 5 32 8 33 11C33 11 35 6 34 3Z" fill="#7BBBE9"/>
<path d="M4.934 5.603C4.934 4.189 11 7 10 8C9 9 8 9.603 7 10.603C6 11.603 4.934 6.603 4.934 5.603ZM31.066 5.603C31.066 4.189 25 7 26 8C27 9 28 9.603 29 10.603C30 11.603 31.066 6.603 31.066 5.603Z" fill="#BDDDF4"/>
<path d="M0.700996 25C0.552996 25 0.406996 24.935 0.307996 24.81C0.136996 24.593 0.173996 24.279 0.390996 24.108C0.552996 23.981 4.411 20.988 11.039 21.503C11.314 21.523 11.52 21.764 11.499 22.039C11.478 22.314 11.242 22.54 10.962 22.499C4.729 22.025 1.047 24.865 1.011 24.894C0.917996 24.965 0.808996 25 0.700996 25ZM9.569 20.337C9.52 20.337 9.469 20.33 9.42 20.315C4.63 18.818 0.682996 19.968 0.642996 19.979C0.377996 20.06 0.0999964 19.909 0.0199964 19.644C-0.0590036 19.379 0.0909964 19.101 0.354996 19.022C0.527996 18.97 4.641 17.775 9.717 19.36C9.981 19.443 10.128 19.723 10.045 19.987C9.979 20.2 9.782 20.337 9.569 20.337ZM35.299 25C35.447 25 35.593 24.935 35.692 24.81C35.863 24.593 35.826 24.279 35.609 24.108C35.447 23.981 31.589 20.988 24.961 21.503C24.686 21.523 24.48 21.764 24.501 22.039C24.522 22.314 24.758 22.54 25.038 22.499C31.271 22.025 34.953 24.865 34.989 24.894C35.082 24.965 35.191 25 35.299 25ZM26.431 20.337C26.48 20.337 26.531 20.33 26.58 20.315C31.37 18.818 35.317 19.968 35.357 19.979C35.622 20.06 35.9 19.909 35.98 19.644C36.059 19.379 35.909 19.101 35.645 19.022C35.472 18.97 31.359 17.775 26.283 19.36C26.019 19.443 25.872 19.723 25.955 19.987C26.02 20.2 26.218 20.337 26.431 20.337Z" fill="#FEE7B8"/>
<path d="M25.362 30.636C24.879 29.87 21.947 25.5 18 25.5C13.766 25.5 10.7 30.528 10.572 30.743C10.451 30.943 10.487 31.2 10.656 31.362C10.75 31.453 10.875 31.5 11 31.5C11.096 31.5 11.193 31.473 11.277 31.416C11.306 31.396 14.195 29.5 18 29.5C21.792 29.5 24.695 31.397 24.723 31.416C24.809 31.474 24.938 31.512 25.004 31.5C25.281 31.496 25.52 31.281 25.52 31C25.52 30.856 25.46 30.728 25.362 30.636Z" fill="#292F33"/>
<path d="M18 19.5C21 19.5 21 20 21 21C21 22 19.5 24 18 24C16.5 24 15 22 15 21C15 20 14.999 19.5 18 19.5Z" fill="#E75A70"/>
<path d="M12 18C13.1046 18 14 16.433 14 14.5C14 12.567 13.1046 11 12 11C10.8954 11 10 12.567 10 14.5C10 16.433 10.8954 18 12 18Z" fill="#292F33"/>
<path d="M24 18C25.1046 18 26 16.433 26 14.5C26 12.567 25.1046 11 24 11C22.8954 11 22 12.567 22 14.5C22 16.433 22.8954 18 24 18Z" fill="#292F33"/>
<path d="M31.001 14C30.696 14 30.397 13.862 30.2 13.6C27.559 10.079 24.139 10.001 23.994 10C23.444 9.994 23 9.544 23.003 8.995C23.006 8.444 23.45 8 24 8C24.184 8 28.537 8.05 31.8 12.4C32.132 12.842 32.042 13.469 31.6 13.8C31.42 13.935 31.21 14 31.001 14ZM4.999 14C4.791 14 4.58 13.935 4.4 13.8C3.958 13.469 3.869 12.842 4.2 12.4C7.462 8.05 11.816 8 12 8C12.552 8 13 8.448 13 9C13 9.551 12.555 9.998 12.004 10C11.848 10.002 8.435 10.086 5.799 13.6C5.604 13.862 5.303 14 4.999 14Z" fill="#292F33"/>
</g>
<defs>
<clipPath id="clip0">
<rect width="36" height="36" fill="#FFFFFF"/>
</clipPath>
</defs>
</svg>
