<svg width="36" height="36" viewBox="0 0 36 36" fill="none" xmlns="http://www.w3.org/2000/svg">
<path d="M35.734 19.929C35.375 16.66 35 15 34 13C34 13 37 4 35 0.300003C34.326 -0.945997 27.596 1.988 25 4C25 4 21 3.002 18 3.002C15 3.002 11 4 11 4C8.404 1.988 1.674 -0.945997 1 0.300003C-1 4 2 13 2 13C1 15 0.625 16.66 0.266 19.929C-0.129 23.513 0.657 26.37 1 27C1.39 27.716 3.367 30.025 6 32C10 35 16 36 18 36C20 36 26 35 30 32C32.633 30.025 34.61 27.716 35 27C35.343 26.37 36.129 23.513 35.734 19.929Z" fill="#FFCC4D"/>
<path d="M17.2397 19.8947C20.2318 20.1125 20.1955 20.6112 20.1229 21.6085C20.0503 22.6059 18.409 24.4917 16.913 24.3828C15.4169 24.2739 14.0661 22.1702 14.1387 21.1729C14.2113 20.1755 14.2467 19.6767 17.2397 19.8947Z" fill="#E75A70"/>
<path d="M2 3.00003C2.447 1.65803 7.64 4.00003 8.64 5.00003C8.64 5.00003 4 8.00003 3 11C3 11 1 6.00003 2 3.00003ZM34 3.00003C33.553 1.65803 28.36 4.00003 27.36 5.00003C27.36 5.00003 32 8.00003 33 11C33 11 35 6.00003 34 3.00003Z" fill="#F18F26"/>
<path d="M4.93399 5.603C4.93399 4.189 11 7 9.99999 8C8.99999 9 7.99999 9.603 6.99999 10.603C5.99999 11.603 4.93399 6.603 4.93399 5.603ZM31.066 5.603C31.066 4.189 25 7 26 8C27 9 28 9.603 29 10.603C30 11.603 31.066 6.603 31.066 5.603Z" fill="#FFCC4D"/>
<path d="M0.509686 25.1797C0.362726 25.169 0.222452 25.0939 0.133185 24.9626C-0.0209249 24.7348 0.0385154 24.4256 0.266352 24.2715C0.436394 24.1571 4.48364 21.4641 11.0278 22.4546C11.2995 22.4944 11.4866 22.7486 11.4458 23.0201C11.4051 23.2917 11.1544 23.499 10.8794 23.4381C4.72444 22.5168 0.863018 25.0705 0.825174 25.0967C0.727697 25.1605 0.616926 25.1875 0.509686 25.1797ZM9.65243 21.1906C9.60378 21.187 9.55364 21.1764 9.50607 21.1579C4.85798 19.3252 0.855596 20.1817 0.815082 20.1898C0.54609 20.2511 0.280968 20.0809 0.220689 19.812C0.161402 19.5431 0.330438 19.278 0.598293 19.2187C0.773835 19.1796 4.9443 18.2903 9.87002 20.2311C10.1262 20.3326 10.2519 20.6213 10.1504 20.8774C10.0695 21.0842 9.86394 21.206 9.65243 21.1906ZM34.8644 27.6809C35.0114 27.6916 35.1611 27.6376 35.2684 27.5206C35.4539 27.3175 35.4398 27.0031 35.2367 26.8176C35.0851 26.6798 31.4706 23.4289 24.8519 23.4611C24.5774 23.4611 24.3554 23.6855 24.3564 23.9601C24.3574 24.2347 24.5754 24.4761 24.8564 24.4557C31.0798 24.4356 34.5306 27.5217 34.5643 27.5531C34.6515 27.6304 34.7572 27.6731 34.8644 27.6809ZM26.3959 22.4096C26.4446 22.4131 26.4957 22.4099 26.5454 22.3985C31.41 21.2583 35.2461 22.6856 35.285 22.6994C35.5423 22.799 35.8293 22.669 35.9279 22.4117C36.0255 22.1543 35.8966 21.8675 35.6402 21.7699C35.4721 21.7058 31.4745 20.2219 26.3196 21.4288C26.0514 21.4921 25.8852 21.7595 25.9485 22.0276C25.9977 22.2438 26.1844 22.3942 26.3959 22.4096Z" fill="#FEE7B8"/>
<path d="M29.52 15C29.226 15 28.938 14.862 28.749 14.6C26.206 11.079 22.912 11.001 22.773 11C22.243 10.994 21.816 10.544 21.819 9.995C21.822 9.444 22.249 9 22.779 9C22.956 9 27.148 9.05 30.29 13.4C30.61 13.842 30.523 14.469 30.097 14.8C29.923 14.935 29.721 15 29.52 15ZM4.48001 15C4.28001 15 4.07701 14.935 3.90301 14.8C3.47701 14.469 3.39201 13.842 3.71001 13.4C6.85101 9.05 11.044 9 11.221 9C11.753 9 12.184 9.448 12.184 10C12.184 10.551 11.755 10.998 11.225 11C11.075 11.002 7.78801 11.086 5.25001 14.6C5.06301 14.862 4.77301 15 4.48001 15ZM14.703 16.598C14.69 16.607 13.441 17.5 11 17.5C8.55801 17.5 7.31001 16.607 7.30001 16.6C7.10601 16.454 6.83401 16.468 6.65601 16.637C6.47901 16.804 6.44801 17.075 6.58401 17.278C6.64501 17.368 8.09901 19.5 11 19.5C13.9 19.5 15.355 17.368 15.416 17.277C15.55 17.075 15.52 16.807 15.345 16.639C15.169 16.47 14.896 16.455 14.703 16.598ZM27.345 16.64C27.17 16.471 26.898 16.454 26.702 16.598C26.69 16.607 25.44 17.5 23 17.5C20.559 17.5 19.31 16.607 19.3 16.6C19.107 16.454 18.834 16.468 18.656 16.637C18.479 16.804 18.449 17.075 18.584 17.278C18.645 17.368 20.099 19.5 23 19.5C25.9 19.5 27.355 17.368 27.416 17.277C27.551 17.076 27.52 16.808 27.345 16.64Z" fill="#292F33"/>
<path d="M16.7007 26.0287C19.6754 26.0287 20.4527 28.48 20.4602 28.5049C20.4979 28.6281 20.4308 28.7565 20.2964 28.8198C20.2436 28.8442 20.1854 28.856 20.1278 28.856C20.0421 28.856 19.9571 28.8295 19.892 28.7786C19.8653 28.7599 19.1613 28.2906 16.7007 28.2906C14.2029 28.2906 13.5148 28.774 13.5086 28.7786C13.3969 28.8611 13.229 28.8758 13.1001 28.8125C12.9712 28.7486 12.9047 28.6253 12.9411 28.5049C12.9486 28.48 13.7259 26.0287 16.7007 26.0287Z" fill="#292F33"/>
<path d="M3.73314 30.1961C3.70015 30.2376 3.66057 30.2715 3.62853 30.3158C2.78035 31.5136 3.06402 33.1732 4.2609 34.0214C5.00353 34.5473 5.92334 34.6368 6.7178 34.3447C6.95812 34.7264 7.27478 35.0703 7.66588 35.3474C9.2633 36.4793 11.4761 36.1014 12.607 34.5039C13.7389 32.9065 13.361 30.6937 11.7636 29.5628C10.7768 28.8635 9.55451 28.7438 8.49805 29.1293C8.67334 28.1454 8.29448 27.105 7.42462 26.4896C6.2268 25.6404 4.56719 25.9241 3.719 27.1219C3.04799 28.0709 3.09512 29.3008 3.73314 30.1961V30.1961Z" fill="#DEE7ED"/>
<path d="M16.9676 27.9475C16.945 27.9626 15.2882 29.1849 14.0357 30.8813C13.5739 31.5071 13.3035 32.2431 13.0565 32.981C12.9764 33.2204 12.8633 33.4513 12.7173 33.6681C12.6984 33.7152 12.6701 33.7529 12.6419 33.8C12.5005 33.9979 12.3403 34.177 12.1612 34.3372C11.1151 35.2513 9.54129 35.3739 8.34441 34.5351C8.00513 34.2901 7.73183 33.9979 7.52449 33.6586C6.8271 33.9131 6.02604 33.8377 5.38519 33.3759C4.33909 32.6408 4.09406 31.1989 4.82915 30.1528C4.85743 30.1151 4.89512 30.0869 4.9234 30.0492C4.24485 29.1067 4.33815 27.7157 5.3899 26.8845C6.2984 26.1673 7.55088 26.2842 8.4198 27.0485L8.44336 27.0692C9.48003 28.0003 10.8296 28.5205 12.2018 28.2793C13.3308 28.0804 14.7538 27.7204 16.5435 27.1182C16.7603 27.0428 17.0053 27.1465 17.109 27.3538C17.2221 27.5611 17.1561 27.8156 16.9676 27.9475V27.9475Z" fill="#F3F7F9"/>
</svg>
