<svg width="36" height="36" viewBox="0 0 36 36" fill="none" xmlns="http://www.w3.org/2000/svg">
<g clip-path="url(#clip0)">
<path d="M35.734 19.929C35.375 16.66 35 15 34 13C34 13 37 4 35 0.300003C34.326 -0.945997 27.596 1.988 25 4C25 4 21 3.002 18 3.002C15 3.002 11 4 11 4C8.404 1.988 1.674 -0.945997 1 0.300003C-1 4 2 13 2 13C1 15 0.625 16.66 0.266 19.929C-0.129 23.513 0.657 26.37 1 27C1.39 27.716 3.367 30.025 6 32C10 35 16 36 18 36C20 36 26 35 30 32C32.633 30.025 34.61 27.716 35 27C35.343 26.37 36.129 23.513 35.734 19.929V19.929Z" fill="#DA2F47"/>
<path d="M18 19.5C21 19.5 21 20 21 21C21 22 19.5 24 18 24C16.5 24 15 22 15 21C15 20 14.999 19.5 18 19.5Z" fill="#E75A70"/>
<path d="M2 3C2.447 1.658 7.64 4 8.64 5C8.64 5 4 8 3 11C3 11 1 6 2 3ZM34 3C33.553 1.658 28.36 4 27.36 5C27.36 5 32 8 33 11C33 11 35 6 34 3Z" fill="#A01C2F"/>
<path d="M4.93399 5.603C4.93399 4.189 11 7 9.99999 8C8.99999 9 7.99999 9.603 6.99999 10.603C5.99999 11.603 4.93399 6.603 4.93399 5.603ZM31.066 5.603C31.066 4.189 25 7 26 8C27 9 28 9.603 29 10.603C30 11.603 31.066 6.603 31.066 5.603V5.603Z" fill="#DA2F47"/>
<path d="M0.701004 25C0.553004 25 0.407004 24.935 0.308004 24.81C0.137004 24.593 0.174004 24.279 0.391004 24.108C0.553004 23.981 4.411 20.988 11.039 21.503C11.314 21.523 11.52 21.764 11.499 22.039C11.478 22.314 11.242 22.54 10.962 22.499C4.729 22.025 1.047 24.865 1.011 24.894C0.918004 24.965 0.809004 25 0.701004 25V25ZM9.569 20.337C9.52 20.337 9.469 20.33 9.42 20.315C4.63 18.818 0.683004 19.968 0.643004 19.979C0.378004 20.06 0.100004 19.909 0.0200041 19.644C-0.0589959 19.379 0.091004 19.101 0.355004 19.022C0.528004 18.97 4.641 17.775 9.717 19.36C9.981 19.443 10.128 19.723 10.045 19.987C9.979 20.2 9.782 20.337 9.569 20.337V20.337ZM35.299 25C35.447 25 35.593 24.935 35.692 24.81C35.863 24.593 35.826 24.279 35.609 24.108C35.447 23.981 31.589 20.988 24.961 21.503C24.686 21.523 24.48 21.764 24.501 22.039C24.522 22.314 24.758 22.54 25.038 22.499C31.271 22.025 34.953 24.865 34.989 24.894C35.082 24.965 35.191 25 35.299 25V25ZM26.431 20.337C26.48 20.337 26.531 20.33 26.58 20.315C31.37 18.818 35.317 19.968 35.357 19.979C35.622 20.06 35.9 19.909 35.98 19.644C36.059 19.379 35.909 19.101 35.645 19.022C35.472 18.97 31.359 17.775 26.283 19.36C26.019 19.443 25.872 19.723 25.955 19.987C26.02 20.2 26.218 20.337 26.431 20.337V20.337Z" fill="#FEE7B8"/>
<path d="M25.362 30.28C24.879 29.642 21.947 26 18 26C13.766 26 10.7 30.191 10.572 30.37C10.451 30.537 10.487 30.751 10.656 30.886C10.75 30.961 10.875 31 11 31C11.096 31 11.193 30.977 11.277 30.93C11.306 30.914 14.195 29.333 17.999 29.333C21.791 29.333 24.694 30.914 24.722 30.93C24.808 30.978 24.937 31.01 25.003 31C25.28 30.997 25.519 30.818 25.519 30.583C25.52 30.464 25.46 30.357 25.362 30.28Z" fill="#292F33"/>
<path d="M12 18C13.1046 18 14 16.433 14 14.5C14 12.567 13.1046 11 12 11C10.8954 11 10 12.567 10 14.5C10 16.433 10.8954 18 12 18Z" fill="#292F33"/>
<path d="M24 18C25.1046 18 26 16.433 26 14.5C26 12.567 25.1046 11 24 11C22.8954 11 22 12.567 22 14.5C22 16.433 22.8954 18 24 18Z" fill="#292F33"/>
<path d="M21.137 13.031C20.912 12.971 20.712 12.816 20.59 12.581C20.347 12.112 20.511 11.5 20.956 11.215C25.79 8.116 29.572 9.079 29.731 9.122C30.217 9.252 30.495 9.79 30.352 10.324C30.21 10.856 29.702 11.183 29.217 11.055C29.159 11.04 25.947 10.278 21.834 12.914C21.613 13.058 21.363 13.092 21.137 13.031V13.031ZM14.863 13.032C14.638 13.092 14.387 13.058 14.165 12.916C10.035 10.269 6.813 11.049 6.781 11.057C6.295 11.181 5.788 10.852 5.648 10.32C5.508 9.788 5.784 9.254 6.268 9.124C6.427 9.082 10.209 8.119 15.043 11.217C15.488 11.502 15.652 12.113 15.409 12.583C15.288 12.817 15.088 12.971 14.863 13.032Z" fill="#292F33"/>
</g>
<defs>
<clipPath id="clip0">
<rect width="36" height="36" fill="#FFFFFF"/>
</clipPath>
</defs>
</svg>
