<svg width="36" height="36" viewBox="0 0 36 36" fill="none" xmlns="http://www.w3.org/2000/svg">
<g clip-path="url(#clip0)">
<path d="M35.734 19.929C35.375 16.66 35 15 34 13C34 13 37 4 35 0.300003C34.326 -0.945997 27.596 1.988 25 4C25 4 21 3.002 18 3.002C15 3.002 11 4 11 4C8.404 1.988 1.674 -0.945997 1 0.300003C-1 4 2 13 2 13C1 15 0.625 16.66 0.266 19.929C-0.129 23.513 0.657 26.37 1 27C1.39 27.716 3.367 30.025 6 32C10 35 16 36 18 36C20 36 26 35 30 32C32.633 30.025 34.61 27.716 35 27C35.343 26.37 36.129 23.513 35.734 19.929V19.929Z" fill="#FFCC4D"/>
<path d="M18 19C21 19 21 19.5 21 20.5C21 21.5 19.5 23.5 18 23.5C16.5 23.5 15 21.5 15 20.5C15 19.5 14.999 19 18 19Z" fill="#E75A70"/>
<path d="M2 3C2.447 1.658 7.64 4 8.64 5C8.64 5 4 8 3 11C3 11 1 6 2 3ZM34 3C33.553 1.658 28.36 4 27.36 5C27.36 5 32 8 33 11C33 11 35 6 34 3Z" fill="#F18F26"/>
<path d="M4.93401 5.603C4.93401 4.189 11 7 10 8C9.00001 9 8.00001 9.603 7.00001 10.603C6.00001 11.603 4.93401 6.603 4.93401 5.603ZM31.066 5.603C31.066 4.189 25 7 26 8C27 9 28 9.603 29 10.603C30 11.603 31.066 6.603 31.066 5.603V5.603Z" fill="#FFCC4D"/>
<path d="M0.701004 25C0.553004 25 0.407004 24.935 0.308004 24.81C0.137004 24.593 0.174004 24.279 0.391004 24.108C0.553004 23.981 4.411 20.988 11.039 21.503C11.314 21.523 11.52 21.764 11.499 22.039C11.478 22.314 11.242 22.54 10.962 22.499C4.729 22.025 1.047 24.865 1.011 24.894C0.918004 24.965 0.809004 25 0.701004 25V25ZM9.569 20.337C9.52 20.337 9.469 20.33 9.42 20.315C4.63 18.818 0.683004 19.968 0.643004 19.979C0.378004 20.06 0.100004 19.909 0.0200041 19.644C-0.0589959 19.379 0.091004 19.101 0.355004 19.022C0.528004 18.97 4.641 17.775 9.717 19.36C9.981 19.443 10.128 19.723 10.045 19.987C9.979 20.2 9.782 20.337 9.569 20.337V20.337ZM35.299 25C35.447 25 35.593 24.935 35.692 24.81C35.863 24.593 35.826 24.279 35.609 24.108C35.447 23.981 31.589 20.988 24.961 21.503C24.686 21.523 24.48 21.764 24.501 22.039C24.522 22.314 24.758 22.54 25.038 22.499C31.271 22.025 34.953 24.865 34.989 24.894C35.082 24.965 35.191 25 35.299 25V25ZM26.431 20.337C26.48 20.337 26.531 20.33 26.58 20.315C31.37 18.818 35.317 19.968 35.357 19.979C35.622 20.06 35.9 19.909 35.98 19.644C36.059 19.379 35.909 19.101 35.645 19.022C35.472 18.97 31.359 17.775 26.283 19.36C26.019 19.443 25.872 19.723 25.955 19.987C26.02 20.2 26.218 20.337 26.431 20.337V20.337Z" fill="#FEE7B8"/>
<path d="M19.9999 14C19.9449 14 19.8909 13.996 19.8349 13.986C19.2899 13.895 18.9219 13.38 19.0129 12.835C19.4059 10.471 21.5829 6 26.9989 6C27.5519 6 27.9989 6.448 27.9989 7C27.9989 7.552 27.5519 8 26.9989 8C21.9039 8 21.0199 12.954 20.9849 13.165C20.9039 13.653 20.4799 14 19.9999 14ZM15.9979 14C15.5189 14 15.0959 13.655 15.0129 13.167C14.9759 12.957 14.0579 8 8.99887 8C8.44687 8 7.99887 7.552 7.99887 7C7.99887 6.448 8.44687 6 8.99887 6C14.4149 6 16.5909 10.471 16.9849 12.835C17.0759 13.38 16.7079 13.895 16.1629 13.986C16.1079 13.996 16.0519 14 15.9979 14ZM11.4089 18.892C9.07387 18.892 7.53887 17.895 7.44487 17.832C6.98587 17.526 6.86187 16.905 7.16787 16.445C7.47387 15.985 8.09387 15.86 8.55487 16.168C8.65387 16.232 11.1569 17.804 14.5529 16.106C15.0479 15.859 15.6479 16.06 15.8949 16.553C16.1419 17.047 15.9419 17.648 15.4479 17.895C13.9529 18.641 12.5799 18.892 11.4089 18.892ZM24.5899 18.892C23.4179 18.892 22.0449 18.641 20.5519 17.894C20.0579 17.647 19.8579 17.046 20.1049 16.552C20.3529 16.058 20.9529 15.858 21.4469 16.105C24.8469 17.805 27.3459 16.231 27.4509 16.164C27.9109 15.866 28.5319 15.994 28.8329 16.453C29.1349 16.912 29.0119 17.527 28.5549 17.832C28.4589 17.895 26.9239 18.892 24.5899 18.892Z" fill="#292F33"/>
<path d="M26.0011 31C25.6961 31 25.3971 30.862 25.2001 30.6C25.1751 30.566 22.4181 27 18.0001 27C13.5831 27 10.8261 30.566 10.7981 30.603C10.4651 31.041 9.83709 31.128 9.39809 30.797C8.95809 30.465 8.86909 29.841 9.20009 29.4C9.33509 29.22 12.5621 25 18.0001 25C23.4381 25 26.6651 29.221 26.8001 29.4C27.1321 29.841 27.0421 30.468 26.6001 30.799C26.4201 30.935 26.2101 31 26.0011 31Z" fill="#292F33"/>
<path d="M15.391 20.08C14.938 19.885 14.412 20.053 14.152 20.47L9.152 28.47C8.96 28.779 8.949 29.167 9.126 29.485C9.302 29.803 9.636 30 10 30H13C13.459 30 13.859 29.688 13.97 29.242L15.97 21.242C16.089 20.766 15.844 20.272 15.391 20.08V20.08ZM26.848 28.47L21.848 20.47C21.586 20.052 21.061 19.886 20.61 20.08C20.157 20.272 19.911 20.766 20.031 21.242L22.031 29.242C22.142 29.688 22.541 30 23 30H26C26.363 30 26.698 29.803 26.875 29.484C27.051 29.167 27.041 28.778 26.848 28.47V28.47Z" fill="#F5F8FA"/>
<path d="M31.982 30.178C31.985 30.118 32 30.061 32 30C32 28.344 30.656 27 29 27C27.973 27 27.068 27.518 26.527 28.305C26.057 28.11 25.541 28 25 28C22.791 28 21 29.791 21 32C21 34.209 22.791 36 25 36C26.365 36 27.568 35.313 28.29 34.269C28.77 35.289 29.798 36 31 36C32.657 36 34 34.657 34 33C34 31.688 33.154 30.586 31.982 30.178ZM11 28C10.458 28 9.944 28.11 9.473 28.305C8.932 27.518 8.027 27 7 27C5.344 27 4 28.344 4 30C4 30.061 4.014 30.118 4.018 30.178C2.846 30.586 2 31.688 2 33C2 34.657 3.343 36 5 36C6.202 36 7.231 35.289 7.709 34.269C8.432 35.313 9.634 36 11 36C13.209 36 15 34.209 15 32C15 29.791 13.209 28 11 28Z" fill="#E1E8ED"/>
</g>
<defs>
<clipPath id="clip0">
<rect width="36" height="36" fill="#FFFFFF"/>
</clipPath>
</defs>
</svg>
