<svg width="36" height="36" viewBox="0 0 36 36" fill="none" xmlns="http://www.w3.org/2000/svg">
<g clip-path="url(#clip0)">
<path d="M35.734 19.929C35.375 16.66 35 15 34 13C34 13 37 4 35 0.300003C34.326 -0.945997 27.596 1.988 25 4C25 4 21 3.002 18 3.002C15 3.002 11 4 11 4C8.404 1.988 1.674 -0.945997 1 0.300003C-1 4 2 13 2 13C1 15 0.625 16.66 0.266 19.929C-0.129 23.513 0.657 26.37 1 27C1.39 27.716 3.367 30.025 6 32C10 35 16 36 18 36C20 36 26 35 30 32C32.633 30.025 34.61 27.716 35 27C35.343 26.37 36.129 23.513 35.734 19.929V19.929Z" fill="#FFCC4D"/>
<path d="M18 19.5C21 19.5 21 20 21 21C21 22 19.5 24 18 24C16.5 24 15 22 15 21C15 20 14.999 19.5 18 19.5Z" fill="#E75A70"/>
<path d="M2 3.00003C2.447 1.65803 7.64 4.00003 8.64 5.00003C8.64 5.00003 4 8.00003 3 11C3 11 1 6.00003 2 3.00003ZM34 3.00003C33.553 1.65803 28.36 4.00003 27.36 5.00003C27.36 5.00003 32 8.00003 33 11C33 11 35 6.00003 34 3.00003Z" fill="#F18F26"/>
<path d="M4.93401 5.603C4.93401 4.189 11 7 10 8C9.00001 9 8.00001 9.603 7.00001 10.603C6.00001 11.603 4.93401 6.603 4.93401 5.603ZM31.066 5.603C31.066 4.189 25 7 26 8C27 9 28 9.603 29 10.603C30 11.603 31.066 6.603 31.066 5.603V5.603Z" fill="#FFCC4D"/>
<path d="M0.701004 25C0.553004 25 0.407004 24.935 0.308004 24.81C0.137004 24.593 0.174004 24.279 0.391004 24.108C0.553004 23.981 4.411 20.988 11.039 21.503C11.314 21.523 11.52 21.764 11.499 22.039C11.478 22.314 11.242 22.54 10.962 22.499C4.729 22.025 1.047 24.865 1.011 24.894C0.918004 24.965 0.809004 25 0.701004 25V25ZM9.569 20.337C9.52 20.337 9.469 20.33 9.42 20.315C4.63 18.818 0.683004 19.968 0.643004 19.979C0.378004 20.06 0.100004 19.909 0.0200041 19.644C-0.0589959 19.379 0.091004 19.101 0.355004 19.022C0.528004 18.97 4.641 17.775 9.717 19.36C9.981 19.443 10.128 19.723 10.045 19.987C9.979 20.2 9.782 20.337 9.569 20.337V20.337ZM35.299 25C35.447 25 35.593 24.935 35.692 24.81C35.863 24.593 35.826 24.279 35.609 24.108C35.447 23.981 31.589 20.988 24.961 21.503C24.686 21.523 24.48 21.764 24.501 22.039C24.522 22.314 24.758 22.54 25.038 22.499C31.271 22.025 34.953 24.865 34.989 24.894C35.082 24.965 35.191 25 35.299 25V25ZM26.431 20.337C26.48 20.337 26.531 20.33 26.58 20.315C31.37 18.818 35.317 19.968 35.357 19.979C35.622 20.06 35.9 19.909 35.98 19.644C36.059 19.379 35.909 19.101 35.645 19.022C35.472 18.97 31.359 17.775 26.283 19.36C26.019 19.443 25.872 19.723 25.955 19.987C26.02 20.2 26.218 20.337 26.431 20.337V20.337Z" fill="#FEE7B8"/>
<path d="M26.2821 31.9849C25.4748 31.8327 22.1315 30.5505 18 30.5505C13.8685 30.5505 10.5252 31.8327 9.7179 31.9849C8.91059 32.1363 8.81557 31.1341 9.27582 29.6529C9.7369 28.1717 12.2158 25 18 25C23.7842 25 26.2631 28.1717 26.7242 29.6529C27.1844 31.1341 27.0894 32.1363 26.2821 31.9849Z" fill="#292F33"/>
<path d="M18 25.3C14 25.3 10.5001 28 10.5001 28C10.5001 28 10.7 29.5 11.5 29.5C12.3 29.5 12.5001 28 12.5001 28C12.5001 28 15.6 26.8 18 26.8V25.3Z" fill="#F5F8FA"/>
<path d="M18 25.3C22 25.3 25.4999 28 25.4999 28C25.4999 28 25.3 29.5 24.5 29.5C23.7 29.5 23.4999 28 23.4999 28C23.4999 28 20.4 26.8 18 26.8V25.3Z" fill="#F5F8FA"/>
<path d="M16.6678 12.5438C16.4608 12.4538 16.2168 12.5138 16.0758 12.6918C16.0668 12.7038 15.0968 13.8938 12.7408 14.5358C11.9658 14.7478 11.2098 14.8548 10.4958 14.8548C9.5038 14.8548 8.9368 14.6428 8.9338 14.6418C8.7238 14.5568 8.4808 14.6278 8.3468 14.8108C8.2118 14.9948 8.2188 15.2458 8.3628 15.4228C8.4338 15.5098 10.1428 17.5698 12.4878 17.5698C12.8388 17.5698 13.1898 17.5228 13.5308 17.4298C16.3848 16.6518 16.9408 13.2218 16.9628 13.0758C16.9968 12.8528 16.8758 12.6348 16.6678 12.5438ZM27.6428 14.6988C27.5048 14.5178 27.2628 14.4538 27.0528 14.5398C27.0468 14.5428 26.4198 14.7958 25.3158 14.7958C24.6548 14.7958 23.9578 14.7068 23.2428 14.5308C20.8738 13.9478 19.8738 12.7818 19.8658 12.7728C19.7198 12.5968 19.4778 12.5398 19.2698 12.6358C19.0628 12.7308 18.9468 12.9538 18.9868 13.1778C19.0128 13.3228 19.6548 16.7378 22.5258 17.4448C22.8368 17.5218 23.1548 17.5608 23.4718 17.5608C25.8678 17.5608 27.5708 15.4008 27.6418 15.3088C27.7798 15.1278 27.7788 14.8788 27.6428 14.6988ZM10.0018 12.0008C9.5538 12.0008 9.1468 11.6978 9.0328 11.2438C8.8998 10.7088 9.2238 10.1668 9.7568 10.0318C9.7928 10.0228 13.3498 9.07084 15.1088 5.55384C15.3558 5.05984 15.9548 4.85884 16.4508 5.10684C16.9448 5.35384 17.1448 5.95484 16.8978 6.44884C14.7168 10.8098 10.4268 11.9258 10.2458 11.9718C10.1648 11.9918 10.0828 12.0008 10.0018 12.0008ZM26.0038 12.0008C25.9238 12.0008 25.8428 11.9908 25.7618 11.9708C25.5798 11.9258 21.2898 10.8088 19.1098 6.44784C18.8628 5.95384 19.0628 5.35284 19.5568 5.10584C20.0498 4.85884 20.6508 5.05884 20.8988 5.55284C22.6568 9.06984 26.2138 10.0218 26.2508 10.0308C26.7838 10.1678 27.1078 10.7118 26.9728 11.2458C26.8568 11.6988 26.4508 12.0008 26.0038 12.0008Z" fill="#292F33"/>
</g>
<defs>
<clipPath id="clip0">
<rect width="36" height="36" fill="#FFFFFF"/>
</clipPath>
</defs>
</svg>
