<svg width="36" height="36" viewBox="0 0 36 36" fill="none" xmlns="http://www.w3.org/2000/svg">
<g clip-path="url(#clip0)">
<path d="M35.734 19.929C35.375 16.66 35 15 34 13C34 13 37 4 35 0.300003C34.326 -0.945997 27.596 1.988 25 4C25 4 21 3.002 18 3.002C15 3.002 11 4 11 4C8.404 1.988 1.674 -0.945997 1 0.300003C-1 4 2 13 2 13C1 15 0.625 16.66 0.266 19.929C-0.129 23.513 0.657 26.37 1 27C1.39 27.716 3.367 30.025 6 32C10 35 16 36 18 36C20 36 26 35 30 32C32.633 30.025 34.61 27.716 35 27C35.343 26.37 36.129 23.513 35.734 19.929V19.929Z" fill="#FFCC4D"/>
<path d="M18 19.5C21 19.5 21 20 21 21C21 22 19.5 24 18 24C16.5 24 15 22 15 21C15 20 14.999 19.5 18 19.5Z" fill="#E75A70"/>
<path d="M2 3.00003C2.447 1.65803 7.64 4.00003 8.64 5.00003C8.64 5.00003 4 8.00003 3 11C3 11 1 6.00003 2 3.00003ZM34 3.00003C33.553 1.65803 28.36 4.00003 27.36 5.00003C27.36 5.00003 32 8.00003 33 11C33 11 35 6.00003 34 3.00003Z" fill="#F18F26"/>
<path d="M4.93399 5.603C4.93399 4.189 11 7 9.99999 8C8.99999 9 7.99999 9.603 6.99999 10.603C5.99999 11.603 4.93399 6.603 4.93399 5.603ZM31.066 5.603C31.066 4.189 25 7 26 8C27 9 28 9.603 29 10.603C30 11.603 31.066 6.603 31.066 5.603V5.603Z" fill="#FFCC4D"/>
<path d="M0.701004 25C0.553004 25 0.407004 24.935 0.308004 24.81C0.137004 24.593 0.174004 24.279 0.391004 24.108C0.553004 23.981 4.411 20.988 11.039 21.503C11.314 21.523 11.52 21.764 11.499 22.039C11.478 22.314 11.242 22.54 10.962 22.499C4.729 22.025 1.047 24.865 1.011 24.894C0.918004 24.965 0.809004 25 0.701004 25V25ZM9.569 20.337C9.52 20.337 9.469 20.33 9.42 20.315C4.63 18.818 0.683004 19.968 0.643004 19.979C0.378004 20.06 0.100004 19.909 0.0200041 19.644C-0.0589959 19.379 0.091004 19.101 0.355004 19.022C0.528004 18.97 4.641 17.775 9.717 19.36C9.981 19.443 10.128 19.723 10.045 19.987C9.979 20.2 9.782 20.337 9.569 20.337V20.337ZM35.299 25C35.447 25 35.593 24.935 35.692 24.81C35.863 24.593 35.826 24.279 35.609 24.108C35.447 23.981 31.589 20.988 24.961 21.503C24.686 21.523 24.48 21.764 24.501 22.039C24.522 22.314 24.758 22.54 25.038 22.499C31.271 22.025 34.953 24.865 34.989 24.894C35.082 24.965 35.191 25 35.299 25V25ZM26.431 20.337C26.48 20.337 26.531 20.33 26.58 20.315C31.37 18.818 35.317 19.968 35.357 19.979C35.622 20.06 35.9 19.909 35.98 19.644C36.059 19.379 35.909 19.101 35.645 19.022C35.472 18.97 31.359 17.775 26.283 19.36C26.019 19.443 25.872 19.723 25.955 19.987C26.02 20.2 26.218 20.337 26.431 20.337V20.337Z" fill="#FEE7B8"/>
<path d="M23.4844 30.379C23.4734 30.335 22.3394 26 17.9994 26C13.6594 26 12.5254 30.335 12.5144 30.379C12.4614 30.592 12.5584 30.81 12.7464 30.923C12.9344 31.035 13.1794 31.009 13.3424 30.863C13.3514 30.855 14.3554 30 17.9994 30C21.5894 30 22.6164 30.83 22.6554 30.863C22.7504 30.953 22.8744 31 22.9994 31C23.0834 31 23.1684 30.979 23.2454 30.936C23.4414 30.824 23.5394 30.597 23.4844 30.379Z" fill="#292F33"/>
<path d="M15.703 14.598C15.69 14.607 14.441 15.5 12 15.5C9.55795 15.5 8.30995 14.607 8.29995 14.6C8.10595 14.454 7.83395 14.468 7.65595 14.637C7.47895 14.804 7.44795 15.075 7.58395 15.278C7.64495 15.368 9.09895 17.5 12 17.5C14.9 17.5 16.355 15.368 16.416 15.277C16.55 15.075 16.5199 14.807 16.3449 14.639C16.1689 14.47 15.896 14.455 15.703 14.598ZM28.3449 14.64C28.1699 14.471 27.898 14.454 27.702 14.598C27.69 14.607 26.44 15.5 24 15.5C21.559 15.5 20.3099 14.607 20.2999 14.6C20.1069 14.454 19.834 14.468 19.656 14.637C19.479 14.804 19.449 15.075 19.584 15.278C19.645 15.368 21.099 17.5 24 17.5C26.9 17.5 28.355 15.368 28.416 15.277C28.551 15.076 28.5199 14.808 28.3449 14.64ZM31.0009 13C30.6959 13 30.397 12.862 30.2 12.6C27.559 9.079 24.1389 9.001 23.9939 9C23.4439 8.994 23 8.544 23.003 7.995C23.006 7.444 23.45 7 24 7C24.184 7 28.5369 7.05 31.7999 11.4C32.1319 11.842 32.042 12.469 31.6 12.8C31.42 12.935 31.2099 13 31.0009 13ZM4.99895 13C4.79095 13 4.57995 12.935 4.39995 12.8C3.95795 12.469 3.86895 11.842 4.19995 11.4C7.46195 7.05 11.816 7 12 7C12.552 7 13 7.448 13 8C13 8.551 12.555 8.998 12.004 9C11.848 9.002 8.43495 9.086 5.79895 12.6C5.60395 12.862 5.30295 13 4.99895 13Z" fill="#292F33"/>
<path d="M22.9999 23C29.2109 23 35.9999 27 35.9999 32C35.9999 36 32.9999 36 32.9999 36C24.9999 36 31.9999 27 22.9999 23Z" fill="#5DADEC"/>
</g>
<defs>
<clipPath id="clip0">
<rect width="36" height="36" fill="#FFFFFF"/>
</clipPath>
</defs>
</svg>
