<svg width="36" height="36" viewBox="0 0 36 36" fill="none" xmlns="http://www.w3.org/2000/svg">
<g clip-path="url(#clip0)">
<path d="M35.734 19.929C35.375 16.66 35 15 34 13C34 13 37 4 35 0.300003C34.326 -0.945997 27.596 1.988 25 4C25 4 21 3.002 18 3.002C15 3.002 11 4 11 4C8.404 1.988 1.674 -0.945997 1 0.300003C-1 4 2 13 2 13C1 15 0.625 16.66 0.266 19.929C-0.129 23.513 0.657 26.37 1 27C1.39 27.716 3.367 30.025 6 32C10 35 16 36 18 36C20 36 26 35 30 32C32.633 30.025 34.61 27.716 35 27C35.343 26.37 36.129 23.513 35.734 19.929V19.929Z" fill="#FFCC4D"/>
<path d="M18 19.5C21 19.5 21 20 21 21C21 22 19.5 24 18 24C16.5 24 15 22 15 21C15 20 14.999 19.5 18 19.5Z" fill="#E75A70"/>
<path d="M2 3.00003C2.447 1.65803 7.64 4.00003 8.64 5.00003C8.64 5.00003 4 8.00003 3 11C3 11 1 6.00003 2 3.00003ZM34 3.00003C33.553 1.65803 28.36 4.00003 27.36 5.00003C27.36 5.00003 32 8.00003 33 11C33 11 35 6.00003 34 3.00003Z" fill="#F18F26"/>
<path d="M4.93399 5.603C4.93399 4.189 11 7 9.99999 8C8.99999 9 7.99999 9.603 6.99999 10.603C5.99999 11.603 4.93399 6.603 4.93399 5.603ZM31.066 5.603C31.066 4.189 25 7 26 8C27 9 28 9.603 29 10.603C30 11.603 31.066 6.603 31.066 5.603V5.603Z" fill="#FFCC4D"/>
<path d="M29.0004 11.0007C23.4464 11.0007 21.1984 6.63368 21.1054 6.44768C20.8584 5.95368 21.0584 5.35268 21.5524 5.10568C22.0454 4.85968 22.6444 5.05768 22.8924 5.54868C22.9674 5.69468 24.7134 9.00068 29.0004 9.00068C29.5534 9.00068 30.0004 9.44868 30.0004 10.0007C30.0004 10.5527 29.5534 11.0007 29.0004 11.0007ZM7.00037 11.0007C6.44837 11.0007 6.00037 10.5527 6.00037 10.0007C6.00037 9.44868 6.44837 9.00068 7.00037 9.00068C12.0834 9.00068 12.9964 5.88068 13.0334 5.74768C13.1784 5.21968 13.7254 4.89968 14.2524 5.03868C14.7824 5.17768 15.1034 5.71168 14.9704 6.24368C14.9214 6.43768 13.7044 11.0007 7.00037 11.0007Z" fill="#292F33"/>
<path d="M17.9999 26C11.3334 26 10.5106 32.4976 10.5027 32.5629C10.4877 32.6959 10.5356 32.8273 10.6306 32.9121C10.6949 32.9697 10.7756 33 10.857 33C10.8949 33 10.9327 32.993 10.9699 32.9806C11.012 32.965 15.2328 31.4444 17.9999 31.4444C21.9964 31.4444 24.9607 32.9479 24.99 32.9627C25.105 33.0226 25.2458 33.0093 25.3522 32.9261C25.4572 32.8429 25.5136 32.7037 25.4972 32.5621C25.4893 32.4976 24.6665 26 17.9999 26Z" fill="#292F33"/>
<path d="M18 27C21 27 22.5 28 22.5 28H13.5C13.5 28 15 27 18 27Z" fill="#CCD6DD"/>
<path d="M6.92438 19C6.64375 19 6.36682 18.8793 6.18497 18.65C5.8785 18.2641 5.96158 17.7155 6.36959 17.4259C6.5016 17.3323 9.09367 15.5157 12.6984 14.8595C10.4137 13.7736 7.87794 13.75 7.84564 13.75C7.33608 13.7482 6.92345 13.3563 6.92438 12.8733C6.92438 12.3911 7.337 12 7.84656 12C8.05056 12 12.8793 12.0333 15.884 14.8814C16.148 15.1316 16.2274 15.5079 16.0843 15.8351C15.9413 16.1615 15.6043 16.375 15.2314 16.375C10.9731 16.375 7.51147 18.8005 7.47732 18.825C7.31116 18.9431 7.11638 19 6.92438 19V19ZM29.077 18.9991C28.885 18.9991 28.6912 18.9431 28.525 18.8259C28.4899 18.8005 25.0071 16.375 20.77 16.375C20.3971 16.375 20.0592 16.1615 19.9171 15.8351C19.774 15.5079 19.8534 15.1316 20.1174 14.8814C23.123 12.0333 27.9508 12 28.1548 12C28.6644 12 29.0761 12.3911 29.077 12.8733C29.0779 13.3563 28.6653 13.7482 28.1567 13.75C28.1235 13.75 25.5877 13.7736 23.303 14.8595C26.9077 15.5157 29.4998 17.3323 29.6309 17.4259C30.038 17.7155 30.1211 18.2624 29.8164 18.6491C29.6355 18.8775 29.3586 18.9991 29.077 18.9991Z" fill="#292F33"/>
<path d="M0.701004 25C0.553004 25 0.407004 24.935 0.308004 24.81C0.137004 24.593 0.174004 24.279 0.391004 24.108C0.553004 23.981 4.411 20.988 11.039 21.503C11.314 21.523 11.52 21.764 11.499 22.039C11.478 22.314 11.242 22.54 10.962 22.499C4.729 22.025 1.047 24.865 1.011 24.894C0.918004 24.965 0.809004 25 0.701004 25V25ZM9.569 20.337C9.52 20.337 9.469 20.33 9.42 20.315C4.63 18.818 0.683004 19.968 0.643004 19.979C0.378004 20.06 0.100004 19.909 0.0200041 19.644C-0.0589959 19.379 0.091004 19.101 0.355004 19.022C0.528004 18.97 4.641 17.775 9.717 19.36C9.981 19.443 10.128 19.723 10.045 19.987C9.979 20.2 9.782 20.337 9.569 20.337V20.337ZM35.299 25C35.447 25 35.593 24.935 35.692 24.81C35.863 24.593 35.826 24.279 35.609 24.108C35.447 23.981 31.589 20.988 24.961 21.503C24.686 21.523 24.48 21.764 24.501 22.039C24.522 22.314 24.758 22.54 25.038 22.499C31.271 22.025 34.953 24.865 34.989 24.894C35.082 24.965 35.191 25 35.299 25V25ZM26.431 20.337C26.48 20.337 26.531 20.33 26.58 20.315C31.37 18.818 35.317 19.968 35.357 19.979C35.622 20.06 35.9 19.909 35.98 19.644C36.059 19.379 35.909 19.101 35.645 19.022C35.472 18.97 31.359 17.775 26.283 19.36C26.019 19.443 25.872 19.723 25.955 19.987C26.02 20.2 26.218 20.337 26.431 20.337V20.337Z" fill="#FEE7B8"/>
</g>
<defs>
<clipPath id="clip0">
<rect width="36" height="36" fill="#FFFFFF"/>
</clipPath>
</defs>
</svg>
