<svg width="36" height="36" viewBox="0 0 36 36" fill="none" xmlns="http://www.w3.org/2000/svg">
<g clip-path="url(#clip0)">
<path d="M35.734 19.929C35.375 16.66 35 15 34 13C34 13 37 4 35 0.300003C34.326 -0.945997 27.596 1.988 25 4C25 4 21 3.002 18 3.002C15 3.002 11 4 11 4C8.404 1.988 1.674 -0.945997 1 0.300003C-1 4 2 13 2 13C1 15 0.625 16.66 0.266 19.929C-0.129 23.513 0.657 26.37 1 27C1.39 27.716 3.367 30.025 6 32C10 35 16 36 18 36C20 36 26 35 30 32C32.633 30.025 34.61 27.716 35 27C35.343 26.37 36.129 23.513 35.734 19.929V19.929Z" fill="#FFCC4D"/>
<path d="M18 19.5C21 19.5 21 20 21 21C21 22 19.5 24 18 24C16.5 24 15 22 15 21C15 20 14.999 19.5 18 19.5Z" fill="#E75A70"/>
<path d="M1.99997 3.00003C2.44697 1.65803 7.63997 4.00003 8.63997 5.00003C8.63997 5.00003 3.99997 8.00003 2.99997 11C2.99997 11 0.999971 6.00003 1.99997 3.00003ZM34 3.00003C33.553 1.65803 28.36 4.00003 27.36 5.00003C27.36 5.00003 32 8.00003 33 11C33 11 35 6.00003 34 3.00003Z" fill="#F18F26"/>
<path d="M4.93402 5.603C4.93402 4.189 11 7 10 8C9.00002 9 8.00002 9.603 7.00002 10.603C6.00002 11.603 4.93402 6.603 4.93402 5.603ZM31.066 5.603C31.066 4.189 25 7 26 8C27 9 28 9.603 29 10.603C30 11.603 31.066 6.603 31.066 5.603V5.603Z" fill="#FFCC4D"/>
<path d="M0.700974 25C0.552974 25 0.406974 24.935 0.307974 24.81C0.136974 24.593 0.173974 24.279 0.390974 24.108C0.552974 23.981 4.41097 20.988 11.039 21.503C11.314 21.523 11.52 21.764 11.499 22.039C11.478 22.314 11.242 22.54 10.962 22.499C4.72897 22.025 1.04697 24.865 1.01097 24.894C0.917974 24.965 0.808974 25 0.700974 25V25ZM9.56897 20.337C9.51997 20.337 9.46897 20.33 9.41997 20.315C4.62997 18.818 0.682974 19.968 0.642974 19.979C0.377974 20.06 0.0999735 19.909 0.0199735 19.644C-0.0590265 19.379 0.0909735 19.101 0.354974 19.022C0.527974 18.97 4.64097 17.775 9.71697 19.36C9.98097 19.443 10.128 19.723 10.045 19.987C9.97897 20.2 9.78197 20.337 9.56897 20.337V20.337ZM35.299 25C35.447 25 35.593 24.935 35.692 24.81C35.863 24.593 35.826 24.279 35.609 24.108C35.447 23.981 31.589 20.988 24.961 21.503C24.686 21.523 24.48 21.764 24.501 22.039C24.522 22.314 24.758 22.54 25.038 22.499C31.271 22.025 34.953 24.865 34.989 24.894C35.082 24.965 35.191 25 35.299 25V25ZM26.431 20.337C26.48 20.337 26.531 20.33 26.58 20.315C31.37 18.818 35.317 19.968 35.357 19.979C35.622 20.06 35.9 19.909 35.98 19.644C36.059 19.379 35.909 19.101 35.645 19.022C35.472 18.97 31.359 17.775 26.283 19.36C26.019 19.443 25.872 19.723 25.955 19.987C26.02 20.2 26.218 20.337 26.431 20.337V20.337Z" fill="#FEE7B8"/>
<path d="M11.9999 20C13.3807 20 14.4999 18.433 14.4999 16.5C14.4999 14.567 13.3807 13 11.9999 13C10.6192 13 9.49994 14.567 9.49994 16.5C9.49994 18.433 10.6192 20 11.9999 20Z" fill="#292F33"/>
<path d="M23.9999 20C25.3807 20 26.4999 18.433 26.4999 16.5C26.4999 14.567 25.3807 13 23.9999 13C22.6192 13 21.4999 14.567 21.4999 16.5C21.4999 18.433 22.6192 20 23.9999 20Z" fill="#292F33"/>
<path d="M18 25.5C16.6194 25.5 15.5 26.6514 15.5 28.0714V31.9286C15.5 33.3486 16.6194 34.5 18 34.5C19.3806 34.5 20.5 33.3486 20.5 31.9286V28.0714C20.5 26.6514 19.3806 25.5 18 25.5Z" fill="#292F33"/>
</g>
<defs>
<clipPath id="clip0">
<rect width="36" height="36" fill="#FFFFFF"/>
</clipPath>
</defs>
</svg>
