<svg width="36" height="36" viewBox="0 0 36 36" fill="none" xmlns="http://www.w3.org/2000/svg">
<g clip-path="url(#clip0)">
<path d="M35.734 19.929C35.375 16.66 35 15 34 13C34 13 37 4 35 0.300003C34.326 -0.945997 27.596 1.988 25 4C25 4 21 3.002 18 3.002C15 3.002 11 4 11 4C8.404 1.988 1.674 -0.945997 1 0.300003C-1 4 2 13 2 13C1 15 0.625 16.66 0.266 19.929C-0.129 23.513 0.657 26.37 1 27C1.39 27.716 3.367 30.025 6 32C10 35 16 36 18 36C20 36 26 35 30 32C32.633 30.025 34.61 27.716 35 27C35.343 26.37 36.129 23.513 35.734 19.929V19.929Z" fill="#FFCC4D"/>
<path d="M18 16C21 16 21 16.5 21 17.5C21 18.5 19.5 20.5 18 20.5C16.5 20.5 15 18.5 15 17.5C15 16.5 14.999 16 18 16Z" fill="#E75A70"/>
<path d="M2 3.00003C2.447 1.65803 7.64 4.00003 8.64 5.00003C8.64 5.00003 4 8.00003 3 11C3 11 1 6.00003 2 3.00003ZM34 3.00003C33.553 1.65803 28.36 4.00003 27.36 5.00003C27.36 5.00003 32 8.00003 33 11C33 11 35 6.00003 34 3.00003Z" fill="#F18F26"/>
<path d="M4.93399 5.603C4.93399 4.189 11 7 9.99999 8C8.99999 9 7.99999 9.603 6.99999 10.603C5.99999 11.603 4.93399 6.603 4.93399 5.603ZM31.066 5.603C31.066 4.189 25 7 26 8C27 9 28 9.603 29 10.603C30 11.603 31.066 6.603 31.066 5.603V5.603Z" fill="#FFCC4D"/>
<path d="M0.702072 22.4588C0.554072 22.4588 0.408072 22.3938 0.309072 22.2688C0.138072 22.0518 0.175072 21.7378 0.392072 21.5668C0.554072 21.4398 4.41207 18.4468 11.0401 18.9618C11.3151 18.9818 11.5211 19.2228 11.5001 19.4978C11.4791 19.7728 11.2431 19.9988 10.9631 19.9578C4.73007 19.4838 1.04807 22.3237 1.01207 22.3527C0.919072 22.4237 0.810072 22.4588 0.702072 22.4588V22.4588ZM9.57007 17.7958C9.52107 17.7958 9.47007 17.7888 9.42107 17.7738C4.63107 16.2768 0.684072 17.4268 0.644072 17.4378C0.379072 17.5188 0.101072 17.3677 0.0210722 17.1027C-0.0579278 16.8377 0.0920722 16.5598 0.356072 16.4808C0.529072 16.4288 4.64207 15.2338 9.71807 16.8188C9.98207 16.9018 10.1291 17.1818 10.0461 17.4458C9.98007 17.6588 9.78307 17.7958 9.57007 17.7958V17.7958ZM35.3001 22.4588C35.4481 22.4588 35.5941 22.3938 35.6931 22.2688C35.8641 22.0518 35.8271 21.7378 35.6101 21.5668C35.4481 21.4398 31.5901 18.4468 24.9621 18.9618C24.6871 18.9818 24.4811 19.2228 24.5021 19.4978C24.5231 19.7728 24.7591 19.9988 25.0391 19.9578C31.2721 19.4838 34.9541 22.3237 34.9901 22.3527C35.0831 22.4237 35.1921 22.4588 35.3001 22.4588V22.4588ZM26.4321 17.7958C26.4811 17.7958 26.5321 17.7888 26.5811 17.7738C31.3711 16.2768 35.3181 17.4268 35.3581 17.4378C35.6231 17.5188 35.9011 17.3677 35.9811 17.1027C36.0601 16.8377 35.9101 16.5598 35.6461 16.4808C35.4731 16.4288 31.3601 15.2338 26.2841 16.8188C26.0201 16.9018 25.8731 17.1818 25.9561 17.4458C26.0211 17.6588 26.2191 17.7958 26.4321 17.7958V17.7958Z" fill="#FEE7B8"/>
<path d="M30.0008 12.0015C29.8768 12.0015 29.7508 11.9785 29.6298 11.9295C24.4008 9.83855 22.2578 6.68855 22.1688 6.55555C21.8618 6.09555 21.9858 5.47455 22.4458 5.16855C22.9048 4.86255 23.5228 4.98455 23.8308 5.44255C23.8498 5.46955 25.7608 8.22755 30.3718 10.0715C30.8848 10.2775 31.1348 10.8585 30.9298 11.3715C30.7728 11.7635 30.3968 12.0015 30.0008 12.0015ZM6.00078 12.0015C5.60378 12.0015 5.22878 11.7635 5.07178 11.3725C4.86678 10.8595 5.11578 10.2775 5.62878 10.0725C10.2408 8.22855 12.1518 5.47055 12.1708 5.44355C12.4788 4.98755 13.0998 4.86655 13.5578 5.17355C14.0148 5.48155 14.1388 6.09855 13.8328 6.55655C13.7438 6.68955 11.6008 9.83955 6.37278 11.9305C6.25078 11.9785 6.12478 12.0015 6.00078 12.0015Z" fill="#292F33"/>
<path d="M22 27.0015C22 29.7645 20.209 30.0015 18 30.0015C15.79 30.0015 14 29.7645 14 27.0015C14 24.2405 15.79 21.0015 18 21.0015C20.209 21.0015 22 24.2405 22 27.0015Z" fill="#292F33"/>
<path d="M24 14H28V35L24 34.9492V14ZM8 35L12 34.9492V14H8V35Z" fill="#5DADEC"/>
<path d="M14.999 14.8908C14.849 14.8908 14.696 14.8568 14.553 14.7858C11.041 13.0298 7.483 14.7678 7.448 14.7858C6.953 15.0348 6.353 14.8318 6.106 14.3388C5.859 13.8448 6.059 13.2438 6.553 12.9968C6.735 12.9068 11.051 10.7998 15.448 12.9968C15.942 13.2438 16.142 13.8448 15.895 14.3388C15.719 14.6888 15.366 14.8908 14.999 14.8908V14.8908ZM28.999 14.8908C28.849 14.8908 28.696 14.8568 28.553 14.7858C25.04 13.0298 21.483 14.7678 21.448 14.7858C20.954 15.0338 20.354 14.8328 20.106 14.3388C19.859 13.8448 20.059 13.2438 20.553 12.9968C20.735 12.9068 25.054 10.8008 29.448 12.9968C29.942 13.2438 30.142 13.8448 29.895 14.3388C29.719 14.6888 29.366 14.8908 28.999 14.8908V14.8908Z" fill="#292F33"/>
<path d="M18 36.0015C27.9411 36.0015 36 35.1061 36 34.0015C36 32.897 27.9411 32.0015 18 32.0015C8.05887 32.0015 0 32.897 0 34.0015C0 35.1061 8.05887 36.0015 18 36.0015Z" fill="#5DADEC"/>
<path d="M18 29.0015C19.6569 29.0015 21 28.1061 21 27.0015C21 25.897 19.6569 25.0015 18 25.0015C16.3431 25.0015 15 25.897 15 27.0015C15 28.1061 16.3431 29.0015 18 29.0015Z" fill="#E75A70"/>
</g>
<defs>
<clipPath id="clip0">
<rect width="36" height="36" fill="#FFFFFF"/>
</clipPath>
</defs>
</svg>
