<svg width="36" height="36" viewBox="0 0 36 36" fill="none" xmlns="http://www.w3.org/2000/svg">
<g clip-path="url(#clip0)">
<path d="M35.734 19.929C35.375 16.66 35 15 34 13C34 13 37 4 35 0.300003C34.326 -0.945997 27.596 1.988 25 4C25 4 21 3.002 18 3.002C15 3.002 11 4 11 4C8.404 1.988 1.674 -0.945997 1 0.300003C-1 4 2 13 2 13C1 15 0.625 16.66 0.266 19.929C-0.129 23.513 0.657 26.37 1 27C1.39 27.716 3.367 30.025 6 32C10 35 16 36 18 36C20 36 26 35 30 32C32.633 30.025 34.61 27.716 35 27C35.343 26.37 36.129 23.513 35.734 19.929Z" fill="#FFCC4D"/>
<path fill-rule="evenodd" clip-rule="evenodd" d="M34 13C35 15 35.375 16.66 35.734 19.929C35.8559 21.0348 35.8653 22.0714 35.81 22.9948C34.1841 17.1613 26.7479 12.7442 18.0015 12.7442C9.25349 12.7442 1.81449 17.164 0.191491 23C0.190912 22.9971 0.190334 22.9942 0.189759 22.9913C0.134704 22.0689 0.144276 21.0335 0.266 19.929C0.625 16.66 1 15 2 13C2 13 1.88611 12.6583 1.7175 12.0807C3.52138 8.35169 6.62844 5.34155 10.4644 3.61123C10.6576 3.74362 10.8369 3.87363 11 4.00001C11 4.00001 15 3.00201 18 3.00201C21 3.00201 25 4.00001 25 4.00001C25.1634 3.87334 25.3433 3.74301 25.5369 3.61031C29.3725 5.33985 32.4793 8.34884 34.2837 12.0767C34.1144 12.6567 34 13 34 13Z" fill="#BDDDF4"/>
<path fill-rule="evenodd" clip-rule="evenodd" d="M34.306 12H1.694C0.985021 9.55239 -0.592498 3.2461 0.999985 0.300003C1.67398 -0.945997 8.40398 1.988 11 4C11 4 15 3.002 18 3.002C21 3.002 25 4 25 4C27.596 1.988 34.326 -0.945997 35 0.300003C36.5925 3.2461 35.015 9.55239 34.306 12Z" fill="#BDDDF4"/>
<path d="M1.99999 3.00003C2.44699 1.65803 7.63999 4.00003 8.63999 5.00003C8.63999 5.00003 3.99999 8.00003 2.99999 11C2.99999 11 0.999986 6.00003 1.99999 3.00003ZM34 3.00003C33.553 1.65803 28.36 4.00003 27.36 5.00003C27.36 5.00003 32 8.00003 33 11C33 11 35 6.00003 34 3.00003Z" fill="#7BBBE9"/>
<path d="M4.93399 5.603C4.93399 4.189 11 7 9.99999 8C8.99999 9 7.99999 9.603 6.99999 10.603C5.99999 11.603 4.93399 6.603 4.93399 5.603ZM31.066 5.603C31.066 4.189 25 7 26 8C27 9 28 9.603 29 10.603C30 11.603 31.066 6.603 31.066 5.603Z" fill="#BDDDF4"/>
<path d="M0.700988 25C0.552988 25 0.406988 24.935 0.307988 24.81C0.136988 24.593 0.173988 24.279 0.390988 24.108C0.552988 23.981 4.41099 20.988 11.039 21.503C11.314 21.523 11.52 21.764 11.499 22.039C11.478 22.314 11.242 22.54 10.962 22.499C4.72899 22.025 1.04699 24.865 1.01099 24.894C0.917988 24.965 0.808988 25 0.700988 25ZM9.56899 20.337C9.51999 20.337 9.46899 20.33 9.41999 20.315C4.62999 18.818 0.682988 19.968 0.642988 19.979C0.377988 20.06 0.0999888 19.909 0.0199888 19.644C-0.0590112 19.379 0.0909888 19.101 0.354988 19.022C0.527988 18.97 4.64099 17.775 9.71699 19.36C9.98099 19.443 10.128 19.723 10.045 19.987C9.97899 20.2 9.78199 20.337 9.56899 20.337ZM35.299 25C35.447 25 35.593 24.935 35.692 24.81C35.863 24.593 35.826 24.279 35.609 24.108C35.447 23.981 31.589 20.988 24.961 21.503C24.686 21.523 24.48 21.764 24.501 22.039C24.522 22.314 24.758 22.54 25.038 22.499C31.271 22.025 34.953 24.865 34.989 24.894C35.082 24.965 35.191 25 35.299 25ZM26.431 20.337C26.48 20.337 26.531 20.33 26.58 20.315C31.37 18.818 35.317 19.968 35.357 19.979C35.622 20.06 35.9 19.909 35.98 19.644C36.059 19.379 35.909 19.101 35.645 19.022C35.472 18.97 31.359 17.775 26.283 19.36C26.019 19.443 25.872 19.723 25.955 19.987C26.02 20.2 26.218 20.337 26.431 20.337Z" fill="#FEE7B8"/>
<path d="M18 19.5C21 19.5 21 20 21 21C21 22 19.5 24 18 24C16.5 24 15 22 15 21C15 20 14.999 19.5 18 19.5Z" fill="#E75A70"/>
<path d="M11.5 19.0011C12.8807 19.0011 14 17.4341 14 15.5011C14 13.5681 12.8807 12.0011 11.5 12.0011C10.1193 12.0011 9 13.5681 9 15.5011C9 17.4341 10.1193 19.0011 11.5 19.0011Z" fill="#292F33"/>
<path d="M24.5 19.0011C25.8807 19.0011 27 17.4341 27 15.5011C27 13.5681 25.8807 12.0011 24.5 12.0011C23.1193 12.0011 22 13.5681 22 15.5011C22 17.4341 23.1193 19.0011 24.5 19.0011Z" fill="#292F33"/>
<path d="M23.4835 30.379C23.4725 30.335 22.3385 26 17.9985 26C13.6585 26 12.5245 30.335 12.5145 30.379C12.4615 30.592 12.5575 30.81 12.7455 30.923C12.9325 31.035 13.1785 31.009 13.3415 30.863C13.3515 30.855 14.3555 30 17.9985 30C21.5885 30 22.6155 30.83 22.6545 30.863C22.7495 30.953 22.8735 31 22.9985 31C23.0825 31 23.1675 30.979 23.2445 30.936C23.4405 30.824 23.5385 30.597 23.4835 30.379Z" fill="#292F33"/>
<path d="M10 31.0011C10 33.7631 7.762 36.0011 5 36.0011C2.238 36.0011 0 33.7631 0 31.0011C0 28.2391 4 21.0011 5 21.0011C6 21.0011 10 28.2391 10 31.0011Z" fill="#5DADEC"/>
<path d="M30 11.0011C24.446 11.0011 22.198 6.63412 22.105 6.44812C21.858 5.95412 22.058 5.35312 22.552 5.10612C23.044 4.85912 23.644 5.05812 23.892 5.54912C23.967 5.69512 25.713 9.00112 30 9.00112C30.553 9.00112 31 9.44912 31 10.0011C31 10.5531 30.553 11.0011 30 11.0011ZM6 11.0011C5.448 11.0011 5 10.5531 5 10.0011C5 9.44912 5.448 9.00112 6 9.00112C11.083 9.00112 11.996 5.88112 12.033 5.74812C12.178 5.22012 12.723 4.90012 13.252 5.03912C13.782 5.17812 14.103 5.71212 13.97 6.24412C13.921 6.43812 12.704 11.0011 6 11.0011Z" fill="#292F33"/>
</g>
<defs>
<clipPath id="clip0">
<rect width="36" height="36" fill="#FFFFFF"/>
</clipPath>
</defs>
</svg>
