<svg width="36" height="36" viewBox="0 0 36 36" fill="none" xmlns="http://www.w3.org/2000/svg">
<g clip-path="url(#clip0)">
<path d="M35.734 19.929C35.375 16.66 35 15 34 13C34 13 37 4 35 0.300003C34.326 -0.945997 27.596 1.988 25 4C25 4 21 3.002 18 3.002C15 3.002 11 4 11 4C8.404 1.988 1.674 -0.945997 1 0.300003C-1 4 2 13 2 13C1 15 0.625 16.66 0.266 19.929C-0.129 23.513 0.657 26.37 1 27C1.39 27.716 3.367 30.025 6 32C10 35 16 36 18 36C20 36 26 35 30 32C32.633 30.025 34.61 27.716 35 27C35.343 26.37 36.129 23.513 35.734 19.929V19.929Z" fill="#FFCC4D"/>
<path d="M18 22C21 22 21 22.5 21 23.5C21 24.5 19.5 26.5 18 26.5C16.5 26.5 15 24.5 15 23.5C15 22.5 14.999 22 18 22Z" fill="#E75A70"/>
<path d="M2 3.00003C2.447 1.65803 7.64 4.00003 8.64 5.00003C8.64 5.00003 4 8.00003 3 11C3 11 1 6.00003 2 3.00003ZM34 3.00003C33.553 1.65803 28.36 4.00003 27.36 5.00003C27.36 5.00003 32 8.00003 33 11C33 11 35 6.00003 34 3.00003Z" fill="#F18F26"/>
<path d="M4.934 5.603C4.934 4.189 11 7 10 8C9 9 8 9.603 7 10.603C6 11.603 4.934 6.603 4.934 5.603ZM31.066 5.603C31.066 4.189 25 7 26 8C27 9 28 9.603 29 10.603C30 11.603 31.066 6.603 31.066 5.603V5.603Z" fill="#FFCC4D"/>
<path d="M29 29C31.7614 29 34 26.7614 34 24C34 21.2386 31.7614 19 29 19C26.2386 19 24 21.2386 24 24C24 26.7614 26.2386 29 29 29Z" fill="#FF7892"/>
<path d="M35.5344 18.3915C35.6296 18.2782 35.6736 18.1245 35.6415 17.9683C35.5852 17.6979 35.3209 17.5244 35.0504 17.5807C34.849 17.6232 30.8883 20.1035 26.2105 24.0631C26.049 24.2866 26.1012 24.5993 26.3254 24.76C26.5495 24.9207 26.8744 24.8852 27.0229 24.6443C31.6543 20.7463 35.2086 18.5698 35.254 18.5609C35.3681 18.5353 35.465 18.4743 35.5344 18.3915ZM26.2621 22.1875C26.2936 22.15 26.3211 22.1064 26.3411 22.0592C29.253 18.0786 31.6913 15.1432 31.7254 15.1197C31.9578 14.9687 32.0208 14.6587 31.8693 14.4271C31.717 14.1962 31.4077 14.1324 31.1774 14.2839C31.0264 14.383 28.5138 17.4583 25.4186 21.6729C25.3125 21.9285 25.4325 22.221 25.6881 22.3272C25.8936 22.4135 26.1252 22.3507 26.2621 22.1875Z" fill="#FEE7B8"/>
<path d="M7 29C9.76142 29 12 26.7614 12 24C12 21.2386 9.76142 19 7 19C4.23858 19 2 21.2386 2 24C2 26.7614 4.23858 29 7 29Z" fill="#FF7892"/>
<path d="M0.451286 18.3915C0.356154 18.2782 0.3121 18.1245 0.34422 17.9683C0.400535 17.6979 0.664855 17.5244 0.935334 17.5807C1.13675 17.6232 5.09745 20.1035 9.77528 24.0631C9.93673 24.2866 9.88452 24.5993 9.66036 24.76C9.4362 24.9207 9.11138 24.8852 8.96281 24.6443C4.33141 20.7463 0.777108 18.5698 0.731752 18.5609C0.617583 18.5353 0.520707 18.4743 0.451286 18.3915ZM9.72359 22.1875C9.6921 22.15 9.66467 22.1064 9.64467 22.0592C6.73273 18.0786 4.29445 15.1432 4.26031 15.1197C4.02793 14.9687 3.9649 14.6587 4.11648 14.4271C4.2687 14.1962 4.57808 14.1324 4.8083 14.2839C4.95933 14.383 7.47196 17.4583 10.5671 21.6729C10.6733 21.9285 10.5533 22.221 10.2977 22.3272C10.0921 22.4135 9.86051 22.3507 9.72359 22.1875Z" fill="#FEE7B8"/>
<path d="M24.5 23C27.5376 23 30 20.5376 30 17.5C30 14.4624 27.5376 12 24.5 12C21.4624 12 19 14.4624 19 17.5C19 20.5376 21.4624 23 24.5 23Z" fill="#F5F8FA"/>
<path d="M11.5 23C14.5376 23 17 20.5376 17 17.5C17 14.4624 14.5376 12 11.5 12C8.46243 12 6 14.4624 6 17.5C6 20.5376 8.46243 23 11.5 23Z" fill="#F5F8FA"/>
<path d="M11.5 20C12.8807 20 14 18.8807 14 17.5C14 16.1193 12.8807 15 11.5 15C10.1193 15 9 16.1193 9 17.5C9 18.8807 10.1193 20 11.5 20Z" fill="#292F33"/>
<path d="M24.5 20C25.8807 20 27 18.8807 27 17.5C27 16.1193 25.8807 15 24.5 15C23.1193 15 22 16.1193 22 17.5C22 18.8807 23.1193 20 24.5 20Z" fill="#292F33"/>
<path d="M22 31H14C13.448 31 13 30.553 13 30C13 29.447 13.448 29 14 29H22C22.553 29 23 29.447 23 30C23 30.553 22.553 31 22 31ZM30.001 12C29.696 12 29.397 11.862 29.2 11.6C26.56 8.079 23.139 8.002 22.994 8C22.444 7.994 22 7.544 22.003 6.995C22.006 6.444 22.45 6 23 6C23.184 6 27.537 6.05 30.8 10.4C31.132 10.842 31.042 11.469 30.6 11.8C30.42 11.935 30.21 12 30.001 12V12ZM5.999 12C5.791 12 5.58 11.935 5.4 11.8C4.958 11.469 4.869 10.842 5.2 10.4C8.462 6.05 12.816 6 13 6C13.552 6 14 6.448 14 7C14 7.551 13.555 7.998 13.004 8C12.849 8.002 9.436 8.086 6.8 11.6C6.604 11.862 6.303 12 5.999 12Z" fill="#292F33"/>
</g>
<defs>
<clipPath id="clip0">
<rect width="36" height="36" fill="#FFFFFF"/>
</clipPath>
</defs>
</svg>
