<svg width="36" height="36" viewBox="0 0 36 36" fill="none" xmlns="http://www.w3.org/2000/svg">
<g clip-path="url(#clip0)">
<path d="M35.734 19.929C35.375 16.66 35 15 34 13C34 13 37 4 35 0.300003C34.326 -0.945997 27.596 1.988 25 4C25 4 21 3.002 18 3.002C15 3.002 11 4 11 4C8.404 1.988 1.674 -0.945997 1 0.300003C-1 4 2 13 2 13C1 15 0.625 16.66 0.266 19.929C-0.129 23.513 0.657 26.37 1 27C1.39 27.716 3.367 30.025 6 32C10 35 16 36 18 36C20 36 26 35 30 32C32.633 30.025 34.61 27.716 35 27C35.343 26.37 36.129 23.513 35.734 19.929V19.929Z" fill="#FFCC4D"/>
<path d="M2 3.00003C2.447 1.65803 7.64 4.00003 8.64 5.00003C8.64 5.00003 4 8.00003 3 11C3 11 1 6.00003 2 3.00003ZM34 3.00003C33.553 1.65803 28.36 4.00003 27.36 5.00003C27.36 5.00003 32 8.00003 33 11C33 11 35 6.00003 34 3.00003Z" fill="#F18F26"/>
<path d="M4.93401 5.603C4.93401 4.189 11 7 10 8C9.00001 9 8.00001 9.603 7.00001 10.603C6.00001 11.603 4.93401 6.603 4.93401 5.603ZM31.066 5.603C31.066 4.189 25 7 26 8C27 9 28 9.603 29 10.603C30 11.603 31.066 6.603 31.066 5.603V5.603Z" fill="#FFCC4D"/>
<path d="M0.701004 25C0.553004 25 0.407004 24.935 0.308004 24.81C0.137004 24.593 0.174004 24.279 0.391004 24.108C0.553004 23.981 4.411 20.988 11.039 21.503C11.314 21.523 11.52 21.764 11.499 22.039C11.478 22.314 11.242 22.54 10.962 22.499C4.729 22.025 1.047 24.865 1.011 24.894C0.918004 24.965 0.809004 25 0.701004 25V25ZM9.569 20.337C9.52 20.337 9.469 20.33 9.42 20.315C4.63 18.818 0.683004 19.968 0.643004 19.979C0.378004 20.06 0.100004 19.909 0.0200041 19.644C-0.0589959 19.379 0.091004 19.101 0.355004 19.022C0.528004 18.97 4.641 17.775 9.717 19.36C9.981 19.443 10.128 19.723 10.045 19.987C9.979 20.2 9.782 20.337 9.569 20.337V20.337ZM35.299 25C35.447 25 35.593 24.935 35.692 24.81C35.863 24.593 35.826 24.279 35.609 24.108C35.447 23.981 31.589 20.988 24.961 21.503C24.686 21.523 24.48 21.764 24.501 22.039C24.522 22.314 24.758 22.54 25.038 22.499C31.271 22.025 34.953 24.865 34.989 24.894C35.082 24.965 35.191 25 35.299 25V25ZM26.431 20.337C26.48 20.337 26.531 20.33 26.58 20.315C31.37 18.818 35.317 19.968 35.357 19.979C35.622 20.06 35.9 19.909 35.98 19.644C36.059 19.379 35.909 19.101 35.645 19.022C35.472 18.97 31.359 17.775 26.283 19.36C26.019 19.443 25.872 19.723 25.955 19.987C26.02 20.2 26.218 20.337 26.431 20.337V20.337Z" fill="#FEE7B8"/>
<path d="M7.00099 16C6.67799 16 6.36099 15.844 6.16799 15.555C5.86199 15.095 5.98599 14.474 6.44499 14.168C6.57799 14.08 9.74599 12 14 12C14.552 12 15 12.448 15 13C15 13.552 14.552 14 14 14C10.345 14 7.58199 15.814 7.55499 15.832C7.38399 15.946 7.19099 16 7.00099 16V16ZM28.999 16C28.81 16 28.617 15.946 28.447 15.833C28.419 15.815 25.628 14 22 14C21.447 14 21 13.552 21 13C21 12.448 21.447 12 22 12C26.254 12 29.422 14.08 29.555 14.168C30.015 14.474 30.139 15.095 29.832 15.555C29.64 15.844 29.322 16 28.999 16Z" fill="#292F33"/>
<path fill-rule="evenodd" clip-rule="evenodd" d="M35.3718 25.9219L27.675 27.3222V22.4605L35.6076 18.8547C35.5131 18.1098 35.413 17.4548 35.2971 16.8574L27.675 20.3216V19.1549C27.675 17.9742 26.7168 17.016 25.5361 17.016H10.5639C9.38323 17.016 8.42501 17.9742 8.42501 19.1549V20.3216L0.711123 16.8152C0.594014 17.4125 0.492987 18.0671 0.397827 18.8117L8.42501 22.4605V27.3222L0.623585 25.9039C0.740069 26.3593 0.858753 26.7017 0.953795 26.9073C0.981463 26.9602 1.00938 27.013 1.03753 27.0656C1.19541 27.3305 1.52178 27.7614 1.98359 28.2899L8.42501 29.4611V30.9188C8.42501 32.0994 9.38323 33.0577 10.5639 33.0577H25.5361C26.7168 33.0577 27.675 32.0994 27.675 30.9188V29.4611L33.9984 28.3106C34.5104 27.7262 34.859 27.2589 35 27C35.0998 26.8168 35.237 26.4451 35.3718 25.9219Z" fill="#F5F8FA"/>
</g>
<defs>
<clipPath id="clip0">
<rect width="36" height="36" fill="#FFFFFF"/>
</clipPath>
</defs>
</svg>
