<svg width="36" height="36" viewBox="0 0 36 36" fill="none" xmlns="http://www.w3.org/2000/svg">
<g clip-path="url(#clip0)">
<path d="M35.734 19.929C35.375 16.66 35 15 34 13C34 13 37 4 35 0.300003C34.326 -0.945997 27.596 1.988 25 4C25 4 21 3.002 18 3.002C15 3.002 11 4 11 4C8.404 1.988 1.674 -0.945997 1 0.300003C-1 4 2 13 2 13C1 15 0.625 16.66 0.266 19.929C-0.129 23.513 0.657 26.37 1 27C1.39 27.716 3.367 30.025 6 32C10 35 16 36 18 36C20 36 26 35 30 32C32.633 30.025 34.61 27.716 35 27C35.343 26.37 36.129 23.513 35.734 19.929V19.929Z" fill="#FFCC4D"/>
<path d="M18 19.5C21 19.5 21 20 21 21C21 22 19.5 24 18 24C16.5 24 15 22 15 21C15 20 14.999 19.5 18 19.5Z" fill="#E75A70"/>
<path d="M2 3.00003C2.447 1.65803 7.64 4.00003 8.64 5.00003C8.64 5.00003 4 8.00003 3 11C3 11 1 6.00003 2 3.00003ZM34 3.00003C33.553 1.65803 28.36 4.00003 27.36 5.00003C27.36 5.00003 32 8.00003 33 11C33 11 35 6.00003 34 3.00003Z" fill="#F18F26"/>
<path d="M4.934 5.603C4.934 4.189 11 7 10 8C9 9 8 9.603 7 10.603C6 11.603 4.934 6.603 4.934 5.603ZM31.066 5.603C31.066 4.189 25 7 26 8C27 9 28 9.603 29 10.603C30 11.603 31.066 6.603 31.066 5.603V5.603Z" fill="#FFCC4D"/>
<path d="M0.700996 25C0.552996 25 0.406996 24.935 0.307996 24.81C0.136996 24.593 0.173996 24.279 0.390996 24.108C0.552996 23.981 4.411 20.988 11.039 21.503C11.314 21.523 11.52 21.764 11.499 22.039C11.478 22.314 11.242 22.54 10.962 22.499C4.729 22.025 1.047 24.865 1.011 24.894C0.917996 24.965 0.808996 25 0.700996 25V25ZM9.569 20.337C9.52 20.337 9.469 20.33 9.42 20.315C4.63 18.818 0.682996 19.968 0.642996 19.979C0.377996 20.06 0.0999964 19.909 0.0199964 19.644C-0.0590036 19.379 0.0909964 19.101 0.354996 19.022C0.527996 18.97 4.641 17.775 9.717 19.36C9.981 19.443 10.128 19.723 10.045 19.987C9.979 20.2 9.782 20.337 9.569 20.337V20.337ZM35.299 25C35.447 25 35.593 24.935 35.692 24.81C35.863 24.593 35.826 24.279 35.609 24.108C35.447 23.981 31.589 20.988 24.961 21.503C24.686 21.523 24.48 21.764 24.501 22.039C24.522 22.314 24.758 22.54 25.038 22.499C31.271 22.025 34.953 24.865 34.989 24.894C35.082 24.965 35.191 25 35.299 25V25ZM26.431 20.337C26.48 20.337 26.531 20.33 26.58 20.315C31.37 18.818 35.317 19.968 35.357 19.979C35.622 20.06 35.9 19.909 35.98 19.644C36.059 19.379 35.909 19.101 35.645 19.022C35.472 18.97 31.359 17.775 26.283 19.36C26.019 19.443 25.872 19.723 25.955 19.987C26.02 20.2 26.218 20.337 26.431 20.337V20.337Z" fill="#FEE7B8"/>
<path d="M18 30.5C19.6569 30.5 21 29.1569 21 27.5C21 25.8431 19.6569 24.5 18 24.5C16.3431 24.5 15 25.8431 15 27.5C15 29.1569 16.3431 30.5 18 30.5Z" fill="#292F33"/>
<path d="M17.3118 15.6122C17.1358 15.4692 16.8848 15.4652 16.7018 15.5982C16.6898 15.6072 15.4418 16.5002 12.9998 16.5002C10.5588 16.5002 9.30976 15.6072 9.29976 15.6002C9.11676 15.4632 8.86476 15.4672 8.68876 15.6092C8.51076 15.7512 8.45076 15.9952 8.54276 16.2032C8.60276 16.3382 10.0428 19.5002 12.9998 19.5002C15.9578 19.5002 17.3968 16.3382 17.4568 16.2032C17.5488 15.9962 17.4888 15.7542 17.3118 15.6122ZM27.3118 15.6122C27.1358 15.4692 26.8858 15.4642 26.7018 15.5982C26.6898 15.6072 25.4408 16.5002 22.9998 16.5002C20.5598 16.5002 19.3098 15.6072 19.2998 15.6002C19.1168 15.4632 18.8658 15.4672 18.6888 15.6092C18.5108 15.7512 18.4508 15.9952 18.5428 16.2032C18.6028 16.3382 20.0428 19.5002 22.9998 19.5002C25.9578 19.5002 27.3968 16.3382 27.4568 16.2032C27.5488 15.9962 27.4888 15.7542 27.3118 15.6122Z" fill="#292F33"/>
<path fill-rule="evenodd" clip-rule="evenodd" d="M21.0072 3.24094L18.398 6.91098C18.328 7.02398 18.215 7.23498 18.215 7.46098C18.215 7.92698 18.595 8.15198 19.047 8.15198H23.775C23.968 8.15198 24.16 8.09498 24.285 8.01998L25.41 7.35498H24.674C24.6753 7.34018 24.6791 7.32699 24.6828 7.31388C24.6874 7.29775 24.692 7.28174 24.692 7.26298C24.692 6.69898 24.282 6.37398 23.775 6.37398H21.093L23.0828 3.58655C22.4703 3.4688 21.7557 3.3445 21.0072 3.24094ZM34.2398 12.2259C34.2114 11.509 33.6748 11.098 33.016 11.098H29.434L33.713 5.10502C33.919 4.82202 33.995 4.65202 33.995 4.29402C33.995 3.55902 33.355 3.44502 33.11 3.44502H27.761L27.729 2.75702C27.729 2.75702 26.32 3.58802 26.226 3.64502C26.132 3.70202 25.721 4.01702 25.721 4.63202C25.721 5.38602 26.267 5.81902 26.946 5.81902H30.095L25.834 11.812C25.74 11.963 25.59 12.245 25.59 12.547C25.59 13.169 26.098 13.471 26.701 13.471H33.016C33.274 13.471 33.531 13.395 33.697 13.295L34.0445 13.0897C34.0298 13.0599 34.015 13.03 34 13C34 13 34.095 12.7151 34.2398 12.2259ZM17.5362 10.2665C17.5332 10.2772 17.5303 10.288 17.529 10.3H18.158L17.195 10.869C17.089 10.933 16.924 10.982 16.759 10.982H12.712C12.326 10.982 12 10.789 12 10.39C12 10.197 12.097 10.016 12.157 9.91903L14.887 6.07903H12.87C12.435 6.07903 12.085 5.80103 12.085 5.31803C12.085 4.92303 12.349 4.72203 12.409 4.68503L13.372 4.11603L13.393 4.55703H16.82C16.977 4.55703 17.387 4.63003 17.387 5.10103C17.387 5.33003 17.338 5.43903 17.206 5.62003L14.464 9.46003H16.759C17.193 9.46003 17.544 9.73803 17.544 10.221C17.544 10.2381 17.5401 10.2523 17.5362 10.2665Z" fill="#FFAC33"/>
<path d="M31.559 4.95898H28.41C27.731 4.95898 27.185 4.52598 27.185 3.77198C27.185 3.01798 27.731 2.58398 28.41 2.58398H34.574C34.819 2.58398 35.459 2.69698 35.459 3.43198C35.459 3.78998 35.383 3.95998 35.177 4.24298L30.898 10.236H34.48C35.157 10.236 35.705 10.669 35.705 11.423C35.705 12.177 35.157 12.61 34.48 12.61H28.165C27.562 12.61 27.054 12.308 27.054 11.686C27.054 11.384 27.204 11.102 27.298 10.951L31.559 4.95898Z" fill="#2A6797"/>
<path d="M22.684 1.778H20.327C19.819 1.778 19.41 1.454 19.41 0.889C19.41 0.325 19.819 0 20.327 0H24.942C25.126 0 25.605 0.085 25.605 0.635C25.605 0.903 25.548 1.03 25.394 1.242L22.191 5.729H24.873C25.378 5.729 25.788 6.053 25.788 6.618C25.788 7.183 25.378 7.507 24.871 7.507H20.143C19.691 7.507 19.311 7.281 19.311 6.816C19.311 6.59 19.424 6.379 19.494 6.266L22.684 1.778Z" fill="#2A6797"/>
<path d="M15.825 5.527H13.808C13.373 5.527 13.023 5.249 13.023 4.766C13.023 4.283 13.373 4.005 13.808 4.005H17.758C17.915 4.005 18.325 4.078 18.325 4.549C18.325 4.778 18.277 4.887 18.144 5.068L15.402 8.908H17.697C18.131 8.908 18.482 9.186 18.482 9.669C18.482 10.152 18.131 10.43 17.697 10.43H13.65C13.264 10.43 12.938 10.237 12.938 9.83801C12.938 9.64501 13.034 9.464 13.095 9.367L15.825 5.527Z" fill="#2A6797"/>
</g>
<defs>
<clipPath id="clip0">
<rect width="36" height="36" fill="#FFFFFF"/>
</clipPath>
</defs>
</svg>
