<svg width="36" height="36" viewBox="0 0 36 36" fill="none" xmlns="http://www.w3.org/2000/svg">
<g clip-path="url(#clip0_343:24)">
<path d="M35.8913 19.9282C35.5315 16.6591 35.1559 14.999 34.1537 12.9989C34.1537 12.9989 37.1599 3.99847 35.1559 0.298308C34.4803 -0.94775 27.7363 1.98639 25.1347 3.99847C25.1347 3.99847 21.1263 3.00043 18.12 3.00043C15.1137 3.00043 11.1052 3.99847 11.1052 3.99847C8.50377 1.98639 1.75959 -0.94775 1.08417 0.298308C-0.920043 3.99847 2.08628 12.9989 2.08628 12.9989C1.08417 14.999 0.708381 16.6591 0.348626 19.9282C-0.0472071 23.5124 0.74045 26.3695 1.08417 26.9995C1.47499 27.7157 3.45616 30.0247 6.09472 31.9999C10.1031 34.9999 16.1158 36 18.12 36C20.1242 36 26.1369 34.9999 30.1452 31.9999C32.7837 30.0247 34.7649 27.7157 35.1559 26.9995C35.4996 26.3695 36.2873 23.5124 35.8913 19.9282Z" fill="#FFCC4D"/>
<path d="M18.12 19.44C21.12 19.44 21.12 19.9467 21.12 20.96C21.12 21.9733 19.62 24 18.12 24C16.62 24 15.12 21.9733 15.12 20.96C15.12 19.9467 15.119 19.44 18.12 19.44Z" fill="#E75A70"/>
<path d="M1.96068 3.04448C2.40878 1.70322 7.61455 4.04391 8.617 5.04335C8.617 5.04335 3.96559 8.04169 2.96313 11.04C2.96313 11.04 0.958225 6.0428 1.96068 3.04448ZM34.0392 3.04448C33.5911 1.70322 28.3855 4.04391 27.383 5.04335C27.383 5.04335 32.0345 8.04169 33.0369 11.04C33.0369 11.04 35.0417 6.0428 34.0392 3.04448Z" fill="#F18F26"/>
<path d="M5.04001 5.66991C5.04001 4.25628 11.1125 7.06654 10.1114 8.06626C9.11036 9.06601 8.1093 9.66884 7.10823 10.6686C6.10714 11.6683 5.04001 6.66965 5.04001 5.66991ZM31.2 5.66991C31.2 4.25628 25.1275 7.06654 26.1286 8.06626C27.1296 9.06601 28.1306 9.66884 29.1317 10.6686C30.133 11.6683 31.2 6.66965 31.2 5.66991Z" fill="#FFCC4D"/>
<path d="M0.702031 24.96C0.55404 24.96 0.408048 24.8947 0.309053 24.7694C0.138064 24.5517 0.175062 24.2366 0.39205 24.065C0.55404 23.9376 4.4118 20.9348 11.0394 21.4515C11.3144 21.4715 11.5204 21.7133 11.4994 21.9892C11.4784 22.2651 11.2424 22.4919 10.9624 22.4508C4.7298 21.9752 1.04801 24.8246 1.01201 24.8537C0.919018 24.9249 0.810024 24.96 0.702031 24.96ZM9.5695 20.2816C9.52051 20.2816 9.46951 20.2746 9.4205 20.2596C4.6308 18.7576 0.684031 19.9114 0.644033 19.9225C0.379049 20.0037 0.101066 19.8522 0.021071 19.5864C-0.0579244 19.3205 0.0920667 19.0416 0.356052 18.9623C0.529042 18.9101 4.64179 17.7112 9.7175 19.3014C9.98148 19.3847 10.1285 19.6656 10.0455 19.9305C9.97949 20.1442 9.7825 20.2816 9.5695 20.2816ZM35.298 24.96C35.4461 24.96 35.592 24.8947 35.6909 24.7694C35.862 24.5517 35.825 24.2366 35.6078 24.065C35.4461 23.9376 31.5881 20.9348 24.9605 21.4515C24.6857 21.4715 24.4795 21.7133 24.5006 21.9892C24.5215 22.2651 24.7577 22.4919 25.0375 22.4508C31.2703 21.9752 34.9519 24.8246 34.9879 24.8537C35.081 24.9249 35.19 24.96 35.298 24.96ZM26.4305 20.2816C26.4794 20.2816 26.5306 20.2746 26.5795 20.2596C31.3692 18.7576 35.316 19.9114 35.3561 19.9225C35.621 20.0037 35.899 19.8522 35.9789 19.5864C36.0578 19.3205 35.9078 19.0416 35.6438 18.9623C35.471 18.9101 31.3582 17.7112 26.2824 19.3014C26.0186 19.3847 25.8715 19.6656 25.9546 19.9305C26.0196 20.1442 26.2176 20.2816 26.4305 20.2816Z" fill="#FEE7B8"/>
<path d="M22.8609 30.126C21.2859 30.126 20.4679 29.329 19.8119 28.689C19.2519 28.144 18.8469 27.75 17.9849 27.75C17.1219 27.75 16.7169 28.145 16.1579 28.689C15.5019 29.329 14.6839 30.126 13.1099 30.126C11.5359 30.126 10.7199 29.329 10.0639 28.689C9.50694 28.145 9.10394 27.752 8.24894 27.75C7.63794 27.752 7.27894 27.943 6.92894 28.23C6.55494 28.538 6.00294 28.482 5.69794 28.108C5.39194 27.734 5.44694 27.182 5.81994 26.877C6.27594 26.504 7.01794 26.01 8.22494 26H8.27394C9.82594 26.012 10.6349 26.801 11.2859 27.437C11.8449 27.983 12.2489 28.376 13.1099 28.376C13.9729 28.376 14.3779 27.981 14.9379 27.437C15.5939 26.797 16.4119 26 17.9859 26C19.5599 26 20.3779 26.796 21.0339 27.437C21.5949 27.982 21.9989 28.376 22.8619 28.376C23.7249 28.376 24.1299 27.981 24.6899 27.437C25.3459 26.796 26.1639 26 27.7389 26C28.6519 26 29.4089 26.263 30.1219 26.828C30.4999 27.129 30.5629 27.679 30.2639 28.057C29.9629 28.436 29.4129 28.499 29.0349 28.199C28.7409 27.966 28.3809 27.75 27.7399 27.75C26.8769 27.75 26.4719 28.145 25.9119 28.689C25.2529 29.33 24.4359 30.126 22.8609 30.126Z" fill="#292F33"/>
<path d="M7.887 14.65C7.887 16.724 9.574 18.412 11.649 18.412C14.521 18.412 16.855 16.077 16.855 13.206C16.855 10.335 14.52 8 11.649 8C7.983 8 5 10.983 5 14.65C5 15.133 5.392 15.525 5.875 15.525C6.358 15.525 6.75 15.133 6.75 14.65C6.75 11.948 8.947 9.75 11.649 9.75C13.555 9.75 15.105 11.3 15.105 13.206C15.105 15.112 13.555 16.662 11.649 16.662C10.54 16.662 9.637 15.759 9.637 14.65C9.637 13.54 10.54 12.637 11.649 12.637C11.963 12.637 12.218 12.892 12.218 13.206C12.218 13.52 11.962 13.775 11.649 13.775C11.166 13.775 10.774 14.167 10.774 14.65C10.774 15.133 11.166 15.525 11.649 15.525C12.928 15.525 13.968 14.485 13.968 13.206C13.968 11.927 12.928 10.887 11.649 10.887C9.575 10.887 7.887 12.575 7.887 14.65Z" fill="#292F33"/>
<path d="M19.652 13.206C19.652 16.077 21.987 18.412 24.858 18.412C28.524 18.412 31.508 15.429 31.507 11.763C31.507 11.28 31.115 10.888 30.632 10.888C30.149 10.888 29.757 11.28 29.757 11.763C29.757 14.464 27.559 16.662 24.858 16.662C22.953 16.662 21.402 15.111 21.402 13.206C21.402 11.3 22.953 9.75 24.858 9.75C25.968 9.75 26.871 10.653 26.871 11.762C26.871 12.872 25.967 13.775 24.858 13.775C24.545 13.775 24.29 13.52 24.29 13.206C24.29 12.892 24.545 12.637 24.858 12.637C25.342 12.637 25.733 12.245 25.733 11.762C25.733 11.279 25.341 10.887 24.858 10.887C23.58 10.887 22.54 11.927 22.54 13.206C22.54 14.485 23.58 15.525 24.858 15.525C26.933 15.525 28.621 13.836 28.621 11.762C28.621 9.688 26.933 8 24.858 8C21.987 8 19.652 10.335 19.652 13.206Z" fill="#292F33"/>
</g>
<defs>
<clipPath id="clip0_343:24">
<rect width="36" height="36" fill="#FFFFFF"/>
</clipPath>
</defs>
</svg>
