<svg width="36" height="36" viewBox="0 0 36 36" fill="none" xmlns="http://www.w3.org/2000/svg">
<g clip-path="url(#clip0)">
<path d="M35.734 19.929C35.375 16.66 35 15 34 13C34 13 37 4 35 0.300003C34.326 -0.945997 27.596 1.988 25 4C25 4 21 3.002 18 3.002C15 3.002 11 4 11 4C8.404 1.988 1.674 -0.945997 1 0.300003C-1 4 2 13 2 13C1 15 0.625 16.66 0.266 19.929C-0.129 23.513 0.657 26.37 1 27C1.39 27.716 3.367 30.025 6 32C10 35 16 36 18 36C20 36 26 35 30 32C32.633 30.025 34.61 27.716 35 27C35.343 26.37 36.129 23.513 35.734 19.929V19.929Z" fill="#FFCC4D"/>
<path d="M18.0011 17.9587C21.0011 17.9587 21.0011 18.4587 21.0011 19.4587C21.0011 20.4587 19.5011 22.4587 18.0011 22.4587C16.5011 22.4587 15.0011 20.4587 15.0011 19.4587C15.0011 18.4587 15.0001 17.9587 18.0011 17.9587Z" fill="#E75A70"/>
<path d="M2 3.00003C2.447 1.65803 7.64 4.00003 8.64 5.00003C8.64 5.00003 4 8.00003 3 11C3 11 1 6.00003 2 3.00003ZM34 3.00003C33.553 1.65803 28.36 4.00003 27.36 5.00003C27.36 5.00003 32 8.00003 33 11C33 11 35 6.00003 34 3.00003Z" fill="#F18F26"/>
<path d="M4.93401 5.603C4.93401 4.189 11 7 10 8C9.00001 9 8.00001 9.603 7.00001 10.603C6.00001 11.603 4.93401 6.603 4.93401 5.603ZM31.066 5.603C31.066 4.189 25 7 26 8C27 9 28 9.603 29 10.603C30 11.603 31.066 6.603 31.066 5.603V5.603Z" fill="#FFCC4D"/>
<path d="M0.702072 23.4588C0.554072 23.4588 0.408072 23.3938 0.309072 23.2688C0.138072 23.0518 0.175072 22.7378 0.392072 22.5668C0.554072 22.4398 4.41207 19.4468 11.0401 19.9618C11.3151 19.9818 11.5211 20.2228 11.5001 20.4978C11.4791 20.7728 11.2431 20.9988 10.9631 20.9578C4.73007 20.4838 1.04807 23.3237 1.01207 23.3527C0.919072 23.4237 0.810072 23.4588 0.702072 23.4588V23.4588ZM9.57007 18.7958C9.52107 18.7958 9.47007 18.7888 9.42107 18.7738C4.63107 17.2768 0.684072 18.4268 0.644072 18.4378C0.379072 18.5188 0.101072 18.3677 0.0210722 18.1027C-0.0579278 17.8377 0.0920722 17.5598 0.356072 17.4808C0.529072 17.4288 4.64207 16.2338 9.71807 17.8188C9.98207 17.9018 10.1291 18.1818 10.0461 18.4458C9.98007 18.6588 9.78307 18.7958 9.57007 18.7958V18.7958ZM35.3001 23.4588C35.4481 23.4588 35.5941 23.3938 35.6931 23.2688C35.8641 23.0518 35.8271 22.7378 35.6101 22.5668C35.4481 22.4398 31.5901 19.4468 24.9621 19.9618C24.6871 19.9818 24.4811 20.2228 24.5021 20.4978C24.5231 20.7728 24.7591 20.9988 25.0391 20.9578C31.2721 20.4838 34.9541 23.3237 34.9901 23.3527C35.0831 23.4237 35.1921 23.4588 35.3001 23.4588V23.4588ZM26.4321 18.7958C26.4811 18.7958 26.5321 18.7888 26.5811 18.7738C31.3711 17.2768 35.3181 18.4268 35.3581 18.4378C35.6231 18.5188 35.9011 18.3677 35.9811 18.1027C36.0601 17.8377 35.9101 17.5598 35.6461 17.4808C35.4731 17.4288 31.3601 16.2338 26.2841 17.8188C26.0201 17.9018 25.8731 18.1818 25.9561 18.4458C26.0211 18.6588 26.2191 18.7958 26.4321 18.7958V18.7958Z" fill="#FEE7B8"/>
<path d="M18 34.5C20.4853 34.5 22.5 32.0376 22.5 29C22.5 25.9624 20.4853 23.5 18 23.5C15.5147 23.5 13.5 25.9624 13.5 29C13.5 32.0376 15.5147 34.5 18 34.5Z" fill="#292F33"/>
<path d="M5.99895 13C5.79095 13 5.57995 12.935 5.39995 12.8C4.95795 12.469 4.86895 11.842 5.19995 11.4C8.46195 7.05 12.816 7 13 7C13.552 7 14 7.448 14 8C14 8.551 13.5549 8.998 13.004 9C12.8489 9.002 9.43595 9.086 6.79995 12.6C6.60395 12.862 6.30295 13 5.99895 13ZM30.0009 13C29.6959 13 29.397 12.862 29.2 12.6C26.56 9.079 23.139 9.002 22.9939 9C22.444 8.994 22 8.544 22.003 7.995C22.006 7.444 22.45 7 23 7C23.184 7 27.5369 7.05 30.7999 11.4C31.132 11.842 31.042 12.469 30.6 12.8C30.42 12.935 30.2099 13 30.0009 13Z" fill="#292F33"/>
<path d="M18 25.5C16.6192 25.5 15.5 27.29 15.5 29.5H20.5C20.5 27.29 19.3808 25.5 18 25.5Z" fill="#F5F8FA"/>
<path d="M12 20C13.3807 20 14.5 18.433 14.5 16.5C14.5 14.567 13.3807 13 12 13C10.6192 13 9.49995 14.567 9.49995 16.5C9.49995 18.433 10.6192 20 12 20Z" fill="#292F33"/>
<path d="M24 20C25.3807 20 26.5 18.433 26.5 16.5C26.5 14.567 25.3807 13 24 13C22.6192 13 21.5 14.567 21.5 16.5C21.5 18.433 22.6192 20 24 20Z" fill="#292F33"/>
</g>
<defs>
<clipPath id="clip0">
<rect width="36" height="36" fill="#FFFFFF"/>
</clipPath>
</defs>
</svg>
