<svg width="36" height="36" viewBox="0 0 36 36" fill="none" xmlns="http://www.w3.org/2000/svg">
<g clip-path="url(#clip0)">
<path d="M35.734 19.929C35.375 16.66 35 15 34 13C34 13 37 4 35 0.300003C34.326 -0.945997 27.596 1.988 25 4C25 4 21 3.002 18 3.002C15 3.002 11 4 11 4C8.404 1.988 1.674 -0.945997 1 0.300003C-1 4 2 13 2 13C1 15 0.625 16.66 0.266 19.929C-0.129 23.513 0.657 26.37 1 27C1.39 27.716 3.367 30.025 6 32C10 35 16 36 18 36C20 36 26 35 30 32C32.633 30.025 34.61 27.716 35 27C35.343 26.37 36.129 23.513 35.734 19.929V19.929Z" fill="#FFCC4D"/>
<path d="M18.0011 20.9587C21.0011 20.9587 21.0011 21.4587 21.0011 22.4587C21.0011 23.4587 19.5011 25.4587 18.0011 25.4587C16.5011 25.4587 15.0011 23.4587 15.0011 22.4587C15.0011 21.4587 15.0001 20.9587 18.0011 20.9587Z" fill="#E75A70"/>
<path d="M2 3.00003C2.447 1.65803 7.64 4.00003 8.64 5.00003C8.64 5.00003 4 8.00003 3 11C3 11 0.999999 6.00003 2 3.00003ZM34 3.00003C33.553 1.65803 28.36 4.00003 27.36 5.00003C27.36 5.00003 32 8.00003 33 11C33 11 35 6.00003 34 3.00003Z" fill="#F18F26"/>
<path d="M4.934 5.603C4.934 4.189 11 7 10 8C9 9 8 9.603 7 10.603C6 11.603 4.934 6.603 4.934 5.603ZM31.066 5.603C31.066 4.189 25 7 26 8C27 9 28 9.603 29 10.603C30 11.603 31.066 6.603 31.066 5.603V5.603Z" fill="#FFCC4D"/>
<path d="M0.702072 26.4588C0.554072 26.4588 0.408072 26.3938 0.309072 26.2688C0.138072 26.0518 0.175072 25.7378 0.392072 25.5668C0.554072 25.4398 4.41207 22.4468 11.0401 22.9618C11.3151 22.9818 11.5211 23.2228 11.5001 23.4978C11.4791 23.7728 11.2431 23.9988 10.9631 23.9578C4.73007 23.4838 1.04807 26.3237 1.01207 26.3527C0.919072 26.4237 0.810072 26.4588 0.702072 26.4588V26.4588ZM9.57007 21.7958C9.52107 21.7958 9.47007 21.7888 9.42107 21.7738C4.63107 20.2768 0.684072 21.4268 0.644072 21.4378C0.379072 21.5188 0.101072 21.3677 0.0210722 21.1027C-0.0579278 20.8377 0.0920722 20.5598 0.356072 20.4808C0.529072 20.4288 4.64207 19.2338 9.71807 20.8188C9.98207 20.9018 10.1291 21.1818 10.0461 21.4458C9.98007 21.6588 9.78307 21.7958 9.57007 21.7958V21.7958ZM35.3001 26.4588C35.4481 26.4588 35.5941 26.3938 35.6931 26.2688C35.8641 26.0518 35.8271 25.7378 35.6101 25.5668C35.4481 25.4398 31.5901 22.4468 24.9621 22.9618C24.6871 22.9818 24.4811 23.2228 24.5021 23.4978C24.5231 23.7728 24.7591 23.9988 25.0391 23.9578C31.2721 23.4838 34.9541 26.3237 34.9901 26.3527C35.0831 26.4237 35.1921 26.4588 35.3001 26.4588V26.4588ZM26.4321 21.7958C26.4811 21.7958 26.5321 21.7888 26.5811 21.7738C31.3711 20.2768 35.3181 21.4268 35.3581 21.4378C35.6231 21.5188 35.9011 21.3677 35.9811 21.1027C36.0601 20.8377 35.9101 20.5598 35.6461 20.4808C35.4731 20.4288 31.3601 19.2338 26.2841 20.8188C26.0201 20.9018 25.8731 21.1818 25.9561 21.4458C26.0211 21.6588 26.2191 21.7958 26.4321 21.7958V21.7958Z" fill="#FEE7B8"/>
<path d="M18 26C16.6194 26 15.5 27.1514 15.5 28.5714V32.4286C15.5 33.8486 16.6194 35 18 35C19.3806 35 20.5 33.8486 20.5 32.4286V28.5714C20.5 27.1514 19.3806 26 18 26Z" fill="#292F33"/>
<path d="M5.99895 12C5.79095 12 5.57995 11.935 5.39995 11.8C4.95795 11.469 4.86895 10.842 5.19995 10.4C8.46195 6.05 12.816 6 13 6C13.552 6 14 6.448 14 7C14 7.551 13.5549 7.998 13.004 8C12.8489 8.002 9.43595 8.086 6.79995 11.6C6.60395 11.862 6.30295 12 5.99895 12ZM30.0009 12C29.6959 12 29.397 11.862 29.2 11.6C26.56 8.079 23.139 8.002 22.9939 8C22.444 7.994 22 7.544 22.003 6.995C22.006 6.444 22.45 6 23 6C23.184 6 27.5369 6.05 30.7999 10.4C31.132 10.842 31.042 11.469 30.6 11.8C30.42 11.935 30.2099 12 30.0009 12ZM13.9139 16.5L15.707 14.707C16.0979 14.316 16.0979 13.684 15.707 13.293C15.316 12.902 14.684 12.902 14.293 13.293L12.5 15.086L10.707 13.293C10.316 12.902 9.68395 12.902 9.29295 13.293C8.90195 13.684 8.90195 14.316 9.29295 14.707L11.086 16.5L9.29295 18.293C8.90195 18.684 8.90195 19.316 9.29295 19.707C9.48795 19.902 9.74395 20 9.99995 20C10.256 20 10.512 19.902 10.707 19.707L12.5 17.914L14.293 19.707C14.488 19.902 14.744 20 15 20C15.2559 20 15.512 19.902 15.707 19.707C16.0979 19.316 16.0979 18.684 15.707 18.293L13.9139 16.5ZM24.9139 16.5L26.707 14.707C27.098 14.316 27.098 13.684 26.707 13.293C26.316 12.902 25.684 12.902 25.2929 13.293L23.5 15.086L21.707 13.293C21.316 12.902 20.6839 12.902 20.2929 13.293C19.9019 13.684 19.9019 14.316 20.2929 14.707L22.086 16.5L20.2929 18.293C19.9019 18.684 19.9019 19.316 20.2929 19.707C20.4879 19.902 20.744 20 21 20C21.256 20 21.512 19.902 21.707 19.707L23.5 17.914L25.2929 19.707C25.4879 19.902 25.7439 20 26 20C26.256 20 26.512 19.902 26.707 19.707C27.098 19.316 27.098 18.684 26.707 18.293L24.9139 16.5Z" fill="#292F33"/>
</g>
<defs>
<clipPath id="clip0">
<rect width="36" height="36" fill="#FFFFFF"/>
</clipPath>
</defs>
</svg>
