<svg width="36" height="36" viewBox="0 0 36 36" fill="none" xmlns="http://www.w3.org/2000/svg">
<g clip-path="url(#clip0_343:11)">
<g clip-path="url(#clip1_343:11)">
<path d="M33.271 20.1611C32.9618 17.3461 32.6389 15.9167 31.7778 14.1944C31.7778 14.1944 34.3611 6.44444 32.6389 3.25833C32.0585 2.18538 26.2632 4.71188 24.0278 6.44444C24.0278 6.44444 20.5833 5.58505 18 5.58505C15.4167 5.58505 11.9722 6.44444 11.9722 6.44444C9.73678 4.71188 3.94151 2.18538 3.36112 3.25833C1.6389 6.44444 4.22223 14.1944 4.22223 14.1944C3.36112 15.9167 3.0382 17.3461 2.72906 20.1611C2.38892 23.2473 3.06576 25.7075 3.36112 26.25C3.69695 26.8666 5.39937 28.8549 7.66667 30.5556C11.1111 33.1389 16.2778 34 18 34C19.7222 34 24.8889 33.1389 28.3333 30.5556C30.6006 28.8549 32.3031 26.8666 32.6389 26.25C32.9343 25.7075 33.6111 23.2473 33.271 20.1611Z" fill="#FFCC4D"/>
<path d="M18 19.7917C20.5833 19.7917 20.5833 20.2222 20.5833 21.0834C20.5833 21.9445 19.2917 23.6667 18 23.6667C16.7083 23.6667 15.4167 21.9445 15.4167 21.0834C15.4167 20.2222 15.4158 19.7917 18 19.7917Z" fill="#E75A70"/>
<path d="M4.22222 5.58335C4.60714 4.42773 9.07889 6.44446 9.94 7.30557C9.94 7.30557 5.94444 9.8889 5.08333 12.4722C5.08333 12.4722 3.36111 8.16668 4.22222 5.58335ZM31.7778 5.58335C31.3929 4.42773 26.9211 6.44446 26.06 7.30557C26.06 7.30557 30.0556 9.8889 30.9167 12.4722C30.9167 12.4722 32.6389 8.16668 31.7778 5.58335Z" fill="#F18F26"/>
<path d="M6.74872 7.82483C6.74872 6.60722 11.9722 9.0278 11.1111 9.88892C10.25 10.75 9.38888 11.2693 8.52777 12.1304C7.66666 12.9915 6.74872 8.68594 6.74872 7.82483ZM29.2513 7.82483C29.2513 6.60722 24.0278 9.0278 24.8889 9.88892C25.75 10.75 26.6111 11.2693 27.4722 12.1304C28.3333 12.9915 29.2513 8.68594 29.2513 7.82483Z" fill="#FFCC4D"/>
<path d="M3.10365 24.5278C2.9762 24.5278 2.85048 24.4718 2.76523 24.3642C2.61798 24.1773 2.64984 23.9069 2.8367 23.7597C2.9762 23.6503 6.29837 21.073 12.0058 21.5165C12.2426 21.5337 12.42 21.7412 12.4019 21.978C12.3838 22.2148 12.1806 22.4094 11.9395 22.3741C6.5722 21.966 3.40159 24.4115 3.37059 24.4365C3.29051 24.4976 3.19665 24.5278 3.10365 24.5278ZM10.74 20.5124C10.6978 20.5124 10.6539 20.5064 10.6117 20.4935C6.48695 19.2044 3.08815 20.1947 3.0537 20.2041C2.82551 20.2739 2.58612 20.1438 2.51723 19.9157C2.4492 19.6875 2.57837 19.4481 2.8057 19.38C2.95467 19.3353 6.49642 18.3062 10.8674 19.6711C11.0948 19.7426 11.2213 19.9837 11.1499 20.211C11.093 20.3944 10.9234 20.5124 10.74 20.5124ZM32.8964 24.5278C33.0238 24.5278 33.1495 24.4718 33.2348 24.3642C33.382 24.1773 33.3502 23.9069 33.1633 23.7597C33.0238 23.6503 29.7016 21.073 23.9942 21.5165C23.7574 21.5337 23.58 21.7412 23.5981 21.978C23.6162 22.2148 23.8194 22.4094 24.0605 22.3741C29.4278 21.966 32.5984 24.4115 32.6294 24.4365C32.7095 24.4976 32.8034 24.5278 32.8964 24.5278ZM25.26 20.5124C25.3022 20.5124 25.3461 20.5064 25.3883 20.4935C29.5131 19.2044 32.9119 20.1947 32.9463 20.2041C33.1745 20.2739 33.4139 20.1438 33.4828 19.9157C33.5508 19.6875 33.4216 19.4481 33.1943 19.38C33.0453 19.3353 29.5036 18.3062 25.1326 19.6711C24.9053 19.7426 24.7787 19.9837 24.8501 20.211C24.9061 20.3944 25.0766 20.5124 25.26 20.5124Z" fill="#FEE7B8"/>
<path d="M12.8333 18.5C13.7845 18.5 14.5556 17.1506 14.5556 15.4861C14.5556 13.8216 13.7845 12.4722 12.8333 12.4722C11.8822 12.4722 11.1111 13.8216 11.1111 15.4861C11.1111 17.1506 11.8822 18.5 12.8333 18.5Z" fill="#292F33"/>
<path d="M23.1667 18.5C24.1178 18.5 24.8889 17.1506 24.8889 15.4861C24.8889 13.8216 24.1178 12.4722 23.1667 12.4722C22.2155 12.4722 21.4445 13.8216 21.4445 15.4861C21.4445 17.1506 22.2155 18.5 23.1667 18.5Z" fill="#292F33"/>
</g>
<path d="M30.583 11.966C32.7921 11.966 34.583 10.1751 34.583 7.966C34.583 5.75686 32.7921 3.966 30.583 3.966C28.3739 3.966 26.583 5.75686 26.583 7.966C26.583 10.1751 28.3739 11.966 30.583 11.966Z" fill="#F3F7F9"/>
<path d="M7.83901 29.942C7.34901 30.178 6.82301 30.323 6.26101 30.378C3.90201 30.559 1.83401 28.8 1.63401 26.441C1.45301 24.064 3.21301 22.014 5.57101 21.814C7.07701 21.705 8.43801 22.358 9.29001 23.447L7.83901 29.942Z" fill="#F3F7F9"/>
<path d="M13.931 8.88199C13.821 9.09099 13.702 9.29999 13.572 9.49999C13.134 10.168 12.596 10.765 11.968 11.274C11.37 11.762 10.713 12.151 10.005 12.43C8.391 13.098 6.478 13.167 4.913 12.55C4.674 12.46 4.435 12.351 4.216 12.221C3.269 11.733 2.482 11.005 2.004 10.119C2.791 10.707 3.688 11.125 4.634 11.335C5.989 11.634 7.434 11.524 8.809 10.917C9.397 10.658 9.935 10.329 10.403 9.93098C10.961 9.47298 11.439 8.93499 11.818 8.33699C12.276 7.61999 12.585 6.82299 12.745 5.97599C13.323 5.82699 13.861 5.58699 14.319 5.23899C14.478 5.11899 14.638 4.98999 14.777 4.85999C14.877 6.21199 14.598 7.62699 13.931 8.88199Z" fill="#C9D5DD"/>
<path d="M35.378 4.81398C35.439 5.62698 35.165 6.39998 34.676 6.97998C34.605 7.06098 34.534 7.13298 34.463 7.20398C33.985 7.65098 33.355 7.95598 32.653 8.01698C32.043 8.05798 31.463 7.91498 30.975 7.65098C30.751 8.04798 30.477 8.40298 30.172 8.72898C30.101 8.79998 30.04 8.86098 29.968 8.92198C28.728 10.101 26.989 10.701 25.169 10.396C23.339 10.101 21.875 8.96198 21.081 7.43698C20.908 7.11198 20.766 6.76598 20.664 6.39998C20.389 6.53198 20.095 6.61398 19.779 6.64398C18.457 6.74598 17.298 5.75898 17.186 4.43798C17.084 3.10598 18.071 1.95698 19.393 1.84498C20.238 1.78398 21 2.14998 21.478 2.75998C22.21 1.25498 23.695 0.166975 25.484 0.0149753C27.619 -0.148025 29.541 1.06198 30.354 2.91298C30.832 2.45498 31.462 2.14998 32.174 2.08898C33.802 1.95698 35.246 3.18698 35.378 4.81398Z" fill="#F3F7F9"/>
<path d="M34.467 7.20801C34.367 7.54701 34.198 7.86601 33.949 8.14501C33.65 8.50401 33.242 8.75301 32.783 8.95201C32.604 9.03201 32.394 9.09201 32.195 9.12101C32.016 9.40001 31.806 9.65901 31.567 9.90801C30.989 10.546 30.242 11.064 29.415 11.403C28 12.001 26.306 12.061 24.862 11.562C24.075 11.303 23.337 10.865 22.73 10.297C22.232 9.85901 21.813 9.33001 21.534 8.75301C21.454 8.60401 21.385 8.44401 21.325 8.29501C21.215 8.01601 21.136 7.72701 21.086 7.43801C21.206 7.67701 21.345 7.89601 21.504 8.11601C21.962 8.76401 22.56 9.32201 23.268 9.73001H23.278C23.846 10.059 24.484 10.288 25.171 10.398C26.994 10.707 28.728 10.099 29.974 8.92301C30.044 8.86301 30.104 8.80301 30.173 8.73401C30.273 8.62401 30.372 8.51501 30.462 8.39501C30.661 8.16601 30.831 7.91701 30.98 7.64801C31.468 7.91701 32.046 8.05701 32.654 8.01701C33.351 7.95501 33.988 7.64601 34.467 7.20801Z" fill="#C9D5DD"/>
<path d="M23.775 5.92597C23.775 9.01698 20.613 11.518 16.708 11.518C14.441 11.518 12.417 10.674 11.126 9.36198C9.865 10.847 7.689 11.833 5.849 11.833C3.063 11.833 0.806 9.57597 0.806 6.78997C0.806 4.00397 3.063 1.74697 5.849 1.74697C5.92 1.74697 6.001 1.74697 6.073 1.75697C6.653 0.973975 7.568 0.475975 8.615 0.475975C9.845 0.475975 10.913 1.18797 11.421 2.21497C12.712 1.04597 14.604 0.323975 16.708 0.323975C20.613 0.322975 23.775 2.82497 23.775 5.92597Z" fill="#F3F7F9"/>
<path d="M27.92 4.40802C27.86 4.81702 27.701 5.23502 27.462 5.62402C27.143 6.13202 26.685 6.59002 26.117 6.90902C25.679 7.15802 25.17 7.37702 24.632 7.45702C24.303 8.27402 23.845 9.04102 23.277 9.72902H23.267C23.098 9.92802 22.918 10.118 22.729 10.297C22.51 10.516 22.281 10.715 22.032 10.905C20.547 12.051 18.624 12.698 16.721 12.679C15.077 12.679 13.353 12.201 11.968 11.274C11.769 11.144 11.589 11.005 11.41 10.866C11.051 10.577 10.713 10.268 10.404 9.92902C10.075 9.59002 9.776 9.22202 9.507 8.83302C9.278 8.46302 9.078 8.09502 8.909 7.69602C8.431 7.64602 7.952 7.52702 7.534 7.31702C7.325 7.22702 7.135 7.11802 6.956 6.98802C6.388 6.58002 5.93 6.05202 5.701 5.43402C5.511 5.00602 5.432 4.54802 5.461 4.11902C5.89 5.52402 7.285 6.42102 8.75 6.23202L8.939 6.20202C9.328 6.13202 9.686 5.97302 9.995 5.77402C10.194 6.23202 10.423 6.66102 10.702 7.05902C10.782 7.18902 10.871 7.30802 10.971 7.42802C11.22 7.75702 11.509 8.06602 11.818 8.33502C12.336 8.81302 12.924 9.20202 13.572 9.50102C14.369 9.88002 15.256 10.099 16.193 10.139C18.166 10.239 19.979 9.53102 21.324 8.29602L21.503 8.11702C22.151 7.48902 22.669 6.72202 23.037 5.87502C23.695 6.15402 24.432 6.20402 25.189 6.10402C25.787 6.02402 26.425 5.64602 26.933 5.26702C27.492 4.85702 27.89 4.44802 27.92 4.40802Z" fill="#DEE7ED"/>
<path d="M33.607 33.196C32.783 33.826 31.746 33.979 30.831 33.664L30.79 33.654C30.79 33.674 30.397 34.863 28.868 34.854C28.197 34.85 27.607 34.569 27.2 34.102C26.397 34.854 25.319 35.322 24.119 35.322C23.611 35.322 23.123 35.241 22.665 35.078C21.953 35.576 21.089 35.869 20.143 35.871C18.262 35.876 17.448 35.2 17.001 34.732C13.11 37.003 8.12699 35.903 6.51799 33.949C6.36699 33.766 6.23299 33.573 6.12099 33.369C5.44999 33.745 4.67699 33.908 3.87399 33.796C1.83999 33.542 0.385992 31.661 0.640992 29.627C0.762992 28.681 1.23099 27.868 1.90199 27.288C1.95299 27.237 2.01399 27.186 2.06499 27.146C2.82799 26.566 3.80399 26.272 4.82099 26.404C4.98399 26.424 5.13599 26.455 5.28899 26.496L5.41099 26.526C5.56299 26.567 5.70599 26.628 5.84799 26.689C5.98999 26.75 6.13299 26.821 6.26499 26.902C6.45799 27.014 6.63099 27.136 6.79399 27.278C6.89599 27.166 6.99699 27.064 7.09899 26.963L7.11899 26.943C9.05099 25.052 11.949 24.35 14.633 25.397C15.894 25.885 16.951 26.709 17.704 27.715C18.406 27.247 19.239 26.983 20.144 26.983C21.09 26.983 21.964 27.278 22.686 27.786C24.465 27.298 26.326 27.562 27.882 28.406C27.892 28.406 27.892 28.416 27.892 28.416C28.116 28.528 28.339 28.66 28.543 28.813C28.756 28.955 28.96 29.118 29.163 29.281C29.346 28.956 29.6 28.661 29.915 28.417C31.166 27.461 32.925 27.624 33.972 28.753L34.155 28.967C35.173 30.278 34.929 32.179 33.607 33.196Z" fill="#F3F7F9"/>
<path d="M22.729 35.087L22.659 35.077C22.679 34.997 22.689 34.928 22.699 34.848C22.769 34.32 22.699 33.802 22.51 33.334C22.121 32.367 21.225 31.63 20.109 31.491C19.989 31.471 19.86 31.471 19.73 31.471C19.471 31.471 19.222 31.501 18.973 31.561C18.943 31.162 18.873 30.754 18.774 30.375C18.555 29.458 18.156 28.611 17.608 27.874C16.851 26.848 15.785 26.011 14.499 25.513C11.839 24.477 8.95901 25.174 7.04601 27.047L7.02601 27.067C6.91601 27.167 6.81701 27.276 6.71701 27.386C6.55801 27.247 6.38801 27.117 6.18901 27.007C6.05901 26.927 5.92001 26.858 5.78101 26.798C5.66101 26.748 5.54201 26.698 5.41201 26.658C5.39201 26.648 5.36201 26.648 5.34201 26.638L5.22201 26.608C5.07301 26.568 4.92301 26.538 4.76401 26.518C3.74801 26.378 2.78101 26.677 2.02401 27.255C1.97401 27.295 1.91401 27.345 1.86501 27.395L1.85501 27.375C2.29301 26.518 3.21001 25.801 4.34601 25.572C4.47601 25.552 4.60501 25.522 4.73501 25.512C5.12401 25.462 5.52201 25.452 5.92101 25.522C6.81801 24.446 8.04301 23.579 9.43801 23.091C11.192 22.473 13.214 22.473 14.998 23.091C16.762 23.669 18.426 24.865 19.432 26.449C19.432 26.469 19.442 26.469 19.442 26.479C19.472 26.519 19.502 26.569 19.522 26.609C19.96 27.287 20.289 28.014 20.528 28.771C20.538 28.811 20.558 28.861 20.578 28.901C20.578 28.921 20.588 28.941 20.598 28.961C20.708 29.379 20.777 29.808 20.817 30.226C21.475 30.525 22.033 30.953 22.421 31.501C22.79 32.009 23.039 32.577 23.109 33.155C23.119 33.225 23.129 33.294 23.129 33.364C23.177 33.991 23.028 34.609 22.729 35.087Z" fill="#DEE7ED"/>
<path d="M34.118 28.979C33.122 27.963 31.497 27.753 30.252 28.481C30.152 28.521 30.063 28.581 29.973 28.65C29.654 28.889 29.395 29.178 29.206 29.497C29.007 29.328 28.788 29.178 28.578 29.039C28.369 28.89 28.14 28.76 27.91 28.65C27.91 28.65 27.91 28.64 27.9 28.64C26.007 27.664 23.685 27.494 21.573 28.391C21.214 28.54 20.885 28.71 20.577 28.899C20.557 28.859 20.537 28.809 20.527 28.769C20.288 28.012 19.959 27.284 19.521 26.607C19.661 26.537 19.79 26.467 19.92 26.408C21.624 25.591 23.696 25.282 25.589 25.671C26.526 25.86 27.422 26.179 28.249 26.608C28.628 26.827 28.986 27.076 29.315 27.345C29.973 27.096 30.67 27.006 31.318 27.096C31.348 27.096 31.388 27.096 31.418 27.106C32.135 27.216 32.793 27.475 33.281 27.903C33.659 28.202 33.948 28.581 34.118 28.979Z" fill="#C9D5DD"/>
</g>
<defs>
<clipPath id="clip0_343:11">
<rect width="36" height="36" fill="#000000"/>
</clipPath>
<clipPath id="clip1_343:11">
<rect width="31" height="31" fill="#000000" transform="translate(2.5 3)"/>
</clipPath>
</defs>
</svg>
