<svg width="36" height="36" viewBox="0 0 36 36" fill="none" xmlns="http://www.w3.org/2000/svg">
<g clip-path="url(#clip0)">
<path d="M35.734 16.071C35.375 19.34 35 21 34 23C34 23 37 32 35 35.7C34.326 36.946 27.596 34.012 25 32C25 32 21 32.998 18 32.998C15 32.998 11 32 11 32C8.404 34.012 1.674 36.946 1 35.7C-1 32 2 23 2 23C1 21 0.625 19.34 0.266 16.071C-0.129 12.487 0.657 9.63 1 9C1.39 8.284 3.367 5.975 6 4C10 0.999996 16 -3.8147e-06 18 -3.8147e-06C20 -3.8147e-06 26 0.999996 30 4C32.633 5.975 34.61 8.284 35 9C35.343 9.63 36.129 12.487 35.734 16.071V16.071Z" fill="#FFCC4D"/>
<path d="M18 16.5C21 16.5 21 16 21 15C21 14 19.5 12 18 12C16.5 12 15 14 15 15C15 16 14.999 16.5 18 16.5Z" fill="#E75A70"/>
<path d="M2 33C2.447 34.342 7.64 32 8.64 31C8.64 31 4 28 3 25C3 25 1 30 2 33ZM34 33C33.553 34.342 28.36 32 27.36 31C27.36 31 32 28 33 25C33 25 35 30 34 33Z" fill="#F18F26"/>
<path d="M4.93399 30.397C4.93399 31.811 11 29 9.99999 28C8.99999 27 7.99999 26.397 6.99999 25.397C5.99999 24.397 4.93399 29.397 4.93399 30.397ZM31.066 30.397C31.066 31.811 25 29 26 28C27 27 28 26.397 29 25.397C30 24.397 31.066 29.397 31.066 30.397V30.397Z" fill="#FFCC4D"/>
<path d="M0.701004 11C0.553004 11 0.407004 11.065 0.308004 11.19C0.137004 11.407 0.174004 11.721 0.391004 11.892C0.553004 12.019 4.411 15.012 11.039 14.497C11.314 14.477 11.52 14.236 11.499 13.961C11.478 13.686 11.242 13.46 10.962 13.501C4.729 13.975 1.047 11.135 1.011 11.106C0.918004 11.035 0.809004 11 0.701004 11V11ZM9.569 15.663C9.52 15.663 9.469 15.67 9.42 15.685C4.63 17.182 0.683004 16.032 0.643004 16.021C0.378004 15.94 0.100004 16.091 0.0200041 16.356C-0.0589959 16.621 0.091004 16.899 0.355004 16.978C0.528004 17.03 4.641 18.225 9.717 16.64C9.981 16.557 10.128 16.277 10.045 16.013C9.979 15.8 9.782 15.663 9.569 15.663V15.663ZM35.299 11C35.447 11 35.593 11.065 35.692 11.19C35.863 11.407 35.826 11.721 35.609 11.892C35.447 12.019 31.589 15.012 24.961 14.497C24.686 14.477 24.48 14.236 24.501 13.961C24.522 13.686 24.758 13.46 25.038 13.501C31.271 13.975 34.953 11.135 34.989 11.106C35.082 11.035 35.191 11 35.299 11V11ZM26.431 15.663C26.48 15.663 26.531 15.67 26.58 15.685C31.37 17.182 35.317 16.032 35.357 16.021C35.622 15.94 35.9 16.091 35.98 16.356C36.059 16.621 35.909 16.899 35.645 16.978C35.472 17.03 31.359 18.225 26.283 16.64C26.019 16.557 25.872 16.277 25.955 16.013C26.02 15.8 26.218 15.663 26.431 15.663V15.663Z" fill="#FEE7B8"/>
<path d="M12 18C13.1046 18 14 19.567 14 21.5C14 23.433 13.1046 25 12 25C10.8954 25 10 23.433 10 21.5C10 19.567 10.8954 18 12 18Z" fill="#292F33"/>
<path d="M24 18C25.1046 18 26 19.567 26 21.5C26 23.433 25.1046 25 24 25C22.8954 25 22 23.433 22 21.5C22 19.567 22.8954 18 24 18Z" fill="#292F33"/>
<path d="M10.5152 9.379C10.5602 9.2 11.6832 5 18.0002 5C24.3182 5 25.4402 9.2 25.4852 9.379C25.5402 9.596 25.4422 9.821 25.2482 9.933C25.0532 10.044 24.8092 10.011 24.6482 9.856C24.6292 9.837 22.6942 8 18.0002 8C13.3062 8 11.3702 9.837 11.3522 9.855C11.2562 9.95 11.1282 10 11.0002 10C10.9162 10 10.8312 9.979 10.7542 9.936C10.5582 9.824 10.4602 9.597 10.5152 9.379V9.379Z" fill="#292F33"/>
</g>
<defs>
<clipPath id="clip0">
<rect width="36" height="36" fill="#FFFFFF" transform="matrix(1 0 0 -1 0 36)"/>
</clipPath>
</defs>
</svg>
