<svg width="36" height="36" viewBox="0 0 36 36" fill="none" xmlns="http://www.w3.org/2000/svg">
<g clip-path="url(#clip0)">
<path d="M35.734 19.929C35.375 16.66 35 15 34 13C34 13 37 4 35 0.300003C34.326 -0.945997 27.596 1.988 25 4C25 4 21 3.002 18 3.002C15 3.002 11 4 11 4C8.404 1.988 1.674 -0.945997 1 0.300003C-1 4 2 13 2 13C1 15 0.625 16.66 0.266 19.929C-0.129 23.513 0.657 26.37 1 27C1.39 27.716 3.367 30.025 6 32C10 35 16 36 18 36C20 36 26 35 30 32C32.633 30.025 34.61 27.716 35 27C35.343 26.37 36.129 23.513 35.734 19.929V19.929Z" fill="#FFCC4D"/>
<path d="M18 19.5C21 19.5 21 20 21 21C21 22 19.5 24 18 24C16.5 24 15 22 15 21C15 20 14.999 19.5 18 19.5Z" fill="#E75A70"/>
<path d="M1.99997 3.00003C2.44697 1.65803 7.63997 4.00003 8.63997 5.00003C8.63997 5.00003 3.99997 8.00003 2.99997 11C2.99997 11 0.999971 6.00003 1.99997 3.00003ZM34 3.00003C33.553 1.65803 28.36 4.00003 27.36 5.00003C27.36 5.00003 32 8.00003 33 11C33 11 35 6.00003 34 3.00003Z" fill="#F18F26"/>
<path d="M4.93402 5.603C4.93402 4.189 11 7 10 8C9.00002 9 8.00002 9.603 7.00002 10.603C6.00002 11.603 4.93402 6.603 4.93402 5.603ZM31.066 5.603C31.066 4.189 25 7 26 8C27 9 28 9.603 29 10.603C30 11.603 31.066 6.603 31.066 5.603V5.603Z" fill="#FFCC4D"/>
<path d="M12.5 19.0011C13.8807 19.0011 15 17.4341 15 15.5011C15 13.5681 13.8807 12.0011 12.5 12.0011C11.1193 12.0011 10 13.5681 10 15.5011C10 17.4341 11.1193 19.0011 12.5 19.0011Z" fill="#292F33"/>
<path d="M23.5 19.0011C24.8807 19.0011 26 17.4341 26 15.5011C26 13.5681 24.8807 12.0011 23.5 12.0011C22.1193 12.0011 21 13.5681 21 15.5011C21 17.4341 22.1193 19.0011 23.5 19.0011Z" fill="#292F33"/>
<path d="M29 11.0011C23.446 11.0011 21.198 6.63412 21.105 6.44812C20.858 5.95412 21.058 5.35312 21.552 5.10612C22.044 4.85912 22.644 5.05812 22.892 5.54912C22.967 5.69512 24.713 9.00112 29 9.00112C29.553 9.00112 30 9.44912 30 10.0011C30 10.5541 29.553 11.0011 29 11.0011ZM7 10.9951C6.448 10.9951 6 10.5471 6 9.99512C6 9.44312 6.448 8.99512 7 8.99512C12.083 8.99512 12.996 5.87512 13.033 5.74212C13.178 5.21412 13.723 4.89412 14.252 5.03312C14.782 5.17212 15.103 5.70612 14.97 6.23812C14.921 6.43212 13.704 10.9951 7 10.9951V10.9951Z" fill="#292F33"/>
<path fill-rule="evenodd" clip-rule="evenodd" d="M34.6005 16.4607L31.196 17.1518L15.009 27.6598L22.127 28.6228L33.812 21.4118C34.515 20.9808 34.806 20.5768 35.01 19.6648C35.0396 19.5324 35.0646 19.3684 35.0858 19.1848C34.9476 18.1263 34.796 17.2509 34.6005 16.4607Z" fill="#FFAC33"/>
<path d="M0.700974 25C0.552974 25 0.406974 24.935 0.307974 24.81C0.136974 24.593 0.173974 24.279 0.390974 24.108C0.552974 23.981 4.41097 20.988 11.039 21.503C11.314 21.523 11.52 21.764 11.499 22.039C11.478 22.314 11.242 22.54 10.962 22.499C4.72897 22.025 1.04697 24.865 1.01097 24.894C0.917974 24.965 0.808974 25 0.700974 25V25ZM9.56897 20.337C9.51997 20.337 9.46897 20.33 9.41997 20.315C4.62997 18.818 0.682974 19.968 0.642974 19.979C0.377974 20.06 0.0999735 19.909 0.0199735 19.644C-0.0590265 19.379 0.0909735 19.101 0.354974 19.022C0.527974 18.97 4.64097 17.775 9.71697 19.36C9.98097 19.443 10.128 19.723 10.045 19.987C9.97897 20.2 9.78197 20.337 9.56897 20.337V20.337ZM35.299 25C35.447 25 35.593 24.935 35.692 24.81C35.863 24.593 35.826 24.279 35.609 24.108C35.447 23.981 31.589 20.988 24.961 21.503C24.686 21.523 24.48 21.764 24.501 22.039C24.522 22.314 24.758 22.54 25.038 22.499C31.271 22.025 34.953 24.865 34.989 24.894C35.082 24.965 35.191 25 35.299 25V25ZM26.431 20.337C26.48 20.337 26.531 20.33 26.58 20.315C31.37 18.818 35.317 19.968 35.357 19.979C35.622 20.06 35.9 19.909 35.98 19.644C36.059 19.379 35.909 19.101 35.645 19.022C35.472 18.97 31.359 17.775 26.283 19.36C26.019 19.443 25.872 19.723 25.955 19.987C26.02 20.2 26.218 20.337 26.431 20.337V20.337Z" fill="#FEE7B8"/>
<path d="M25.362 30.636C24.879 29.87 21.947 25.5 18 25.5C13.766 25.5 10.7 30.528 10.572 30.743C10.451 30.943 10.487 31.2 10.656 31.362C10.75 31.453 10.875 31.5 11 31.5C11.096 31.5 11.193 31.473 11.277 31.416C11.306 31.396 14.195 29.5 18 29.5C21.792 29.5 24.695 31.397 24.723 31.416C24.809 31.474 24.938 31.512 25.004 31.5C25.281 31.496 25.52 31.281 25.52 31C25.52 30.856 25.46 30.728 25.362 30.636V30.636Z" fill="#292F33"/>
<path d="M34.707 14.9998C33.878 13.8958 32.31 13.6718 31.206 14.4998L14 27.4078C14.646 27.1658 15.51 26.9638 16.615 26.8858C16.871 26.8678 19.275 26.2588 19.275 26.2588L20.568 27.2948C20.568 27.2948 21.479 27.6618 21.765 27.8338L34.209 18.4988C35.312 17.6718 35.535 16.1038 34.707 14.9998V14.9998Z" fill="#CCD6DD"/>
<path d="M27.919 20.1408C27.471 19.5448 27.132 18.9958 26.536 19.4428L16.614 26.8858C16.87 26.8678 17.114 26.8438 17.397 26.8418C18.757 26.8328 19.797 27.0368 20.567 27.2938L28.155 21.6018C28.751 21.1548 28.366 20.7378 27.919 20.1408V20.1408Z" fill="#DA2F47"/>
<path d="M17.832 24.4988L19.066 26.0968L19.807 25.5018L18.61 23.9148L17.832 24.4988ZM20.055 22.8378L21.29 24.4358L22.031 23.8408L20.834 22.2538L20.055 22.8378ZM22.239 21.2188L23.473 22.8168L24.214 22.2218L23.017 20.6348L22.239 21.2188ZM24.42 19.5588L25.655 21.1558L26.396 20.5618L25.199 18.9748L24.42 19.5588ZM26.658 17.9178L27.893 19.5158L28.633 18.9208L27.437 17.3338L26.658 17.9178ZM28.798 16.2998L30.033 17.8978L30.773 17.3028L29.577 15.7158L28.798 16.2998Z" fill="#67757F"/>
</g>
<defs>
<clipPath id="clip0">
<rect width="36" height="36" fill="#FFFFFF"/>
</clipPath>
</defs>
</svg>
