<svg width="36" height="36" viewBox="0 0 36 36" fill="none" xmlns="http://www.w3.org/2000/svg">
<g clip-path="url(#clip0)">
<path d="M35.734 19.929C35.375 16.66 35 15 34 13C34 13 37 4 35 0.300003C34.326 -0.945997 27.596 1.988 25 4C25 4 21 3.002 18 3.002C15 3.002 11 4 11 4C8.404 1.988 1.674 -0.945997 1 0.300003C-1 4 2 13 2 13C1 15 0.625 16.66 0.266 19.929C-0.129 23.513 0.657 26.37 1 27C1.39 27.716 3.367 30.025 6 32C10 35 16 36 18 36C20 36 26 35 30 32C32.633 30.025 34.61 27.716 35 27C35.343 26.37 36.129 23.513 35.734 19.929Z" fill="#FFCC4D"/>
<path d="M18 16C21 16 21 16.5 21 17.5C21 18.5 19.5 20.5 18 20.5C16.5 20.5 15 18.5 15 17.5C15 16.5 14.999 16 18 16Z" fill="#E75A70"/>
<path d="M1.99997 3.00003C2.44697 1.65803 7.63997 4.00003 8.63997 5.00003C8.63997 5.00003 3.99997 8.00003 2.99997 11C2.99997 11 0.999971 6.00003 1.99997 3.00003ZM34 3.00003C33.553 1.65803 28.36 4.00003 27.36 5.00003C27.36 5.00003 32 8.00003 33 11C33 11 35 6.00003 34 3.00003Z" fill="#F18F26"/>
<path d="M4.93402 5.603C4.93402 4.189 11 7 10 8C9.00002 9 8.00002 9.603 7.00002 10.603C6.00002 11.603 4.93402 6.603 4.93402 5.603ZM31.066 5.603C31.066 4.189 25 7 26 8C27 9 28 9.603 29 10.603C30 11.603 31.066 6.603 31.066 5.603Z" fill="#FFCC4D"/>
<path d="M0.700974 25C0.552974 25 0.406974 24.935 0.307974 24.81C0.136974 24.593 0.173974 24.279 0.390974 24.108C0.552974 23.981 4.41097 20.988 11.039 21.503C11.314 21.523 11.52 21.764 11.499 22.039C11.478 22.314 11.242 22.54 10.962 22.499C4.72897 22.025 1.04697 24.865 1.01097 24.894C0.917974 24.965 0.808973 25 0.700974 25ZM9.56897 20.337C9.51997 20.337 9.46897 20.33 9.41997 20.315C4.62997 18.818 0.682974 19.968 0.642974 19.979C0.377974 20.06 0.0999735 19.909 0.0199735 19.644C-0.0590265 19.379 0.0909735 19.101 0.354974 19.022C0.527974 18.97 4.64097 17.775 9.71697 19.36C9.98097 19.443 10.128 19.723 10.045 19.987C9.97897 20.2 9.78197 20.337 9.56897 20.337ZM35.299 25C35.447 25 35.593 24.935 35.692 24.81C35.863 24.593 35.826 24.279 35.609 24.108C35.447 23.981 31.589 20.988 24.961 21.503C24.686 21.523 24.48 21.764 24.501 22.039C24.522 22.314 24.758 22.54 25.038 22.499C31.271 22.025 34.953 24.865 34.989 24.894C35.082 24.965 35.191 25 35.299 25ZM26.431 20.337C26.48 20.337 26.531 20.33 26.58 20.315C31.37 18.818 35.317 19.968 35.357 19.979C35.622 20.06 35.9 19.909 35.98 19.644C36.059 19.379 35.909 19.101 35.645 19.022C35.472 18.97 31.359 17.775 26.283 19.36C26.019 19.443 25.872 19.723 25.955 19.987C26.02 20.2 26.218 20.337 26.431 20.337Z" fill="#FEE7B8"/>
<path d="M13.4741 23.7387C13.3291 23.6227 13.2161 23.4647 13.1621 23.2747C13.0281 22.8147 13.2921 22.3567 13.7521 22.2537C18.2801 21.2327 21.3291 23.6167 21.4581 23.7187C21.8421 24.0247 21.9171 24.5637 21.6311 24.9237C21.3451 25.2817 20.8031 25.3247 20.4201 25.0207C20.3101 24.9367 17.8971 23.0977 14.2381 23.9227C13.9641 23.9837 13.6841 23.9067 13.4741 23.7387Z" fill="#292F33"/>
<path d="M12.3063 14.8121C13.4799 14.8121 14.4313 13.623 14.4313 12.1561C14.4313 10.6893 13.4799 9.50012 12.3063 9.50012C11.1327 9.50012 10.1813 10.6893 10.1813 12.1561C10.1813 13.623 11.1327 14.8121 12.3063 14.8121Z" fill="#292F33"/>
<path d="M23.5623 15.8741C24.7359 15.8741 25.6873 14.685 25.6873 13.2181C25.6873 11.7513 24.7359 10.5621 23.5623 10.5621C22.3887 10.5621 21.4373 11.7513 21.4373 13.2181C21.4373 14.685 22.3887 15.8741 23.5623 15.8741Z" fill="#292F33"/>
<path d="M17.3361 35.1311C17.3361 35.1311 18.6011 34.7201 18.7651 33.7791C18.9381 32.8071 18.1411 32.6121 18.1411 32.6121C18.1411 32.6121 19.1821 32.4041 19.3131 31.2361C19.4361 30.1351 18.4521 29.8731 18.4521 29.8731C18.4521 29.8731 19.4221 29.4731 19.4681 28.3341C19.5061 27.3751 18.4731 26.9061 18.4731 26.9061C18.4731 26.9061 23.5111 25.6851 24.0291 25.5651C24.5451 25.4451 25.3491 24.9501 25.0981 23.8711C24.8491 22.7911 23.8941 22.7531 23.4011 22.8681C22.9071 22.9831 16.6571 24.4341 14.5011 24.9361L13.0621 25.2701C12.5221 25.3971 12.2771 25.1601 12.6581 24.7581C13.1661 24.2221 13.4911 23.6291 13.6041 22.6451C13.7231 21.6101 13.3721 20.3321 13.1711 19.8361C12.7971 18.9151 12.1661 18.1871 11.4371 17.9371C10.3001 17.5471 9.49207 18.2581 9.89507 19.4981C10.4991 21.3521 10.1031 22.8731 9.06207 23.7911C6.61307 25.9481 5.47407 27.4861 6.23207 30.7641C7.06007 34.3391 10.6091 36.6401 14.1841 35.8121L17.3361 35.1311Z" fill="#F19020"/>
<path d="M8.48331 7.33312C8.31931 7.24512 8.18031 7.10912 8.09231 6.93412C7.87631 6.50612 8.05231 6.00712 8.48531 5.82212C12.7513 3.99112 16.1843 5.77912 16.3283 5.85612C16.7613 6.08712 16.9363 6.60312 16.7193 7.01012C16.5033 7.41512 15.9793 7.55612 15.5463 7.32812C15.4233 7.26512 12.7143 5.89612 9.26831 7.37512C9.01131 7.48412 8.72131 7.46012 8.48331 7.33312ZM20.6183 11.0831C20.4623 10.9851 20.3323 10.8401 20.2563 10.6591C20.0693 10.2171 20.2793 9.73212 20.7243 9.57512C25.1053 8.03912 28.4093 10.0551 28.5473 10.1421C28.9623 10.4021 29.1023 10.9291 28.8593 11.3201C28.6173 11.7101 28.0833 11.8151 27.6683 11.5581C27.5483 11.4861 24.9413 9.93712 21.4013 11.1791C21.1353 11.2701 20.8483 11.2251 20.6183 11.0831Z" fill="#292F33"/>
</g>
<defs>
<clipPath id="clip0">
<rect width="36" height="36" fill="#FFFFFF"/>
</clipPath>
</defs>
</svg>
