<svg width="36" height="36" viewBox="0 0 36 36" fill="none" xmlns="http://www.w3.org/2000/svg">
<g clip-path="url(#clip0)">
<path d="M35.734 19.929C35.375 16.66 35 15 34 13C34 13 37 4 35 0.300003C34.326 -0.945997 27.596 1.988 25 4C25 4 21 3.002 18 3.002C15 3.002 11 4 11 4C8.404 1.988 1.674 -0.945997 1 0.300003C-1 4 2 13 2 13C1 15 0.625 16.66 0.266 19.929C-0.129 23.513 0.657 26.37 1 27C1.39 27.716 3.367 30.025 6 32C10 35 16 36 18 36C20 36 26 35 30 32C32.633 30.025 34.61 27.716 35 27C35.343 26.37 36.129 23.513 35.734 19.929V19.929Z" fill="#FFCC4D"/>
<path d="M18.0011 16.9587C21.0011 16.9587 21.0011 17.4587 21.0011 18.4587C21.0011 19.4587 19.5011 21.4587 18.0011 21.4587C16.5011 21.4587 15.0011 19.4587 15.0011 18.4587C15.0011 17.4587 15.0001 16.9587 18.0011 16.9587Z" fill="#E75A70"/>
<path d="M1.99997 3.00003C2.44697 1.65803 7.63997 4.00003 8.63997 5.00003C8.63997 5.00003 3.99997 8.00003 2.99997 11C2.99997 11 0.999971 6.00003 1.99997 3.00003ZM34 3.00003C33.553 1.65803 28.36 4.00003 27.36 5.00003C27.36 5.00003 32 8.00003 33 11C33 11 35 6.00003 34 3.00003Z" fill="#F18F26"/>
<path d="M4.93402 5.603C4.93402 4.189 11 7 10 8C9.00002 9 8.00002 9.603 7.00002 10.603C6.00002 11.603 4.93402 6.603 4.93402 5.603ZM31.066 5.603C31.066 4.189 25 7 26 8C27 9 28 9.603 29 10.603C30 11.603 31.066 6.603 31.066 5.603V5.603Z" fill="#FFCC4D"/>
<path d="M0.702072 22.4588C0.554072 22.4588 0.408072 22.3938 0.309072 22.2688C0.138072 22.0518 0.175072 21.7378 0.392072 21.5668C0.554072 21.4398 4.41207 18.4468 11.0401 18.9618C11.3151 18.9818 11.5211 19.2228 11.5001 19.4978C11.4791 19.7728 11.2431 19.9988 10.9631 19.9578C4.73007 19.4838 1.04807 22.3237 1.01207 22.3527C0.919072 22.4237 0.810072 22.4588 0.702072 22.4588V22.4588ZM9.57007 17.7958C9.52107 17.7958 9.47007 17.7888 9.42107 17.7738C4.63107 16.2768 0.684072 17.4268 0.644072 17.4378C0.379072 17.5188 0.101072 17.3677 0.0210722 17.1027C-0.0579278 16.8377 0.0920722 16.5598 0.356072 16.4808C0.529072 16.4288 4.64207 15.2338 9.71807 16.8188C9.98207 16.9018 10.1291 17.1818 10.0461 17.4458C9.98007 17.6588 9.78307 17.7958 9.57007 17.7958V17.7958ZM35.3001 22.4588C35.4481 22.4588 35.5941 22.3938 35.6931 22.2688C35.8641 22.0518 35.8271 21.7378 35.6101 21.5668C35.4481 21.4398 31.5901 18.4468 24.9621 18.9618C24.6871 18.9818 24.4811 19.2228 24.5021 19.4978C24.5231 19.7728 24.7591 19.9988 25.0391 19.9578C31.2721 19.4838 34.9541 22.3237 34.9901 22.3527C35.0831 22.4237 35.1921 22.4588 35.3001 22.4588V22.4588ZM26.4321 17.7958C26.4811 17.7958 26.5321 17.7888 26.5811 17.7738C31.3711 16.2768 35.3181 17.4268 35.3581 17.4378C35.6231 17.5188 35.9011 17.3677 35.9811 17.1027C36.0601 16.8377 35.9101 16.5598 35.6461 16.4808C35.4731 16.4288 31.3601 15.2338 26.2841 16.8188C26.0201 16.9018 25.8731 17.1818 25.9561 17.4458C26.0211 17.6588 26.2191 17.7958 26.4321 17.7958V17.7958Z" fill="#FEE7B8"/>
<path d="M7 21.402C7 25.366 11.596 30.402 18 30.402C24.404 30.402 29 25.402 29 21.402C29 21.402 18.667 24.158 7 21.402Z" fill="#292F33"/>
<path d="M12 23.142V30.103C12 33.103 14 36.103 18 36.103C22 36.103 24 33.103 24 30.103V23.183C17.709 24.475 12 23.142 12 23.142V23.142Z" fill="#5D9040"/>
<path d="M12.284 12.469C11.528 12.177 10.813 11.901 10.813 11.501C10.813 10.842 11.697 10.808 11.874 10.808C12.499 10.808 12.81 11.042 13.084 11.249C13.294 11.408 13.512 11.572 13.815 11.572C14.379 11.572 14.636 11.175 14.636 10.806C14.636 10.07 13.734 9.55 12.778 9.332V8.939C12.778 8.421 12.357 8 11.839 8C11.321 8 10.9 8.421 10.9 8.939V9.365C9.75598 9.698 9.05498 10.539 9.05498 11.6C9.05498 12.911 10.348 13.449 11.489 13.923C12.306 14.263 13.078 14.584 13.078 15.085C13.078 15.451 12.618 15.847 11.875 15.847C11.125 15.847 10.695 15.547 10.315 15.283C10.053 15.1 9.80498 14.927 9.50898 14.927C9.07898 14.927 8.74298 15.289 8.74298 15.751C8.74298 16.43 9.67398 17.107 10.9 17.345V17.815C10.9 18.333 11.321 18.753 11.839 18.753C12.357 18.753 12.778 18.332 12.778 17.815L12.773 17.317C14.069 17.002 14.835 16.095 14.835 14.858C14.836 13.454 13.421 12.908 12.284 12.469V12.469ZM26.694 14.875C26.694 13.471 25.279 12.925 24.142 12.486C23.386 12.194 22.672 11.918 22.672 11.518C22.672 10.859 23.556 10.825 23.733 10.825C24.358 10.825 24.668 11.059 24.943 11.266C25.154 11.425 25.371 11.589 25.673 11.589C26.238 11.589 26.495 11.192 26.495 10.823C26.495 10.086 25.593 9.567 24.637 9.349V8.957C24.637 8.439 24.215 8.018 23.698 8.018C23.18 8.018 22.758 8.439 22.758 8.957V9.383C21.615 9.716 20.913 10.557 20.913 11.618C20.913 12.929 22.206 13.467 23.347 13.941C24.164 14.281 24.936 14.602 24.936 15.103C24.936 15.469 24.477 15.865 23.734 15.865C22.984 15.865 22.554 15.565 22.175 15.301C21.912 15.118 21.664 14.945 21.369 14.945C20.938 14.945 20.602 15.307 20.602 15.769C20.602 16.448 21.533 17.125 22.758 17.363V17.833C22.758 18.35 23.181 18.771 23.699 18.771C24.217 18.771 24.637 18.35 24.637 17.833L24.634 17.335C25.929 17.018 26.694 16.112 26.694 14.875V14.875Z" fill="#292F33"/>
<path d="M20.97 31.2079C20.97 29.8399 19.591 29.3069 18.483 28.8789C17.746 28.5949 17.049 28.3249 17.049 27.9359C17.049 27.2929 17.91 27.2609 18.083 27.2609C18.692 27.2609 18.995 27.4899 19.263 27.6909C19.468 27.8459 19.681 28.0059 19.976 28.0059C20.526 28.0059 20.777 27.6179 20.777 27.2589C20.777 26.5419 19.898 26.0349 18.965 25.8219V25.4389C18.965 24.9339 18.554 24.5229 18.049 24.5229C17.544 24.5229 17.133 24.9339 17.133 25.4389V25.8539C16.018 26.1779 15.334 26.9989 15.334 28.0329C15.334 29.3109 16.595 29.8359 17.707 30.2979C18.504 30.6289 19.256 30.9419 19.256 31.4299C19.256 31.7869 18.808 32.1729 18.083 32.1729C17.352 32.1729 16.933 31.8809 16.563 31.6219C16.308 31.4439 16.066 31.2749 15.778 31.2749C15.359 31.2749 15.03 31.6289 15.03 32.0789C15.03 32.7419 15.937 33.4009 17.132 33.6329V34.0919C17.132 34.5959 17.543 35.0059 18.049 35.0059C18.554 35.0059 18.964 34.5959 18.964 34.0919L18.961 33.6059C20.224 33.2969 20.97 32.4129 20.97 31.2079V31.2079Z" fill="#FFFFFF"/>
</g>
<defs>
<clipPath id="clip0">
<rect width="36" height="36" fill="#FFFFFF"/>
</clipPath>
</defs>
</svg>
