<svg width="36" height="36" viewBox="0 0 36 36" fill="none" xmlns="http://www.w3.org/2000/svg">
<g clip-path="url(#clip0)">
<path d="M35.734 19.929C35.375 16.66 35 15 34 13C34 13 37 4 35 0.300003C34.326 -0.945997 27.596 1.988 25 4C25 4 21 3.002 18 3.002C15 3.002 11 4 11 4C8.404 1.988 1.674 -0.945997 1 0.300003C-1 4 2 13 2 13C1 15 0.625 16.66 0.266 19.929C-0.129 23.513 0.657 26.37 1 27C1.39 27.716 3.367 30.025 6 32C10 35 16 36 18 36C20 36 26 35 30 32C32.633 30.025 34.61 27.716 35 27C35.343 26.37 36.129 23.513 35.734 19.929V19.929Z" fill="#FFCC4D"/>
<path d="M18 19.5C21 19.5 21 20 21 21C21 22 19.5 24 18 24C16.5 24 15 22 15 21C15 20 14.999 19.5 18 19.5Z" fill="#E75A70"/>
<path d="M1.99997 3.00003C2.44697 1.65803 7.63997 4.00003 8.63997 5.00003C8.63997 5.00003 3.99997 8.00003 2.99997 11C2.99997 11 0.999971 6.00003 1.99997 3.00003ZM34 3.00003C33.553 1.65803 28.36 4.00003 27.36 5.00003C27.36 5.00003 32 8.00003 33 11C33 11 35 6.00003 34 3.00003Z" fill="#F18F26"/>
<path d="M4.93402 5.603C4.93402 4.189 11 7 10 8C9.00002 9 8.00002 9.603 7.00002 10.603C6.00002 11.603 4.93402 6.603 4.93402 5.603ZM31.066 5.603C31.066 4.189 25 7 26 8C27 9 28 9.603 29 10.603C30 11.603 31.066 6.603 31.066 5.603V5.603Z" fill="#FFCC4D"/>
<path d="M0.700974 25C0.552974 25 0.406974 24.935 0.307974 24.81C0.136974 24.593 0.173974 24.279 0.390974 24.108C0.552974 23.981 4.41097 20.988 11.039 21.503C11.314 21.523 11.52 21.764 11.499 22.039C11.478 22.314 11.242 22.54 10.962 22.499C4.72897 22.025 1.04697 24.865 1.01097 24.894C0.917974 24.965 0.808974 25 0.700974 25V25ZM9.56897 20.337C9.51997 20.337 9.46897 20.33 9.41997 20.315C4.62997 18.818 0.682974 19.968 0.642974 19.979C0.377974 20.06 0.0999735 19.909 0.0199735 19.644C-0.0590265 19.379 0.0909735 19.101 0.354974 19.022C0.527974 18.97 4.64097 17.775 9.71697 19.36C9.98097 19.443 10.128 19.723 10.045 19.987C9.97897 20.2 9.78197 20.337 9.56897 20.337V20.337ZM35.299 25C35.447 25 35.593 24.935 35.692 24.81C35.863 24.593 35.826 24.279 35.609 24.108C35.447 23.981 31.589 20.988 24.961 21.503C24.686 21.523 24.48 21.764 24.501 22.039C24.522 22.314 24.758 22.54 25.038 22.499C31.271 22.025 34.953 24.865 34.989 24.894C35.082 24.965 35.191 25 35.299 25V25ZM26.431 20.337C26.48 20.337 26.531 20.33 26.58 20.315C31.37 18.818 35.317 19.968 35.357 19.979C35.622 20.06 35.9 19.909 35.98 19.644C36.059 19.379 35.909 19.101 35.645 19.022C35.472 18.97 31.359 17.775 26.283 19.36C26.019 19.443 25.872 19.723 25.955 19.987C26.02 20.2 26.218 20.337 26.431 20.337V20.337Z" fill="#FEE7B8"/>
<path d="M28.023 24.191C27.046 24.383 23 26 18 26C13 26 8.95402 24.383 7.97702 24.191C7.00002 24 6.88502 25.264 7.44202 27.132C8.00002 29 11 33 18 33C25 33 28 29 28.558 27.132C29.115 25.264 29 24 28.023 24.191Z" fill="#292F33"/>
<path d="M8 25C8 25 13 27 18 27C23 27 28 25 28 25C28 25 27.5 28 26.5 28C25.5 28 25 27 25 27C25 27 21 29 18 29C15 29 11 27 11 27C11 27 10.5 28 9.5 28C8.5 28 8 25 8 25Z" fill="#F5F8FA"/>
<path d="M12 18C13.1046 18 14 16.433 14 14.5C14 12.567 13.1046 11 12 11C10.8954 11 10 12.567 10 14.5C10 16.433 10.8954 18 12 18Z" fill="#292F33"/>
<path d="M24 18C25.1046 18 26 16.433 26 14.5C26 12.567 25.1046 11 24 11C22.8954 11 22 12.567 22 14.5C22 16.433 22.8954 18 24 18Z" fill="#292F33"/>
<path d="M34.7201 10.1537C34.5491 9.98766 33.4531 10.4277 32.3441 9.86266C30.0561 8.69666 24.2741 7.57166 20.5101 10.2387C20.1071 10.5237 18.4231 10.5717 17.9521 10.5517C17.4811 10.5727 15.7971 10.5247 15.3941 10.2387C11.6311 7.57166 5.84913 8.69666 3.56113 9.86266C2.45213 10.4277 1.35613 9.98766 1.18513 10.1537C0.938125 10.3927 0.938125 11.3497 1.18613 11.5897C1.43213 11.8287 2.66313 12.1047 2.90813 12.8217C3.15513 13.5397 3.15713 17.7797 5.12113 19.2457C6.96013 20.6177 11.2501 21.0307 13.9691 19.4837C16.3411 18.1347 16.2581 15.2947 16.6931 13.6027C16.8481 12.9997 17.2851 12.6957 17.9531 12.6957C18.6211 12.6957 19.0581 12.9997 19.2131 13.6027C19.6481 15.2937 19.5641 18.1347 21.9371 19.4837C24.6561 21.0297 28.9461 20.6167 30.7841 19.2457C32.7491 17.7807 32.7511 13.5397 32.9971 12.8217C33.2421 12.1047 34.4731 11.8277 34.7191 11.5897C34.9671 11.3497 34.9681 10.3927 34.7201 10.1537V10.1537ZM14.5261 13.8037C14.4491 14.9087 14.2521 17.0307 12.9291 17.7837C12.1181 18.2457 11.0611 18.5267 9.95513 18.5267H9.95413C8.72913 18.5267 7.03113 18.1797 6.36713 17.6847C5.53713 17.0657 5.22113 14.5177 5.10213 13.5647C5.02613 12.9577 4.82213 11.4747 5.49013 11.2467C6.55013 10.8857 8.02913 10.6037 9.54213 10.6037C10.2351 10.6037 12.5631 10.6467 13.6971 11.3447C14.7021 11.9617 14.5691 13.1957 14.5261 13.8037V13.8037ZM30.8041 13.5507C30.6851 14.5047 30.3691 17.0657 29.5391 17.6847C28.8751 18.1797 27.1771 18.5267 25.9521 18.5267H25.9511C24.8441 18.5267 23.7881 18.2457 22.9761 17.7837C21.6531 17.0317 21.4561 14.9227 21.3791 13.8177C21.3371 13.2097 21.2031 11.9667 22.2081 11.3497C23.3431 10.6517 25.6701 10.6037 26.3631 10.6037C27.8761 10.6037 29.3541 10.8807 30.4151 11.2417C31.0831 11.4697 30.8801 12.9437 30.8041 13.5507V13.5507Z" fill="#292F33"/>
</g>
<defs>
<clipPath id="clip0">
<rect width="36" height="36" fill="#FFFFFF"/>
</clipPath>
</defs>
</svg>
