<svg width="36" height="36" viewBox="0 0 36 36" fill="none" xmlns="http://www.w3.org/2000/svg">
<g clip-path="url(#clip0)">
<path d="M35.734 19.929C35.375 16.66 35 15 34 13C34 13 37 4 35 0.300003C34.326 -0.945997 27.596 1.988 25 4C25 4 21 3.002 18 3.002C15 3.002 11 4 11 4C8.404 1.988 1.674 -0.945997 1 0.300003C-1 4 2 13 2 13C1 15 0.625 16.66 0.266 19.929C-0.129 23.513 0.657 26.37 1 27C1.39 27.716 3.367 30.025 6 32C10 35 16 36 18 36C20 36 26 35 30 32C32.633 30.025 34.61 27.716 35 27C35.343 26.37 36.129 23.513 35.734 19.929Z" fill="#FFCC4D"/>
<path d="M18 19.5C21 19.5 21 20 21 21C21 22 19.5 24 18 24C16.5 24 15 22 15 21C15 20 14.999 19.5 18 19.5Z" fill="#E75A70"/>
<path d="M1.99997 3.00003C2.44697 1.65803 7.63997 4.00003 8.63997 5.00003C8.63997 5.00003 3.99997 8.00003 2.99997 11C2.99997 11 0.999971 6.00003 1.99997 3.00003ZM34 3.00003C33.553 1.65803 28.36 4.00003 27.36 5.00003C27.36 5.00003 32 8.00003 33 11C33 11 35 6.00003 34 3.00003Z" fill="#F18F26"/>
<path d="M4.93402 5.603C4.93402 4.189 11 7 10 8C9.00002 9 8.00002 9.603 7.00002 10.603C6.00002 11.603 4.93402 6.603 4.93402 5.603ZM31.066 5.603C31.066 4.189 25 7 26 8C27 9 28 9.603 29 10.603C30 11.603 31.066 6.603 31.066 5.603Z" fill="#FFCC4D"/>
<path d="M0.700974 25C0.552974 25 0.406974 24.935 0.307974 24.81C0.136974 24.593 0.173974 24.279 0.390974 24.108C0.552974 23.981 4.41097 20.988 11.039 21.503C11.314 21.523 11.52 21.764 11.499 22.039C11.478 22.314 11.242 22.54 10.962 22.499C4.72897 22.025 1.04697 24.865 1.01097 24.894C0.917974 24.965 0.808973 25 0.700974 25ZM9.56897 20.337C9.51997 20.337 9.46897 20.33 9.41997 20.315C4.62997 18.818 0.682974 19.968 0.642974 19.979C0.377974 20.06 0.0999735 19.909 0.0199735 19.644C-0.0590265 19.379 0.0909735 19.101 0.354974 19.022C0.527974 18.97 4.64097 17.775 9.71697 19.36C9.98097 19.443 10.128 19.723 10.045 19.987C9.97897 20.2 9.78197 20.337 9.56897 20.337ZM35.299 25C35.447 25 35.593 24.935 35.692 24.81C35.863 24.593 35.826 24.279 35.609 24.108C35.447 23.981 31.589 20.988 24.961 21.503C24.686 21.523 24.48 21.764 24.501 22.039C24.522 22.314 24.758 22.54 25.038 22.499C31.271 22.025 34.953 24.865 34.989 24.894C35.082 24.965 35.191 25 35.299 25ZM26.431 20.337C26.48 20.337 26.531 20.33 26.58 20.315C31.37 18.818 35.317 19.968 35.357 19.979C35.622 20.06 35.9 19.909 35.98 19.644C36.059 19.379 35.909 19.101 35.645 19.022C35.472 18.97 31.359 17.775 26.283 19.36C26.019 19.443 25.872 19.723 25.955 19.987C26.02 20.2 26.218 20.337 26.431 20.337Z" fill="#FEE7B8"/>
<path d="M28.9568 17.297C28.8968 17.162 27.4578 14 24.4998 14C21.5428 14 20.1028 17.162 20.0428 17.297C19.9508 17.504 20.0108 17.746 20.1878 17.889C20.3628 18.031 20.6138 18.035 20.7978 17.903C20.8098 17.893 22.0598 17 24.4998 17C26.9258 17 28.1738 17.881 28.2018 17.901C28.2898 17.967 28.3958 18 28.4998 18C28.6098 18 28.7208 17.963 28.8118 17.891C28.9888 17.749 29.0498 17.505 28.9568 17.297ZM15.9568 17.297C15.8968 17.162 14.4578 14 11.4998 14C8.54282 14 7.10282 17.162 7.04282 17.297C6.95082 17.504 7.01082 17.746 7.18682 17.889C7.36282 18.031 7.61382 18.035 7.79682 17.903C7.80982 17.893 9.05882 17 11.4998 17C13.9258 17 15.1738 17.881 15.2018 17.901C15.2898 17.967 15.3958 18 15.4998 18C15.6098 18 15.7208 17.963 15.8108 17.891C15.9898 17.749 16.0488 17.505 15.9568 17.297Z" fill="#292F33"/>
<path d="M25.3614 30.136C24.8784 29.37 21.9464 25 17.9994 25C13.7654 25 10.6994 30.028 10.5714 30.243C10.4504 30.443 10.4864 30.7 10.6554 30.862C10.7494 30.953 10.8744 31 10.9994 31C11.0954 31 11.1924 30.973 11.2764 30.916C11.3054 30.896 14.1944 29 17.9994 29C21.7914 29 24.6944 30.897 24.7224 30.916C24.8084 30.974 24.9374 31.012 25.0034 31C25.2804 30.996 25.5194 30.781 25.5194 30.5C25.5194 30.356 25.4594 30.228 25.3614 30.136Z" fill="#292F33"/>
<path fill-rule="evenodd" clip-rule="evenodd" d="M1.75412 13.5127C1.75274 13.5161 1.75137 13.5196 1.75 13.523L10.0153 11.985L35.2626 16.6836C34.9804 15.2932 34.6043 14.2087 34 13C34 13 34.0155 12.9535 34.0436 12.8657C33.7316 12.1779 33.3726 11.5177 32.9846 10.878C32.7284 10.456 32.4565 10.048 32.1681 9.65C31.7749 9.108 31.3554 8.59 30.9065 8.097C30.62 7.782 30.3237 7.479 30.0157 7.186L29.8954 7.074C29.2627 6.482 28.6006 5.923 27.8877 5.429C27.4584 5.132 27.0125 4.859 26.5568 4.601C26.0998 4.34179 25.6304 4.10329 25.1498 3.88628C25.0985 3.92449 25.0485 3.96242 25 4.00003C25 4.00003 23.5416 3.63616 21.7255 3.34784L15.7997 4.451L12.0731 3.75712C11.413 3.89699 11 4.00003 11 4.00003C10.9616 3.97026 10.9223 3.94028 10.8821 3.91012C10.0459 4.2913 9.24469 4.7365 8.48295 5.241C8.11818 5.483 7.76809 5.742 7.42386 6.01L7.30651 6.099C6.61219 6.647 5.95601 7.241 5.34971 7.887C5.10816 8.144 4.87248 8.407 4.64561 8.679C4.62866 8.699 4.61093 8.71821 4.59321 8.73742C4.57106 8.76144 4.5489 8.78545 4.52826 8.811C4.2339 9.171 3.96107 9.549 3.69507 9.932C3.51709 10.187 3.34791 10.448 3.18265 10.713C2.85504 11.24 2.55678 11.785 2.28296 12.347C2.18307 12.5524 2.084 12.7583 1.98901 12.9666C1.99622 12.9887 2 13 2 13C1.91349 13.173 1.83166 13.3435 1.75412 13.5127Z" fill="#E6E7E8"/>
<path d="M34.2148 13.259L18.6904 10.37L24.4738 9.29397L27.3645 8.75597L30.9056 8.09697C30.619 7.78197 30.3227 7.47897 30.0147 7.18597L24.4719 8.21797L21.5811 8.75597L15.7978 9.83197L12.9061 10.37L7.12364 11.446L2.28296 12.347C2.0952 12.733 1.91038 13.121 1.75 13.523L10.0153 11.985L15.7987 10.909L34.6383 14.415C34.5053 14.025 34.3732 13.636 34.2148 13.259V13.259Z" fill="#BCBEC0"/>
<path d="M27.3634 8.75601L32.1669 9.65001C32.4554 10.047 32.7272 10.456 32.9834 10.878L24.4736 9.29401L27.3634 8.75601V8.75601ZM8.4808 5.24201C8.11702 5.48301 7.76693 5.74201 7.4227 6.01001L10.0142 5.52701L8.4808 5.24201V5.24201ZM26.5556 4.60101L21.581 5.52701L15.7976 6.60301L12.9068 7.14101L7.12346 8.21801L4.64444 8.67901C4.6063 8.72401 4.56425 8.76501 4.52709 8.81101C4.23274 9.17101 3.9599 9.54901 3.69391 9.93201L7.1215 9.29401L10.0142 8.75601L15.7976 7.68001L18.6883 7.14201L24.4717 6.06601L27.8866 5.43101C27.4563 5.13301 27.0103 4.86001 26.5556 4.60101V4.60101Z" fill="#D1D3D4"/>
</g>
<defs>
<clipPath id="clip0">
<rect width="36" height="36" fill="#FFFFFF"/>
</clipPath>
</defs>
</svg>
