<svg width="36" height="36" viewBox="0 0 36 36" fill="none" xmlns="http://www.w3.org/2000/svg">
<g clip-path="url(#clip0)">
<path d="M35.734 19.929C35.375 16.66 35 15 34 13C34 13 37 4 35 0.300003C34.326 -0.945997 27.596 1.988 25 4C25 4 21 3.002 18 3.002C15 3.002 11 4 11 4C8.404 1.988 1.674 -0.945997 1 0.300003C-1 4 2 13 2 13C1 15 0.625 16.66 0.266 19.929C-0.129 23.513 0.657 26.37 1 27C1.39 27.716 3.367 30.025 6 32C10 35 16 36 18 36C20 36 26 35 30 32C32.633 30.025 34.61 27.716 35 27C35.343 26.37 36.129 23.513 35.734 19.929V19.929Z" fill="#FFCC4D"/>
<path d="M18 18.5C21 18.5 21 19 21 20C21 21 19.5 23 18 23C16.5 23 15 21 15 20C15 19 14.999 18.5 18 18.5Z" fill="#E75A70"/>
<path d="M1.99997 3.00003C2.44697 1.65803 7.63997 4.00003 8.63997 5.00003C8.63997 5.00003 3.99997 8.00003 2.99997 11C2.99997 11 0.999971 6.00003 1.99997 3.00003ZM34 3.00003C33.553 1.65803 28.36 4.00003 27.36 5.00003C27.36 5.00003 32 8.00003 33 11C33 11 35 6.00003 34 3.00003Z" fill="#F18F26"/>
<path d="M4.93402 5.603C4.93402 4.189 11 7 10 8C9.00002 9 8.00002 9.603 7.00002 10.603C6.00002 11.603 4.93402 6.603 4.93402 5.603ZM31.066 5.603C31.066 4.189 25 7 26 8C27 9 28 9.603 29 10.603C30 11.603 31.066 6.603 31.066 5.603V5.603Z" fill="#FFCC4D"/>
<path d="M0.700974 24C0.552974 24 0.406974 23.935 0.307974 23.81C0.136974 23.593 0.173974 23.279 0.390974 23.108C0.552974 22.981 4.41097 19.988 11.039 20.503C11.314 20.523 11.52 20.764 11.499 21.039C11.478 21.314 11.242 21.54 10.962 21.499C4.72897 21.025 1.04697 23.865 1.01097 23.894C0.917974 23.965 0.808974 24 0.700974 24V24ZM9.56897 19.337C9.51997 19.337 9.46897 19.33 9.41997 19.315C4.62997 17.818 0.682974 18.968 0.642974 18.979C0.377974 19.06 0.0999735 18.909 0.0199735 18.644C-0.0590265 18.379 0.0909735 18.101 0.354974 18.022C0.527974 17.97 4.64097 16.775 9.71697 18.36C9.98097 18.443 10.128 18.723 10.045 18.987C9.97897 19.2 9.78197 19.337 9.56897 19.337V19.337ZM35.299 24C35.447 24 35.593 23.935 35.692 23.81C35.863 23.593 35.826 23.279 35.609 23.108C35.447 22.981 31.589 19.988 24.961 20.503C24.686 20.523 24.48 20.764 24.501 21.039C24.522 21.314 24.758 21.54 25.038 21.499C31.271 21.025 34.953 23.865 34.989 23.894C35.082 23.965 35.191 24 35.299 24V24ZM26.431 19.337C26.48 19.337 26.531 19.33 26.58 19.315C31.37 17.818 35.317 18.968 35.357 18.979C35.622 19.06 35.9 18.909 35.98 18.644C36.059 18.379 35.909 18.101 35.645 18.022C35.472 17.97 31.359 16.775 26.283 18.36C26.019 18.443 25.872 18.723 25.955 18.987C26.02 19.2 26.218 19.337 26.431 19.337V19.337Z" fill="#FEE7B8"/>
<path d="M12 18C13.1046 18 14 16.433 14 14.5C14 12.567 13.1046 11 12 11C10.8954 11 10 12.567 10 14.5C10 16.433 10.8954 18 12 18Z" fill="#292F33"/>
<path d="M24 18C25.1046 18 26 16.433 26 14.5C26 12.567 25.1046 11 24 11C22.8954 11 22 12.567 22 14.5C22 16.433 22.8954 18 24 18Z" fill="#292F33"/>
<path d="M25.001 28.003H10C9 28.003 9 27.003 9 27.003V26.003C9 26.003 9 25 10 25L25.001 25.003V28.003Z" fill="#292F33"/>
<path d="M35.255 27.083L27.542 24.962C26.822 24.765 26.493 25.249 26.371 25.509L24.731 24.725L24 26.254V24H22V26H20V24H17.999V26H16V24H14V26H12V24H10V27H12V29H14V27H15.999V29H17.999V27H20V29H22V27H23.643L23.063 28.212L24.711 29L24.612 29.207C24.612 29.207 24.364 29.944 24.985 30.482C25.606 31.019 30.27 35.217 30.27 35.217C30.27 35.217 31.169 36.083 32.039 35.296C32.777 34.626 35.688 29.276 35.953 28.313C36.219 27.349 35.255 27.083 35.255 27.083V27.083ZM31.483 33.154L28.839 30.906L30.453 27.837L33.791 28.969L31.483 33.154Z" fill="#99AAB5"/>
</g>
<defs>
<clipPath id="clip0">
<rect width="36" height="36" fill="#FFFFFF"/>
</clipPath>
</defs>
</svg>
