<svg width="36" height="36" viewBox="0 0 36 36" fill="none" xmlns="http://www.w3.org/2000/svg">
<g clip-path="url(#clip0)">
<path d="M35.734 19.929C35.375 16.66 35 15 34 13C34 13 37 4 35 0.300003C34.326 -0.945997 27.596 1.988 25 4C25 4 21 3.002 18 3.002C15 3.002 11 4 11 4C8.404 1.988 1.674 -0.945997 1 0.300003C-1 4 2 13 2 13C1 15 0.625 16.66 0.266 19.929C-0.129 23.513 0.657 26.37 1 27C1.39 27.716 3.367 30.025 6 32C10 35 16 36 18 36C20 36 26 35 30 32C32.633 30.025 34.61 27.716 35 27C35.343 26.37 36.129 23.513 35.734 19.929V19.929Z" fill="#FFCC4D"/>
<path d="M18 14C21 14 21 14.5 21 15.5C21 16.5 19.5 18.5 18 18.5C16.5 18.5 15 16.5 15 15.5C15 14.5 14.999 14 18 14Z" fill="#E75A70"/>
<path d="M1.99997 3.00003C2.44697 1.65803 7.63997 4.00003 8.63997 5.00003C8.63997 5.00003 3.99997 8.00003 2.99997 11C2.99997 11 0.999971 6.00003 1.99997 3.00003ZM34 3.00003C33.553 1.65803 28.36 4.00003 27.36 5.00003C27.36 5.00003 32 8.00003 33 11C33 11 35 6.00003 34 3.00003Z" fill="#F18F26"/>
<path d="M4.93402 5.603C4.93402 4.189 11 7 10 8C9.00002 9 8.00002 9.603 7.00002 10.603C6.00002 11.603 4.93402 6.603 4.93402 5.603ZM31.066 5.603C31.066 4.189 25 7 26 8C27 9 28 9.603 29 10.603C30 11.603 31.066 6.603 31.066 5.603V5.603Z" fill="#FFCC4D"/>
<path d="M0.702072 20.4588C0.554072 20.4588 0.408072 20.3938 0.309072 20.2688C0.138072 20.0518 0.175072 19.7378 0.392072 19.5668C0.554072 19.4398 4.41207 16.4468 11.0401 16.9618C11.3151 16.9818 11.5211 17.2228 11.5001 17.4978C11.4791 17.7728 11.2431 17.9988 10.9631 17.9578C4.73007 17.4838 1.04807 20.3237 1.01207 20.3527C0.919072 20.4237 0.810072 20.4588 0.702072 20.4588V20.4588ZM9.57007 15.7958C9.52107 15.7958 9.47007 15.7888 9.42107 15.7738C4.63107 14.2768 0.684072 15.4268 0.644072 15.4378C0.379072 15.5188 0.101072 15.3677 0.0210722 15.1027C-0.0579278 14.8377 0.0920722 14.5598 0.356072 14.4808C0.529072 14.4288 4.64207 13.2338 9.71807 14.8188C9.98207 14.9018 10.1291 15.1818 10.0461 15.4458C9.98007 15.6588 9.78307 15.7958 9.57007 15.7958V15.7958ZM35.3001 20.4588C35.4481 20.4588 35.5941 20.3938 35.6931 20.2688C35.8641 20.0518 35.8271 19.7378 35.6101 19.5668C35.4481 19.4398 31.5901 16.4468 24.9621 16.9618C24.6871 16.9818 24.4811 17.2228 24.5021 17.4978C24.5231 17.7728 24.7591 17.9988 25.0391 17.9578C31.2721 17.4838 34.9541 20.3237 34.9901 20.3527C35.0831 20.4237 35.1921 20.4588 35.3001 20.4588V20.4588ZM26.4321 15.7958C26.4811 15.7958 26.5321 15.7888 26.5811 15.7738C31.3711 14.2768 35.3181 15.4268 35.3581 15.4378C35.6231 15.5188 35.9011 15.3677 35.9811 15.1027C36.0601 14.8377 35.9101 14.5598 35.6461 14.4808C35.4731 14.4288 31.3601 13.2338 26.2841 14.8188C26.0201 14.9018 25.8731 15.1818 25.9561 15.4458C26.0211 15.6588 26.2191 15.7958 26.4321 15.7958V15.7958Z" fill="#FEE7B8"/>
<path d="M28.4155 12.223C28.3545 12.132 26.9005 10 23.9995 10C21.0995 10 19.6445 12.132 19.5835 12.223C19.4485 12.425 19.4795 12.693 19.6545 12.861C19.8285 13.028 20.1005 13.046 20.2975 12.903C20.3095 12.893 21.5595 12 23.9995 12C26.4255 12 27.6735 12.881 27.7015 12.901C27.7905 12.967 27.8955 13 27.9995 13C28.1235 13 28.2475 12.954 28.3435 12.863C28.5205 12.696 28.5505 12.425 28.4155 12.223ZM16.4155 12.223C16.3545 12.132 14.9005 10 11.9995 10C9.09946 10 7.64446 12.132 7.58346 12.223C7.44946 12.425 7.47946 12.693 7.65446 12.861C7.82946 13.028 8.10146 13.046 8.29646 12.903C8.30946 12.893 9.55846 12 11.9995 12C14.4255 12 15.6735 12.881 15.7015 12.901C15.7905 12.967 15.8955 13 15.9995 13C16.1235 13 16.2475 12.954 16.3435 12.863C16.5205 12.696 16.5505 12.425 16.4155 12.223Z" fill="#292F33"/>
<path d="M25.8606 18.1286C25.7106 17.9676 25.4866 17.9576 25.3256 18.0996C25.2926 18.1286 22.0226 20.9996 17.9996 20.9996C13.9866 20.9996 10.7066 18.1286 10.6736 18.0996C10.5116 17.9576 10.2886 17.9696 10.1386 18.1286C9.98964 18.2886 9.95664 18.5526 10.0596 18.7566C10.1676 18.9716 12.7686 23.9996 17.9996 23.9996C23.2306 23.9996 25.8326 18.9716 25.9396 18.7566C26.0426 18.5516 26.0096 18.2886 25.8606 18.1286Z" fill="#292F33"/>
<path d="M13.4658 23.1983L11.9268 20.9793C11.9268 20.9793 11.3838 20.1123 10.5158 20.6543C9.64877 21.1953 10.1918 22.0633 10.1918 22.0633L11.9498 25.4433C11.9498 25.4433 12.0938 26.2113 11.0318 25.3523C10.5688 24.9783 10.8348 25.1893 10.8348 25.1893L10.3948 24.8283L4.90377 20.3203C4.90377 20.3203 4.19477 19.5723 3.54477 20.3623C2.89677 21.1533 3.76777 21.7033 3.76777 21.7033L8.96076 25.9693C8.84076 26.0893 8.47877 26.5033 8.36077 26.6323L2.80377 22.0723C2.80377 22.0723 2.09377 21.3233 1.44577 22.1133C0.795766 22.9043 1.66777 23.4543 1.66777 23.4543L7.22277 28.0163C7.11977 28.1563 6.85977 28.4923 6.76377 28.6303L1.97177 24.6963C1.97177 24.6963 1.26177 23.9483 0.613766 24.7383C-0.0372343 25.5293 0.835766 26.0803 0.835766 26.0803L5.92977 30.2643C5.86577 30.4423 5.56677 30.9103 5.51977 31.0843L1.84777 28.0723C1.84777 28.0723 1.13877 27.3203 0.490766 28.1133C-0.159234 28.9043 0.712766 29.4543 0.712766 29.4543L6.64277 34.3223L7.03777 34.6483C9.65777 36.7993 13.5268 36.4193 15.6778 33.7993C17.6488 31.3963 17.4948 27.9463 15.4378 25.7303C14.7088 24.9483 14.0778 24.0773 13.4658 23.1983ZM35.6558 28.1143C35.0078 27.3213 34.2988 28.0733 34.2988 28.0733L30.6268 31.0853C30.5798 30.9113 30.2808 30.4423 30.2168 30.2653L35.3108 26.0813C35.3108 26.0813 36.1838 25.5303 35.5338 24.7393C34.8858 23.9493 34.1758 24.6973 34.1758 24.6973L29.3838 28.6313C29.2878 28.4923 29.0268 28.1563 28.9248 28.0173L34.4798 23.4553C34.4798 23.4553 35.3528 22.9053 34.7028 22.1143C34.0548 21.3243 33.3458 22.0733 33.3458 22.0733L27.7878 26.6333C27.6708 26.5043 27.3088 26.0903 27.1878 25.9703L32.3808 21.7043C32.3808 21.7043 33.2508 21.1543 32.6038 20.3633C31.9538 19.5733 31.2448 20.3213 31.2448 20.3213L25.7538 24.8293L25.3148 25.1903C25.3148 25.1903 26.3048 24.3493 25.1178 25.3533C23.9298 26.3573 24.1998 25.4443 24.1998 25.4443L25.9578 22.0643C25.9578 22.0643 26.5008 21.1963 25.6338 20.6553C24.7648 20.1133 24.2228 20.9803 24.2228 20.9803L22.6848 23.1993C22.0718 24.0783 21.4408 24.9493 20.7108 25.7323C18.6528 27.9493 18.4988 31.3983 20.4718 33.8013C22.6218 36.4213 26.4918 36.8013 29.1118 34.6503L29.5078 34.3243L35.4378 29.4563C35.4328 29.4553 36.3048 28.9053 35.6558 28.1143Z" fill="#F4900C"/>
<path d="M11.0047 25.5223C11.0047 25.5223 8.41173 28.8363 11.4887 32.9823C11.7007 33.2673 12.2387 33.1283 12.0097 32.7943C11.7597 32.4303 9.25973 28.8983 11.6097 25.7373C11.6097 25.7373 11.2287 25.6903 11.0047 25.5223ZM24.5877 25.6203C24.5877 25.6203 27.1817 28.9343 24.1037 33.0803C23.8917 33.3653 23.3537 33.2263 23.5827 32.8923C23.8327 32.5283 26.3327 28.9963 23.9827 25.8353C23.9817 25.8363 24.3637 25.7893 24.5877 25.6203Z" fill="#B55005"/>
</g>
<defs>
<clipPath id="clip0">
<rect width="36" height="36" fill="#FFFFFF"/>
</clipPath>
</defs>
</svg>
