<svg width="36" height="36" viewBox="0 0 36 36" fill="none" xmlns="http://www.w3.org/2000/svg">
<g clip-path="url(#clip0)">
<path d="M35.734 18.8228C35.375 15.7353 35 14.1674 34 12.2785C34 12.2785 37 3.77805 35 0.283445C34.326 -0.893389 27.596 1.87774 25 3.77805C25 3.77805 21 2.83545 18 2.83545C15 2.83545 11 3.77805 11 3.77805C8.404 1.87774 1.674 -0.893389 1 0.283445C-1 3.77805 2 12.2785 2 12.2785C1 14.1674 0.625 15.7353 0.266 18.8228C-0.129 22.2079 0.657 24.9063 1 25.5013C1.39 26.1776 3.367 28.3584 6 30.2238C10 33.0572 16 34.0017 18 34.0017C20 34.0017 26 33.0572 30 30.2238C32.633 28.3584 34.61 26.1776 35 25.5013C35.343 24.9063 36.129 22.2079 35.734 18.8228Z" fill="#FFCC4D"/>
<path d="M18 19.5C21 19.5 21 20 21 21C21 22 19.5 24 18 24C16.5 24 15 22 15 21C15 20 14.999 19.5 18 19.5Z" fill="#E75A70"/>
<path d="M2 3.00003C2.447 1.65803 7.64 4.00003 8.64 5.00003C8.64 5.00003 4 8.00003 3 11C3 11 1 6.00003 2 3.00003ZM34 3.00003C33.553 1.65803 28.36 4.00003 27.36 5.00003C27.36 5.00003 32 8.00003 33 11C33 11 35 6.00003 34 3.00003Z" fill="#F18F26"/>
<path d="M4.93401 5.603C4.93401 4.189 11 7 10 8C9.00001 9 8.00001 9.603 7.00001 10.603C6.00001 11.603 4.93401 6.603 4.93401 5.603ZM31.066 5.603C31.066 4.189 25 7 26 8C27 9 28 9.603 29 10.603C30 11.603 31.066 6.603 31.066 5.603Z" fill="#FFCC4D"/>
<path d="M0.701004 25C0.553004 25 0.407004 24.935 0.308004 24.81C0.137004 24.593 0.174004 24.279 0.391004 24.108C0.553004 23.981 4.411 20.988 11.039 21.503C11.314 21.523 11.52 21.764 11.499 22.039C11.478 22.314 11.242 22.54 10.962 22.499C4.729 22.025 1.047 24.865 1.011 24.894C0.918004 24.965 0.809004 25 0.701004 25ZM9.569 20.337C9.52 20.337 9.469 20.33 9.42 20.315C4.63 18.818 0.683004 19.968 0.643004 19.979C0.378004 20.06 0.100004 19.909 0.0200041 19.644C-0.0589959 19.379 0.091004 19.101 0.355004 19.022C0.528004 18.97 4.641 17.775 9.717 19.36C9.981 19.443 10.128 19.723 10.045 19.987C9.979 20.2 9.782 20.337 9.569 20.337ZM35.299 25C35.447 25 35.593 24.935 35.692 24.81C35.863 24.593 35.826 24.279 35.609 24.108C35.447 23.981 31.589 20.988 24.961 21.503C24.686 21.523 24.48 21.764 24.501 22.039C24.522 22.314 24.758 22.54 25.038 22.499C31.271 22.025 34.953 24.865 34.989 24.894C35.082 24.965 35.191 25 35.299 25ZM26.431 20.337C26.48 20.337 26.531 20.33 26.58 20.315C31.37 18.818 35.317 19.968 35.357 19.979C35.622 20.06 35.9 19.909 35.98 19.644C36.059 19.379 35.909 19.101 35.645 19.022C35.472 18.97 31.359 17.775 26.283 19.36C26.019 19.443 25.872 19.723 25.955 19.987C26.02 20.2 26.218 20.337 26.431 20.337Z" fill="#FEE7B8"/>
<path d="M26.7679 27.0021C26.7679 27.0021 27.7649 26.2811 26.9329 25.3881C26.1009 24.4951 25.3119 25.4401 25.3119 25.4401L21.1649 29.3061C21.0959 29.1011 20.7059 28.5631 20.6149 28.3591L26.3699 22.9931C26.3699 22.9931 27.3679 22.2721 26.5339 21.3781C25.7019 20.4861 24.9119 21.4291 24.9119 21.4291L19.4989 26.4751C19.3739 26.3171 19.0379 25.9351 18.9049 25.7771L25.1809 19.9271C25.1809 19.9271 26.1779 19.2051 25.3449 18.3131C24.5129 17.4201 23.7239 18.3641 23.7239 18.3641L17.4459 24.2121C17.2959 24.0671 16.8339 23.6031 16.6819 23.4661L22.5479 17.9981C22.5479 17.9981 23.5439 17.2761 22.7119 16.3841C21.8789 15.4911 21.0909 16.4351 21.0909 16.4351L14.8879 22.2161L14.3909 22.6801L14.1689 22.8871C14.1689 22.8871 13.6309 23.6311 13.0819 23.0661L14.9239 18.9081C14.9239 18.9081 15.5039 17.8341 14.4309 17.2531C13.3559 16.6721 12.7759 17.7461 12.7759 17.7461L11.1079 20.5041C10.4449 21.5971 9.75886 22.6821 8.94886 23.6711C6.66486 26.4641 6.73786 30.5851 9.26686 33.3001C12.0259 36.2591 16.6629 36.4221 19.6219 33.6641L20.0689 33.2461L26.7679 27.0021Z" fill="#F18F26"/>
<path d="M28.4568 14.297C28.3968 14.162 26.9578 11 23.9998 11C21.0428 11 19.6028 14.162 19.5428 14.297C19.4508 14.504 19.5108 14.746 19.6878 14.888C19.8628 15.03 20.1138 15.035 20.2978 14.902C20.3098 14.893 21.5598 14 23.9998 14C26.4258 14 27.6738 14.881 27.7018 14.901C27.7898 14.967 27.8958 15 27.9998 15C28.1098 15 28.2208 14.963 28.3118 14.891C28.4888 14.749 28.5498 14.505 28.4568 14.297ZM16.4568 14.297C16.3968 14.162 14.9578 11 11.9998 11C9.04282 11 7.60282 14.162 7.54282 14.297C7.45082 14.504 7.51082 14.746 7.68682 14.888C7.86282 15.03 8.11382 15.035 8.29682 14.902C8.30982 14.893 9.55882 14 11.9998 14C14.4258 14 15.6738 14.881 15.7018 14.901C15.7898 14.967 15.8958 15 15.9998 15C16.1098 15 16.2208 14.963 16.3118 14.891C16.4898 14.749 16.5488 14.505 16.4568 14.297Z" fill="#292F33"/>
</g>
<defs>
<clipPath id="clip0">
<rect width="36" height="36" fill="#FFFFFF"/>
</clipPath>
</defs>
</svg>
