<svg width="36" height="36" viewBox="0 0 36 36" fill="none" xmlns="http://www.w3.org/2000/svg">
<g clip-path="url(#clip0)">
<path d="M34 13C35 15 35.375 16.66 35.734 19.929C36.129 23.513 35.343 26.37 35 27C34.61 27.716 32.633 30.025 30 32C26 35 20 36 18 36C16 36 10 35 6 32C3.367 30.025 1.39 27.716 1 27C0.657 26.37 -0.129 23.513 0.266 19.929C0.625 16.66 1 15 2 13C2 13 1.14872 10.4462 0.655408 7.5H35.3446C34.8513 10.4462 34 13 34 13Z" fill="#FFCC4D"/>
<path d="M18 19.5C21 19.5 21 20 21 21C21 22 19.5 24 18 24C16.5 24 15 22 15 21C15 20 14.999 19.5 18 19.5Z" fill="#E75A70"/>
<path d="M0.700974 25C0.552974 25 0.406974 24.935 0.307974 24.81C0.136974 24.593 0.173974 24.279 0.390974 24.108C0.552974 23.981 4.41097 20.988 11.039 21.503C11.314 21.523 11.52 21.764 11.499 22.039C11.478 22.314 11.242 22.54 10.962 22.499C4.72897 22.025 1.04697 24.865 1.01097 24.894C0.917974 24.965 0.808974 25 0.700974 25V25ZM9.56897 20.337C9.51997 20.337 9.46897 20.33 9.41997 20.315C4.62997 18.818 0.682974 19.968 0.642974 19.979C0.377974 20.06 0.0999735 19.909 0.0199735 19.644C-0.0590265 19.379 0.0909735 19.101 0.354974 19.022C0.527974 18.97 4.64097 17.775 9.71697 19.36C9.98097 19.443 10.128 19.723 10.045 19.987C9.97897 20.2 9.78197 20.337 9.56897 20.337V20.337ZM35.299 25C35.447 25 35.593 24.935 35.692 24.81C35.863 24.593 35.826 24.279 35.609 24.108C35.447 23.981 31.589 20.988 24.961 21.503C24.686 21.523 24.48 21.764 24.501 22.039C24.522 22.314 24.758 22.54 25.038 22.499C31.271 22.025 34.953 24.865 34.989 24.894C35.082 24.965 35.191 25 35.299 25V25ZM26.431 20.337C26.48 20.337 26.531 20.33 26.58 20.315C31.37 18.818 35.317 19.968 35.357 19.979C35.622 20.06 35.9 19.909 35.98 19.644C36.059 19.379 35.909 19.101 35.645 19.022C35.472 18.97 31.359 17.775 26.283 19.36C26.019 19.443 25.872 19.723 25.955 19.987C26.02 20.2 26.218 20.337 26.431 20.337V20.337Z" fill="#FEE7B8"/>
<path d="M31.9496 5.13C30.7596 6.571 28.7676 7.081 26.8736 7.251C26.5556 5.713 25.1906 0 22.4496 0C20.0466 0 19.1806 1.091 17.9496 1.091C16.7186 1.091 15.8526 0 13.4496 0C10.7086 0 9.34363 5.713 9.02563 7.251C7.13163 7.081 5.13963 6.57 3.94963 5.13C1.79663 2.524 -1.05037 4.444 0.391634 7.304C2.66963 11.821 8.17963 15 17.9496 15C27.7186 15 33.2286 11.821 35.5076 7.304C36.9496 4.444 34.1026 2.524 31.9496 5.13Z" fill="#664500"/>
<path d="M21.4496 2C19.5806 2 18.9066 2.964 17.9496 2.964C16.9926 2.964 16.3186 2 14.4496 2C11.9866 2 10.9496 8.75 10.9496 8.75C10.9496 8.75 12.2316 11 17.9496 11C23.6686 11 24.9496 8.75 24.9496 8.75C24.9496 8.75 23.9126 2 21.4496 2Z" fill="#825D0E"/>
<path d="M10.9496 5C10.9496 5 13.0236 7 17.9496 7C22.8766 7 24.9496 5 24.9496 5V7C24.9496 7 22.7276 9 17.9496 9C13.1716 9 10.9496 7 10.9496 7V5Z" fill="#664500"/>
<path d="M25.511 23.722C25.365 23.589 25.145 23.581 24.989 23.699C24.957 23.722 21.759 26.088 17.824 26.088C13.899 26.088 10.691 23.723 10.659 23.699C10.502 23.582 10.283 23.592 10.136 23.722C9.99004 23.854 9.95704 24.072 10.059 24.239C10.164 24.417 12.707 28.557 17.823 28.557C22.938 28.557 25.482 24.416 25.588 24.24C25.689 24.071 25.657 23.854 25.511 23.722ZM14.529 17.882C14.529 19.475 13.607 20.765 12.47 20.765C11.333 20.765 10.411 19.475 10.411 17.882C10.411 16.291 11.332 15 12.47 15C13.608 15 14.529 16.29 14.529 17.882ZM25.235 17.882C25.235 19.475 24.313 20.765 23.175 20.765C22.038 20.765 21.116 19.475 21.116 17.882C21.116 16.291 22.038 15 23.175 15C24.313 14.999 25.235 16.29 25.235 17.882Z" fill="#292F33"/>
</g>
<defs>
<clipPath id="clip0">
<rect width="36" height="36" fill="#FFFFFF"/>
</clipPath>
</defs>
</svg>
