<svg width="52" height="52" viewBox="0 0 52 52" fill="none" xmlns="http://www.w3.org/2000/svg">
<path d="M40.1533 15.1352C37.5879 13.0775 36.1489 12.1688 34.0276 11.4617C34.0276 11.4617 29.785 2.97645 25.7544 1.77437C24.3968 1.3699 21.7126 8.20338 21.2997 11.4617C21.2997 11.4617 17.7656 13.5845 15.6442 15.7058C13.5229 17.8271 11.4002 21.3612 11.4002 21.3612C8.14183 21.7742 1.30835 24.4584 1.71282 25.816C2.9149 29.8465 11.4002 34.0891 11.4002 34.0891C12.1073 36.2105 13.0159 37.6494 15.0736 40.2148C17.3286 43.0284 19.9046 44.4928 20.5926 44.6958C21.3746 44.9263 24.4053 45.161 27.6636 44.6958C32.6134 43.9886 37.5631 40.4531 38.9773 39.0389C40.3916 37.6247 43.9271 32.6749 44.6342 27.7252C45.0995 24.4668 44.8647 21.4362 44.6342 20.6541C44.4313 19.9661 42.9668 17.3901 40.1533 15.1352V15.1352Z" fill="#FFCC4D"/>
<path d="M23.3708 23.4323C25.4921 21.311 25.8456 21.6646 26.5527 22.3717C27.2598 23.0788 27.6134 25.5536 26.5527 26.6143C25.4921 27.675 23.0172 27.3214 22.3101 26.6143C21.603 25.9072 21.2487 25.5544 23.3708 23.4323Z" fill="#E75A70"/>
<path d="M4.32913 27.0181C3.69627 25.7531 9.02432 23.7371 10.4385 23.7371C10.4385 23.7371 9.27888 29.1394 10.6931 31.9678C10.6931 31.9678 5.74335 29.8465 4.32913 27.0181ZM26.9566 4.39068C25.6915 3.75782 23.6756 9.08587 23.6756 10.5001C23.6756 10.5001 29.0779 9.34043 31.9063 10.7546C31.9063 10.7546 29.785 5.8049 26.9566 4.39068Z" fill="#F18F26"/>
<path d="M8.24436 26.784C7.24451 25.7842 13.5215 23.4825 13.5215 24.8967C13.5215 26.3109 13.2408 27.4444 13.2408 28.8587C13.2408 30.2729 8.95146 27.4911 8.24436 26.784ZM26.7225 8.30589C25.7226 7.30604 23.421 13.583 24.8352 13.583C26.2494 13.583 27.3829 13.3023 28.7971 13.3023C30.2113 13.3023 27.4296 9.01299 26.7225 8.30589V8.30589Z" fill="#FFCC4D"/>
<path d="M27.3245 27.4889C23.8305 30.9829 21.1055 32.8929 17.6795 35.2019C16.8985 35.7309 15.7515 37.1309 17.6805 39.0609C21.5375 42.9179 30.7915 43.3079 36.9675 37.1319C43.1445 30.9549 42.7555 21.7019 38.8965 17.8439C36.9675 15.9139 35.5665 17.0619 35.0385 17.8429C32.7305 21.2679 30.8195 23.9939 27.3245 27.4889V27.4889Z" fill="#292F33"/>
<path d="M19.6095 37.1319C19.6095 37.1319 23.4675 35.2029 29.2535 29.4159C35.0405 23.6299 36.9685 19.7729 36.9685 19.7729C36.9685 19.7729 38.8964 25.5599 32.1465 32.3099C25.3965 39.0609 19.6095 37.1319 19.6095 37.1319V37.1319Z" fill="#FFFFFF"/>
<path d="M32.3445 14.8639C32.2035 14.8839 29.9715 15.2209 27.4015 16.4919C27.3395 16.3909 27.2695 16.2939 27.1825 16.2069C26.9215 15.9459 26.5875 15.8079 26.2465 15.7799C27.1535 14.1369 28.2245 13.0429 28.2445 13.0239C28.6325 12.6339 28.6325 11.9999 28.2415 11.6109C27.8505 11.2219 27.2195 11.2209 26.8295 11.6109C26.6735 11.7669 23.0015 15.4919 23.0015 20.0959C23.0015 20.5009 23.2445 20.8649 23.6185 21.0199C23.9915 21.1749 24.4225 21.0889 24.7085 20.8029C27.9535 17.5579 32.5825 16.8499 32.6295 16.8429C32.8515 16.8109 33.0455 16.7079 33.1925 16.5609C33.4075 16.3459 33.5225 16.0349 33.4765 15.7109C33.3955 15.1639 32.8905 14.7859 32.3445 14.8639V14.8639ZM19.7575 23.3389C15.1535 23.3389 11.4285 27.0109 11.2725 27.1669C10.8825 27.5569 10.8825 28.1889 11.2725 28.5789C11.6615 28.9699 12.2945 28.9709 12.6865 28.5819C12.7055 28.5629 13.7995 27.4909 15.4425 26.5849C15.4715 26.9259 15.6085 27.2599 15.8695 27.5209C15.9565 27.6079 16.0535 27.6779 16.1545 27.7399C14.8825 30.3089 14.5455 32.5419 14.5255 32.6829C14.4475 33.2299 14.8275 33.7359 15.3735 33.8139C15.6985 33.8609 16.0075 33.7459 16.2225 33.5309C16.3695 33.3839 16.4725 33.1889 16.5045 32.9659C16.5115 32.9199 17.2025 28.3089 20.4645 25.0469C20.7505 24.7609 20.8355 24.3309 20.6815 23.9569C20.5265 23.5819 20.1625 23.3389 19.7575 23.3389V23.3389Z" fill="#292F33"/>
<path d="M38.1465 20.2639C40.8875 20.5979 43.3805 18.6459 43.7135 15.9039C44.0475 13.1629 42.0965 10.6699 39.3545 10.3359C36.6135 10.0029 28.9455 13.0989 28.8245 14.0919C28.7035 15.0839 35.4055 19.9289 38.1465 20.2639V20.2639ZM20.2025 38.2079C20.5365 40.9489 18.5845 43.4419 15.8425 43.7749C13.1015 44.1089 10.6085 42.1579 10.2745 39.4159C9.94047 36.6739 13.0375 29.0059 14.0305 28.8849C15.0225 28.7649 19.8675 35.4669 20.2025 38.2079V38.2079Z" fill="#64AADD"/>
<path d="M16.3129 40.8389C16.2082 40.9435 16.059 41.0008 15.9006 40.9824C15.6263 40.9499 15.4304 40.7017 15.4629 40.4274C15.4877 40.223 16.0993 35.3786 21.1502 31.0561C21.3588 30.8758 21.6749 30.9005 21.8545 31.1098C22.0341 31.3191 22.027 31.6458 21.8 31.8148C17.0575 35.887 16.4621 40.4988 16.4571 40.5447C16.4416 40.6607 16.3892 40.7625 16.3129 40.8389V40.8389ZM19.2863 31.271C19.2516 31.3057 19.2106 31.3368 19.1653 31.3608C14.7198 33.6893 12.742 37.2935 12.7215 37.3295C12.5914 37.5742 12.288 37.664 12.0441 37.5332C11.8008 37.4017 11.7103 37.099 11.8411 36.8565C11.9267 36.6974 13.99 32.9441 18.7001 30.4755C18.9454 30.3476 19.2474 30.4416 19.3754 30.687C19.4793 30.8842 19.4369 31.1204 19.2863 31.271V31.271ZM40.7774 16.3744C40.882 16.2698 40.9393 16.1206 40.9209 15.9622C40.8884 15.6878 40.6402 15.4919 40.3658 15.5245C40.1615 15.5492 35.3171 16.1609 30.9945 21.2117C30.8142 21.4203 30.839 21.7364 31.0483 21.916C31.2576 22.0956 31.5843 22.0885 31.7533 21.8616C35.8255 17.119 40.4372 16.5236 40.4832 16.5187C40.5992 16.5031 40.701 16.4508 40.7774 16.3744V16.3744ZM31.2095 19.3478C31.2441 19.3132 31.2753 19.2721 31.2993 19.2269C33.6278 14.7813 37.2319 12.8035 37.268 12.783C37.5126 12.6529 37.6024 12.3496 37.4716 12.1056C37.3401 11.8624 37.0375 11.7719 36.7949 11.9027C36.6358 11.9882 32.8825 14.0516 30.414 18.7616C30.286 19.007 30.3801 19.3089 30.6254 19.4369C30.822 19.5415 31.0589 19.4984 31.2095 19.3478V19.3478Z" fill="#FEE7B8"/>
</svg>
