<svg width="36" height="36" viewBox="0 0 36 36" fill="none" xmlns="http://www.w3.org/2000/svg">
<g clip-path="url(#clip0)">
<path d="M35.734 19.929C35.375 16.66 35 15 34 13C34 13 37 4 35 0.300003C34.326 -0.945997 27.596 1.988 25 4C25 4 21 3.002 18 3.002C15 3.002 11 4 11 4C8.404 1.988 1.674 -0.945997 1 0.300003C-1 4 2 13 2 13C1 15 0.625 16.66 0.266 19.929C-0.129 23.513 0.657 26.37 1 27C1.39 27.716 3.367 30.025 6 32C10 35 16 36 18 36C20 36 26 35 30 32C32.633 30.025 34.61 27.716 35 27C35.343 26.37 36.129 23.513 35.734 19.929V19.929Z" fill="#FFCC4D"/>
<path d="M18 19.5C21 19.5 21 20 21 21C21 22 19.5 24 18 24C16.5 24 15 22 15 21C15 20 14.999 19.5 18 19.5Z" fill="#E75A70"/>
<path d="M1.99997 3.00003C2.44697 1.65803 7.63997 4.00003 8.63997 5.00003C8.63997 5.00003 3.99997 8.00003 2.99997 11C2.99997 11 0.999971 6.00003 1.99997 3.00003ZM34 3.00003C33.553 1.65803 28.36 4.00003 27.36 5.00003C27.36 5.00003 32 8.00003 33 11C33 11 35 6.00003 34 3.00003Z" fill="#F18F26"/>
<path d="M4.93402 5.603C4.93402 4.189 11 7 10 8C9.00002 9 8.00002 9.603 7.00002 10.603C6.00002 11.603 4.93402 6.603 4.93402 5.603ZM31.066 5.603C31.066 4.189 25 7 26 8C27 9 28 9.603 29 10.603C30 11.603 31.066 6.603 31.066 5.603V5.603Z" fill="#FFCC4D"/>
<path d="M0.700974 25C0.552974 25 0.406974 24.935 0.307974 24.81C0.136974 24.593 0.173974 24.279 0.390974 24.108C0.552974 23.981 4.41097 20.988 11.039 21.503C11.314 21.523 11.52 21.764 11.499 22.039C11.478 22.314 11.242 22.54 10.962 22.499C4.72897 22.025 1.04697 24.865 1.01097 24.894C0.917974 24.965 0.808974 25 0.700974 25V25ZM9.56897 20.337C9.51997 20.337 9.46897 20.33 9.41997 20.315C4.62997 18.818 0.682974 19.968 0.642974 19.979C0.377974 20.06 0.0999735 19.909 0.0199735 19.644C-0.0590265 19.379 0.0909735 19.101 0.354974 19.022C0.527974 18.97 4.64097 17.775 9.71697 19.36C9.98097 19.443 10.128 19.723 10.045 19.987C9.97897 20.2 9.78197 20.337 9.56897 20.337V20.337ZM35.299 25C35.447 25 35.593 24.935 35.692 24.81C35.863 24.593 35.826 24.279 35.609 24.108C35.447 23.981 31.589 20.988 24.961 21.503C24.686 21.523 24.48 21.764 24.501 22.039C24.522 22.314 24.758 22.54 25.038 22.499C31.271 22.025 34.953 24.865 34.989 24.894C35.082 24.965 35.191 25 35.299 25V25ZM26.431 20.337C26.48 20.337 26.531 20.33 26.58 20.315C31.37 18.818 35.317 19.968 35.357 19.979C35.622 20.06 35.9 19.909 35.98 19.644C36.059 19.379 35.909 19.101 35.645 19.022C35.472 18.97 31.359 17.775 26.283 19.36C26.019 19.443 25.872 19.723 25.955 19.987C26.02 20.2 26.218 20.337 26.431 20.337V20.337Z" fill="#FEE7B8"/>
<path d="M27.6004 22.1696C26.6716 22.5283 22.9678 24.8234 18.0438 25.6916C13.1197 26.5598 8.85441 25.67 7.85891 25.6506C6.86359 25.6321 6.96983 26.8969 7.84274 28.6398C8.71664 30.3825 12.3657 33.8008 19.2593 32.5852C26.153 31.3697 28.4128 26.9095 28.6379 24.973C28.8621 23.0367 28.5294 21.8118 27.6004 22.1696Z" fill="#292F33"/>
<path d="M12 28L12 31.5C12 33.25 13.1667 35 15.5 35C17.8333 35 19 33.25 19 31.5L19 28L12 28V28Z" fill="#E8596E"/>
<path d="M15.5005 33C15.7764 33 16 32.8573 16 32.6813L16 29L15 29L15 32.6813C15.0009 32.8573 15.2246 33 15.5005 33V33Z" fill="#DD2F45"/>
<path d="M8.02203 26.4433C8.02203 26.4433 13.2934 27.5447 18.2174 26.6764C23.1414 25.8082 27.7182 22.9703 27.7182 22.9703C27.7182 22.9703 27.7467 26.0116 26.7619 26.1852C25.7771 26.3589 25.1111 25.4609 25.1111 25.4609C25.1111 25.4609 21.5191 28.1251 18.5647 28.646C15.6103 29.167 11.3238 27.892 11.3238 27.892C11.3238 27.892 11.005 28.9636 10.0202 29.1372C9.03538 29.3109 8.02203 26.4433 8.02203 26.4433Z" fill="#F5F8FA"/>
<path d="M29.9843 10.3238C30.7633 13.9598 28.4473 17.5398 24.8113 18.3188C21.1753 19.0978 17.5953 16.7818 16.8153 13.1458C16.0363 9.50984 18.3523 5.92984 21.9883 5.15084C25.6243 4.37184 29.2053 6.68684 29.9843 10.3238Z" fill="#F4F7F9"/>
<path d="M23.0063 12.6399C24.1313 12.6399 25.0433 11.7279 25.0433 10.6029C25.0433 9.47785 24.1313 8.56586 23.0063 8.56586C21.8813 8.56586 20.9693 9.47785 20.9693 10.6029C20.9693 11.7279 21.8813 12.6399 23.0063 12.6399Z" fill="#292F33"/>
<path d="M14.7883 15.5938C15.2443 17.7198 13.8893 19.8128 11.7633 20.2688C9.63731 20.7248 7.54431 19.3698 7.08831 17.2438C6.63231 15.1178 7.98731 13.0248 10.1133 12.5688C12.2393 12.1128 14.3323 13.4678 14.7883 15.5938V15.5938Z" fill="#F4F7F9"/>
<path d="M11.346 19.0672C12.3947 18.8425 13.0627 17.8101 12.838 16.7614C12.6133 15.7127 11.5809 15.0447 10.5322 15.2694C9.48346 15.4941 8.81548 16.5265 9.04021 17.5752C9.26495 18.6239 10.2973 19.2919 11.346 19.0672Z" fill="#292F33"/>
</g>
<defs>
<clipPath id="clip0">
<rect width="36" height="36" fill="#FFFFFF"/>
</clipPath>
</defs>
</svg>
