<svg width="36" height="36" viewBox="0 0 36 36" fill="none" xmlns="http://www.w3.org/2000/svg">
<g clip-path="url(#clip0)">
<path d="M35.734 19.929C35.375 16.66 35 15 34 13C34 13 37 4 35 0.300003C34.326 -0.945997 27.596 1.988 25 4C25 4 21 3.002 18 3.002C15 3.002 11 4 11 4C8.404 1.988 1.674 -0.945997 1 0.300003C-1 4 2 13 2 13C1 15 0.625 16.66 0.266 19.929C-0.129 23.513 0.657 26.37 1 27C1.39 27.716 3.367 30.025 6 32C10 35 16 36 18 36C20 36 26 35 30 32C32.633 30.025 34.61 27.716 35 27C35.343 26.37 36.129 23.513 35.734 19.929V19.929Z" fill="#FFCC4D"/>
<path d="M2 3.00003C2.447 1.65803 7.64 4.00003 8.64 5.00003C8.64 5.00003 4 8.00003 3 11C3 11 1 6.00003 2 3.00003ZM34 3.00003C33.553 1.65803 28.36 4.00003 27.36 5.00003C27.36 5.00003 32 8.00003 33 11C33 11 35 6.00003 34 3.00003Z" fill="#F18F26"/>
<path d="M4.934 5.603C4.934 4.189 11 7 10 8C9 9 8 9.603 7 10.603C6 11.603 4.934 6.603 4.934 5.603ZM31.066 5.603C31.066 4.189 25 7 26 8C27 9 28 9.603 29 10.603C30 11.603 31.066 6.603 31.066 5.603V5.603Z" fill="#FFCC4D"/>
<path d="M0.701 25C0.553 25 0.407 24.935 0.308 24.81C0.137 24.593 0.174 24.279 0.391 24.108C0.553 23.981 4.411 20.988 11.039 21.503C11.314 21.523 11.52 21.764 11.499 22.039C11.478 22.314 11.242 22.54 10.962 22.499C4.729 22.025 1.047 24.865 1.011 24.894C0.918 24.965 0.809 25 0.701 25V25ZM9.569 20.337C9.52 20.337 9.469 20.33 9.42 20.315C4.63 18.818 0.683 19.968 0.643 19.979C0.378 20.06 0.1 19.909 0.0200002 19.644C-0.0589998 19.379 0.0910002 19.101 0.355 19.022C0.528 18.97 4.641 17.775 9.717 19.36C9.981 19.443 10.128 19.723 10.045 19.987C9.979 20.2 9.782 20.337 9.569 20.337V20.337ZM35.299 25C35.447 25 35.593 24.935 35.692 24.81C35.863 24.593 35.826 24.279 35.609 24.108C35.447 23.981 31.589 20.988 24.961 21.503C24.686 21.523 24.48 21.764 24.501 22.039C24.522 22.314 24.758 22.54 25.038 22.499C31.271 22.025 34.953 24.865 34.989 24.894C35.082 24.965 35.191 25 35.299 25V25ZM26.431 20.337C26.48 20.337 26.531 20.33 26.58 20.315C31.37 18.818 35.317 19.968 35.357 19.979C35.622 20.06 35.9 19.909 35.98 19.644C36.059 19.379 35.909 19.101 35.645 19.022C35.472 18.97 31.359 17.775 26.283 19.36C26.019 19.443 25.872 19.723 25.955 19.987C26.02 20.2 26.218 20.337 26.431 20.337V20.337Z" fill="#FEE7B8"/>
<path d="M30.103 17.206C29.995 17.125 28.28 15.859 25.715 14.992C25.741 14.884 25.759 14.772 25.759 14.656C25.759 14.307 25.628 13.992 25.42 13.746C27.123 13.254 28.569 13.24 28.595 13.24C29.115 13.239 29.538 12.815 29.537 12.294C29.536 11.773 29.115 11.351 28.593 11.351C28.385 11.351 23.445 11.387 20.37 14.461C20.1 14.731 20.019 15.137 20.165 15.49C20.311 15.843 20.656 16.073 21.037 16.073C25.372 16.073 28.936 18.691 28.972 18.718C29.142 18.844 29.34 18.905 29.536 18.905C29.824 18.905 30.108 18.774 30.293 18.527C30.604 18.109 30.519 17.519 30.103 17.206ZM16.037 14.46C12.963 11.385 8.023 11.35 7.814 11.35C7.293 11.35 6.871 11.772 6.87 12.293C6.869 12.814 7.291 13.237 7.812 13.239C7.837 13.239 9.284 13.254 10.986 13.745C10.778 13.992 10.647 14.307 10.647 14.655C10.647 14.771 10.665 14.883 10.691 14.991C8.126 15.858 6.41 17.124 6.302 17.205C5.885 17.518 5.8 18.11 6.113 18.527C6.298 18.775 6.582 18.905 6.869 18.905C7.066 18.905 7.265 18.843 7.435 18.716C7.47 18.69 11.011 16.072 15.368 16.072C15.75 16.072 16.094 15.842 16.24 15.489C16.388 15.136 16.308 14.731 16.037 14.46Z" fill="#292F33"/>
<path d="M18.203 27.153C21.538 27.153 23.75 27.541 26.487 28.073C27.112 28.193 28.328 28.073 28.328 26.232C28.328 22.55 24.098 17.948 18.203 17.948C12.308 17.948 8.078 22.55 8.078 26.232C8.078 28.073 9.294 28.194 9.919 28.073C12.655 27.541 14.868 27.153 18.203 27.153Z" fill="#292F33"/>
<path d="M25.915 32.3039V25.2029C25.915 22.6099 22.026 20.0179 18.137 20.0179C14.248 20.0179 10.359 22.6109 10.359 25.2029V32.3039C5.956 32.6529 3 33.2889 3 34.0169C3 35.1219 9.777 36.0169 18.137 36.0169C26.497 36.0169 33.274 35.1219 33.274 34.0169C33.274 33.2889 30.318 32.6529 25.915 32.3039V32.3039Z" fill="#77AF57"/>
<path d="M16.078 24.4799C16.7601 24.4799 17.313 23.927 17.313 23.2449C17.313 22.5629 16.7601 22.0099 16.078 22.0099C15.3959 22.0099 14.843 22.5629 14.843 23.2449C14.843 23.927 15.3959 24.4799 16.078 24.4799Z" fill="#5D8F3F"/>
<path d="M20.901 26.892C21.5831 26.892 22.136 26.3391 22.136 25.657C22.136 24.9749 21.5831 24.422 20.901 24.422C20.2189 24.422 19.666 24.9749 19.666 25.657C19.666 26.3391 20.2189 26.892 20.901 26.892Z" fill="#5D8F3F"/>
<path d="M22.655 30.729C22.7643 30.0557 22.3071 29.4213 21.6338 29.3121C20.9606 29.2028 20.3262 29.66 20.2169 30.3333C20.1077 31.0065 20.5649 31.6409 21.2381 31.7502C21.9114 31.8594 22.5458 31.4022 22.655 30.729Z" fill="#5D8F3F"/>
<path d="M17.0522 32.8477C17.2084 31.8856 16.555 30.9789 15.5928 30.8228C14.6306 30.6666 13.724 31.32 13.5678 32.2822C13.4116 33.2444 14.065 34.151 15.0272 34.3072C15.9894 34.4634 16.896 33.8099 17.0522 32.8477Z" fill="#5D8F3F"/>
</g>
<defs>
<clipPath id="clip0">
<rect width="36" height="36" fill="#FFFFFF"/>
</clipPath>
</defs>
</svg>
