<svg width="36" height="36" viewBox="0 0 36 36" fill="none" xmlns="http://www.w3.org/2000/svg">
<g clip-path="url(#clip0)">
<path d="M33 9.99999C34 11 35.375 16.66 35.734 19.929C36.129 23.513 35.343 26.37 35 27C34.61 27.716 32.633 30.025 30 32C26 35 20 36 18 36C16 36 10 35 6 32C3.367 30.025 1.39 27.716 1 27C0.657 26.37 -0.129 23.513 0.266 19.929C0.625 16.66 0.5 15 2 13C3.5 11 3.5 10.5 6 9.99999C8.5 9.49998 11 12 11 12C11 12 28 9.50001 29.5 8.99999C31 8.49998 32 9.00002 33 9.99999Z" fill="#FFCC4D"/>
<path d="M18.0011 22.4987C21.0011 22.4987 21.0011 22.9987 21.0011 23.9987C21.0011 24.9987 19.5011 26.9987 18.0011 26.9987C16.5011 26.9987 15.0011 24.9987 15.0011 23.9987C15.0011 22.9987 15.0001 22.4987 18.0011 22.4987Z" fill="#E75A70"/>
<path d="M0.702072 27.9987C0.554072 27.9987 0.408072 27.9337 0.309072 27.8087C0.138072 27.5917 0.175072 27.2777 0.392072 27.1067C0.554072 26.9797 4.41207 23.9867 11.0401 24.5017C11.3151 24.5217 11.5211 24.7627 11.5001 25.0377C11.4791 25.3127 11.2431 25.5387 10.9631 25.4977C4.73007 25.0237 1.04807 27.8637 1.01207 27.8927C0.919072 27.9637 0.810072 27.9987 0.702072 27.9987V27.9987ZM9.57007 23.3357C9.52107 23.3357 9.47007 23.3287 9.42107 23.3137C4.63107 21.8167 0.684072 22.9667 0.644072 22.9777C0.379072 23.0587 0.101072 22.9077 0.0210722 22.6427C-0.0579278 22.3777 0.0920722 22.0997 0.356072 22.0207C0.529072 21.9687 4.64207 20.7737 9.71807 22.3587C9.98207 22.4417 10.1291 22.7217 10.0461 22.9857C9.98007 23.1987 9.78307 23.3357 9.57007 23.3357V23.3357ZM35.3001 27.9987C35.4481 27.9987 35.5941 27.9337 35.6931 27.8087C35.8641 27.5917 35.8271 27.2777 35.6101 27.1067C35.4481 26.9797 31.5901 23.9867 24.9621 24.5017C24.6871 24.5217 24.4811 24.7627 24.5021 25.0377C24.5231 25.3127 24.7591 25.5387 25.0391 25.4977C31.2721 25.0237 34.9541 27.8637 34.9901 27.8927C35.0831 27.9637 35.1921 27.9987 35.3001 27.9987V27.9987ZM26.4321 23.3357C26.4811 23.3357 26.5321 23.3287 26.5811 23.3137C31.3711 21.8167 35.3181 22.9667 35.3581 22.9777C35.6231 23.0587 35.9011 22.9077 35.9811 22.6427C36.0601 22.3777 35.9101 22.0997 35.6461 22.0207C35.4731 21.9687 31.3601 20.7737 26.2841 22.3587C26.0201 22.4417 25.8731 22.7217 25.9561 22.9857C26.0211 23.1987 26.2191 23.3357 26.4321 23.3357V23.3357Z" fill="#FEE7B8"/>
<path d="M12.0011 23.2C13.1056 23.2 14.0011 21.633 14.0011 19.7C14.0011 17.767 13.1056 16.2 12.0011 16.2C10.8965 16.2 10.0011 17.767 10.0011 19.7C10.0011 21.633 10.8965 23.2 12.0011 23.2Z" fill="#292F33"/>
<path d="M24.0011 23.2C25.1056 23.2 26.0011 21.633 26.0011 19.7C26.0011 17.767 25.1056 16.2 24.0011 16.2C22.8965 16.2 22.0011 17.767 22.0011 19.7C22.0011 21.633 22.8965 23.2 24.0011 23.2Z" fill="#292F33"/>
<path d="M29.668 13.6041C28.727 13.3601 28.659 13.9901 27.466 13.8501C26.298 13.7131 27.895 13.1111 27.271 12.7581C27.061 12.6391 26.76 12.6141 26.389 12.6601C25.337 12.7891 9.435 13.2041 8.842 13.4901C8.315 13.7441 8.003 14.0381 7.524 13.5911C6.921 13.0291 6.058 13.3531 5.808 13.5401C5.486 13.7821 5.419 14.2621 6.042 14.8171C6.663 15.2371 7.715 15.6761 9.507 15.9761C9.704 16.0091 9.872 16.0221 10.029 16.0281C11.256 16.0691 11.426 14.3581 13.159 14.3121C14.295 14.2821 24.312 15.3821 25.137 15.2701C25.238 15.2561 25.344 15.2461 25.466 15.2461C27.029 15.2461 27.392 16.6961 29.055 15.5621C29.76 14.9891 30.866 13.9141 29.668 13.6041Z" fill="#F19020"/>
<path d="M5.48 8.96802C7.003 10.495 8.084 12.113 8.842 13.491C9.408 14.52 9.798 15.42 10.029 16.029C11.256 16.07 11.426 15.359 13.159 15.313C14.295 15.283 14.942 16.082 15.782 16.542C17.284 17.364 18.351 15.812 19.501 15.812C20.351 15.812 21.72 17.019 22.677 16.576C24.064 15.933 24.312 15.385 25.137 15.272C25.459 14.481 25.878 13.576 26.389 12.663C27.129 11.339 28.067 9.99802 29.23 8.97002H5.48V8.96802Z" fill="#F36C24"/>
<path d="M28.848 9.288C30.129 8.025 5.809 9.304 6.507 10.076C7.495 11.17 8.707 13.229 8.707 13.229C8.707 13.229 13.464 15.634 17.058 12.603C19.558 14.103 23.058 13.572 24.62 10.994C24.62 10.994 25.837 11.447 27.071 11.525C27.071 11.525 28.024 10.1 28.848 9.288Z" fill="#CE5C1F"/>
<path d="M30.667 3.578C30.427 3.578 30.2 3.623 29.981 3.687C29.293 2.842 28.258 2.291 27.083 2.291C26.996 2.291 26.914 2.311 26.828 2.317C26.094 1.49 25.034 0.958 23.841 0.958C22.336 0.958 21.041 1.797 20.355 3.024C20.009 2.226 19.216 1.667 18.291 1.667C17.573 1.667 16.942 2.009 16.53 2.532C16.022 1.062 14.642 0 13 0C11.677 0 10.52 0.689 9.852 1.723C9.668 1.694 9.484 1.665 9.292 1.665C7.86 1.665 6.631 2.477 5.999 3.657C5.796 3.619 5.589 3.594 5.375 3.594C3.511 3.594 2 5.105 2 6.969C2 8.833 3.511 10.344 5.375 10.344C5.963 10.344 6.51 10.185 6.989 9.919C7.365 10.201 7.827 10.375 8.334 10.375C8.479 10.375 8.619 10.359 8.756 10.332C9.611 11.711 11.123 12.635 12.865 12.635C14.574 12.635 16.071 11.75 16.938 10.418C17.658 11.3 18.74 11.875 19.967 11.875C21.782 11.875 23.294 10.637 23.743 8.964C23.777 8.965 23.808 8.974 23.842 8.974C24.125 8.974 24.401 8.943 24.668 8.887C25.322 9.443 26.159 9.791 27.085 9.791C28.259 9.791 29.295 9.24 29.982 8.395C30.201 8.459 30.428 8.504 30.668 8.504C32.028 8.504 33.131 7.401 33.131 6.041C33.131 4.681 32.027 3.578 30.667 3.578Z" fill="#CCD6DD"/>
<path d="M27.337 7.74102C28.5084 7.74102 29.458 6.79142 29.458 5.62002C29.458 4.44863 28.5084 3.49902 27.337 3.49902C26.1656 3.49902 25.216 4.44863 25.216 5.62002C25.216 6.79142 26.1656 7.74102 27.337 7.74102Z" fill="#E1E8ED"/>
<path d="M19.418 5.756C19.418 4.563 18.451 3.595 17.258 3.595C16.89 3.595 16.548 3.696 16.245 3.858C15.994 3.257 15.401 2.834 14.708 2.834C14.141 2.834 13.641 3.119 13.34 3.552C12.67 2.929 11.779 2.539 10.792 2.539C9.037 2.539 7.576 3.749 7.167 5.377C6.802 5.01 6.297 4.782 5.738 4.782C4.627 4.782 3.726 5.683 3.726 6.794C3.726 7.905 4.627 8.806 5.738 8.806C6.441 8.806 7.057 8.445 7.417 7.899C7.934 8.98 8.946 9.772 10.166 9.978C10.556 10.648 11.273 11.103 12.104 11.103C13.178 11.103 14.073 10.349 14.297 9.343C14.621 9.523 14.988 9.635 15.384 9.635C16.454 9.635 17.346 8.886 17.574 7.885C18.616 7.73 19.418 6.841 19.418 5.756Z" fill="#E1E8ED"/>
<path d="M18.0193 34.9C19.6868 34.9 21.0385 33.3554 21.0385 31.45C21.0385 29.5446 19.6868 28 18.0193 28C16.3518 28 15 29.5446 15 31.45C15 33.3554 16.3518 34.9 18.0193 34.9Z" fill="#292F33"/>
</g>
<defs>
<clipPath id="clip0">
<rect width="36" height="36" fill="#FFFFFF"/>
</clipPath>
</defs>
</svg>
