<svg width="36" height="36" viewBox="0 0 36 36" fill="none" xmlns="http://www.w3.org/2000/svg">
<g clip-path="url(#clip0)">
<path d="M35.734 19.929C35.375 16.66 35 15 34 13C34 13 37 4 35 0.300003C34.326 -0.945997 27.596 1.988 25 4C25 4 21 3.002 18 3.002C15 3.002 11 4 11 4C8.404 1.988 1.674 -0.945997 1 0.300003C-1 4 2 13 2 13C1 15 0.625 16.66 0.266 19.929C-0.129 23.513 0.657 26.37 1 27C1.39 27.716 3.367 30.025 6 32C10 35 16 36 18 36C20 36 26 35 30 32C32.633 30.025 34.61 27.716 35 27C35.343 26.37 36.129 23.513 35.734 19.929V19.929Z" fill="#FEE7B8"/>
<path d="M7 26C9.20914 26 11 24.2091 11 22C11 19.7909 9.20914 18 7 18C4.79086 18 3 19.7909 3 22C3 24.2091 4.79086 26 7 26Z" fill="#FF7892"/>
<path d="M29 26C31.2091 26 33 24.2091 33 22C33 19.7909 31.2091 18 29 18C26.7909 18 25 19.7909 25 22C25 24.2091 26.7909 26 29 26Z" fill="#FF7892"/>
<path d="M27.405 24.629C27.227 24.468 26.961 24.458 26.77 24.6C26.731 24.629 22.848 27.5 18.07 27.5C13.304 27.5 9.40802 24.629 9.37002 24.6C9.17902 24.458 8.91302 24.47 8.73502 24.629C8.55802 24.789 8.51802 25.053 8.64102 25.257C8.77002 25.472 11.858 32 18.07 32C24.282 32 27.371 25.472 27.499 25.257C27.622 25.052 27.583 24.789 27.405 24.629Z" fill="#DA2F47"/>
<path d="M18 24C19.933 24 21.5 22.433 21.5 20.5C21.5 18.567 19.933 17 18 17C16.067 17 14.5 18.567 14.5 20.5C14.5 22.433 16.067 24 18 24Z" fill="#BB1A34"/>
<path d="M0.701004 25C0.553004 25 0.407004 24.935 0.308004 24.81C0.137004 24.593 0.174004 24.279 0.391004 24.108C0.553004 23.981 4.411 20.988 11.039 21.503C11.314 21.523 11.52 21.764 11.499 22.039C11.478 22.314 11.242 22.54 10.962 22.499C4.729 22.025 1.047 24.865 1.011 24.894C0.918004 24.965 0.809004 25 0.701004 25V25ZM9.569 20.337C9.52 20.337 9.469 20.33 9.42 20.315C4.63 18.818 0.683004 19.968 0.643004 19.979C0.378004 20.06 0.100004 19.909 0.0200041 19.644C-0.0589959 19.379 0.091004 19.101 0.355004 19.022C0.528004 18.97 4.641 17.775 9.717 19.36C9.981 19.443 10.128 19.723 10.045 19.987C9.979 20.2 9.782 20.337 9.569 20.337V20.337ZM35.299 25C35.447 25 35.593 24.935 35.692 24.81C35.863 24.593 35.826 24.279 35.609 24.108C35.447 23.981 31.589 20.988 24.961 21.503C24.686 21.523 24.48 21.764 24.501 22.039C24.522 22.314 24.758 22.54 25.038 22.499C31.271 22.025 34.953 24.865 34.989 24.894C35.082 24.965 35.191 25 35.299 25V25ZM26.431 20.337C26.48 20.337 26.531 20.33 26.58 20.315C31.37 18.818 35.317 19.968 35.357 19.979C35.622 20.06 35.9 19.909 35.98 19.644C36.059 19.379 35.909 19.101 35.645 19.022C35.472 18.97 31.359 17.775 26.283 19.36C26.019 19.443 25.872 19.723 25.955 19.987C26.02 20.2 26.218 20.337 26.431 20.337V20.337Z" fill="#FFCC4D"/>
<path d="M12 18C13.1046 18 14 16.433 14 14.5C14 12.567 13.1046 11 12 11C10.8954 11 10 12.567 10 14.5C10 16.433 10.8954 18 12 18Z" fill="#292F33"/>
<path d="M24 18C25.1046 18 26 16.433 26 14.5C26 12.567 25.1046 11 24 11C22.8954 11 22 12.567 22 14.5C22 16.433 22.8954 18 24 18Z" fill="#292F33"/>
<path fill-rule="evenodd" clip-rule="evenodd" d="M9 3C9 3.74492 8.59274 4.39473 7.98873 4.73891C7.88428 5.84068 7.06478 6.73413 5.99939 6.95012C5.99979 6.9667 6 6.98332 6 7C6 7.15428 5.98253 7.30449 5.94946 7.44874C5.98265 7.62743 6 7.81169 6 8C6 9.65685 4.65685 11 3 11C1.34315 11 0 9.65685 0 8C0 7.23165 0.288854 6.53076 0.763894 6C0.288854 5.46924 0 4.76835 0 4C0 2.34315 1.34315 1 3 1C3.89457 1 4.69769 1.39155 5.24733 2.01261L5.2611 2.01127C5.60527 1.40726 6.25508 1 7 1C8.10457 1 9 1.89543 9 3ZM29 1C29.7449 1 30.3947 1.40726 30.7389 2.01127L30.7527 2.01261C31.3023 1.39155 32.1054 1 33 1C34.6569 1 36 2.34315 36 4C36 4.76836 35.7111 5.46924 35.2361 6C35.7111 6.53075 36 7.23164 36 8C36 9.65685 34.6569 11 33 11C31.3431 11 30 9.65685 30 8C30 7.81169 30.0174 7.62743 30.0505 7.44873C30.0175 7.30448 30 7.15429 30 7C30 6.98332 30.0002 6.96669 30.0006 6.95011C28.9352 6.73413 28.1157 5.84068 28.0113 4.73891C27.4073 4.39473 27 3.74492 27 3C27 1.89543 27.8954 1 29 1Z" fill="#4289C1"/>
</g>
<defs>
<clipPath id="clip0">
<rect width="36" height="36" fill="#FFFFFF"/>
</clipPath>
</defs>
</svg>
