<svg width="36" height="36" viewBox="0 0 36 36" fill="none" xmlns="http://www.w3.org/2000/svg">
<g clip-path="url(#clip0)">
<path d="M35.734 19.929C35.375 16.66 35 15 34 13C34 13 37 4 35 0.300003C34.326 -0.945997 27.596 1.988 25 4C25 4 21 3.002 18 3.002C15 3.002 11 4 11 4C8.404 1.988 1.674 -0.945997 1 0.300003C-1 4 2 13 2 13C1 15 0.625 16.66 0.266 19.929C-0.129 23.513 0.657 26.37 1 27C1.39 27.716 3.367 30.025 6 32C10 35 16 36 18 36C20 36 26 35 30 32C32.633 30.025 34.61 27.716 35 27C35.343 26.37 36.129 23.513 35.734 19.929V19.929Z" fill="#FFCC4D"/>
<path d="M18 19.5C21 19.5 21 20 21 21C21 22 19.5 24 18 24C16.5 24 15 22 15 21C15 20 14.999 19.5 18 19.5Z" fill="#E75A70"/>
<path d="M1.99997 3.00003C2.44697 1.65803 7.63997 4.00003 8.63997 5.00003C8.63997 5.00003 3.99997 8.00003 2.99997 11C2.99997 11 0.999971 6.00003 1.99997 3.00003ZM34 3.00003C33.553 1.65803 28.36 4.00003 27.36 5.00003C27.36 5.00003 32 8.00003 33 11C33 11 35 6.00003 34 3.00003Z" fill="#F18F26"/>
<path d="M4.93402 5.603C4.93402 4.189 11 7 10 8C9.00002 9 8.00002 9.603 7.00002 10.603C6.00002 11.603 4.93402 6.603 4.93402 5.603ZM31.066 5.603C31.066 4.189 25 7 26 8C27 9 28 9.603 29 10.603C30 11.603 31.066 6.603 31.066 5.603V5.603Z" fill="#FFCC4D"/>
<path d="M0.700974 25C0.552974 25 0.406974 24.935 0.307974 24.81C0.136974 24.593 0.173974 24.279 0.390974 24.108C0.552974 23.981 4.41097 20.988 11.039 21.503C11.314 21.523 11.52 21.764 11.499 22.039C11.478 22.314 11.242 22.54 10.962 22.499C4.72897 22.025 1.04697 24.865 1.01097 24.894C0.917974 24.965 0.808974 25 0.700974 25V25ZM9.56897 20.337C9.51997 20.337 9.46897 20.33 9.41997 20.315C4.62997 18.818 0.682974 19.968 0.642974 19.979C0.377974 20.06 0.0999735 19.909 0.0199735 19.644C-0.0590265 19.379 0.0909735 19.101 0.354974 19.022C0.527974 18.97 4.64097 17.775 9.71697 19.36C9.98097 19.443 10.128 19.723 10.045 19.987C9.97897 20.2 9.78197 20.337 9.56897 20.337V20.337ZM35.299 25C35.447 25 35.593 24.935 35.692 24.81C35.863 24.593 35.826 24.279 35.609 24.108C35.447 23.981 31.589 20.988 24.961 21.503C24.686 21.523 24.48 21.764 24.501 22.039C24.522 22.314 24.758 22.54 25.038 22.499C31.271 22.025 34.953 24.865 34.989 24.894C35.082 24.965 35.191 25 35.299 25V25ZM26.431 20.337C26.48 20.337 26.531 20.33 26.58 20.315C31.37 18.818 35.317 19.968 35.357 19.979C35.622 20.06 35.9 19.909 35.98 19.644C36.059 19.379 35.909 19.101 35.645 19.022C35.472 18.97 31.359 17.775 26.283 19.36C26.019 19.443 25.872 19.723 25.955 19.987C26.02 20.2 26.218 20.337 26.431 20.337V20.337Z" fill="#FEE7B8"/>
<path d="M11.3203 19.101C12.701 19.101 13.8203 17.8698 13.8203 16.351C13.8203 14.8322 12.701 13.601 11.3203 13.601C9.9396 13.601 8.82031 14.8322 8.82031 16.351C8.82031 17.8698 9.9396 19.101 11.3203 19.101Z" fill="#292F33"/>
<path d="M23.3203 19.851C24.701 19.851 25.8203 18.284 25.8203 16.351C25.8203 14.418 24.701 12.851 23.3203 12.851C21.9396 12.851 20.8203 14.418 20.8203 16.351C20.8203 18.284 21.9396 19.851 23.3203 19.851Z" fill="#292F33"/>
<path d="M6.42231 12.41C6.67131 12.586 6.99631 12.646 7.30731 12.545C11.4943 11.19 14.3343 13.099 14.4533 13.181C14.9063 13.493 15.5283 13.382 15.8433 12.931C16.1583 12.48 16.0513 11.86 15.6023 11.543C15.4523 11.437 11.8663 8.968 6.69231 10.642C6.16631 10.812 5.87831 11.376 6.04931 11.901C6.11731 12.115 6.25231 12.289 6.42231 12.41ZM29.3213 10.259C28.9533 10.259 28.5903 10.098 28.3423 9.788C26.9473 8.037 24.0433 6.501 23.0283 6.501C22.3863 6.501 21.1033 7.412 20.4243 8.069C19.9283 8.551 19.1363 8.536 18.6573 8.041C18.1773 7.546 18.1883 6.756 18.6813 6.275C19.0723 5.895 21.1173 4 23.0283 4C25.0333 4 28.5663 6.056 30.2983 8.229C30.7293 8.769 30.6393 9.555 30.1003 9.985C29.8693 10.17 29.5933 10.259 29.3213 10.259Z" fill="#292F33"/>
<path d="M25 29H11C10.448 29 10 28.553 10 28C10 27.447 10.448 27 11 27H25C25.553 27 26 27.447 26 28C26 28.553 25.553 29 25 29Z" fill="#292F33"/>
</g>
<defs>
<clipPath id="clip0">
<rect width="36" height="36" fill="#FFFFFF"/>
</clipPath>
</defs>
</svg>
