<svg width="36" height="36" viewBox="0 0 36 36" fill="none" xmlns="http://www.w3.org/2000/svg">
<g clip-path="url(#clip0)">
<path d="M35.734 19.929C35.375 16.66 35 15 34 13C34 13 37 4 35 0.300003C34.326 -0.945997 27.596 1.988 25 4C25 4 21 3.002 18 3.002C15 3.002 11 4 11 4C8.404 1.988 1.674 -0.945997 1 0.300003C-1 4 2 13 2 13C1 15 0.625 16.66 0.266 19.929C-0.129 23.513 0.657 26.37 1 27C1.39 27.716 3.367 30.025 6 32C10 35 16 36 18 36C20 36 26 35 30 32C32.633 30.025 34.61 27.716 35 27C35.343 26.37 36.129 23.513 35.734 19.929V19.929Z" fill="#FFCC4D"/>
<path d="M18 19.5C21 19.5 21 20 21 21C21 22 19.5 24 18 24C16.5 24 15 22 15 21C15 20 14.999 19.5 18 19.5Z" fill="#E75A70"/>
<path d="M2 3.00003C2.447 1.65803 7.64 4.00003 8.64 5.00003C8.64 5.00003 4 8.00003 3 11C3 11 1 6.00003 2 3.00003ZM34 3.00003C33.553 1.65803 28.36 4.00003 27.36 5.00003C27.36 5.00003 32 8.00003 33 11C33 11 35 6.00003 34 3.00003Z" fill="#F18F26"/>
<path d="M4.93401 5.603C4.93401 4.189 11 7 10 8C9.00001 9 8.00001 9.603 7.00001 10.603C6.00001 11.603 4.93401 6.603 4.93401 5.603ZM31.066 5.603C31.066 4.189 25 7 26 8C27 9 28 9.603 29 10.603C30 11.603 31.066 6.603 31.066 5.603V5.603Z" fill="#FFCC4D"/>
<path d="M0.701004 25C0.553004 25 0.407004 24.935 0.308004 24.81C0.137004 24.593 0.174004 24.279 0.391004 24.108C0.553004 23.981 4.411 20.988 11.039 21.503C11.314 21.523 11.52 21.764 11.499 22.039C11.478 22.314 11.242 22.54 10.962 22.499C4.729 22.025 1.047 24.865 1.011 24.894C0.918004 24.965 0.809004 25 0.701004 25V25ZM9.569 20.337C9.52 20.337 9.469 20.33 9.42 20.315C4.63 18.818 0.683004 19.968 0.643004 19.979C0.378004 20.06 0.100004 19.909 0.0200041 19.644C-0.0589959 19.379 0.091004 19.101 0.355004 19.022C0.528004 18.97 4.641 17.775 9.717 19.36C9.981 19.443 10.128 19.723 10.045 19.987C9.979 20.2 9.782 20.337 9.569 20.337V20.337ZM35.299 25C35.447 25 35.593 24.935 35.692 24.81C35.863 24.593 35.826 24.279 35.609 24.108C35.447 23.981 31.589 20.988 24.961 21.503C24.686 21.523 24.48 21.764 24.501 22.039C24.522 22.314 24.758 22.54 25.038 22.499C31.271 22.025 34.953 24.865 34.989 24.894C35.082 24.965 35.191 25 35.299 25V25ZM26.431 20.337C26.48 20.337 26.531 20.33 26.58 20.315C31.37 18.818 35.317 19.968 35.357 19.979C35.622 20.06 35.9 19.909 35.98 19.644C36.059 19.379 35.909 19.101 35.645 19.022C35.472 18.97 31.359 17.775 26.283 19.36C26.019 19.443 25.872 19.723 25.955 19.987C26.02 20.2 26.218 20.337 26.431 20.337V20.337Z" fill="#FEE7B8"/>
<path d="M28.416 15.723C28.355 15.632 26.901 13.5 24 13.5C21.1 13.5 19.645 15.632 19.584 15.723C19.449 15.925 19.48 16.193 19.655 16.361C19.829 16.528 20.101 16.546 20.298 16.403C20.31 16.393 21.56 15.5 24 15.5C26.426 15.5 27.674 16.381 27.702 16.401C27.791 16.467 27.896 16.5 28 16.5C28.124 16.5 28.248 16.454 28.344 16.363C28.521 16.196 28.551 15.925 28.416 15.723V15.723ZM16.416 15.723C16.355 15.632 14.901 13.5 12 13.5C9.09995 13.5 7.64495 15.632 7.58395 15.723C7.44995 15.925 7.47995 16.193 7.65495 16.361C7.82995 16.528 8.10195 16.546 8.29695 16.403C8.30995 16.393 9.55895 15.5 12 15.5C14.426 15.5 15.674 16.381 15.702 16.401C15.791 16.467 15.896 16.5 16 16.5C16.124 16.5 16.248 16.454 16.344 16.363C16.521 16.196 16.551 15.925 16.416 15.723V15.723ZM31.0009 14C30.6959 14 30.397 13.862 30.2 13.6C27.559 10.079 24.1389 10.001 23.9939 10C23.4439 9.994 23 9.544 23.003 8.995C23.006 8.444 23.45 8 24 8C24.184 8 28.5369 8.05 31.7999 12.4C32.1319 12.842 32.042 13.469 31.6 13.8C31.42 13.935 31.2099 14 31.0009 14V14ZM4.99895 14C4.79095 14 4.57995 13.935 4.39995 13.8C3.95795 13.469 3.86895 12.842 4.19995 12.4C7.46195 8.05 11.816 8 12 8C12.552 8 13 8.448 13 9C13 9.551 12.555 9.998 12.004 10C11.848 10.002 8.43495 10.086 5.79895 13.6C5.60395 13.862 5.30295 14 4.99895 14Z" fill="#292F33"/>
<path d="M22.5 25H18C12.4 25 11 24 11 24C11 24 12.267 27.594 17.179 27.963C17.283 27.986 17.39 28 17.5 28H22C22.825 28 24 26.825 24 26C24 25.175 23.325 25 22.5 25Z" fill="#292F33"/>
<path d="M23 26H20C19.45 26 19 26.45 19 27V31C19 31.55 19.45 32 20 32C20.55 32 21 31.55 21 31V34.5C21 35.325 21.675 36 22.5 36C23.325 36 24 35.325 24 34.5V27C24 26.45 23.55 26 23 26Z" fill="#88C9F9"/>
</g>
<defs>
<clipPath id="clip0">
<rect width="36" height="36" fill="#FFFFFF"/>
</clipPath>
</defs>
</svg>
