<svg width="36" height="36" viewBox="0 0 36 36" fill="none" xmlns="http://www.w3.org/2000/svg">
<g clip-path="url(#clip0)">
<path d="M35.734 19.929C35.375 16.66 35 15 34 13C34 13 37 4 35 0.300003C34.326 -0.945997 27.596 1.988 25 4C25 4 21 3.002 18 3.002C15 3.002 11 4 11 4C8.404 1.988 1.674 -0.945997 1 0.300003C-1 4 2 13 2 13C1 15 0.625 16.66 0.266 19.929C-0.129 23.513 0.657 26.37 1 27C1.39 27.716 3.367 30.025 6 32C10 35 16 36 18 36C20 36 26 35 30 32C32.633 30.025 34.61 27.716 35 27C35.343 26.37 36.129 23.513 35.734 19.929V19.929Z" fill="#77B255"/>
<path d="M18 19.5C21 19.5 21 20 21 21C21 22 19.5 24 18 24C16.5 24 15 22 15 21C15 20 14.999 19.5 18 19.5Z" fill="#E75A70"/>
<path d="M2 3.00003C2.447 1.65803 7.64 4.00003 8.64 5.00003C8.64 5.00003 4 8.00003 3 11C3 11 1 6.00003 2 3.00003ZM34 3.00003C33.553 1.65803 28.36 4.00003 27.36 5.00003C27.36 5.00003 32 8.00003 33 11C33 11 35 6.00003 34 3.00003Z" fill="#3E721D"/>
<path d="M4.93399 5.603C4.93399 4.189 11 7 9.99999 8C8.99999 9 7.99999 9.603 6.99999 10.603C5.99999 11.603 4.93399 6.603 4.93399 5.603ZM31.066 5.603C31.066 4.189 25 7 26 8C27 9 28 9.603 29 10.603C30 11.603 31.066 6.603 31.066 5.603V5.603Z" fill="#77B255"/>
<path d="M0.701004 25C0.553004 25 0.407004 24.935 0.308004 24.81C0.137004 24.593 0.174004 24.279 0.391004 24.108C0.553004 23.981 4.411 20.988 11.039 21.503C11.314 21.523 11.52 21.764 11.499 22.039C11.478 22.314 11.242 22.54 10.962 22.499C4.729 22.025 1.047 24.865 1.011 24.894C0.918004 24.965 0.809004 25 0.701004 25V25ZM9.569 20.337C9.52 20.337 9.469 20.33 9.42 20.315C4.63 18.818 0.683004 19.968 0.643004 19.979C0.378004 20.06 0.100004 19.909 0.0200041 19.644C-0.0589959 19.379 0.091004 19.101 0.355004 19.022C0.528004 18.97 4.641 17.775 9.717 19.36C9.981 19.443 10.128 19.723 10.045 19.987C9.979 20.2 9.782 20.337 9.569 20.337V20.337ZM35.299 25C35.447 25 35.593 24.935 35.692 24.81C35.863 24.593 35.826 24.279 35.609 24.108C35.447 23.981 31.589 20.988 24.961 21.503C24.686 21.523 24.48 21.764 24.501 22.039C24.522 22.314 24.758 22.54 25.038 22.499C31.271 22.025 34.953 24.865 34.989 24.894C35.082 24.965 35.191 25 35.299 25V25ZM26.431 20.337C26.48 20.337 26.531 20.33 26.58 20.315C31.37 18.818 35.317 19.968 35.357 19.979C35.622 20.06 35.9 19.909 35.98 19.644C36.059 19.379 35.909 19.101 35.645 19.022C35.472 18.97 31.359 17.775 26.283 19.36C26.019 19.443 25.872 19.723 25.955 19.987C26.02 20.2 26.218 20.337 26.431 20.337V20.337Z" fill="#FEE7B8"/>
<path d="M15.4924 29.588L13.9774 27.293C15.1314 26.531 16.5834 26.111 18.0664 26.111C19.5564 26.111 20.9614 26.513 22.1284 27.273L20.6264 29.578C19.2014 28.65 16.9054 28.654 15.4924 29.588ZM28.1564 16.502C27.9124 16.202 21.3854 15 21.3304 15C21.2124 15 21.0794 15.089 21.0554 15.205C20.8374 16.232 21.0034 17.276 21.5214 18.146C22.0424 19.022 22.8584 19.616 23.8174 19.819C24.0494 19.868 24.2884 19.893 24.5244 19.893C26.2704 19.893 27.8204 18.557 28.2104 16.716C28.2244 16.641 28.2044 16.56 28.1564 16.502ZM14.8844 15C14.8284 15 8.30142 16.202 8.05742 16.502C8.00942 16.561 7.98942 16.642 8.00542 16.715C8.39442 18.555 9.94442 19.891 11.6914 19.891C11.9274 19.891 12.1654 19.866 12.3984 19.817C14.3704 19.4 15.6094 17.331 15.1604 15.204C15.1364 15.089 15.0034 15 14.8844 15Z" fill="#292F33"/>
<path d="M11.7754 33.113C11.3314 33.113 10.9184 32.833 10.7704 32.389C10.5854 31.834 10.8854 31.234 11.4394 31.05C11.5344 31.017 13.8924 30.173 13.8924 27.819C13.8924 25.465 11.5344 24.621 11.4344 24.587C10.8844 24.396 10.5884 23.796 10.7754 23.245C10.9624 22.693 11.5554 22.393 12.1094 22.58C12.2684 22.633 16.0094 23.924 16.0094 27.819C16.0094 31.714 12.2684 33.006 12.1094 33.058C11.9994 33.095 11.8864 33.113 11.7754 33.113ZM24.4804 33.113C24.3694 33.113 24.2574 33.095 24.1464 33.058C23.9874 33.005 20.2464 31.714 20.2464 27.819C20.2464 23.924 23.9874 22.632 24.1464 22.58C24.7054 22.393 25.3004 22.695 25.4854 23.249C25.6704 23.802 25.3724 24.4 24.8214 24.587C24.7214 24.621 22.3634 25.465 22.3634 27.819C22.3634 30.173 24.7214 31.017 24.8214 31.051C25.3724 31.242 25.6684 31.842 25.4814 32.393C25.3314 32.835 24.9204 33.113 24.4804 33.113Z" fill="#3E721D"/>
</g>
<defs>
<clipPath id="clip0">
<rect width="36" height="36" fill="#FFFFFF"/>
</clipPath>
</defs>
</svg>
