<svg width="52" height="52" viewBox="0 0 52 52" fill="none" xmlns="http://www.w3.org/2000/svg">
<path d="M39.9038 14.8242C37.3385 12.7665 35.8995 11.8579 33.7782 11.1508C33.7782 11.1508 29.5355 2.66548 25.505 1.46339C24.1474 1.05893 21.4632 7.89241 21.0503 11.1508C21.0503 11.1508 17.5161 13.2735 15.3948 15.3948C13.2735 17.5161 11.1508 21.0503 11.1508 21.0503C7.89241 21.4632 1.05893 24.1474 1.4634 25.505C2.66548 29.5355 11.1508 33.7782 11.1508 33.7782C11.8579 35.8995 12.7665 37.3385 14.8242 39.9038C17.0791 42.7174 19.6551 44.1818 20.3431 44.3848C21.1252 44.6153 24.1559 44.8501 27.4142 44.3848C32.364 43.6777 37.3137 40.1421 38.7279 38.7279C40.1421 37.3137 43.6777 32.364 44.3848 27.4142C44.8501 24.1559 44.6153 21.1252 44.3848 20.3431C44.1818 19.6551 42.7174 17.0791 39.9038 14.8242V14.8242Z" fill="#FFCC4D"/>
<path d="M23.1213 23.1213C25.2426 21 25.5962 21.3535 26.3033 22.0606C27.0104 22.7677 27.364 25.2426 26.3033 26.3033C25.2426 27.3639 22.7678 27.0104 22.0607 26.3033C21.3536 25.5962 20.9993 25.2433 23.1213 23.1213Z" fill="#E75A70"/>
<path d="M4.0797 26.7071C3.44684 25.4421 8.77489 23.4262 10.1891 23.4262C10.1891 23.4262 9.02945 28.8284 10.4437 31.6569C10.4437 31.6569 5.49391 29.5356 4.0797 26.7071ZM26.7071 4.07971C25.4421 3.44685 23.4261 8.7749 23.4261 10.1891C23.4261 10.1891 28.8284 9.02946 31.6569 10.4437C31.6569 10.4437 29.5355 5.49392 26.7071 4.07971Z" fill="#F18F26"/>
<path d="M7.99494 26.473C6.99509 25.4732 13.2721 23.1715 13.2721 24.5858C13.2721 26 12.9914 27.1335 12.9914 28.5477C12.9914 29.9619 8.70204 27.1801 7.99494 26.473ZM26.4731 7.99491C25.4732 6.99506 23.1716 13.272 24.5858 13.272C26 13.272 27.1335 12.9913 28.5477 12.9913C29.9619 12.9913 27.1802 8.70202 26.4731 7.99491V7.99491Z" fill="#FFCC4D"/>
<path d="M27.075 27.178C23.581 30.672 20.8561 32.582 17.4301 34.891C16.6491 35.4199 15.5021 36.8199 17.4311 38.7499C21.2881 42.6069 30.5421 42.997 36.7181 36.821C42.8951 30.644 42.506 21.391 38.647 17.533C36.718 15.603 35.317 16.751 34.789 17.532C32.481 20.957 30.57 23.683 27.075 27.178Z" fill="#292F33"/>
<path d="M19.36 36.821C19.36 36.821 23.218 34.892 29.004 29.105C34.791 23.319 36.719 19.462 36.719 19.462C36.719 19.462 38.647 25.249 31.897 31.999C25.147 38.75 19.36 36.821 19.36 36.821Z" fill="#FFFFFF"/>
<path d="M32.0951 14.5529C31.9541 14.5729 29.7221 14.9099 27.1521 16.1809C27.0901 16.0799 27.0201 15.9829 26.9331 15.8959C26.6721 15.6349 26.3381 15.4969 25.9971 15.4689C26.9041 13.8259 27.9751 12.7319 27.9951 12.7129C28.3831 12.3229 28.3831 11.6889 27.9921 11.2999C27.6011 10.9109 26.9701 10.9099 26.5801 11.2999C26.4241 11.4559 22.7521 15.1809 22.7521 19.7849C22.7521 20.1899 22.9951 20.5539 23.3691 20.7089C23.7421 20.8639 24.1731 20.7779 24.4591 20.4919C27.7041 17.2469 32.3331 16.5389 32.3801 16.5319C32.6021 16.4999 32.7961 16.3969 32.9431 16.2499C33.1581 16.0349 33.2731 15.7239 33.2271 15.3999C33.1461 14.8529 32.6411 14.4749 32.0951 14.5529ZM19.5081 23.0279C14.9041 23.0279 11.1791 26.6999 11.0231 26.8559C10.6331 27.2459 10.6331 27.8779 11.0231 28.2679C11.4121 28.6589 12.0451 28.6599 12.4371 28.2709C12.4561 28.2519 13.5501 27.1799 15.1931 26.2739C15.2221 26.6149 15.3591 26.9489 15.6201 27.2099C15.7071 27.2969 15.8041 27.3669 15.9051 27.4289C14.6331 29.9979 14.2961 32.2309 14.2761 32.3719C14.1981 32.9189 14.5781 33.4249 15.1241 33.5029C15.4491 33.5499 15.7581 33.4349 15.9731 33.2199C16.1201 33.0729 16.2231 32.8779 16.2551 32.6549C16.2621 32.6089 16.9531 27.9979 20.2151 24.7359C20.5011 24.4499 20.5861 24.0199 20.4321 23.6459C20.2771 23.2709 19.9131 23.0279 19.5081 23.0279Z" fill="#292F33"/>
<path d="M37.8971 19.9529C40.6381 20.2869 43.1311 18.3349 43.4641 15.5929C43.7981 12.8519 41.8471 10.3589 39.1051 10.0249C36.3641 9.69193 28.6961 12.7879 28.5751 13.7809C28.4541 14.7729 35.1561 19.6179 37.8971 19.9529ZM19.9531 37.8969C20.2871 40.6379 18.3351 43.1309 15.5931 43.4639C12.8521 43.7979 10.3591 41.8469 10.0251 39.1049C9.69106 36.3629 12.7881 28.6949 13.7811 28.5739C14.7731 28.4539 19.6181 35.1559 19.9531 37.8969Z" fill="#64AADD"/>
<path d="M16.0635 40.5279C15.9588 40.6326 15.8096 40.6898 15.6512 40.6715C15.3769 40.6389 15.181 40.3907 15.2135 40.1164C15.2383 39.912 15.8499 35.0676 20.9008 30.7451C21.1094 30.5648 21.4255 30.5895 21.6051 30.7988C21.7847 31.0081 21.7776 31.3348 21.5506 31.5038C16.8081 35.5761 16.2127 40.1878 16.2077 40.2338C16.1922 40.3497 16.1398 40.4516 16.0635 40.5279V40.5279ZM19.0369 30.9601C19.0022 30.9947 18.9612 31.0258 18.9159 31.0499C14.4704 33.3784 12.4926 36.9825 12.4721 37.0186C12.342 37.2632 12.0386 37.353 11.7947 37.2222C11.5514 37.0907 11.4609 36.788 11.5917 36.5455C11.6773 36.3864 13.7406 32.6331 18.4507 30.1646C18.696 30.0366 18.998 30.1306 19.1259 30.376C19.2299 30.5733 19.1875 30.8094 19.0369 30.9601V30.9601ZM40.5279 16.0634C40.6326 15.9588 40.6899 15.8096 40.6715 15.6512C40.639 15.3768 40.3908 15.181 40.1164 15.2135C39.9121 15.2382 35.0677 15.8499 30.7451 20.9008C30.5648 21.1094 30.5896 21.4254 30.7989 21.605C31.0082 21.7846 31.3349 21.7776 31.5039 21.5506C35.5761 16.808 40.1878 16.2126 40.2338 16.2077C40.3498 16.1921 40.4516 16.1398 40.5279 16.0634V16.0634ZM30.9601 19.0368C30.9947 19.0022 31.0258 18.9612 31.0499 18.9159C33.3784 14.4703 36.9825 12.4926 37.0186 12.472C37.2632 12.3419 37.353 12.0386 37.2222 11.7946C37.0907 11.5514 36.7881 11.4609 36.5455 11.5917C36.3864 11.6773 32.6331 13.7406 30.1646 18.4506C30.0366 18.696 30.1306 18.9979 30.376 19.1259C30.5726 19.2306 30.8095 19.1874 30.9601 19.0368V19.0368Z" fill="#FEE7B8"/>
</svg>
