<svg width="36" height="36" viewBox="0 0 36 36" fill="none" xmlns="http://www.w3.org/2000/svg">
<g clip-path="url(#clip0)">
<path d="M35.734 19.929C35.375 16.66 35 15 34 13C34 13 37 4 35 0.300003C34.326 -0.945997 27.596 1.988 25 4C25 4 21 3.002 18 3.002C15 3.002 11 4 11 4C8.404 1.988 1.674 -0.945997 1 0.300003C-1 4 2 13 2 13C1 15 0.625 16.66 0.266 19.929C-0.129 23.513 0.657 26.37 1 27C1.39 27.716 3.367 30.025 6 32C10 35 16 36 18 36C20 36 26 35 30 32C32.633 30.025 34.61 27.716 35 27C35.343 26.37 36.129 23.513 35.734 19.929V19.929Z" fill="#FFCC4D"/>
<path d="M1.99997 3.00003C2.44697 1.65803 7.63997 4.00003 8.63997 5.00003C8.63997 5.00003 3.99997 8.00003 2.99997 11C2.99997 11 0.999971 6.00003 1.99997 3.00003ZM34 3.00003C33.553 1.65803 28.36 4.00003 27.36 5.00003C27.36 5.00003 32 8.00003 33 11C33 11 35 6.00003 34 3.00003Z" fill="#F18F26"/>
<path d="M4.93402 5.603C4.93402 4.189 11 7 10 8C9.00002 9 8.00002 9.603 7.00002 10.603C6.00002 11.603 4.93402 6.603 4.93402 5.603ZM31.066 5.603C31.066 4.189 25 7 26 8C27 9 28 9.603 29 10.603C30 11.603 31.066 6.603 31.066 5.603V5.603Z" fill="#FFCC4D"/>
<path d="M0.700974 25C0.552974 25 0.406974 24.935 0.307974 24.81C0.136974 24.593 0.173974 24.279 0.390974 24.108C0.552974 23.981 4.41097 20.988 11.039 21.503C11.314 21.523 11.52 21.764 11.499 22.039C11.478 22.314 11.242 22.54 10.962 22.499C4.72897 22.025 1.04697 24.865 1.01097 24.894C0.917974 24.965 0.808974 25 0.700974 25V25ZM9.56897 20.337C9.51997 20.337 9.46897 20.33 9.41997 20.315C4.62997 18.818 0.682974 19.968 0.642974 19.979C0.377974 20.06 0.0999735 19.909 0.0199735 19.644C-0.0590265 19.379 0.0909735 19.101 0.354974 19.022C0.527974 18.97 4.64097 17.775 9.71697 19.36C9.98097 19.443 10.128 19.723 10.045 19.987C9.97897 20.2 9.78197 20.337 9.56897 20.337V20.337ZM35.299 25C35.447 25 35.593 24.935 35.692 24.81C35.863 24.593 35.826 24.279 35.609 24.108C35.447 23.981 31.589 20.988 24.961 21.503C24.686 21.523 24.48 21.764 24.501 22.039C24.522 22.314 24.758 22.54 25.038 22.499C31.271 22.025 34.953 24.865 34.989 24.894C35.082 24.965 35.191 25 35.299 25V25ZM26.431 20.337C26.48 20.337 26.531 20.33 26.58 20.315C31.37 18.818 35.317 19.968 35.357 19.979C35.622 20.06 35.9 19.909 35.98 19.644C36.059 19.379 35.909 19.101 35.645 19.022C35.472 18.97 31.359 17.775 26.283 19.36C26.019 19.443 25.872 19.723 25.955 19.987C26.02 20.2 26.218 20.337 26.431 20.337V20.337Z" fill="#FEE7B8"/>
<path d="M17.7596 25.159C20.003 25.159 21.8216 24.2949 21.8216 23.229C21.8216 22.1631 20.003 21.299 17.7596 21.299C15.5162 21.299 13.6976 22.1631 13.6976 23.229C13.6976 24.2949 15.5162 25.159 17.7596 25.159Z" fill="#292F33"/>
<path d="M25.2976 26.085L25.2646 26.065C24.4256 25.55 23.3176 25.815 22.8026 26.654L22.6516 26.899C22.1096 26.337 21.4016 25.925 20.5836 25.758L19.1846 25.472L20.4566 19.248C20.6536 18.283 20.0256 17.333 19.0616 17.136L19.0236 17.128C18.0586 16.931 17.1086 17.559 16.9116 18.523L15.2386 26.706L15.2236 26.78L14.9106 28.311L14.9096 28.321L13.7816 33.854C13.5616 34.932 14.0516 36.104 15.6766 36.104H18.9476C21.7516 36.104 22.5826 35.094 23.1456 33.011L25.8866 28.548C26.4006 27.709 26.1366 26.601 25.2976 26.085V26.085Z" fill="#F19020"/>
<path d="M14.1696 15.326C14.1696 16.717 13.3236 17.845 12.2806 17.845C11.2376 17.845 10.3916 16.718 10.3916 15.326C10.3916 13.935 11.2366 12.807 12.2806 12.807C13.3236 12.808 14.1696 13.935 14.1696 15.326ZM29.8336 12.375C30.0556 12.375 30.2786 12.306 30.4706 12.162C30.9406 11.81 31.0346 11.144 30.6826 10.675C27.2166 6.053 22.5906 6 22.3956 6C21.8086 6 21.3336 6.476 21.3336 7.063C21.3336 7.648 21.8066 8.123 22.3916 8.125C22.5576 8.127 26.1836 8.216 28.9836 11.95C29.1916 12.228 29.5106 12.375 29.8336 12.375ZM21.7256 15.326C21.7256 16.717 22.5716 17.845 23.6146 17.845C24.6576 17.845 25.5036 16.718 25.5036 15.326C25.5036 13.935 24.6586 12.807 23.6146 12.807C22.5706 12.808 21.7256 13.935 21.7256 15.326ZM6.06158 12.375C5.83958 12.375 5.61658 12.306 5.42458 12.162C4.95558 11.81 4.86058 11.144 5.21258 10.675C8.67858 6.053 13.3046 6 13.4996 6C14.0866 6 14.5616 6.476 14.5616 7.063C14.5616 7.648 14.0886 8.123 13.5036 8.125C13.3376 8.127 9.71158 8.216 6.91158 11.95C6.70358 12.228 6.38458 12.375 6.06158 12.375Z" fill="#292F33"/>
<path d="M22.3566 30.847C22.3366 30.847 22.3146 30.845 22.2926 30.841C22.1086 30.807 21.9876 30.629 22.0236 30.444C22.0826 30.132 22.0216 29.857 21.8366 29.605C21.2466 28.797 19.5476 28.43 18.9426 28.357C18.7566 28.335 18.6236 28.165 18.6466 27.98C18.6686 27.794 18.8306 27.659 19.0236 27.684C19.1246 27.695 21.4976 27.994 22.3836 29.205C22.6816 29.612 22.7846 30.073 22.6896 30.573C22.6586 30.734 22.5166 30.847 22.3566 30.847ZM19.0976 35.577C18.8446 35.577 18.5676 35.546 18.2646 35.475C17.6546 35.331 17.2246 34.976 17.0846 34.5C16.9666 34.099 17.0746 33.675 17.3736 33.365C17.7616 32.963 18.3766 32.831 19.0686 33.007C19.2496 33.053 19.3596 33.238 19.3136 33.42C19.2676 33.6 19.0846 33.711 18.9006 33.665C18.4556 33.551 18.0756 33.615 17.8626 33.836C17.7346 33.968 17.6876 34.145 17.7356 34.309C17.8046 34.545 18.0546 34.73 18.4206 34.815C19.6006 35.092 20.2536 34.629 20.5946 34.19C21.1026 33.537 21.1626 32.652 20.9816 32.305C20.5596 31.493 18.9326 31.313 18.3416 31.312C18.1546 31.312 18.0026 31.16 18.0026 30.973C18.0026 30.786 18.1546 30.634 18.3416 30.634C18.4446 30.634 20.8836 30.649 21.5836 31.993C21.8886 32.578 21.8016 33.744 21.1296 34.607C20.8216 35.001 20.1866 35.577 19.0976 35.577Z" fill="#292F33"/>
</g>
<defs>
<clipPath id="clip0">
<rect width="36" height="36" fill="#FFFFFF"/>
</clipPath>
</defs>
</svg>
