<svg width="36" height="36" viewBox="0 0 36 36" fill="none" xmlns="http://www.w3.org/2000/svg">
<path d="M30.9058 20.1604C30.594 17.3453 30.2682 15.9158 29.3995 14.1935C29.3995 14.1935 32.0056 6.44314 30.2682 3.25688C29.6827 2.18388 23.8362 4.7105 21.581 6.44314C21.581 6.44314 18.1062 5.58371 15.5 5.58371C12.8938 5.58371 9.41898 6.44314 9.41898 6.44314C7.16379 4.7105 1.31733 2.18388 0.731813 3.25688C-1.00562 6.44314 1.60053 14.1935 1.60053 14.1935C0.731813 15.9158 0.406044 17.3453 0.0941749 20.1604C-0.248968 23.2468 0.433843 25.7071 0.731813 26.2496C1.07061 26.8662 2.78807 28.8546 5.0754 30.5554C8.55026 33.1388 13.7626 34 15.5 34C17.2374 34 22.4497 33.1388 25.9246 30.5554C28.2119 28.8546 29.9294 26.8662 30.2682 26.2496C30.5662 25.7071 31.249 23.2468 30.9058 20.1604V20.1604Z" fill="#FFCC4D"/>
<path d="M1.24939 5.33705C1.64751 4.21934 6.27273 6.16992 7.16339 7.00279C7.16339 7.00279 3.03071 9.50139 2.14005 12C2.14005 12 0.358722 7.83566 1.24939 5.33705ZM29.7506 5.33705C29.3525 4.21934 24.7273 6.16992 23.8366 7.00279C23.8366 7.00279 27.9693 9.50139 28.8599 12C28.8599 12 30.6413 7.83566 29.7506 5.33705Z" fill="#F18F26"/>
<path d="M4 7.35315C4 6.0727 9.33897 8.61821 8.45882 9.52377C7.57868 10.4293 6.69853 10.9754 5.81838 11.8809C4.93824 12.7865 4 8.25871 4 7.35315ZM27 7.35315C27 6.0727 21.661 8.61821 22.5412 9.52377C23.4213 10.4293 24.3015 10.9754 25.1816 11.8809C26.0618 12.7865 27 8.25871 27 7.35315V7.35315Z" fill="#FFCC4D"/>
<path d="M0.604526 25C0.477089 25 0.351375 24.9396 0.26613 24.8235C0.118888 24.6219 0.150748 24.3302 0.337598 24.1714C0.477089 24.0534 3.79906 21.273 9.50616 21.7514C9.74295 21.77 9.92033 21.9938 9.90225 22.2493C9.88417 22.5048 9.68096 22.7147 9.43986 22.6766C4.07288 22.2363 0.902453 24.8746 0.871455 24.9015C0.791376 24.9675 0.697521 25 0.604526 25V25ZM8.2404 20.6682C8.19821 20.6682 8.1543 20.6617 8.11211 20.6478C3.98763 19.2571 0.589027 20.3254 0.554585 20.3356C0.326404 20.4109 0.0870292 20.2706 0.0181444 20.0244C-0.0498793 19.7782 0.0792796 19.52 0.306599 19.4466C0.455563 19.3983 3.9971 18.2882 8.36784 19.7606C8.59516 19.8377 8.72174 20.0978 8.65027 20.3431C8.59344 20.5409 8.42381 20.6682 8.2404 20.6682V20.6682ZM30.3955 25C30.5229 25 30.6486 24.9396 30.7339 24.8235C30.8811 24.6219 30.8493 24.3302 30.6624 24.1714C30.5229 24.0534 27.2009 21.273 21.4938 21.7514C21.257 21.77 21.0797 21.9938 21.0977 22.2493C21.1158 22.5048 21.319 22.7147 21.5601 22.6766C26.9271 22.2363 30.0975 24.8746 30.1285 24.9015C30.2086 24.9675 30.3025 25 30.3955 25V25ZM22.7596 20.6682C22.8018 20.6682 22.8457 20.6617 22.8879 20.6478C27.0124 19.2571 30.411 20.3254 30.4454 20.3356C30.6736 20.4109 30.913 20.2706 30.9819 20.0244C31.0499 19.7782 30.9207 19.52 30.6934 19.4466C30.5444 19.3983 27.0029 18.2882 22.6322 19.7606C22.4048 19.8377 22.2783 20.0978 22.3497 20.3431C22.4057 20.5409 22.5762 20.6682 22.7596 20.6682V20.6682Z" fill="#FEE7B8"/>
<path d="M12.412 15.088C12.412 16.794 11.425 18.176 10.206 18.176C8.987 18.176 8 16.794 8 15.088C8 13.383 8.987 12 10.206 12C11.424 12 12.412 13.383 12.412 15.088ZM23.941 15.088C23.941 16.794 22.954 18.176 21.735 18.176C20.517 18.176 19.529 16.794 19.529 15.088C19.529 13.383 20.517 12 21.735 12C22.954 12 23.941 13.383 23.941 15.088ZM11.059 30.941C12.824 26.529 22.53 26.529 22.53 28.294C22.529 29.177 15.47 27.412 11.059 30.941Z" fill="#292F33"/>
<path d="M33.203 19.059H17.941C16.43 19.059 15.207 20.403 15.207 22.059C15.207 23.716 16.431 25.059 17.941 25.059H33.203C34.716 25.059 35.941 23.716 35.941 22.059C35.941 20.403 34.715 19.059 33.203 19.059Z" fill="#E75A70"/>
</svg>
