<svg width="36" height="36" viewBox="0 0 36 36" fill="none" xmlns="http://www.w3.org/2000/svg">
<g clip-path="url(#clip0)">
<path d="M35.734 19.929C35.375 16.66 35 15 34 13C34 13 37 4 35 0.300003C34.326 -0.945997 27.596 1.988 25 4C25 4 21 3.002 18 3.002C15 3.002 11 4 11 4C8.404 1.988 1.674 -0.945997 1 0.300003C-1 4 2 13 2 13C1 15 0.625 16.66 0.266 19.929C-0.129 23.513 0.657 26.37 1 27C1.39 27.716 3.367 30.025 6 32C10 35 16 36 18 36C20 36 26 35 30 32C32.633 30.025 34.61 27.716 35 27C35.343 26.37 36.129 23.513 35.734 19.929V19.929Z" fill="#FFCC4D"/>
<path d="M18 17C21 17 21 17.5 21 18.5C21 19.5 19.5 21.5 18 21.5C16.5 21.5 15 19.5 15 18.5C15 17.5 14.999 17 18 17Z" fill="#E75A70"/>
<path d="M2 3.00003C2.447 1.65803 7.64 4.00003 8.64 5.00003C8.64 5.00003 4 8.00003 3 11C3 11 1 6.00003 2 3.00003ZM34 3.00003C33.553 1.65803 28.36 4.00003 27.36 5.00003C27.36 5.00003 32 8.00003 33 11C33 11 35 6.00003 34 3.00003Z" fill="#F18F26"/>
<path d="M4.934 5.603C4.934 4.189 11 7 10 8C9 9 8 9.603 7 10.603C6 11.603 4.934 6.603 4.934 5.603ZM31.066 5.603C31.066 4.189 25 7 26 8C27 9 28 9.603 29 10.603C30 11.603 31.066 6.603 31.066 5.603V5.603Z" fill="#FFCC4D"/>
<path d="M0.700996 25C0.552996 25 0.406996 24.935 0.307996 24.81C0.136996 24.593 0.173996 24.279 0.390996 24.108C0.552996 23.981 4.411 20.988 11.039 21.503C11.314 21.523 11.52 21.764 11.499 22.039C11.478 22.314 11.242 22.54 10.962 22.499C4.729 22.025 1.047 24.865 1.011 24.894C0.917996 24.965 0.808996 25 0.700996 25V25ZM9.569 20.337C9.52 20.337 9.469 20.33 9.42 20.315C4.63 18.818 0.682996 19.968 0.642996 19.979C0.377996 20.06 0.0999964 19.909 0.0199964 19.644C-0.0590036 19.379 0.0909964 19.101 0.354996 19.022C0.527996 18.97 4.641 17.775 9.717 19.36C9.981 19.443 10.128 19.723 10.045 19.987C9.979 20.2 9.782 20.337 9.569 20.337V20.337ZM35.299 25C35.447 25 35.593 24.935 35.692 24.81C35.863 24.593 35.826 24.279 35.609 24.108C35.447 23.981 31.589 20.988 24.961 21.503C24.686 21.523 24.48 21.764 24.501 22.039C24.522 22.314 24.758 22.54 25.038 22.499C31.271 22.025 34.953 24.865 34.989 24.894C35.082 24.965 35.191 25 35.299 25V25ZM26.431 20.337C26.48 20.337 26.531 20.33 26.58 20.315C31.37 18.818 35.317 19.968 35.357 19.979C35.622 20.06 35.9 19.909 35.98 19.644C36.059 19.379 35.909 19.101 35.645 19.022C35.472 18.97 31.359 17.775 26.283 19.36C26.019 19.443 25.872 19.723 25.955 19.987C26.02 20.2 26.218 20.337 26.431 20.337V20.337Z" fill="#FEE7B8"/>
<path d="M30.6 17.2C30.486 17.115 28.669 15.774 25.954 14.856C25.98 14.741 26 14.623 26 14.5C26 14.131 25.861 13.797 25.641 13.536C27.443 13.016 28.975 13 29.002 13C29.553 12.998 30 12.55 29.999 11.998C29.998 11.447 29.552 11 29 11C28.779 11 23.5489 11.038 20.2929 14.293C20.0069 14.579 19.921 15.009 20.076 15.383C20.23 15.756 20.596 16 21 16C25.59 16 29.3629 18.772 29.4009 18.801C29.5809 18.935 29.791 18.999 29.999 18.999C30.304 18.999 30.604 18.86 30.801 18.599C31.131 18.156 31.041 17.531 30.6 17.2V17.2ZM15.707 14.293C12.452 11.038 7.22095 11 6.99995 11C6.44795 11 6.00095 11.447 6.00095 11.998C5.99995 12.55 6.44695 12.998 6.99895 13C7.02495 13 8.55695 13.016 10.36 13.536C10.139 13.797 9.99995 14.131 9.99995 14.5C9.99995 14.623 10.019 14.741 10.047 14.856C7.33095 15.774 5.51395 17.115 5.39995 17.2C4.95795 17.531 4.86895 18.158 5.19995 18.599C5.39595 18.862 5.69695 19 6.00095 19C6.20895 19 6.41995 18.935 6.59995 18.8C6.63695 18.772 10.387 16 15 16C15.404 16 15.769 15.756 15.924 15.383C16.079 15.009 15.993 14.579 15.707 14.293V14.293ZM16 29C18 24 29 24 29 26C29 27 21 25 16 29Z" fill="#292F33"/>
<path d="M18.6985 18.033C21.3765 20.709 14.7245 33.557 13.4485 34.833C12.3985 35.883 9.24854 35.883 8.19854 33.783C7.14854 31.683 3.99854 33.783 2.94854 32.733C0.848543 30.633 3.99854 29.583 2.94854 27.483C1.89854 25.383 -0.201457 24.333 1.89854 22.233C3.99854 20.133 9.24854 21.183 12.3985 19.083C15.5485 16.983 17.6475 16.983 18.6985 18.033Z" fill="#CCD6DD"/>
<path d="M17.6145 19.872C17.5985 19.81 17.5615 19.759 17.5355 19.702C17.5055 19.636 17.4855 19.567 17.4415 19.508C17.2805 19.29 17.0365 19.134 16.7475 19.093H16.7465C16.6095 19.074 16.4725 19.082 16.3405 19.115C16.2495 19.138 16.1715 19.186 16.0915 19.232C16.0535 19.253 16.0115 19.262 15.9765 19.288C15.8655 19.37 15.7705 19.473 15.6985 19.593C12.7645 24.483 5.75654 27.537 5.68554 27.568C5.15254 27.797 4.90654 28.414 5.13554 28.947C5.30654 29.345 5.69354 29.583 6.10054 29.583C6.23854 29.583 6.37854 29.556 6.51354 29.498C6.73654 29.402 10.5685 27.728 13.9385 24.786C11.8705 28.611 8.70854 30.781 8.66554 30.811C8.18454 31.134 8.05554 31.785 8.37754 32.267C8.58054 32.569 8.91254 32.734 9.25154 32.734C9.45154 32.734 9.65354 32.677 9.83254 32.558C10.1055 32.375 16.5355 28.009 17.6395 20.284C17.6575 20.144 17.6485 20.005 17.6145 19.872Z" fill="#F5F8FA"/>
</g>
<defs>
<clipPath id="clip0">
<rect width="36" height="36" fill="#FFFFFF"/>
</clipPath>
</defs>
</svg>
