<svg width="36" height="36" viewBox="0 0 36 36" fill="none" xmlns="http://www.w3.org/2000/svg">
<g clip-path="url(#clip0)">
<path d="M35.734 19.929C35.375 16.66 35 15 34 13C34 13 37 4 35 0.300003C34.326 -0.945997 27.596 1.988 25 4C25 4 21 3.002 18 3.002C15 3.002 11 4 11 4C8.404 1.988 1.674 -0.945997 1 0.300003C-1 4 2 13 2 13C1 15 0.625 16.66 0.266 19.929C-0.129 23.513 0.657 26.37 1 27C1.39 27.716 3.367 30.025 6 32C10 35 16 36 18 36C20 36 26 35 30 32C32.633 30.025 34.61 27.716 35 27C35.343 26.37 36.129 23.513 35.734 19.929Z" fill="#FFCC4D"/>
<path d="M18.0011 22.5C21.0011 22.5 21.0011 23 21.0011 24C21.0011 25 19.5011 27 18.0011 27C16.5011 27 15.0011 25 15.0011 24C15.0011 23 15.0001 22.5 18.0011 22.5Z" fill="#E75A70"/>
<path d="M2 3.00003C2.447 1.65803 7.64 4.00003 8.64 5.00003C8.64 5.00003 4 8.00003 3 11C3 11 1 6.00003 2 3.00003ZM34 3.00003C33.553 1.65803 28.36 4.00003 27.36 5.00003C27.36 5.00003 32 8.00003 33 11C33 11 35 6.00003 34 3.00003Z" fill="#F18F26"/>
<path d="M4.934 5.603C4.934 4.189 11 7 10 8C9 9 8 9.603 7 10.603C6 11.603 4.934 6.603 4.934 5.603ZM31.066 5.603C31.066 4.189 25 7 26 8C27 9 28 9.603 29 10.603C30 11.603 31.066 6.603 31.066 5.603Z" fill="#FFCC4D"/>
<path d="M0.702072 28C0.554072 28 0.408072 27.935 0.309072 27.81C0.138072 27.593 0.175072 27.279 0.392072 27.108C0.554072 26.981 4.41207 23.988 11.0401 24.503C11.3151 24.523 11.5211 24.764 11.5001 25.039C11.4791 25.314 11.2431 25.54 10.9631 25.499C4.73007 25.025 1.04807 27.865 1.01207 27.894C0.919072 27.965 0.810072 28 0.702072 28ZM9.57007 23.337C9.52107 23.337 9.47007 23.33 9.42107 23.315C4.63107 21.818 0.684072 22.968 0.644072 22.979C0.379072 23.06 0.101072 22.909 0.0210722 22.644C-0.0579278 22.379 0.0920722 22.101 0.356072 22.022C0.529072 21.97 4.64207 20.775 9.71807 22.36C9.98207 22.443 10.1291 22.723 10.0461 22.987C9.98007 23.2 9.78307 23.337 9.57007 23.337ZM35.3001 28C35.4481 28 35.5941 27.935 35.6931 27.81C35.8641 27.593 35.8271 27.279 35.6101 27.108C35.4481 26.981 31.5901 23.988 24.9621 24.503C24.6871 24.523 24.4811 24.764 24.5021 25.039C24.5231 25.314 24.7591 25.54 25.0391 25.499C31.2721 25.025 34.9541 27.865 34.9901 27.894C35.0831 27.965 35.1921 28 35.3001 28ZM26.4321 23.337C26.4811 23.337 26.5321 23.33 26.5811 23.315C31.3711 21.818 35.3181 22.968 35.3581 22.979C35.6231 23.06 35.9011 22.909 35.9811 22.644C36.0601 22.379 35.9101 22.101 35.6461 22.022C35.4731 21.97 31.3601 20.775 26.2841 22.36C26.0201 22.443 25.8731 22.723 25.9561 22.987C26.0211 23.2 26.2191 23.337 26.4321 23.337Z" fill="#FEE7B8"/>
<path d="M30.3209 12.6514C29.4179 15.3964 26.8359 17.3664 23.8269 17.3664C23.6829 17.3664 23.5379 17.3614 23.3919 17.3524C21.9149 17.2594 20.5499 16.6974 19.4419 15.7684C19.4779 16.2634 19.5179 16.7654 19.5779 17.3084C19.7299 18.6964 20.4619 19.7904 21.6939 20.4714C22.5139 20.9254 23.4939 21.1594 24.5069 21.2234C26.2409 21.3324 28.0769 20.9434 29.3799 20.3144C30.7569 19.6494 31.6519 18.4524 31.8359 17.0294C32.0189 15.6144 31.4819 14.1054 30.3209 12.6514Z" fill="#FFFFFF"/>
<path d="M21.3369 8.16643C20.0399 8.71643 19.3899 10.4674 19.3599 13.4554L19.3989 13.5234C20.2959 14.8424 21.7719 15.7474 23.4869 15.8554C23.6009 15.8624 23.7149 15.8664 23.8279 15.8664C26.4619 15.8664 28.6769 13.9294 29.0809 11.3424C28.9659 11.2374 28.8599 11.1304 28.7379 11.0264C25.0229 7.85643 22.2709 7.76943 21.3369 8.16643Z" fill="#65471B"/>
<path d="M23.8269 17.3664C26.8359 17.3664 29.4179 15.3964 30.3209 12.6514C29.9669 12.2084 29.5499 11.7714 29.0799 11.3424C28.6759 13.9294 26.4609 15.8664 23.8269 15.8664C23.7139 15.8664 23.5999 15.8624 23.4859 15.8554C21.7709 15.7474 20.2949 14.8424 19.3979 13.5234L19.3589 13.4554C19.3519 14.1564 19.3799 14.9284 19.4419 15.7684C20.5499 16.6974 21.9149 17.2594 23.3919 17.3524C23.5379 17.3624 23.6829 17.3664 23.8269 17.3664Z" fill="#F4900C"/>
<path d="M21.3989 12.3955C22.0103 12.3955 22.5059 11.8998 22.5059 11.2885C22.5059 10.6771 22.0103 10.1815 21.3989 10.1815C20.7875 10.1815 20.2919 10.6771 20.2919 11.2885C20.2919 11.8998 20.7875 12.3955 21.3989 12.3955Z" fill="#FFFFFF"/>
<path d="M12.1449 17.3664C9.13586 17.3664 6.55386 15.3964 5.65086 12.6514C4.48986 14.1054 3.95386 15.6144 4.13586 17.0284C4.32086 18.4514 5.21486 19.6494 6.59186 20.3134C7.89486 20.9424 9.72986 21.3314 11.4649 21.2224C12.4779 21.1584 13.4579 20.9254 14.2779 20.4704C15.5089 19.7894 16.2409 18.6954 16.3939 17.3074C16.4539 16.7654 16.4939 16.2654 16.5299 15.7714C15.4269 16.6944 14.0599 17.2584 12.5799 17.3514C12.4339 17.3624 12.2889 17.3664 12.1449 17.3664Z" fill="#FFFFFF"/>
<path d="M12.1449 15.8664C12.2579 15.8664 12.3719 15.8624 12.4859 15.8554C14.2009 15.7474 15.6769 14.8424 16.5739 13.5234L16.6129 13.4554C16.5819 10.4674 15.9329 8.71644 14.6359 8.16644C13.7019 7.76944 10.9489 7.85644 7.23486 11.0254C7.11286 11.1294 7.00786 11.2364 6.89186 11.3414C7.29586 13.9294 9.51086 15.8664 12.1449 15.8664Z" fill="#65471B"/>
<path d="M16.6119 13.4554L16.5729 13.5234C15.6759 14.8424 14.1999 15.7474 12.4849 15.8554C12.3709 15.8624 12.2569 15.8664 12.1439 15.8664C9.50986 15.8664 7.29486 13.9294 6.89086 11.3424C6.42086 11.7714 6.00386 12.2084 5.64986 12.6514C6.55286 15.3964 9.13486 17.3664 12.1439 17.3664C12.2879 17.3664 12.4329 17.3614 12.5789 17.3524C14.0589 17.2594 15.4259 16.6954 16.5289 15.7724C16.5909 14.9314 16.6199 14.1584 16.6119 13.4554Z" fill="#F4900C"/>
<path d="M9.76686 12.3935C10.3769 12.3555 10.8409 11.8295 10.8019 11.2195C10.7639 10.6095 10.2379 10.1455 9.62786 10.1835C9.01786 10.2215 8.55386 10.7475 8.59186 11.3575C8.63086 11.9675 9.15686 12.4315 9.76686 12.3935Z" fill="#FFFFFF"/>
<path d="M20.9944 32.4775C20.8914 32.4775 20.7884 32.4615 20.6854 32.4285C18.9254 31.8575 17.0704 31.8575 15.3104 32.4285C14.7864 32.5975 14.2214 32.3115 14.0504 31.7865C13.8794 31.2615 14.1674 30.6975 14.6934 30.5265C16.8554 29.8245 19.1404 29.8245 21.3024 30.5265C21.8274 30.6975 22.1154 31.2615 21.9454 31.7865C21.8084 32.2075 21.4164 32.4775 20.9944 32.4775Z" fill="#65471B"/>
</g>
<defs>
<clipPath id="clip0">
<rect width="36" height="36" fill="#FFFFFF"/>
</clipPath>
</defs>
</svg>
