<svg width="36" height="36" viewBox="0 0 36 36" fill="none" xmlns="http://www.w3.org/2000/svg">
<g clip-path="url(#clip0)">
<path d="M35.734 19.929C35.375 16.66 35 15 34 13C34 13 37 4 35 0.300003C34.326 -0.945997 27.596 1.988 25 4C25 4 21 3.002 18 3.002C15 3.002 11 4 11 4C8.404 1.988 1.674 -0.945997 1 0.300003C-1 4 2 13 2 13C1 15 0.625 16.66 0.266 19.929C-0.129 23.513 0.657 26.37 1 27C1.39 27.716 3.367 30.025 6 32C10 35 16 36 18 36C20 36 26 35 30 32C32.633 30.025 34.61 27.716 35 27C35.343 26.37 36.129 23.513 35.734 19.929V19.929Z" fill="#FFCC4D"/>
<path fill-rule="evenodd" clip-rule="evenodd" d="M21.0918 3.25277C21.0662 3.4117 21.053 3.57478 21.053 3.74105C21.053 3.98105 21.083 4.21305 21.135 4.43705C21.56 7.08005 24.499 9.86805 26.605 10.634C28.27 10.029 30.451 8.15805 31.503 6.09505C30.3096 4.70122 28.9071 3.49209 27.3441 2.51611C26.4253 3.01793 25.6016 3.53373 25 4.00002C25 4.00002 23.1899 3.5484 21.0918 3.25277ZM13.657 28.118C13.657 28.378 13.624 28.63 13.567 28.872C13.263 30.764 11.769 32.72 10.132 34.071C6.71396 32.454 3.88796 29.792 2.06396 26.497C2.63296 25.488 3.70296 24.799 4.94396 24.799C6.05696 24.799 7.03896 25.349 7.64096 26.188C8.24396 25.348 9.22497 24.799 10.338 24.799C12.171 24.799 13.657 26.285 13.657 28.118ZM31.931 23.789C32.973 23.789 33.843 24.486 34.125 25.436C33.098 27.624 31.643 29.571 29.867 31.171C28.306 30.506 26.265 28.515 25.958 26.61C25.919 26.442 25.896 26.268 25.896 26.088C25.896 24.818 26.925 23.789 28.195 23.789C28.966 23.789 29.646 24.169 30.063 24.751C30.48 24.169 31.16 23.789 31.931 23.789Z" fill="#FFAC33"/>
<path d="M18 19.5C21 19.5 21 20 21 21C21 22 19.5 24 18 24C16.5 24 15 22 15 21C15 20 14.999 19.5 18 19.5Z" fill="#E75A70"/>
<path d="M1.99997 3.00003C2.44697 1.65803 7.63997 4.00003 8.63997 5.00003C8.63997 5.00003 3.99997 8.00003 2.99997 11C2.99997 11 0.999971 6.00003 1.99997 3.00003ZM34 3.00003C33.553 1.65803 28.36 4.00003 27.36 5.00003C27.36 5.00003 32 8.00003 33 11C33 11 35 6.00003 34 3.00003Z" fill="#F18F26"/>
<path d="M4.93402 5.603C4.93402 4.189 11 7 10 8C9.00002 9 8.00002 9.603 7.00002 10.603C6.00002 11.603 4.93402 6.603 4.93402 5.603ZM31.066 5.603C31.066 4.189 25 7 26 8C27 9 28 9.603 29 10.603C30 11.603 31.066 6.603 31.066 5.603V5.603Z" fill="#FFCC4D"/>
<path d="M0.700974 25C0.552974 25 0.406974 24.935 0.307974 24.81C0.136974 24.593 0.173974 24.279 0.390974 24.108C0.552974 23.981 4.41097 20.988 11.039 21.503C11.314 21.523 11.52 21.764 11.499 22.039C11.478 22.314 11.242 22.54 10.962 22.499C4.72897 22.025 1.04697 24.865 1.01097 24.894C0.917974 24.965 0.808974 25 0.700974 25V25ZM9.56897 20.337C9.51997 20.337 9.46897 20.33 9.41997 20.315C4.62997 18.818 0.682974 19.968 0.642974 19.979C0.377974 20.06 0.0999735 19.909 0.0199735 19.644C-0.0590265 19.379 0.0909735 19.101 0.354974 19.022C0.527974 18.97 4.64097 17.775 9.71697 19.36C9.98097 19.443 10.128 19.723 10.045 19.987C9.97897 20.2 9.78197 20.337 9.56897 20.337V20.337ZM35.299 25C35.447 25 35.593 24.935 35.692 24.81C35.863 24.593 35.826 24.279 35.609 24.108C35.447 23.981 31.589 20.988 24.961 21.503C24.686 21.523 24.48 21.764 24.501 22.039C24.522 22.314 24.758 22.54 25.038 22.499C31.271 22.025 34.953 24.865 34.989 24.894C35.082 24.965 35.191 25 35.299 25V25ZM26.431 20.337C26.48 20.337 26.531 20.33 26.58 20.315C31.37 18.818 35.317 19.968 35.357 19.979C35.622 20.06 35.9 19.909 35.98 19.644C36.059 19.379 35.909 19.101 35.645 19.022C35.472 18.97 31.359 17.775 26.283 19.36C26.019 19.443 25.872 19.723 25.955 19.987C26.02 20.2 26.218 20.337 26.431 20.337V20.337Z" fill="#FEE7B8"/>
<path d="M28.416 17.723C28.355 17.632 26.901 15.5 24 15.5C21.1 15.5 19.645 17.632 19.584 17.723C19.449 17.925 19.48 18.193 19.655 18.361C19.829 18.528 20.101 18.546 20.298 18.403C20.31 18.393 21.56 17.5 24 17.5C26.426 17.5 27.674 18.381 27.702 18.401C27.791 18.467 27.896 18.5 28 18.5C28.124 18.5 28.248 18.454 28.344 18.363C28.521 18.196 28.551 17.925 28.416 17.723V17.723ZM16.416 17.723C16.355 17.632 14.901 15.5 12 15.5C9.10001 15.5 7.64501 17.632 7.58401 17.723C7.45001 17.925 7.48001 18.193 7.65501 18.361C7.83001 18.528 8.10201 18.546 8.29701 18.403C8.31001 18.393 9.55901 17.5 12 17.5C14.426 17.5 15.674 18.381 15.702 18.401C15.791 18.467 15.896 18.5 16 18.5C16.124 18.5 16.248 18.454 16.344 18.363C16.521 18.196 16.551 17.925 16.416 17.723V17.723ZM31.001 16C30.696 16 30.397 15.862 30.2 15.6C27.559 12.079 24.139 12.001 23.994 12C23.444 11.994 23 11.544 23.003 10.995C23.006 10.444 23.45 10 24 10C24.184 10 28.537 10.05 31.8 14.4C32.132 14.842 32.042 15.469 31.6 15.8C31.42 15.935 31.21 16 31.001 16V16ZM4.99901 16C4.79101 16 4.58001 15.935 4.40001 15.8C3.95801 15.469 3.86901 14.842 4.20001 14.4C7.46201 10.05 11.816 10 12 10C12.552 10 13 10.448 13 11C13 11.551 12.555 11.998 12.004 12C11.848 12.002 8.43501 12.086 5.79901 15.6C5.60401 15.862 5.30301 16 4.99901 16Z" fill="#292F33"/>
<path d="M24.8614 26.7218C24.3784 27.3598 21.4464 31.0018 17.4994 31.0018C13.2654 31.0018 10.1994 26.8108 10.0714 26.6318C9.95038 26.4648 9.98638 26.2508 10.1554 26.1158C10.2494 26.0408 10.3744 26.0018 10.4994 26.0018C10.5954 26.0018 10.6924 26.0248 10.7764 26.0718C10.8054 26.0878 13.6944 27.6688 17.4984 27.6688C21.2904 27.6688 24.1934 26.0878 24.2214 26.0718C24.3074 26.0238 24.4364 25.9918 24.5024 26.0018C24.7794 26.0048 25.0184 26.1838 25.0184 26.4188C25.0194 26.5378 24.9594 26.6448 24.8614 26.7218Z" fill="#292F33"/>
<path d="M33.449 3.063C33.449 1.371 32.077 0 30.386 0C29.359 0 28.453 0.507 27.897 1.282C27.341 0.507 26.435 0 25.408 0C23.716 0 22.345 1.371 22.345 3.063C22.345 3.303 22.375 3.535 22.427 3.759C22.853 6.402 25.791 9.19 27.897 9.956C30.003 9.19 32.941 6.402 33.366 3.76C33.419 3.535 33.449 3.303 33.449 3.063V3.063ZM12.032 28.202C12.032 26.369 10.546 24.883 8.713 24.883C7.6 24.883 6.619 25.432 6.016 26.272C5.414 25.432 4.432 24.883 3.319 24.883C1.486 24.883 0 26.369 0 28.202C0 28.462 0.033 28.713 0.089 28.956C0.55 31.819 3.733 34.84 6.015 35.67C8.297 34.841 11.48 31.82 11.941 28.957C11.999 28.713 12.032 28.461 12.032 28.202V28.202ZM35.772 25.921C35.772 24.651 34.743 23.622 33.473 23.622C32.702 23.622 32.022 24.002 31.605 24.584C31.188 24.002 30.508 23.622 29.737 23.622C28.467 23.622 27.438 24.651 27.438 25.921C27.438 26.101 27.461 26.275 27.5 26.443C27.819 28.426 30.024 30.519 31.605 31.093C33.185 30.519 35.391 28.426 35.709 26.443C35.749 26.275 35.772 26.101 35.772 25.921V25.921Z" fill="#DD2E44"/>
</g>
<defs>
<clipPath id="clip0">
<rect width="36" height="36" fill="#FFFFFF"/>
</clipPath>
</defs>
</svg>
