<svg width="36" height="36" viewBox="0 0 36 36" fill="none" xmlns="http://www.w3.org/2000/svg">
<g clip-path="url(#clip0)">
<path d="M35.734 19.929C35.375 16.66 35 15 34 13C34 13 37 4 35 0.300003C34.326 -0.945997 27.596 1.988 25 4C25 4 21 3.002 18 3.002C15 3.002 11 4 11 4C8.404 1.988 1.674 -0.945997 1 0.300003C-1 4 2 13 2 13C1 15 0.625 16.66 0.266 19.929C-0.129 23.513 0.657 26.37 1 27C1.39 27.716 3.367 30.025 6 32C10 35 16 36 18 36C20 36 26 35 30 32C32.633 30.025 34.61 27.716 35 27C35.343 26.37 36.129 23.513 35.734 19.929V19.929Z" fill="#FFCC4D"/>
<path d="M18 19.5C21 19.5 21 20 21 21C21 22 19.5 24 18 24C16.5 24 15 22 15 21C15 20 14.999 19.5 18 19.5Z" fill="#E75A70"/>
<path d="M2 3.00003C2.447 1.65803 7.64 4.00003 8.64 5.00003C8.64 5.00003 4 8.00003 3 11C3 11 1 6.00003 2 3.00003ZM34 3.00003C33.553 1.65803 28.36 4.00003 27.36 5.00003C27.36 5.00003 32 8.00003 33 11C33 11 35 6.00003 34 3.00003Z" fill="#F18F26"/>
<path d="M4.934 5.603C4.934 4.189 11 7 10 8C9 9 8 9.603 7 10.603C6 11.603 4.934 6.603 4.934 5.603ZM31.066 5.603C31.066 4.189 25 7 26 8C27 9 28 9.603 29 10.603C30 11.603 31.066 6.603 31.066 5.603V5.603Z" fill="#FFCC4D"/>
<path d="M0.701 25C0.553 25 0.407 24.935 0.308 24.81C0.137 24.593 0.174 24.279 0.391 24.108C0.553 23.981 4.411 20.988 11.039 21.503C11.314 21.523 11.52 21.764 11.499 22.039C11.478 22.314 11.242 22.54 10.962 22.499C4.729 22.025 1.047 24.865 1.011 24.894C0.918 24.965 0.809 25 0.701 25V25ZM9.569 20.337C9.52 20.337 9.469 20.33 9.42 20.315C4.63 18.818 0.683 19.968 0.643 19.979C0.378 20.06 0.1 19.909 0.0200002 19.644C-0.0589998 19.379 0.0910002 19.101 0.355 19.022C0.528 18.97 4.641 17.775 9.717 19.36C9.981 19.443 10.128 19.723 10.045 19.987C9.979 20.2 9.782 20.337 9.569 20.337V20.337ZM35.299 25C35.447 25 35.593 24.935 35.692 24.81C35.863 24.593 35.826 24.279 35.609 24.108C35.447 23.981 31.589 20.988 24.961 21.503C24.686 21.523 24.48 21.764 24.501 22.039C24.522 22.314 24.758 22.54 25.038 22.499C31.271 22.025 34.953 24.865 34.989 24.894C35.082 24.965 35.191 25 35.299 25V25ZM26.431 20.337C26.48 20.337 26.531 20.33 26.58 20.315C31.37 18.818 35.317 19.968 35.357 19.979C35.622 20.06 35.9 19.909 35.98 19.644C36.059 19.379 35.909 19.101 35.645 19.022C35.472 18.97 31.359 17.775 26.283 19.36C26.019 19.443 25.872 19.723 25.955 19.987C26.02 20.2 26.218 20.337 26.431 20.337V20.337Z" fill="#FEE7B8"/>
<path d="M30.3198 9.65143C29.4168 12.3964 26.8348 14.3664 23.8258 14.3664C23.6818 14.3664 23.5368 14.3614 23.3908 14.3524C21.9138 14.2594 20.5488 13.6974 19.4408 12.7684C19.4768 13.2634 19.5168 13.7654 19.5768 14.3084C19.7288 15.6964 20.4608 16.7904 21.6928 17.4714C22.5128 17.9254 23.4928 18.1594 24.5058 18.2234C26.2398 18.3324 28.0758 17.9434 29.3788 17.3144C30.7558 16.6494 31.6508 15.4524 31.8348 14.0294C32.0178 12.6144 31.4808 11.1054 30.3198 9.65143V9.65143Z" fill="#FFFFFF"/>
<path d="M21.3358 5.16643C20.0388 5.71643 19.3888 7.46743 19.3588 10.4554L19.3978 10.5234C20.2948 11.8424 21.7708 12.7474 23.4858 12.8554C23.5998 12.8624 23.7138 12.8664 23.8268 12.8664C26.4608 12.8664 28.6758 10.9294 29.0798 8.34243C28.9648 8.23743 28.8588 8.13043 28.7368 8.02643C25.0218 4.85643 22.2698 4.76943 21.3358 5.16643V5.16643Z" fill="#65471B"/>
<path d="M23.8258 14.3664C26.8348 14.3664 29.4168 12.3964 30.3198 9.65141C29.9658 9.20841 29.5488 8.77141 29.0788 8.34241C28.6748 10.9294 26.4598 12.8664 23.8258 12.8664C23.7128 12.8664 23.5988 12.8624 23.4848 12.8554C21.7698 12.7474 20.2938 11.8424 19.3968 10.5234L19.3578 10.4554C19.3508 11.1564 19.3788 11.9284 19.4408 12.7684C20.5488 13.6974 21.9138 14.2594 23.3908 14.3524C23.5368 14.3624 23.6818 14.3664 23.8258 14.3664V14.3664Z" fill="#F4900C"/>
<path d="M21.3978 9.39546C22.0092 9.39546 22.5048 8.89984 22.5048 8.28846C22.5048 7.67708 22.0092 7.18146 21.3978 7.18146C20.7864 7.18146 20.2908 7.67708 20.2908 8.28846C20.2908 8.89984 20.7864 9.39546 21.3978 9.39546Z" fill="#FFFFFF"/>
<path d="M12.1438 14.3664C9.13479 14.3664 6.55279 12.3964 5.64979 9.65143C4.48879 11.1054 3.95279 12.6144 4.13479 14.0284C4.31979 15.4514 5.21379 16.6494 6.59079 17.3134C7.89379 17.9424 9.72879 18.3314 11.4638 18.2224C12.4768 18.1584 13.4568 17.9254 14.2768 17.4704C15.5078 16.7894 16.2398 15.6954 16.3928 14.3074C16.4528 13.7654 16.4928 13.2654 16.5288 12.7714C15.4258 13.6944 14.0588 14.2584 12.5788 14.3514C12.4328 14.3624 12.2878 14.3664 12.1438 14.3664V14.3664Z" fill="#FFFFFF"/>
<path d="M12.1438 12.8664C12.2568 12.8664 12.3708 12.8624 12.4848 12.8554C14.1998 12.7474 15.6758 11.8424 16.5728 10.5234L16.6118 10.4554C16.5808 7.46744 15.9318 5.71644 14.6348 5.16644C13.7008 4.76944 10.9478 4.85644 7.23379 8.02544C7.11179 8.12944 7.00679 8.23644 6.89079 8.34144C7.29479 10.9294 9.50979 12.8664 12.1438 12.8664V12.8664Z" fill="#65471B"/>
<path d="M16.6108 10.4554L16.5718 10.5234C15.6748 11.8424 14.1988 12.7474 12.4838 12.8554C12.3698 12.8624 12.2558 12.8664 12.1428 12.8664C9.50879 12.8664 7.29379 10.9294 6.88979 8.34241C6.41979 8.77141 6.00279 9.20841 5.64879 9.65141C6.55179 12.3964 9.13379 14.3664 12.1428 14.3664C12.2868 14.3664 12.4318 14.3614 12.5778 14.3524C14.0578 14.2594 15.4248 13.6954 16.5278 12.7724C16.5898 11.9314 16.6188 11.1584 16.6108 10.4554V10.4554Z" fill="#F4900C"/>
<path d="M9.76579 9.39345C10.3758 9.35545 10.8398 8.82945 10.8008 8.21945C10.7628 7.60945 10.2368 7.14545 9.62679 7.18345C9.01679 7.22145 8.55279 7.74745 8.59079 8.35745C8.62979 8.96745 9.15579 9.43145 9.76579 9.39345V9.39345Z" fill="#FFFFFF"/>
<path d="M20.9933 29.4775C20.8903 29.4775 20.7873 29.4615 20.6843 29.4285C18.9243 28.8575 17.0693 28.8575 15.3093 29.4285C14.7853 29.5975 14.2203 29.3115 14.0493 28.7865C13.8783 28.2615 14.1663 27.6975 14.6923 27.5265C16.8543 26.8245 19.1393 26.8245 21.3013 27.5265C21.8263 27.6975 22.1143 28.2615 21.9443 28.7865C21.8073 29.2075 21.4153 29.4775 20.9933 29.4775Z" fill="#65471B"/>
</g>
<defs>
<clipPath id="clip0">
<rect width="36" height="36" fill="#FFFFFF"/>
</clipPath>
</defs>
</svg>
