<svg width="36" height="36" viewBox="0 0 36 36" fill="none" xmlns="http://www.w3.org/2000/svg">
<g clip-path="url(#clip0)">
<path d="M35.734 19.929C35.375 16.66 35 15 34 13C34 13 37 4 35 0.300003C34.326 -0.945997 27.596 1.988 25 4C25 4 21 3.002 18 3.002C15 3.002 11 4 11 4C8.404 1.988 1.674 -0.945997 1 0.300003C-1 4 2 13 2 13C1 15 0.625 16.66 0.266 19.929C-0.129 23.513 0.657 26.37 1 27C1.39 27.716 3.367 30.025 6 32C10 35 16 36 18 36C20 36 26 35 30 32C32.633 30.025 34.61 27.716 35 27C35.343 26.37 36.129 23.513 35.734 19.929V19.929Z" fill="#FFCC4D"/>
<path d="M18 15C21 15 21 15.5 21 16.5C21 17.5 19.5 19.5 18 19.5C16.5 19.5 15 17.5 15 16.5C15 15.5 14.999 15 18 15Z" fill="#E75A70"/>
<path d="M1.99997 3.00003C2.44697 1.65803 7.63997 4.00003 8.63997 5.00003C8.63997 5.00003 3.99997 8.00003 2.99997 11C2.99997 11 0.999971 6.00003 1.99997 3.00003ZM34 3.00003C33.553 1.65803 28.36 4.00003 27.36 5.00003C27.36 5.00003 32 8.00003 33 11C33 11 35 6.00003 34 3.00003Z" fill="#F18F26"/>
<path d="M4.93402 5.603C4.93402 4.189 11 7 10 8C9.00002 9 8.00002 9.603 7.00002 10.603C6.00002 11.603 4.93402 6.603 4.93402 5.603ZM31.066 5.603C31.066 4.189 25 7 26 8C27 9 28 9.603 29 10.603C30 11.603 31.066 6.603 31.066 5.603V5.603Z" fill="#FFCC4D"/>
<path d="M0.700974 25C0.552974 25 0.406974 24.935 0.307974 24.81C0.136974 24.593 0.173974 24.279 0.390974 24.108C0.552974 23.981 4.41097 20.988 11.039 21.503C11.314 21.523 11.52 21.764 11.499 22.039C11.478 22.314 11.242 22.54 10.962 22.499C4.72897 22.025 1.04697 24.865 1.01097 24.894C0.917974 24.965 0.808974 25 0.700974 25V25ZM9.56897 20.337C9.51997 20.337 9.46897 20.33 9.41997 20.315C4.62997 18.818 0.682974 19.968 0.642974 19.979C0.377974 20.06 0.0999735 19.909 0.0199735 19.644C-0.0590265 19.379 0.0909735 19.101 0.354974 19.022C0.527974 18.97 4.64097 17.775 9.71697 19.36C9.98097 19.443 10.128 19.723 10.045 19.987C9.97897 20.2 9.78197 20.337 9.56897 20.337V20.337ZM35.299 25C35.447 25 35.593 24.935 35.692 24.81C35.863 24.593 35.826 24.279 35.609 24.108C35.447 23.981 31.589 20.988 24.961 21.503C24.686 21.523 24.48 21.764 24.501 22.039C24.522 22.314 24.758 22.54 25.038 22.499C31.271 22.025 34.953 24.865 34.989 24.894C35.082 24.965 35.191 25 35.299 25V25ZM26.431 20.337C26.48 20.337 26.531 20.33 26.58 20.315C31.37 18.818 35.317 19.968 35.357 19.979C35.622 20.06 35.9 19.909 35.98 19.644C36.059 19.379 35.909 19.101 35.645 19.022C35.472 18.97 31.359 17.775 26.283 19.36C26.019 19.443 25.872 19.723 25.955 19.987C26.02 20.2 26.218 20.337 26.431 20.337V20.337Z" fill="#FEE7B8"/>
<path d="M10.8033 11.285C8.54835 11.889 7.32335 13.25 7.24835 13.335C6.88435 13.75 6.92535 14.382 7.33935 14.747C7.75435 15.112 8.38535 15.072 8.75035 14.656C8.82935 14.569 10.8403 12.403 14.5603 13.164C15.1023 13.275 15.6303 12.925 15.7403 12.385C15.8513 11.844 15.5023 11.315 14.9613 11.205C13.3263 10.869 11.9353 10.982 10.8033 11.285V11.285ZM24.7713 11.286C23.6393 10.983 22.2483 10.87 20.6123 11.204C20.0713 11.315 19.7223 11.843 19.8333 12.384C19.9453 12.925 20.4723 13.274 21.0133 13.163C24.7373 12.401 26.7443 14.568 26.8273 14.66C27.1943 15.067 27.8273 15.104 28.2373 14.738C28.6473 14.372 28.6883 13.747 28.3253 13.334C28.2503 13.25 27.0253 11.89 24.7713 11.286V11.286Z" fill="#292F33"/>
<path d="M18 21C15.791 21 14 22.791 14 25V31C14 33.209 15.791 35 18 35C20.209 35 22 33.209 22 31V25C22 22.791 20.209 21 18 21Z" fill="#292F33"/>
<path d="M26.4669 27.0021C26.4669 27.0021 27.4639 26.2811 26.6319 25.3881C25.7999 24.4951 25.0109 25.4401 25.0109 25.4401L20.8629 29.3061C20.7939 29.1011 20.4039 28.5631 20.3129 28.3591L26.0679 22.9931C26.0679 22.9931 27.0659 22.2721 26.2319 21.3781C25.3999 20.4861 24.6099 21.4291 24.6099 21.4291L19.1969 26.4751C19.0719 26.3171 18.7359 25.9351 18.6029 25.7771L24.8789 19.9271C24.8789 19.9271 25.8759 19.2051 25.0429 18.3131C24.2109 17.4201 23.4219 18.3641 23.4219 18.3641L17.1439 24.2121C16.9939 24.0671 16.5319 23.6031 16.3799 23.4661L22.2459 17.9981C22.2459 17.9981 23.2419 17.2761 22.4099 16.3841C21.5769 15.4911 20.7889 16.4351 20.7889 16.4351L14.5859 22.2161L14.0889 22.6801L13.8689 22.8871C13.8689 22.8871 13.3309 23.6311 12.7819 23.0661L14.6239 18.9081C14.6239 18.9081 15.2039 17.8341 14.1309 17.2531C13.0559 16.6721 12.4759 17.7461 12.4759 17.7461L10.8079 20.5041C10.1449 21.5971 9.45885 22.6821 8.64885 23.6711C6.36485 26.4641 6.43785 30.5851 8.96685 33.3001C11.7259 36.2591 16.3629 36.4221 19.3219 33.6641L19.7689 33.2461L26.4669 27.0021Z" fill="#F4900C"/>
</g>
<defs>
<clipPath id="clip0">
<rect width="36" height="36" fill="#FFFFFF"/>
</clipPath>
</defs>
</svg>
