<svg width="36" height="36" viewBox="0 0 36 36" fill="none" xmlns="http://www.w3.org/2000/svg">
<g clip-path="url(#clip0)">
<path d="M35.734 19.929C35.375 16.66 35 15 34 13C34 13 37 4 35 0.300003C34.326 -0.945997 27.596 1.988 25 4C25 4 21 3.002 18 3.002C15 3.002 11 4 11 4C8.404 1.988 1.674 -0.945997 1 0.300003C-1 4 2 13 2 13C1 15 0.625 16.66 0.266 19.929C-0.129 23.513 0.657 26.37 1 27C1.39 27.716 3.367 30.025 6 32C10 35 16 36 18 36C20 36 26 35 30 32C32.633 30.025 34.61 27.716 35 27C35.343 26.37 36.129 23.513 35.734 19.929V19.929Z" fill="#EA596E"/>
<path d="M18 19.5C21 19.5 21 20 21 21C21 22 19.5 24 18 24C16.5 24 15 22 15 21C15 20 14.999 19.5 18 19.5Z" fill="#E12D49"/>
<path d="M2 3.00003C2.447 1.65803 7.64 4.00003 8.64 5.00003C8.64 5.00003 4 8.00003 3 11C3 11 1 6.00003 2 3.00003ZM34 3.00003C33.553 1.65803 28.36 4.00003 27.36 5.00003C27.36 5.00003 32 8.00003 33 11C33 11 35 6.00003 34 3.00003Z" fill="#E12D49"/>
<path d="M4.93399 5.603C4.93399 4.189 11 7 9.99999 8C8.99999 9 7.99999 9.603 6.99999 10.603C5.99999 11.603 4.93399 6.603 4.93399 5.603ZM31.066 5.603C31.066 4.189 25 7 26 8C27 9 28 9.603 29 10.603C30 11.603 31.066 6.603 31.066 5.603V5.603Z" fill="#EA596E"/>
<path d="M0.701004 25C0.553004 25 0.407004 24.935 0.308004 24.81C0.137004 24.593 0.174004 24.279 0.391004 24.108C0.553004 23.981 4.411 20.988 11.039 21.503C11.314 21.523 11.52 21.764 11.499 22.039C11.478 22.314 11.242 22.54 10.962 22.499C4.729 22.025 1.047 24.865 1.011 24.894C0.918004 24.965 0.809004 25 0.701004 25V25ZM9.569 20.337C9.52 20.337 9.469 20.33 9.42 20.315C4.63 18.818 0.683004 19.968 0.643004 19.979C0.378004 20.06 0.100004 19.909 0.0200041 19.644C-0.0589959 19.379 0.091004 19.101 0.355004 19.022C0.528004 18.97 4.641 17.775 9.717 19.36C9.981 19.443 10.128 19.723 10.045 19.987C9.979 20.2 9.782 20.337 9.569 20.337V20.337ZM35.299 25C35.447 25 35.593 24.935 35.692 24.81C35.863 24.593 35.826 24.279 35.609 24.108C35.447 23.981 31.589 20.988 24.961 21.503C24.686 21.523 24.48 21.764 24.501 22.039C24.522 22.314 24.758 22.54 25.038 22.499C31.271 22.025 34.953 24.865 34.989 24.894C35.082 24.965 35.191 25 35.299 25V25ZM26.431 20.337C26.48 20.337 26.531 20.33 26.58 20.315C31.37 18.818 35.317 19.968 35.357 19.979C35.622 20.06 35.9 19.909 35.98 19.644C36.059 19.379 35.909 19.101 35.645 19.022C35.472 18.97 31.359 17.775 26.283 19.36C26.019 19.443 25.872 19.723 25.955 19.987C26.02 20.2 26.218 20.337 26.431 20.337V20.337Z" fill="#FEE7B8"/>
<path d="M28.803 11.937C23.249 11.937 21.001 7.57004 20.908 7.38404C20.661 6.89004 20.861 6.28904 21.355 6.04204C21.848 5.79504 22.447 5.99404 22.695 6.48504C22.77 6.63104 24.516 9.93704 28.803 9.93704C29.356 9.93704 29.803 10.385 29.803 10.937C29.803 11.489 29.356 11.937 28.803 11.937ZM6.80301 11.937C6.25101 11.937 5.80301 11.489 5.80301 10.937C5.80301 10.385 6.25101 9.93704 6.80301 9.93704C11.886 9.93704 12.799 6.81704 12.836 6.68404C12.981 6.15604 13.528 5.83604 14.055 5.97504C14.585 6.11404 14.906 6.64804 14.773 7.18004C14.724 7.37404 13.507 11.937 6.80301 11.937Z" fill="#292F33"/>
<path d="M11.803 19.937C13.1837 19.937 14.303 18.37 14.303 16.437C14.303 14.504 13.1837 12.937 11.803 12.937C10.4223 12.937 9.30301 14.504 9.30301 16.437C9.30301 18.37 10.4223 19.937 11.803 19.937Z" fill="#292F33"/>
<path d="M23.803 19.937C25.1837 19.937 26.303 18.37 26.303 16.437C26.303 14.504 25.1837 12.937 23.803 12.937C22.4223 12.937 21.303 14.504 21.303 16.437C21.303 18.37 22.4223 19.937 23.803 19.937Z" fill="#292F33"/>
<path d="M35.709 11.999C35.709 14.813 33.429 17.093 30.615 17.093C27.801 17.093 25.521 14.813 25.521 11.999C25.521 9.185 29.596 1.811 30.615 1.811C31.634 1.811 35.709 9.186 35.709 11.999V11.999ZM8.376 8.375C8.376 10.688 6.501 12.563 4.188 12.563C1.875 12.563 0 10.688 0 8.375C0 6.062 3.35 0 4.188 0C5.026 0 8.376 6.062 8.376 8.375Z" fill="#5DADEC"/>
<path d="M26.125 32.2621C26.097 32.2621 26.068 32.2591 26.041 32.2521C17.617 30.3101 10.045 32.2301 9.969 32.2501C9.858 32.2781 9.738 32.2551 9.645 32.1841C9.554 32.1121 9.5 32.0031 9.5 31.8871C9.5 28.7091 13.213 25.0151 18 25.0151C22.787 25.0151 26.5 28.7091 26.5 31.8871C26.5 32.0011 26.448 32.1101 26.358 32.1811C26.291 32.2331 26.209 32.2621 26.125 32.2621Z" fill="#292F33"/>
<path d="M18.629 26.0801V26.9071L17.538 26.9081V26.0711C15.261 26.1981 13.347 27.2331 12.083 28.5871L12.091 29.0481C12.177 31.9801 14.171 34.8501 18.083 34.8501C21.982 34.8501 23.975 31.9991 24.074 29.0771L24.083 28.7931C22.854 27.3781 20.938 26.2561 18.629 26.0801V26.0801Z" fill="#F4ABBA"/>
<path d="M18 26.0501C17.843 26.0501 17.692 26.0641 17.538 26.0721V30.5191C17.538 30.8201 17.782 31.0641 18.083 31.0641C18.384 31.0641 18.628 30.8201 18.628 30.5191V26.0811C18.421 26.0641 18.214 26.0501 18 26.0501V26.0501Z" fill="#EA596E"/>
</g>
<defs>
<clipPath id="clip0">
<rect width="36" height="36" fill="#FFFFFF"/>
</clipPath>
</defs>
</svg>
