<svg width="36" height="36" viewBox="0 0 36 36" fill="none" xmlns="http://www.w3.org/2000/svg">
<g clip-path="url(#clip0)">
<path d="M35.734 19.929C35.375 16.66 35 15 34 13C34 13 37 4 35 0.300003C34.326 -0.945997 27.596 1.988 25 4C25 4 21 3.002 18 3.002C15 3.002 11 4 11 4C8.404 1.988 1.674 -0.945997 1 0.300003C-1 4 2 13 2 13C1 15 0.625 16.66 0.266 19.929C-0.129 23.513 0.657 26.37 1 27C1.39 27.716 3.367 30.025 6 32C10 35 16 36 18 36C20 36 26 35 30 32C32.633 30.025 34.61 27.716 35 27C35.343 26.37 36.129 23.513 35.734 19.929V19.929Z" fill="#50A5E6"/>
<path fill-rule="evenodd" clip-rule="evenodd" d="M31.2415 31.0072C32.1155 30.2646 32.8814 29.5196 33.494 28.8664C33.4698 29.1062 33.4448 29.359 33.42 29.61L33.42 29.6101C33.3347 30.4744 33.2515 31.3169 33.2088 31.5358C33.1525 31.8255 33.1203 32.0592 33.0902 32.277L33.0902 32.2772L33.0901 32.2773C33.0637 32.4687 33.039 32.6479 33.0011 32.8422C32.9546 33.0822 32.9199 33.3358 32.8868 33.5786C32.7959 34.245 32.716 34.8302 32.4304 34.8302C32.0417 34.8302 31.8131 34.1824 31.6378 33.2828C31.6002 33.0898 31.5588 32.9021 31.5147 32.7019L31.5146 32.7015L31.5145 32.7011L31.5145 32.7011C31.4634 32.4695 31.4086 32.2212 31.3519 31.929C31.3196 31.7624 31.2817 31.4107 31.2415 31.0072ZM1.56403 27.7914C2.17842 28.5535 3.20419 29.6544 4.48601 30.7726C4.38307 32.7416 4.32775 32.9435 4.26995 33.1544C4.2605 33.1888 4.25098 33.2236 4.24118 33.2663C4.22613 33.3329 4.20262 33.4898 4.17162 33.6967C4.05343 34.4854 3.82646 36 3.54569 36C3.20956 36 3.03711 35.2353 2.90643 34.6558L2.88545 34.563L2.67108 33.6169C2.63887 33.4756 2.6111 33.3282 2.5824 33.1759C2.5517 33.013 2.51994 32.8444 2.48054 32.6717C2.44666 32.5216 2.34841 31.9087 2.24903 31.2887L2.24901 31.2886L2.24899 31.2884C2.14716 30.6532 2.04415 30.0106 2.00799 29.8509C1.97286 29.6954 1.86862 29.2092 1.76265 28.715L1.76262 28.7149C1.69 28.3762 1.61657 28.0338 1.56403 27.7914Z" fill="#BBDDF5"/>
<path d="M18 19.5C21 19.5 21 20 21 21C21 22 19.5 24 18 24C16.5 24 15 22 15 21C15 20 14.999 19.5 18 19.5Z" fill="#E75A70"/>
<path d="M2 3.00003C2.447 1.65803 7.64 4.00003 8.64 5.00003C8.64 5.00003 4 8.00003 3 11C3 11 1 6.00003 2 3.00003ZM34 3.00003C33.553 1.65803 28.36 4.00003 27.36 5.00003C27.36 5.00003 32 8.00003 33 11C33 11 35 6.00003 34 3.00003Z" fill="#1C6399"/>
<path d="M4.93399 5.603C4.93399 4.189 11 7 9.99999 8C8.99999 9 7.99999 9.603 6.99999 10.603C5.99999 11.603 4.93399 6.603 4.93399 5.603ZM31.066 5.603C31.066 4.189 25 7 26 8C27 9 28 9.603 29 10.603C30 11.603 31.066 6.603 31.066 5.603V5.603Z" fill="#50A5E6"/>
<path d="M0.701004 25C0.553004 25 0.407004 24.935 0.308004 24.81C0.137004 24.593 0.174004 24.279 0.391004 24.108C0.553004 23.981 4.411 20.988 11.039 21.503C11.314 21.523 11.52 21.764 11.499 22.039C11.478 22.314 11.242 22.54 10.962 22.499C4.729 22.025 1.047 24.865 1.011 24.894C0.918004 24.965 0.809004 25 0.701004 25V25ZM9.569 20.337C9.52 20.337 9.469 20.33 9.42 20.315C4.63 18.818 0.683004 19.968 0.643004 19.979C0.378004 20.06 0.100004 19.909 0.0200041 19.644C-0.0589959 19.379 0.091004 19.101 0.355004 19.022C0.528004 18.97 4.641 17.775 9.717 19.36C9.981 19.443 10.128 19.723 10.045 19.987C9.979 20.2 9.782 20.337 9.569 20.337V20.337ZM35.299 25C35.447 25 35.593 24.935 35.692 24.81C35.863 24.593 35.826 24.279 35.609 24.108C35.447 23.981 31.589 20.988 24.961 21.503C24.686 21.523 24.48 21.764 24.501 22.039C24.522 22.314 24.758 22.54 25.038 22.499C31.271 22.025 34.953 24.865 34.989 24.894C35.082 24.965 35.191 25 35.299 25V25ZM26.431 20.337C26.48 20.337 26.531 20.33 26.58 20.315C31.37 18.818 35.317 19.968 35.357 19.979C35.622 20.06 35.9 19.909 35.98 19.644C36.059 19.379 35.909 19.101 35.645 19.022C35.472 18.97 31.359 17.775 26.283 19.36C26.019 19.443 25.872 19.723 25.955 19.987C26.02 20.2 26.218 20.337 26.431 20.337V20.337Z" fill="#FEE7B8"/>
<path d="M11.999 19.3138C13.3797 19.3138 14.499 17.7468 14.499 15.8138C14.499 13.8808 13.3797 12.3138 11.999 12.3138C10.6183 12.3138 9.49899 13.8808 9.49899 15.8138C9.49899 17.7468 10.6183 19.3138 11.999 19.3138Z" fill="#1C6399"/>
<path d="M23.999 19.3138C25.3797 19.3138 26.499 17.7468 26.499 15.8138C26.499 13.8808 25.3797 12.3138 23.999 12.3138C22.6183 12.3138 21.499 13.8808 21.499 15.8138C21.499 17.7468 22.6183 19.3138 23.999 19.3138Z" fill="#1C6399"/>
<path d="M23.7273 25.5C25.5346 25.5 27 27.0671 27 29C27 30.9329 25.5346 32.5 23.7273 32.5H12.2727C10.4654 32.5 9 30.9329 9 29C9 27.0671 10.4654 25.5 12.2727 25.5H23.7273Z" fill="#FFFFFF"/>
<path d="M24.125 25H11.875C9.46262 25 7.5 26.7944 7.5 29C7.5 31.2056 9.46262 33 11.875 33H24.125C26.5374 33 28.5 31.2056 28.5 29C28.5 26.7944 26.5374 25 24.125 25ZM24.125 26.6C25.4226 26.6 26.4962 27.4672 26.7054 28.6H23.6875V26.6H24.125ZM22.8125 26.6V28.6H20.1875V26.6H22.8125ZM19.3125 26.6V28.6H16.6875V26.6H19.3125ZM15.8125 26.6V28.6H13.1875V26.6H15.8125ZM11.875 26.6H12.3125V28.6H9.29375C9.50375 27.468 10.5774 26.6 11.875 26.6ZM11.875 31.4C10.5774 31.4 9.50375 30.5328 9.29463 29.4H12.3125V31.4H11.875ZM13.1875 31.4V29.4H15.8125V31.4H13.1875ZM16.6875 31.4V29.4H19.3125V31.4H16.6875ZM20.1875 31.4V29.4H22.8125V31.4H20.1875ZM24.125 31.4H23.6875V29.4H26.7054C26.4962 30.5328 25.4226 31.4 24.125 31.4Z" fill="#1C6399"/>
<path d="M6 12.0008C5.448 12.0008 5 11.5528 5 11.0008C5 10.4498 5.445 10.0028 5.996 10.0008C6.152 9.99881 9.565 9.91481 12.201 6.40081C12.532 5.96081 13.158 5.86881 13.601 6.20081C14.043 6.53181 14.132 7.15881 13.801 7.60081C10.538 11.9508 6.184 12.0008 6 12.0008V12.0008ZM30 12.0008C29.816 12.0008 25.463 11.9508 22.2 7.60081C21.868 7.15881 21.958 6.53181 22.4 6.20081C22.841 5.86781 23.467 5.95881 23.799 6.40081C26.44 9.92181 29.861 9.99981 30.005 10.0008C30.555 10.0068 30.999 10.4568 30.996 11.0058C30.994 11.5568 30.55 12.0008 30 12.0008V12.0008Z" fill="#1C6399"/>
<path d="M6 10C6 10 6.61101 9.898 7.29749 9.753C7.74429 9.659 8.09838 9.294 8.82924 9.024C9.58969 8.743 10.0789 8.5 10.0789 8.5C10.0789 8.5 10.141 9.805 9.9714 10.456C9.8343 10.981 9.7623 11.659 9.69917 12.036C9.63013 12.444 9.59166 12.925 9.50487 13.44C9.42991 13.885 9.29182 14.35 9.20996 14.834C9.13105 15.301 9.06793 15.848 8.98903 16.315C8.90716 16.8 8.88546 17.217 8.80951 17.664C8.72173 18.182 8.78782 18.234 8.71779 18.644C8.57477 19.487 8.55504 19.371 8.50869 19.83C8.46233 20.289 8.12008 20.346 7.97213 20.01C7.82418 19.674 7.98101 19.489 7.83799 18.643C7.76895 18.235 7.51547 17.156 7.4336 16.673C7.3547 16.206 7.24817 15.474 7.16927 15.007C7.0874 14.522 7.06669 13.74 6.99075 13.292C6.90296 12.774 6.76882 12.454 6.69978 12.044C6.55677 11.203 6 10 6 10Z" fill="#BBDDF5"/>
<path d="M25 4C25 4 23.3756 3.59905 23.0496 3.49905C22.7626 3.41105 21.8566 3.22305 21.2966 3.11505C20.6716 2.99405 20 3.11505 20 3.11505C20 3.11505 19.9726 3.40205 20.1166 4.02505C20.2326 4.52705 20.5206 5.22305 20.5746 5.58405C20.6336 5.97505 20.6426 6.43905 20.7156 6.93205C20.7796 7.35805 20.8436 7.81205 20.9126 8.27405C20.9796 8.72005 21.0946 9.16805 21.1616 9.61505C21.2316 10.0791 21.2636 10.5401 21.3286 10.9681C21.4026 11.4641 21.3186 11.9461 21.3776 12.3391C21.4986 13.1451 21.7106 14.2711 21.9396 14.2711C22.1686 14.2711 22.3706 13.2521 22.4916 12.4431C22.5506 12.0521 22.4646 11.7481 22.5386 11.2551C22.6026 10.8291 22.6566 10.4051 22.7266 9.94305C22.7936 9.49705 22.8476 9.06105 22.9146 8.61505C22.9846 8.15105 22.9756 7.69905 23.0396 7.27105C23.1136 6.77505 23.4026 6.16405 23.4616 5.77105C23.5806 4.96505 25 4 25 4Z" fill="#BBDDF5"/>
</g>
<defs>
<clipPath id="clip0">
<rect width="36" height="36" fill="#FFFFFF"/>
</clipPath>
</defs>
</svg>
