<svg width="36" height="36" viewBox="0 0 36 36" fill="none" xmlns="http://www.w3.org/2000/svg">
<g clip-path="url(#clip0)">
<path d="M29.1765 11.2581C30.4539 12.6988 31.1358 13.996 32.163 16.6352C33.2904 19.5284 33.2734 22.08 33.1285 22.6805C32.9637 23.363 31.8341 25.7243 30.0843 27.9539C27.4261 31.3407 22.6587 33.5097 20.9952 33.9554C19.3318 34.4011 14.1186 34.9065 10.1231 33.3025C7.49295 32.2464 5.33401 30.7664 4.85005 30.2577C4.42436 29.8101 3.13385 27.6088 2.66357 24.5396C2.23355 21.7404 2.17546 20.276 2.56142 18.3895L8.04095 8.89753C8.04095 8.89753 11.1454 7.17595 13.6406 6.50737C16.1357 5.8388 19.685 5.77751 19.685 5.77751C21.3957 3.52537 26.3393 -0.414999 27.1776 0.471228C29.6657 3.1032 29.1765 11.2581 29.1765 11.2581Z" fill="#FFCC4D"/>
<path d="M17.3177 20.2305C19.8129 19.562 19.9243 19.9779 20.1472 20.8097C20.3701 21.6415 19.5683 23.6394 18.3207 23.9737C17.0731 24.308 15.3798 22.9786 15.1569 22.1468C14.934 21.315 14.8217 20.8993 17.3177 20.2305Z" fill="#E75A70"/>
<path d="M26.9477 2.93997C26.2768 1.9233 22.4796 5.0287 21.8708 6.08337C21.8708 6.08337 26.3986 7.54473 27.899 9.8173C27.899 9.8173 28.448 5.21254 26.9477 2.93997Z" fill="#F18F26"/>
<path d="M3.35309 11.5828C3.03794 10.4066 8.70967 11.3929 8.10084 12.4476C7.492 13.5023 6.79468 14.2267 6.18584 15.2814C5.577 16.336 3.57598 12.4146 3.35309 11.5828ZM25.0876 5.75901C24.7724 4.58283 20.3538 8.27291 21.4084 8.88186C22.463 9.49081 23.4291 9.76953 24.4837 10.3785C25.5383 10.9874 25.3105 6.59082 25.0876 5.75901V5.75901Z" fill="#FFCC4D"/>
<path d="M4.15561 28.6607C4.03252 28.6937 3.8966 28.6722 3.7864 28.5903C3.59581 28.4479 3.5566 28.1785 3.69897 27.9879C3.8054 27.8461 6.34709 24.4967 11.9745 23.448C12.2077 23.4033 12.4327 23.5579 12.4766 23.7913C12.5204 24.0248 12.3745 24.2653 12.1325 24.2936C6.8427 25.2884 4.4133 28.4713 4.38982 28.5035C4.32829 28.5833 4.24544 28.6367 4.15561 28.6607V28.6607ZM10.492 22.8057C10.4512 22.8166 10.4073 22.8222 10.3632 22.8206C6.04558 22.6429 3.0191 24.4791 2.98828 24.4972C2.78593 24.6236 2.52105 24.5599 2.39545 24.3573C2.27068 24.1545 2.33348 23.8898 2.53544 23.7653C2.66774 23.6835 5.82226 21.7729 10.3973 21.9601C10.6354 21.9703 10.8201 22.1704 10.8099 22.4085C10.8025 22.6004 10.6692 22.7582 10.492 22.8057V22.8057ZM32.9315 20.9503C33.0546 20.9173 33.1615 20.8307 33.216 20.7047C33.3098 20.486 33.2091 20.2331 32.9905 20.1392C32.8274 20.0697 28.9516 18.4399 23.5537 20.3454C23.3295 20.4233 23.2118 20.6697 23.2906 20.8937C23.3693 21.1178 23.616 21.2532 23.8397 21.1567C28.9182 19.3733 32.6136 20.9151 32.65 20.9312C32.7432 20.9695 32.8416 20.9744 32.9315 20.9503V20.9503ZM24.5165 19.0479C24.5572 19.0369 24.5981 19.0198 24.6355 18.9964C28.2858 16.6837 31.8249 16.7606 31.8606 16.7608C32.0991 16.7692 32.2966 16.5816 32.3041 16.3433C32.3107 16.1053 32.124 15.9075 31.8868 15.9006C31.7314 15.8959 28.0442 15.8185 24.1756 18.2682C23.9745 18.396 23.9147 18.6617 24.0426 18.8628C24.1441 19.0255 24.3393 19.0953 24.5165 19.0479V19.0479Z" fill="#FEE7B8"/>
<path d="M17.8556 29.5C18.9602 29.5 19.8556 28.3807 19.8556 27C19.8556 25.6193 18.9602 24.5 17.8556 24.5C16.751 24.5 15.8556 25.6193 15.8556 27C15.8556 28.3807 16.751 29.5 17.8556 29.5Z" fill="#292F33"/>
<path d="M6.99881 21.1631C6.81681 21.1631 6.63181 21.1131 6.46681 21.0091C5.99981 20.7151 5.85981 20.0981 6.15381 19.6301C7.06981 18.1771 9.85481 15.6921 13.8438 16.6681C14.3798 16.7991 14.7078 17.3411 14.5768 17.8771C14.4448 18.4131 13.9008 18.7391 13.3678 18.6101C9.76381 17.7281 7.86581 20.6661 7.84681 20.6961C7.65581 20.9981 7.33081 21.1631 6.99881 21.1631V21.1631ZM18.9718 17.4211C18.6818 17.4211 18.3958 17.2961 18.1978 17.0551C17.8478 16.6281 17.9098 15.9971 18.3378 15.6471C21.5138 13.0431 25.0998 14.0851 26.5528 15.0011C27.0198 15.2951 27.1598 15.9131 26.8648 16.3801C26.5718 16.8451 25.9568 16.9871 25.4888 16.6951C25.3508 16.6111 22.4368 14.8721 19.6048 17.1941C19.4188 17.3471 19.1948 17.4211 18.9718 17.4211Z" fill="#292F33"/>
<path d="M13.2026 32.273C13.1346 32.273 13.0656 32.264 12.9976 32.245C12.5996 32.132 12.3676 31.718 12.4806 31.319C12.9176 29.779 12.7386 28.29 11.9906 27.233C11.4936 26.531 10.7856 26.102 10.0476 26.055C9.63356 26.03 9.31956 25.673 9.34556 25.26C9.37156 24.847 9.72656 24.509 10.1406 24.559C11.3336 24.633 12.4536 25.292 13.2136 26.366C14.2246 27.795 14.4836 29.749 13.9226 31.727C13.8296 32.058 13.5286 32.273 13.2026 32.273ZM24.2396 29.212C24.0976 29.212 23.9546 29.172 23.8276 29.088C22.6606 28.318 22.0076 26.971 22.0356 25.393C22.0646 23.758 22.8446 22.24 24.0196 21.524C24.3726 21.308 24.8336 21.42 25.0496 21.775C25.2656 22.129 25.1536 22.589 24.7986 22.805C24.0636 23.253 23.5546 24.304 23.5346 25.419C23.5146 26.474 23.9236 27.355 24.6526 27.836C24.9986 28.064 25.0936 28.529 24.8656 28.875C24.7216 29.094 24.4836 29.212 24.2396 29.212V29.212Z" fill="#E2A62D"/>
<path d="M19.0356 6.08679C18.9926 6.03779 18.9256 6.01079 18.8466 5.99579C18.8466 5.99579 2.92257 2.97279 2.23357 3.58079C1.54557 4.18979 2.59657 20.3648 2.59657 20.3648C2.60157 20.4458 2.61957 20.5148 2.66357 20.5638C3.26757 21.2478 7.42157 18.5598 11.9426 14.5628C16.4646 10.5648 19.6396 6.77079 19.0356 6.08679V6.08679Z" fill="#DD2E44"/>
<path d="M2.20554 3.67109C2.19054 3.70109 2.17754 3.74209 2.16754 3.79409C2.32654 5.16509 3.86254 16.4461 4.81954 19.9721C6.25554 19.1691 7.71454 18.0781 9.42854 16.7191C7.97254 14.0541 3.01454 3.54609 2.20554 3.67109Z" fill="#EA596E"/>
<path d="M29.7586 30.229L19.1856 28.926C18.0556 28.824 16.0686 28.814 16.1706 27.024C16.2636 25.401 18.2106 25.651 19.6496 25.864L30.2876 27.638L29.7586 30.229V30.229Z" fill="#3B88C3"/>
<path d="M30.2866 27.639L26.0646 26.915C25.5706 26.826 25.1306 27.562 25.1086 28.341C25.0836 29.207 25.3356 29.645 25.8346 29.747L29.9786 30.259L30.2866 27.639V27.639Z" fill="#88C9F9"/>
<path d="M34.7746 27.341L32.1526 29.752L27.4656 24.655L30.0876 22.244C31.4486 20.992 33.5866 21.082 34.8386 22.443L34.9736 22.59C36.2246 23.952 36.1356 26.089 34.7746 27.341Z" fill="#3B88C3"/>
<path d="M32.1509 29.7534C33.2771 28.7179 33.1409 26.7376 31.8468 25.3301C30.5527 23.9226 28.5907 23.621 27.4645 24.6564C26.3383 25.6919 26.4745 27.6722 27.7686 29.0797C29.0627 30.4872 31.0248 30.7888 32.1509 29.7534Z" fill="#88C9F9"/>
<path d="M31.2135 28.7338C31.7766 28.2161 31.6037 27.1119 30.8273 26.2674C30.0509 25.423 28.965 25.1582 28.4019 25.6759C27.8389 26.1936 28.0118 27.2979 28.7882 28.1423C29.5646 28.9867 30.6504 29.2515 31.2135 28.7338Z" fill="#226699"/>
<path d="M2.35657 36C3.18499 36 3.85657 35.3284 3.85657 34.5C3.85657 33.6716 3.18499 33 2.35657 33C1.52814 33 0.856567 33.6716 0.856567 34.5C0.856567 35.3284 1.52814 36 2.35657 36Z" fill="#55ACEE"/>
<path d="M28.8566 5C29.9611 5 30.8566 4.10457 30.8566 3C30.8566 1.89543 29.9611 1 28.8566 1C27.752 1 26.8566 1.89543 26.8566 3C26.8566 4.10457 27.752 5 28.8566 5Z" fill="#55ACEE"/>
<path d="M4.72055 30.246L2.38255 24.63L0.268555 30.675L4.72055 30.246ZM25.8566 6L21.8566 7L22.8566 3L25.8566 6Z" fill="#EA596E"/>
<path d="M31.8556 14L35.8566 8.999L32.8566 7L31.8556 14Z" fill="#77B255"/>
</g>
<defs>
<clipPath id="clip0">
<rect width="36" height="36" fill="#FFFFFF"/>
</clipPath>
</defs>
</svg>
