<svg width="36" height="36" viewBox="0 0 36 36" fill="none" xmlns="http://www.w3.org/2000/svg">
<g clip-path="url(#clip0)">
<path d="M35.734 19.929C35.375 16.66 35 15 34 13C34 13 37 4 35 0.300003C34.326 -0.945997 27.596 1.988 25 4C25 4 21 3.002 18 3.002C15 3.002 11 4 11 4C8.404 1.988 1.674 -0.945997 1 0.300003C-1 4 2 13 2 13C1 15 0.625 16.66 0.266 19.929C-0.129 23.513 0.657 26.37 1 27C1.39 27.716 3.367 30.025 6 32C10 35 16 36 18 36C20 36 26 35 30 32C32.633 30.025 34.61 27.716 35 27C35.343 26.37 36.129 23.513 35.734 19.929V19.929Z" fill="#FFCC4D"/>
<path d="M18 19.5C21 19.5 21 20 21 21C21 22 19.5 24 18 24C16.5 24 15 22 15 21C15 20 14.999 19.5 18 19.5Z" fill="#E75A70"/>
<path d="M1.99997 3.00003C2.44697 1.65803 7.63997 4.00003 8.63997 5.00003C8.63997 5.00003 3.99997 8.00003 2.99997 11C2.99997 11 0.999971 6.00003 1.99997 3.00003ZM34 3.00003C33.553 1.65803 28.36 4.00003 27.36 5.00003C27.36 5.00003 32 8.00003 33 11C33 11 35 6.00003 34 3.00003Z" fill="#F18F26"/>
<path d="M4.93402 5.603C4.93402 4.189 11 7 10 8C9.00002 9 8.00002 9.603 7.00002 10.603C6.00002 11.603 4.93402 6.603 4.93402 5.603ZM31.066 5.603C31.066 4.189 25 7 26 8C27 9 28 9.603 29 10.603C30 11.603 31.066 6.603 31.066 5.603V5.603Z" fill="#FFCC4D"/>
<path d="M0.700974 25C0.552974 25 0.406974 24.935 0.307974 24.81C0.136974 24.593 0.173974 24.279 0.390974 24.108C0.552974 23.981 4.41097 20.988 11.039 21.503C11.314 21.523 11.52 21.764 11.499 22.039C11.478 22.314 11.242 22.54 10.962 22.499C4.72897 22.025 1.04697 24.865 1.01097 24.894C0.917974 24.965 0.808974 25 0.700974 25V25ZM9.56897 20.337C9.51997 20.337 9.46897 20.33 9.41997 20.315C4.62997 18.818 0.682974 19.968 0.642974 19.979C0.377974 20.06 0.0999735 19.909 0.0199735 19.644C-0.0590265 19.379 0.0909735 19.101 0.354974 19.022C0.527974 18.97 4.64097 17.775 9.71697 19.36C9.98097 19.443 10.128 19.723 10.045 19.987C9.97897 20.2 9.78197 20.337 9.56897 20.337V20.337ZM35.299 25C35.447 25 35.593 24.935 35.692 24.81C35.863 24.593 35.826 24.279 35.609 24.108C35.447 23.981 31.589 20.988 24.961 21.503C24.686 21.523 24.48 21.764 24.501 22.039C24.522 22.314 24.758 22.54 25.038 22.499C31.271 22.025 34.953 24.865 34.989 24.894C35.082 24.965 35.191 25 35.299 25V25ZM26.431 20.337C26.48 20.337 26.531 20.33 26.58 20.315C31.37 18.818 35.317 19.968 35.357 19.979C35.622 20.06 35.9 19.909 35.98 19.644C36.059 19.379 35.909 19.101 35.645 19.022C35.472 18.97 31.359 17.775 26.283 19.36C26.019 19.443 25.872 19.723 25.955 19.987C26.02 20.2 26.218 20.337 26.431 20.337V20.337Z" fill="#FEE7B8"/>
<path d="M12 17.5C13.1046 17.5 14 15.933 14 14C14 12.067 13.1046 10.5 12 10.5C10.8954 10.5 10 12.067 10 14C10 15.933 10.8954 17.5 12 17.5Z" fill="#292F33"/>
<path d="M24 17.5C25.1046 17.5 26 15.933 26 14C26 12.067 25.1046 10.5 24 10.5C22.8954 10.5 22 12.067 22 14C22 15.933 22.8954 17.5 24 17.5Z" fill="#292F33"/>
<path d="M28.8462 25.3857L23.9362 23.9297C23.9402 23.8787 12.0632 23.8787 12.0682 23.9297L7.15716 25.3857C6.36616 25.6217 5.90716 26.4777 6.13416 27.2977C6.32116 27.9777 6.91816 28.4197 7.56616 28.4197C7.70116 28.4197 7.84016 28.3997 7.97716 28.3607L10.8552 27.5077C10.5332 27.9607 10.4462 28.5727 10.7062 29.1117C10.9672 29.6537 11.4942 29.9667 12.0412 29.9667C12.2642 29.9667 12.4922 29.9137 12.7062 29.8037L15.0562 28.5847C15.1102 29.0897 15.3742 29.6567 15.8442 29.8997C16.0582 30.0097 16.2862 30.0627 16.5092 30.0627C17.0562 30.0627 17.5832 29.6537 17.8442 29.1117L18.0022 28.7857L18.1592 29.1117C18.4202 29.6537 18.9472 30.0627 19.4942 30.0627C19.7182 30.0627 19.9452 30.0097 20.1592 29.8997C20.6292 29.6567 20.8942 29.0887 20.9482 28.5847L23.2982 29.8037C23.5122 29.9137 23.7392 29.9667 23.9632 29.9667C24.5102 29.9667 25.0362 29.6537 25.2982 29.1117C25.5572 28.5727 25.4712 27.9607 25.1502 27.5077L28.0282 28.3607C28.1652 28.3997 28.3022 28.4197 28.4392 28.4197C29.0872 28.4197 29.6842 27.9767 29.8712 27.2977C30.0972 26.4777 29.6382 25.6217 28.8462 25.3857V25.3857Z" fill="#292F33"/>
<path d="M24.0021 23.5957C24.0021 22.6017 22.7481 20.9957 21.2021 20.9957L21.1791 20.9967C20.9791 17.2957 19.4911 11.7957 18.0021 11.7957C16.5391 11.7957 15.0781 17.2727 14.8371 20.9977L14.8021 20.9957C13.2561 20.9957 12.0021 22.6017 12.0021 23.5957C12.0021 24.5257 14.1051 24.9417 15.6861 25.6467C16.1911 26.0847 16.9391 26.1957 18.0021 26.1957C18.9031 26.1957 19.5791 26.0887 20.0711 25.7637C21.6701 24.9847 24.0021 24.5757 24.0021 23.5957Z" fill="#FFAC33"/>
<path d="M21.2021 23.7957C20.9841 23.8347 21.2571 23.3957 21.2571 22.3067C21.2571 21.7957 21.2021 21.3957 21.2021 20.9957C21.6021 20.9957 22.0441 20.9957 22.0441 22.1647C22.0441 22.8277 21.4201 23.7567 21.2021 23.7957ZM14.7591 23.7957C14.9771 23.8347 14.7041 23.3957 14.7041 22.3067C14.7041 21.7957 14.7591 21.3957 14.7591 20.9957C14.3591 20.9957 13.9171 20.9957 13.9171 22.1647C13.9181 22.8277 14.5421 23.7567 14.7591 23.7957Z" fill="#C1694F"/>
<path d="M14.4051 24.3467C13.7831 24.1657 13.2021 24.2657 12.9241 24.5497C13.6451 24.9047 14.6631 25.2097 15.5551 25.5927L15.5571 25.5907C15.6911 25.1287 15.1761 24.5707 14.4051 24.3467V24.3467ZM21.5991 24.3467C20.8281 24.5717 20.3131 25.1287 20.4481 25.5907L20.4521 25.5957C21.3431 25.2127 22.3611 24.9067 23.0821 24.5517C22.8041 24.2657 22.2221 24.1647 21.5991 24.3467Z" fill="#662113"/>
<path d="M34.7201 9.61369C34.5491 9.44769 33.4531 9.88769 32.3441 9.32269C30.0561 8.15669 24.2741 7.03168 20.5101 9.69869C20.1071 9.98369 18.4231 10.0317 17.9521 10.0117C17.4811 10.0327 15.7971 9.98469 15.3941 9.69869C11.6311 7.03168 5.84913 8.15669 3.56113 9.32269C2.45213 9.88769 1.35613 9.44769 1.18513 9.61369C0.938125 9.85269 0.938125 10.8097 1.18613 11.0497C1.43213 11.2887 2.66313 11.5647 2.90813 12.2817C3.15513 12.9997 3.15713 17.2397 5.12113 18.7057C6.96013 20.0777 11.2501 20.4907 13.9691 18.9437C16.3411 17.5947 16.2581 14.7547 16.6931 13.0627C16.8481 12.4597 17.2851 12.1557 17.9531 12.1557C18.6211 12.1557 19.0581 12.4597 19.2131 13.0627C19.6481 14.7537 19.5641 17.5947 21.9371 18.9437C24.6561 20.4897 28.9461 20.0767 30.7841 18.7057C32.7491 17.2407 32.7511 12.9997 32.9971 12.2817C33.2421 11.5647 34.4731 11.2877 34.7191 11.0497C34.9671 10.8097 34.9681 9.85269 34.7201 9.61369V9.61369ZM14.5261 13.2637C14.4491 14.3687 14.2521 16.4907 12.9291 17.2437C12.1181 17.7057 11.0611 17.9867 9.95513 17.9867H9.95413C8.72913 17.9867 7.03113 17.6397 6.36713 17.1447C5.53713 16.5257 5.22113 13.9777 5.10213 13.0247C5.02613 12.4177 4.82213 10.9347 5.49013 10.7067C6.55013 10.3457 8.02913 10.0637 9.54213 10.0637C10.2351 10.0637 12.5631 10.1067 13.6971 10.8047C14.7021 11.4217 14.5691 12.6557 14.5261 13.2637V13.2637ZM30.8041 13.0107C30.6851 13.9647 30.3691 16.5257 29.5391 17.1447C28.8751 17.6397 27.1771 17.9867 25.9521 17.9867H25.9511C24.8441 17.9867 23.7881 17.7057 22.9761 17.2437C21.6531 16.4917 21.4561 14.3827 21.3791 13.2777C21.3371 12.6697 21.2031 11.4267 22.2081 10.8097C23.3431 10.1117 25.6701 10.0637 26.3631 10.0637C27.8761 10.0637 29.3541 10.3407 30.4151 10.7017C31.0831 10.9297 30.8801 12.4037 30.8041 13.0107V13.0107Z" fill="#292F33"/>
<path d="M14.3391 10.1956C14.3391 10.1956 14.2791 6.98159 13.0291 5.96959C11.7131 4.90459 10.6481 6.56459 10.6481 6.56459C10.6481 6.56459 10.3961 4.42159 8.96814 4.60059C7.54014 4.77959 7.59914 6.14859 7.59914 6.14859C7.59914 6.14859 6.77914 4.30359 5.21814 4.95859C3.70014 5.59559 4.45814 6.98259 4.45814 6.98259C4.45814 6.98259 3.31314 6.57259 2.79214 7.39859C2.07714 8.52959 3.79014 9.42259 3.79014 9.42259C3.79014 9.42259 7.36114 8.58959 9.14714 8.64859C10.9331 8.70759 14.3391 10.1956 14.3391 10.1956V10.1956ZM21.6651 10.1956C21.6651 10.1956 21.7251 6.98159 22.9751 5.96959C24.2911 4.90459 25.3561 6.56459 25.3561 6.56459C25.3561 6.56459 25.6081 4.42159 27.0361 4.60059C28.4651 4.77959 28.4051 6.14859 28.4051 6.14859C28.4051 6.14859 29.2251 4.30359 30.7861 4.95859C32.3041 5.59559 31.5461 6.98259 31.5461 6.98259C31.5461 6.98259 32.6911 6.57359 33.2131 7.39959C33.9271 8.53059 32.2151 9.42359 32.2151 9.42359C32.2151 9.42359 28.6441 8.59059 26.8581 8.64959C25.0711 8.70759 21.6651 10.1956 21.6651 10.1956V10.1956Z" fill="#292F33"/>
</g>
<defs>
<clipPath id="clip0">
<rect width="36" height="36" fill="#FFFFFF"/>
</clipPath>
</defs>
</svg>
