<svg width="36" height="36" viewBox="0 0 36 36" fill="none" xmlns="http://www.w3.org/2000/svg">
<g clip-path="url(#clip0)">
<path d="M35.734 19.929C35.375 16.66 35 15 34 13C34 13 37 4 35 0.300003C34.326 -0.945997 27.596 1.988 25 4C25 4 21 3.002 18 3.002C15 3.002 11 4 11 4C8.404 1.988 1.674 -0.945997 1 0.300003C-1 4 2 13 2 13C1 15 0.625 16.66 0.266 19.929C-0.129 23.513 0.657 26.37 1 27C1.39 27.716 3.367 30.025 6 32C10 35 16 36 18 36C20 36 26 35 30 32C32.633 30.025 34.61 27.716 35 27C35.343 26.37 36.129 23.513 35.734 19.929V19.929Z" fill="#FFCC4D"/>
<path d="M18 19.5C21 19.5 21 20 21 21C21 22 19.5 24 18 24C16.5 24 15 22 15 21C15 20 14.999 19.5 18 19.5Z" fill="#E75A70"/>
<path d="M2 3.00003C2.447 1.65803 7.64 4.00003 8.64 5.00003C8.64 5.00003 4 8.00003 3 11C3 11 1 6.00003 2 3.00003ZM34 3.00003C33.553 1.65803 28.36 4.00003 27.36 5.00003C27.36 5.00003 32 8.00003 33 11C33 11 35 6.00003 34 3.00003Z" fill="#F18F26"/>
<path d="M4.934 5.603C4.934 4.189 11 7 10 8C9 9 8 9.603 7 10.603C6 11.603 4.934 6.603 4.934 5.603ZM31.066 5.603C31.066 4.189 25 7 26 8C27 9 28 9.603 29 10.603C30 11.603 31.066 6.603 31.066 5.603V5.603Z" fill="#FFCC4D"/>
<path d="M0.700996 25C0.552996 25 0.406996 24.935 0.307996 24.81C0.136996 24.593 0.173996 24.279 0.390996 24.108C0.552996 23.981 4.411 20.988 11.039 21.503C11.314 21.523 11.52 21.764 11.499 22.039C11.478 22.314 11.242 22.54 10.962 22.499C4.729 22.025 1.047 24.865 1.011 24.894C0.917996 24.965 0.808996 25 0.700996 25V25ZM9.569 20.337C9.52 20.337 9.469 20.33 9.42 20.315C4.63 18.818 0.682996 19.968 0.642996 19.979C0.377996 20.06 0.0999964 19.909 0.0199964 19.644C-0.0590036 19.379 0.0909964 19.101 0.354996 19.022C0.527996 18.97 4.641 17.775 9.717 19.36C9.981 19.443 10.128 19.723 10.045 19.987C9.979 20.2 9.782 20.337 9.569 20.337V20.337ZM35.299 25C35.447 25 35.593 24.935 35.692 24.81C35.863 24.593 35.826 24.279 35.609 24.108C35.447 23.981 31.589 20.988 24.961 21.503C24.686 21.523 24.48 21.764 24.501 22.039C24.522 22.314 24.758 22.54 25.038 22.499C31.271 22.025 34.953 24.865 34.989 24.894C35.082 24.965 35.191 25 35.299 25V25ZM26.431 20.337C26.48 20.337 26.531 20.33 26.58 20.315C31.37 18.818 35.317 19.968 35.357 19.979C35.622 20.06 35.9 19.909 35.98 19.644C36.059 19.379 35.909 19.101 35.645 19.022C35.472 18.97 31.359 17.775 26.283 19.36C26.019 19.443 25.872 19.723 25.955 19.987C26.02 20.2 26.218 20.337 26.431 20.337V20.337Z" fill="#FEE7B8"/>
<path d="M12.3235 20.1215C13.7854 20.1215 14.9705 18.4623 14.9705 16.4155C14.9705 14.3688 13.7854 12.7095 12.3235 12.7095C10.8616 12.7095 9.6765 14.3688 9.6765 16.4155C9.6765 18.4623 10.8616 20.1215 12.3235 20.1215Z" fill="#292F33"/>
<path d="M25.0295 22.8815C28.8303 22.8815 31.9115 19.8003 31.9115 15.9995C31.9115 12.1987 28.8303 9.11749 25.0295 9.11749C21.2287 9.11749 18.1475 12.1987 18.1475 15.9995C18.1475 19.8003 21.2287 22.8815 25.0295 22.8815Z" fill="#F4F7F9"/>
<path d="M14.9725 11.6515C14.6505 11.6515 14.3325 11.5055 14.1245 11.2285C13.1335 9.90748 12.0965 9.19948 11.0415 9.12448C9.6515 9.02948 8.5185 10.0715 8.3075 10.2825C7.8935 10.6965 7.2235 10.6965 6.8105 10.2825C6.3965 9.86848 6.3965 9.19848 6.8105 8.78548C7.2675 8.32848 8.9395 6.84948 11.1915 7.01248C12.8865 7.13248 14.4425 8.12348 15.8185 9.95748C16.1695 10.4255 16.0745 11.0895 15.6075 11.4395C15.4155 11.5825 15.1925 11.6515 14.9725 11.6515Z" fill="#292F33"/>
<path d="M32.9715 37.7055C32.3865 37.7055 31.9125 37.2315 31.9125 36.6465V16.5295C31.9125 15.9445 32.3865 15.4705 32.9715 15.4705C33.5565 15.4705 34.0305 15.9445 34.0305 16.5295V36.6475C34.0295 37.2315 33.5565 37.7055 32.9715 37.7055Z" fill="#292F33"/>
<path d="M32.9715 14.4115C32.9175 14.4115 32.8665 14.4235 32.8135 14.4275C32.0815 10.7995 28.8705 8.05853 25.0295 8.05853C20.6505 8.05853 17.0885 11.6205 17.0885 15.9995C17.0885 20.3785 20.6505 23.9405 25.0295 23.9405C28.4975 23.9405 31.4455 21.7025 32.5255 18.5975C32.6695 18.6285 32.8175 18.6465 32.9705 18.6465C34.1405 18.6465 35.0885 17.6985 35.0885 16.5285C35.0885 15.3595 34.1405 14.4115 32.9715 14.4115V14.4115ZM25.0295 21.8235C21.8185 21.8235 19.2065 19.2115 19.2065 15.9995C19.2065 12.7875 21.8195 10.1755 25.0295 10.1755C28.2405 10.1755 30.8535 12.7875 30.8535 15.9995C30.8535 19.2115 28.2405 21.8235 25.0295 21.8235Z" fill="#67757F"/>
<path d="M21.3225 30.2935C21.1635 30.2935 21.0015 30.2575 20.8495 30.1815C19.0305 29.2715 17.2625 29.2715 15.4435 30.1815C14.9195 30.4425 14.2835 30.2315 14.0225 29.7075C13.7605 29.1845 13.9725 28.5485 14.4965 28.2865C16.9175 27.0765 19.3735 27.0765 21.7965 28.2865C22.3195 28.5485 22.5315 29.1845 22.2705 29.7075C22.0855 30.0795 21.7115 30.2935 21.3225 30.2935V30.2935Z" fill="#292F33"/>
<path d="M28.1965 11.1165C27.2845 10.5235 26.1985 10.1765 25.0295 10.1765C21.8135 10.1765 19.2055 12.7835 19.2055 16.0005C19.2055 17.1695 19.5535 18.2555 20.1455 19.1675L28.1965 11.1165ZM22.5445 21.2605C23.2995 21.6175 24.1395 21.8235 25.0295 21.8235C28.2455 21.8235 30.8535 19.2165 30.8535 15.9995C30.8535 15.1095 30.6475 14.2685 30.2905 13.5145L22.5445 21.2605Z" fill="#BDDDF4"/>
</g>
<defs>
<clipPath id="clip0">
<rect width="36" height="36" fill="#FFFFFF"/>
</clipPath>
</defs>
</svg>
